<?xml version="1.0" standalone="no"?>
<!DOCTYPE svg PUBLIC "-//W3C//DTD SVG 1.1//EN" "http://www.w3.org/Graphics/SVG/1.1/DTD/svg11.dtd" >
<svg xmlns="http://www.w3.org/2000/svg">
<metadata></metadata>
<defs>
<font id="fira_monoregular" horiz-adv-x="600" >
<font-face units-per-em="1000" ascent="785" descent="-215" />
<missing-glyph horiz-adv-x="500" />
<glyph unicode="&#xd;" />
<glyph unicode=" " />
<glyph unicode="!" d="M336 227h-75l-10 461h93zM299 122q28 0 47.5 -19.5t19.5 -46.5q0 -28 -19 -47.5t-48 -19.5q-28 0 -47 19t-19 48q0 27 19 46.5t47 19.5z" />
<glyph unicode="&#x22;" d="M164 739h105l-16 -260h-73zM331 739h105l-16 -260h-73z" />
<glyph unicode="#" d="M428 234h82v-64h-91l-21 -170h-71l22 170h-146l-22 -170h-71l23 170h-80v64h88l30 222h-81v65h90l22 167h71l-24 -167h148l22 167h71l-24 -167h81v-65h-89zM358 234l30 222h-147l-29 -222h146z" />
<glyph unicode="$" d="M346 848v-150q106 -11 183 -80l-51 -53q-56 53 -132 64v-229q41 -13 72.5 -29.5t59.5 -41.5t43.5 -60.5t15.5 -79.5q0 -75 -49.5 -129.5t-141.5 -66.5v-146h-68v143q-121 8 -209 94l50 55q71 -72 159 -79v278q-90 30 -136.5 76t-46.5 114q0 64 47.5 112.5t135.5 57.5v150 h68zM278 422v205q-94 -17 -94 -98q0 -36 20.5 -60.5t73.5 -46.5zM346 315v-251q101 21 101 124q0 44 -22.5 74t-78.5 53z" />
<glyph unicode="%" d="M559 672l-475 -692l-52 35l474 692zM166 700q68 0 107.5 -46.5t39.5 -114.5q0 -67 -39.5 -114t-107.5 -47q-67 0 -107 47t-40 114q0 68 40 114.5t107 46.5zM166 640q-31 0 -50.5 -25.5t-19.5 -75.5q0 -48 19.5 -75.5t50.5 -27.5q32 0 51 26t19 77q0 101 -70 101zM436 316 q67 0 106.5 -46.5t39.5 -113.5t-39.5 -114.5t-106.5 -47.5q-68 0 -108 47.5t-40 114.5t40 113.5t108 46.5zM436 256q-32 0 -51.5 -25t-19.5 -75q0 -48 20 -75.5t51 -27.5q32 0 50.5 25.5t18.5 77.5q0 100 -69 100z" />
<glyph unicode="&#x26;" d="M279 699q98 0 167 -75l-50 -45q-53 57 -118 57q-52 0 -79 -27.5t-27 -74.5q0 -46 36 -80.5t87 -34.5h278v-65h-89v-273q-73 -92 -208 -92q-109 0 -165.5 60.5t-56.5 145.5q0 77 40.5 126.5t116.5 65.5v3q-121 28 -121 144q0 69 52 117t137 48zM408 354h-125 q-72 0 -110 -47.5t-38 -108.5q0 -60 36 -101t108 -41q87 0 129 53v245z" />
<glyph unicode="'" d="M248 739h104l-15 -260h-74z" />
<glyph unicode="(" d="M252 350q0 -63 10 -119.5t24 -96.5t41.5 -86t49 -75t59.5 -77l-53 -36q-97 117 -132 173q-86 142 -86 317q0 82 15.5 150.5t50 129.5t62 98t79.5 99q4 4 6.5 7t4.5 6l53 -36q-48 -61 -73.5 -97.5t-55.5 -93.5t-42.5 -120.5t-12.5 -142.5z" />
<glyph unicode=")" d="M348 350q0 79 -12.5 142.5t-42.5 120.5t-55.5 93.5t-73.5 97.5l53 36q97 -117 132 -173q86 -141 86 -317q0 -82 -15.5 -150.5t-50 -129.5t-62 -98t-79.5 -99q-4 -4 -6.5 -7t-4.5 -6l-53 36q38 48 59.5 77t49 75t41.5 86t24 96.5t10 119.5z" />
<glyph unicode="*" d="M327 583l142 59l25 -79l-148 -33l105 -110l-68 -52l-82 131l-76 -133l-71 47l102 117l-150 33l26 79l140 -59l-14 154h84z" />
<glyph unicode="+" d="M338 346h146v-70h-146v-148h-78v148h-144v70h144v149h78v-149z" />
<glyph unicode="," d="M300 164q34 0 57.5 -23.5t23.5 -56.5q0 -37 -20 -77l-81 -186h-75l48 197q-33 25 -33 66q0 33 23 56.5t57 23.5z" />
<glyph unicode="-" d="M125 349h350v-72h-350v72z" />
<glyph unicode="." d="M212 77q0 36 25 61.5t62 25.5q38 0 63 -25.5t25 -61.5q0 -38 -25 -63t-63 -25q-37 0 -62 25t-25 63z" />
<glyph unicode="/" d="M53 -73l428 882l66 -32l-427 -880z" />
<glyph unicode="0" d="M300 700q110 0 167.5 -91.5t57.5 -263.5q0 -173 -57.5 -264.5t-167.5 -91.5t-167.5 91.5t-57.5 264.5q0 172 57.5 263.5t167.5 91.5zM300 632q-138 0 -138 -287q0 -289 138 -289t138 289q0 287 -138 287zM300 410q28 0 47 -19t19 -46q0 -28 -19 -47t-47 -19t-46.5 19 t-18.5 47q0 27 18.5 46t46.5 19z" />
<glyph unicode="1" d="M517 68v-68h-397v68h170v530l-158 -95l-36 59l204 126h73v-620h144z" />
<glyph unicode="2" d="M269 700q95 0 151 -54t56 -139q0 -92 -66.5 -184t-241.5 -252h324l-10 -71h-409v68q196 188 256 270.5t60 166.5q0 58 -32.5 91.5t-90.5 33.5q-49 0 -82 -16.5t-67 -56.5l-58 44q82 99 210 99z" />
<glyph unicode="3" d="M269 700q94 0 152.5 -50t58.5 -123q0 -60 -39 -104.5t-96 -55.5q66 -5 111.5 -49t45.5 -120q0 -90 -67 -149.5t-172 -59.5q-137 0 -211 91l56 46q58 -69 153 -69q72 0 113 38t41 103q0 131 -143 131h-58l10 66h41q54 0 92.5 31t38.5 90q0 55 -37 86t-94 31 q-78 0 -146 -64l-45 51q83 80 195 80z" />
<glyph unicode="4" d="M528 168h-89v-168h-81v168h-286v60l203 472l69 -30l-184 -436h199l7 196h73v-196h89v-66z" />
<glyph unicode="5" d="M474 622h-272v-218q55 30 119 30q86 0 137 -57t51 -159q0 -104 -63 -166.5t-169 -62.5q-115 0 -199 82l51 50q63 -64 149 -64q69 0 106.5 41.5t37.5 121.5q0 148 -124 148q-47 0 -108 -23h-67v343h364z" />
<glyph unicode="6" d="M329 448q85 0 140 -55.5t55 -160.5q0 -111 -62 -177t-154 -66q-228 0 -228 336q0 173 67.5 274t187.5 101q75 0 136 -41l-32 -56q-49 29 -105 29q-79 0 -124 -74.5t-47 -202.5q62 93 166 93zM308 56q64 0 97.5 45.5t33.5 127.5q0 151 -122 151q-96 0 -153 -98 q2 -118 36 -172t108 -54z" />
<glyph unicode="7" d="M153 14l268 605h-323v69h407v-63l-275 -634z" />
<glyph unicode="8" d="M506 525q0 -49 -29.5 -86t-89.5 -70q69 -29 108 -76t39 -108q0 -86 -64.5 -141t-171.5 -55t-169.5 55t-62.5 139q0 116 138 180q-56 26 -83 63.5t-27 93.5q0 59 33.5 101.5t79 60.5t93.5 18q83 0 144.5 -45t61.5 -130zM176 519q0 -29 9 -49t33 -35t45 -23t65 -22 q51 29 73.5 57.5t22.5 73.5q0 53 -32.5 83.5t-91.5 30.5t-91.5 -30.5t-32.5 -85.5zM447 183q0 23 -5 41t-20 33t-26 24.5t-39 21.5t-43 17.5t-53 18.5q-108 -49 -108 -156q0 -60 37 -93.5t108 -33.5q70 0 109.5 35.5t39.5 91.5z" />
<glyph unicode="9" d="M289 699q112 0 168 -70t56 -196q0 -88 -14 -153.5t-40 -112.5t-72.5 -82t-102 -59t-137.5 -47l-19 63q147 40 222 108t76 188q-24 -37 -66 -60.5t-96 -24.5q-87 -2 -142 58t-55 161q0 107 63 167t159 60zM279 319q88 1 149 95q1 119 -32 168t-107 49q-136 0 -136 -162 q0 -77 32.5 -114t93.5 -36z" />
<glyph unicode=":" d="M219 431q0 33 23 56.5t57 23.5t57.5 -23.5t23.5 -56.5q0 -34 -23.5 -58t-57.5 -24t-57 24t-23 58zM219 70q0 33 23 56.5t57 23.5t57.5 -23.5t23.5 -56.5q0 -34 -23 -57.5t-58 -23.5q-34 0 -57 23t-23 58z" />
<glyph unicode=";" d="M299 511q34 0 57.5 -23.5t23.5 -56.5q0 -34 -23.5 -58t-57.5 -24t-57 24t-23 58q0 33 23 56.5t57 23.5zM299 165q34 0 57.5 -23.5t23.5 -56.5q0 -36 -19 -78l-82 -187h-76l48 198q-32 24 -32 67q0 33 23 56.5t57 23.5z" />
<glyph unicode="&#x3c;" d="M513 530l-354 -217l354 -219l-45 -61l-380 238v85l384 238z" />
<glyph unicode="=" d="M494 370h-388v72h388v-72zM494 180h-388v72h388v-72z" />
<glyph unicode="&#x3e;" d="M513 356v-85l-380 -238l-45 62l354 218l-354 218l41 63z" />
<glyph unicode="?" d="M299 700q88 0 142.5 -46.5t54.5 -108.5q0 -37 -13.5 -66t-33.5 -45.5t-43 -35t-43 -34t-33.5 -42.5t-13.5 -61v-34h-84v39q0 45 18.5 79t44.5 55.5t52 40.5t44.5 43.5t18.5 55.5q0 42 -33 66t-86 24q-82 0 -142 -73l-59 44q84 99 209 99zM277 122q28 0 47.5 -19.5 t19.5 -46.5q0 -28 -19 -47.5t-48 -19.5q-28 0 -47 19t-19 48q0 27 19 46.5t47 19.5z" />
<glyph unicode="@" d="M284 700q75 0 130.5 -24.5t87.5 -62.5t51 -95t25.5 -111.5t6.5 -121.5q0 -201 -30 -288.5t-116 -87.5q-57 0 -88 48.5t-30 94.5h-4q-40 -98 -137 -98q-77 0 -113.5 62t-36.5 168q0 128 50.5 192.5t145.5 64.5q71 0 140 -37v-295q0 -75 19 -103.5t52 -28.5q23 0 36.5 20.5 t19 72t6.5 91.5t1 123q0 62 -4.5 109t-18.5 93t-37 75.5t-62 47.5t-93 18q-123 0 -227 -92l-49 55q127 110 275 110zM230 380q-67 0 -93.5 -47.5t-26.5 -148.5q0 -167 80 -167q25 0 43.5 8.5t31 26t17.5 26.5t12 27v260q-29 15 -64 15z" />
<glyph unicode="A" d="M161 176l-56 -176h-84l224 688h110l224 -688h-90l-55 176h-273zM412 247l-114 369l-115 -369h229z" />
<glyph unicode="B" d="M539 196q0 -54 -22 -93.5t-60 -61t-81.5 -31.5t-94.5 -10h-184v688h169q48 0 89 -8.5t77 -27t56.5 -53.5t20.5 -84q0 -62 -36.5 -100t-91.5 -50q158 -27 158 -169zM421 510q0 109 -135 109h-104v-224h112q127 0 127 115zM449 193q0 131 -148 131h-119v-253h115 q152 0 152 122z" />
<glyph unicode="C" d="M358 700q115 0 199 -67l-48 -56q-62 51 -145 51q-94 0 -152.5 -67.5t-58.5 -215.5q0 -146 57.5 -214.5t152.5 -68.5q88 0 160 58l44 -57q-76 -74 -205 -74q-131 0 -214.5 93.5t-83.5 262.5q0 167 84.5 261t209.5 94z" />
<glyph unicode="D" d="M552 348q0 -83 -19 -146.5t-49 -101t-72.5 -61t-83 -31.5t-87.5 -8h-157v688h146q53 0 96 -7.5t86.5 -30t73 -59t48 -98.5t18.5 -145zM461 348q0 85 -18.5 142.5t-52 83.5t-65.5 35t-74 9h-82v-549h83q41 0 75 12t66 41t50 86.5t18 139.5z" />
<glyph unicode="E" d="M212 385h255v-71h-255v-245h313v-69h-399v688h390l-10 -70h-294v-233z" />
<glyph unicode="F" d="M224 376h270v-69h-270v-307h-85v688h405l-11 -70h-309v-242z" />
<glyph unicode="G" d="M314 -11q-125 0 -196.5 90.5t-71.5 265.5q0 169 84.5 262t203.5 93q64 0 108.5 -18.5t87.5 -57.5l-52 -54q-61 57 -144 57q-85 0 -141 -67.5t-56 -214.5q0 -148 46 -216t138 -68q72 0 132 33v211h-136l-10 71h231v-328q-111 -59 -224 -59z" />
<glyph unicode="H" d="M431 328h-262v-328h-85v688h85v-291h262v291h85v-688h-85v328z" />
<glyph unicode="I" d="M497 620h-154v-551h154v-69h-394v69h154v551h-154v68h394v-68z" />
<glyph unicode="J" d="M496 688v-460q0 -46 -11.5 -86t-37 -76t-73 -57t-112.5 -21q-106 0 -189 63l38 57q76 -48 150 -48q71 0 110.5 46t39.5 127v385h-204v70h289z" />
<glyph unicode="K" d="M106 0v688h85v-688h-85zM468 688h99l-270 -315l289 -373h-107l-283 368z" />
<glyph unicode="L" d="M136 688h86v-611h314l-10 -77h-390v688z" />
<glyph unicode="M" d="M569 0h-82l-22 361q-6 114 -6 229h-2l-114 -466h-87l-118 466h-4q0 -143 -4 -229l-19 -361h-80l39 688h120l112 -471l107 471h121z" />
<glyph unicode="N" d="M156 589h-4q12 -156 12 -243v-346h-80v688h116l244 -592h4q-12 144 -12 247v345h80v-688h-120z" />
<glyph unicode="O" d="M553 344q0 -161 -65.5 -258t-187.5 -97q-123 0 -188 95t-65 258q0 162 65.5 260t187.5 98t187.5 -96.5t65.5 -259.5zM464 344q0 141 -39 212t-125 71t-125 -71.5t-39 -213.5q0 -281 164 -281q85 0 124.5 71t39.5 212z" />
<glyph unicode="P" d="M557 477q0 -115 -71 -168t-195 -53h-89v-256h-85v688h174q126 0 196 -53t70 -158zM465 476q0 144 -163 144h-100v-295h97q79 0 122.5 34t43.5 117z" />
<glyph unicode="Q" d="M553 344q0 -237 -137 -318q69 -14 110 -51.5t66 -111.5l-91 -36q-34 85 -80 124.5t-131 39.5q-117 0 -180.5 94.5t-63.5 256.5t65.5 260t188.5 98q122 0 187.5 -96.5t65.5 -259.5zM464 344q0 284 -164 284q-165 0 -165 -286q0 -281 165 -281q85 0 124.5 71t39.5 212z" />
<glyph unicode="R" d="M537 496q0 -75 -46.5 -123.5t-122.5 -66.5l205 -306h-103l-188 296h-94v-296h-86v688h176q259 0 259 -192zM445 496q0 65 -38 94.5t-119 29.5h-100v-257h101q156 0 156 133z" />
<glyph unicode="S" d="M536 191q0 -91 -66.5 -146.5t-184.5 -55.5q-151 0 -241 87l51 58q78 -73 192 -73q67 0 113.5 33t46.5 95q0 51 -31.5 80t-119.5 55q-112 33 -167 77.5t-55 121.5q0 78 62 127.5t161 49.5q127 0 219 -79l-51 -56q-70 63 -166 63q-60 0 -99 -26.5t-39 -76.5q0 -44 37.5 -71 t136.5 -56q96 -28 148.5 -73t52.5 -134z" />
<glyph unicode="T" d="M341 0h-85v615h-216v73h519l-9 -73h-209v-615z" />
<glyph unicode="U" d="M527 688v-465q0 -105 -62 -169.5t-166 -64.5q-105 0 -165.5 64t-60.5 170v465h85v-469q0 -78 36.5 -117t104.5 -39q69 0 105.5 39t36.5 117v469h86z" />
<glyph unicode="V" d="M489 688h86l-231 -688h-88l-231 688h92l185 -590z" />
<glyph unicode="W" d="M490 0h-113l-77 505h-4l-78 -505h-116l-97 688h86l71 -585h4l82 505h106l76 -501h4l82 581h79z" />
<glyph unicode="X" d="M148 688l152 -265l152 265h93l-196 -316l220 -372h-99l-172 312l-175 -312h-92l217 367l-198 321h98z" />
<glyph unicode="Y" d="M343 0h-86v265l-233 423h95l183 -345l185 345h89l-233 -422v-266z" />
<glyph unicode="Z" d="M527 74l-10 -74h-445v70l364 545h-328v73h420v-70l-362 -544h361z" />
<glyph unicode="[" d="M184 815h230v-71h-151v-789h151v-70h-230v930z" />
<glyph unicode="\" d="M119 809l428 -882l-67 -30l-427 880z" />
<glyph unicode="]" d="M416 -115h-230v70h151v789h-151v71h230v-930z" />
<glyph unicode="^" d="M526 527h-91l-136 238l-136 -238h-89l189 312h74z" />
<glyph unicode="_" d="M-7 -109h614v-72h-614v72z" />
<glyph unicode="`" d="M185 715l44 72l185 -117l-27 -46z" />
<glyph unicode="a" d="M477 368v-254q0 -30 10 -45t33 -22l-20 -59q-75 10 -96 75q-57 -74 -165 -74q-79 0 -124.5 44t-45.5 118q0 81 63.5 125t183.5 44h77v44q0 104 -125 104q-63 0 -137 -26l-22 62q91 34 171 34q96 0 146.5 -45t50.5 -125zM260 52q39 0 74.5 19.5t58.5 55.5v136h-76 q-159 0 -159 -111q0 -100 102 -100z" />
<glyph unicode="b" d="M184 749v-291q60 80 150 80q198 0 198 -274q0 -124 -55 -199.5t-154 -75.5q-93 0 -143 66l-6 -55h-73v739zM304 56q137 0 137 208q0 207 -125 207q-75 0 -132 -85v-262q45 -68 120 -68z" />
<glyph unicode="c" d="M338 60q75 0 138 50l40 -58q-34 -29 -82.5 -46t-95.5 -17q-116 0 -181 73.5t-65 198.5q0 122 66 199.5t181 77.5q100 0 176 -62l-42 -57q-65 49 -135 49q-71 0 -113.5 -53t-42.5 -154t42.5 -151t113.5 -50z" />
<glyph unicode="d" d="M499 739v-739h-73l-8 69q-57 -80 -149 -80q-100 0 -150.5 73t-50.5 200q0 122 55.5 199t151.5 77q87 0 141 -63v274zM296 471q-137 0 -137 -208q0 -207 127 -207q76 0 130 83v264q-45 68 -120 68z" />
<glyph unicode="e" d="M520 234h-354q3 -88 46 -132t108 -44q80 0 141 49l39 -57q-79 -61 -180 -61q-114 0 -177.5 74.5t-63.5 199.5q0 120 62.5 197.5t163.5 77.5q102 0 159.5 -69.5t57.5 -189.5q0 -23 -2 -45zM306 469q-59 0 -97 -43.5t-43 -127.5h276q-1 84 -37 127.5t-99 43.5z" />
<glyph unicode="f" d="M411 749q75 0 143 -29l-27 -62q-49 23 -113 23q-111 0 -111 -88v-107h179l-9 -66h-170v-420h-83v420h-126v66h126v105q0 71 54 114.5t137 43.5z" />
<glyph unicode="g" d="M528 582l26 -79q-52 -15 -154 -15q92 -42 92 -132q0 -80 -53 -130t-145 -50q-44 0 -79 11q-27 -20 -27 -52q0 -44 70 -44h95q79 0 132.5 -41t53.5 -102q0 -77 -65.5 -118.5t-185.5 -41.5q-123 0 -172.5 38t-49.5 121h75q0 -49 30.5 -70t115.5 -21q168 0 168 87 q0 36 -33.5 56t-85.5 20h-94q-65 0 -99 28.5t-34 70.5q0 54 58 92q-88 45 -88 145q0 81 58.5 132t151.5 51q91 0 138 10t101 34zM288 477q-61 0 -92.5 -33t-31.5 -89t32 -89.5t94 -33.5q56 0 85.5 32.5t29.5 91.5q0 121 -117 121z" />
<glyph unicode="h" d="M184 747v-293q30 40 75 62t93 22q148 0 148 -156v-382h-83v381q0 47 -22 69t-69 22q-42 0 -80.5 -26.5t-61.5 -61.5v-384h-83v737z" />
<glyph unicode="i" d="M300 773q27 0 44 -17t17 -42q0 -26 -17 -42.5t-44 -16.5t-43.5 16.5t-16.5 42.5q0 25 16.5 42t43.5 17zM367 66h148v-66h-394v66h163v395h-158v65h241v-460z" />
<glyph unicode="j" d="M367 773q27 0 44 -17t17 -42q0 -26 -17 -42.5t-44 -16.5t-43.5 16.5t-16.5 42.5q0 25 16.5 42t43.5 17zM445 526v-443q0 -127 -85 -197t-250 -98l-14 64q127 21 196.5 73.5t69.5 152.5v383h-220v65h303z" />
<glyph unicode="k" d="M189 0h-83v739l83 10v-749zM303 289l266 -289h-110l-260 288l234 238h108z" />
<glyph unicode="l" d="M305 739v-610q0 -71 87 -71q42 0 89 18l22 -60q-50 -27 -125 -27q-70 0 -113 39t-43 106v539h-162v66h245z" />
<glyph unicode="m" d="M447 538q102 0 102 -146v-392h-77v378q0 55 -7 75t-34 20q-51 0 -92 -64v-409h-78v378q0 55 -7 75t-34 20q-51 0 -92 -64v-409h-77v526h65l5 -61q52 73 115 73q74 0 95 -70q50 70 116 70z" />
<glyph unicode="n" d="M101 526h71l6 -73q32 40 79 62.5t95 22.5q148 0 148 -156v-382h-83v320q0 87 -16.5 119.5t-73.5 32.5q-43 0 -81.5 -26t-61.5 -62v-384h-83v526z" />
<glyph unicode="o" d="M301 538q109 0 167 -73.5t58 -200.5q0 -124 -59 -199.5t-167 -75.5q-109 0 -167.5 73.5t-58.5 200.5q0 125 59.5 200t167.5 75zM301 470q-138 0 -138 -207q0 -206 137 -206t137 207q0 206 -136 206z" />
<glyph unicode="p" d="M336 538q190 0 190 -274q0 -125 -52 -200t-151 -75q-87 0 -139 60v-251l-83 -10v738h70l7 -73q61 85 158 85zM316 471q-75 0 -132 -85v-262q43 -66 121 -66q132 0 132 206q0 207 -121 207z" />
<glyph unicode="q" d="M274 538q92 0 147 -69l7 57h71v-738l-83 10v269q-56 -78 -148 -78q-194 0 -194 273q0 123 52.5 199.5t147.5 76.5zM295 471q-132 0 -132 -208q0 -205 122 -205q78 0 131 81v264q-44 68 -121 68z" />
<glyph unicode="r" d="M94 0v66h123v395h-123v65h195l10 -101q23 55 63 84t89 29q36 0 69 -8l-15 -82q-34 9 -61 9q-51 0 -90.5 -42t-53.5 -100v-249h148v-66h-354z" />
<glyph unicode="s" d="M280 57q60 0 95.5 23t35.5 61q0 39 -24 60.5t-103 41.5q-92 23 -136 55t-44 96q0 66 55 105t144 39q112 0 191 -59l-37 -56q-68 47 -152 47q-115 0 -115 -69q0 -35 28 -52.5t112 -40.5q86 -23 128.5 -58.5t42.5 -104.5q0 -53 -33 -89.5t-81 -51.5t-108 -15 q-123 0 -205 71l47 54q69 -57 159 -57z" />
<glyph unicode="t" d="M486 83l32 -57q-58 -37 -141 -37t-129.5 43.5t-46.5 114.5v315h-121v64h121v120l83 10v-130h182l-10 -64h-172v-314q0 -45 24 -67.5t77 -22.5t101 25z" />
<glyph unicode="u" d="M184 526v-373q0 -51 21.5 -74.5t67.5 -23.5q42 0 81.5 24.5t61.5 59.5v387h83v-526h-71l-7 71q-30 -39 -75.5 -60.5t-92.5 -21.5q-75 0 -113.5 40t-38.5 114v383h83z" />
<glyph unicode="v" d="M347 0h-96l-190 526h88l153 -450l151 450h86z" />
<glyph unicode="w" d="M372 0l-68 378h-4l-71 -378h-115l-96 526h85l68 -462h4l80 395h99l75 -393h4l68 460h81l-92 -526h-118z" />
<glyph unicode="x" d="M56 0l195 278l-171 248h98l123 -196l124 196h95l-170 -244l194 -282h-102l-145 226l-146 -226h-95z" />
<glyph unicode="y" d="M538 526l-185 -529q-32 -91 -85 -145t-149 -64l-13 67q77 13 111 45.5t57 99.5h-28l-184 526h89l152 -463l149 463h86z" />
<glyph unicode="z" d="M498 71l-11 -71h-384v63l292 391h-269v72h369v-64l-291 -391h294z" />
<glyph unicode="{" d="M451 835v-65q-124 0 -124 -80v-206q0 -114 -107 -134q55 -10 81 -40.5t26 -93.5v-206q0 -80 124 -80v-65q-94 0 -148 34.5t-54 120.5v191q0 106 -101 106v66q101 0 101 105v192q0 155 202 155z" />
<glyph unicode="|" d="M337 -102h-75v909h75v-909z" />
<glyph unicode="}" d="M149 770v65q202 0 202 -155v-192q0 -105 101 -105v-66q-101 0 -101 -106v-191q0 -86 -54 -120.5t-148 -34.5v65q124 0 124 80v206q0 64 26 94t82 39q-54 11 -81 42.5t-27 92.5v206q0 80 -124 80z" />
<glyph unicode="~" d="M205 400q34 0 64 -15.5t47.5 -34.5t39.5 -34.5t42 -15.5q52 0 99 85l59 -31q-13 -26 -25.5 -44.5t-32 -39t-46 -31.5t-57.5 -11q-40 0 -74.5 25t-63.5 50t-55 25q-53 0 -99 -85l-59 30q18 36 35 60t51 45.5t75 21.5z" />
<glyph unicode="&#xa0;" />
<glyph unicode="&#xa1;" d="M299 498q28 0 47.5 -19.5t19.5 -47.5q0 -27 -19.5 -46.5t-47.5 -19.5t-47 19.5t-19 46.5q0 29 19 48t47 19zM347 -197h-96l12 458h72z" />
<glyph unicode="&#xa2;" d="M373 683v-150q68 -8 121 -51l-42 -55q-56 41 -116 41q-67 0 -103.5 -52.5t-36.5 -154.5q0 -201 140 -201q60 0 117 45l41 -59q-52 -44 -121 -52v-147h-75v147q-93 12 -142.5 82t-49.5 185q0 111 49.5 184.5t143.5 86.5v151h74z" />
<glyph unicode="&#xa3;" d="M346 700q117 0 179 -86l-56 -43q-49 59 -120 59q-109 0 -109 -122v-121h207v-58h-207v-125q0 -98 -62 -133h339l-10 -71h-432v67q54 18 68 47.5t14 85.5v129h-82v58h82v129q0 81 51 132.5t138 51.5z" />
<glyph unicode="&#xa4;" d="M88 610l89 -90q53 33 124 33q73 0 122 -33l89 89l54 -54l-87 -88q36 -54 36 -125q0 -70 -37 -127l88 -87l-54 -54l-91 88q-50 -32 -120 -32q-72 0 -124 32l-89 -89l-54 54l89 89q-35 54 -35 126q0 71 34 124l-88 90zM301 486q-62 0 -95.5 -38t-33.5 -106t33.5 -106 t95.5 -38t95 38t33 106t-33 106t-95 38z" />
<glyph unicode="&#xa5;" d="M366 345h120v-58h-142v-86h142v-58h-142v-143h-88v143h-140v58h140v86h-140v58h117l-193 343h94l167 -316h4l167 316h88z" />
<glyph unicode="&#xa6;" d="M337 452h-75v355h75v-355zM337 -102h-75v355h75v-355z" />
<glyph unicode="&#xa7;" d="M317 700q93 0 167 -54l-40 -57q-64 43 -133 43q-43 0 -69.5 -19.5t-26.5 -51.5q0 -34 24 -53.5t100 -45.5q83 -28 118 -61.5t35 -90.5q0 -77 -80 -126q60 -45 60 -108q0 -67 -53.5 -106t-139.5 -39q-99 0 -171 55l40 56q61 -43 136 -43q44 0 72 19.5t28 51.5q0 34 -24 53 t-99 44q-84 29 -119.5 62.5t-35.5 91.5q0 74 81 124q-59 45 -59 109q0 66 54.5 106t134.5 40zM239 417q-49 -40 -49 -86q0 -41 28 -59t144 -60q48 42 48 87q0 39 -28.5 57t-142.5 61z" />
<glyph unicode="&#xa8;" d="M196 648q-23 0 -38.5 15t-15.5 38t15.5 38.5t38.5 15.5t38.5 -15.5t15.5 -38.5q0 -22 -15.5 -37.5t-38.5 -15.5zM402 648q-22 0 -37.5 15t-15.5 38t15 38.5t38 15.5q24 0 39.5 -15.5t15.5 -38.5t-15.5 -38t-39.5 -15z" />
<glyph unicode="&#xa9;" d="M301 747q124 0 196.5 -89t72.5 -223q0 -133 -72.5 -221.5t-196.5 -88.5q-125 0 -198 88.5t-73 221.5q0 135 72.5 223.5t198.5 88.5zM301 697q-104 0 -160 -73.5t-56 -188.5q0 -114 56 -186.5t160 -72.5t159.5 72.5t55.5 186.5t-55.5 188t-159.5 74zM304 625q66 0 117 -39 l-35 -47q-37 30 -79 30t-68 -32.5t-26 -100.5q0 -64 25.5 -96.5t68.5 -32.5q49 0 87 35l32 -48q-53 -47 -121 -47q-73 0 -118 50t-45 139t47 139t115 50z" />
<glyph unicode="&#xaa;" d="M290 749q82 0 124 -36.5t42 -103.5v-198q0 -40 33 -50l-18 -54q-64 8 -83 59q-51 -59 -134 -59q-68 0 -110 36.5t-42 96.5q0 65 57.5 100.5t159.5 35.5h59v31q0 78 -99 78q-53 0 -122 -24l-22 58q79 30 155 30zM378 521h-58q-134 0 -134 -78q0 -77 87 -77q62 0 105 56v99 zM498 0h-392v75h392v-75z" />
<glyph unicode="&#xab;" d="M258 56l-175 207v60l175 209l50 -32l-135 -206l135 -206zM466 56l-177 207v60l177 209l50 -32l-135 -206l135 -206z" />
<glyph unicode="&#xac;" d="M484 135h-76v141h-292v71h368v-212z" />
<glyph unicode="&#xad;" d="M144 349h312v-72h-312v72z" />
<glyph unicode="&#xae;" d="M300 747q105 0 178.5 -75t73.5 -180t-73.5 -179t-178.5 -74t-179 74t-74 179t74 180t179 75zM300 700q-86 0 -143.5 -60.5t-57.5 -147.5t57.5 -146.5t143.5 -59.5t143 59.5t57 146.5t-57.5 147.5t-142.5 60.5zM201 636h85q122 0 122 -84q0 -61 -67 -80l86 -118h-66 l-75 109h-29v-109h-56v282zM257 592v-86h32q61 0 61 45q0 41 -63 41h-30z" />
<glyph unicode="&#xaf;" d="M165 676v64h269v-64h-269z" />
<glyph unicode="&#xb0;" d="M227 749q67 0 114.5 -42.5t47.5 -114.5t-47.5 -114t-114.5 -42q-66 0 -114 42.5t-48 114.5q0 71 48.5 113.5t113.5 42.5zM227 690q-37 0 -63 -25t-26 -72t26 -72.5t63 -25.5q38 0 64 25t26 72q0 48 -26 73t-64 25z" />
<glyph unicode="&#xb1;" d="M340 388h144v-70h-144v-155h-80v155h-144v70h144v149h80v-149zM484 0h-368v72h368v-72z" />
<glyph unicode="&#xb2;" d="M435 536q0 -47 -35.5 -79.5t-133.5 -81.5h179l-9 -60h-277v52q131 80 165.5 107.5t34.5 58.5q0 23 -15.5 36t-43.5 13q-56 0 -95 -49l-51 38q60 71 148 71q63 0 98 -29t35 -77z" />
<glyph unicode="&#xb3;" d="M308 642q60 0 95 -24t35 -65q0 -28 -16 -44t-55 -23q45 -7 65 -24t20 -52q0 -46 -41 -73.5t-113 -27.5q-93 0 -151 58l46 38q46 -40 108 -40q76 0 76 47t-72 47h-46l8 43h34q64 0 64 41q0 44 -62 44q-54 0 -105 -38l-38 41q63 52 148 52z" />
<glyph unicode="&#xb4;" d="M370 785l44 -71l-201 -90l-28 46z" />
<glyph unicode="&#xb5;" d="M483 526v-359q0 -81 28 -167l-78 -12q-18 30 -25 85q-23 -38 -62 -61.5t-79 -23.5t-62 11.5t-42 39.5q9 -65 9 -87v-154l-83 -10v738h83v-295q0 -90 16.5 -129.5t72.5 -39.5q82 0 139 80v384h83z" />
<glyph unicode="&#xb6;" d="M556 -201l-76 -11v831h-113v-820l-76 -11v501q-119 0 -183.5 56t-64.5 142q0 88 66.5 144.5t187.5 56.5h259v-889z" />
<glyph unicode="&#xb7;" d="M212 342q0 37 25 62t62 25q38 0 63 -25t25 -62q0 -38 -25 -63t-63 -25q-37 0 -62 25t-25 63z" />
<glyph unicode="&#xb8;" d="M341 -140q0 25 -21.5 34t-65.5 9l9 113h57v-73q46 -4 69 -27.5t23 -55.5q0 -47 -35 -72.5t-86 -25.5q-63 0 -105 24l27 48q30 -16 68 -16q60 0 60 42z" />
<glyph unicode="&#xb9;" d="M365 554l-96 -52l-35 49l144 85h56v-321h-69v239z" />
<glyph unicode="&#xba;" d="M300 749q93 0 148 -59.5t55 -160.5q0 -99 -55.5 -160.5t-147.5 -61.5q-93 0 -148.5 60.5t-55.5 161.5q0 98 56 159t148 61zM300 685q-57 0 -89 -39t-32 -117q0 -79 32 -118.5t89 -39.5q119 0 119 158q0 78 -31 117t-88 39zM497 0h-393v75h393v-75z" />
<glyph unicode="&#xbb;" d="M51 500l50 32l176 -209v-60l-176 -207l-50 32l136 206zM321 500l50 32l177 -209v-60l-177 -207l-50 32l135 206z" />
<glyph unicode="&#xbc;" d="M130 607l-96 -52l-35 49l144 85h56v-321h-69v239zM14 237l535 256l30 -53l-534 -256zM546 0h-73v56h-178v48l136 227l60 -25l-115 -191h97l6 86h67v-86h55v-59h-55v-56z" />
<glyph unicode="&#xbd;" d="M127 607l-96 -52l-35 49l144 85h56v-321h-69v239zM10 237l535 256l30 -53l-534 -256zM594 221q0 -47 -35.5 -79.5t-133.5 -81.5h179l-8 -60h-277v52q131 81 165.5 108t34.5 58q0 23 -16 36t-44 13q-54 0 -95 -49l-51 38q60 71 148 71q63 0 98 -29t35 -77z" />
<glyph unicode="&#xbe;" d="M158 695q60 0 95 -24t35 -65q0 -28 -16 -44t-55 -23q45 -7 65 -24t20 -52q0 -46 -41 -73.5t-113 -27.5q-93 0 -151 58l46 38q46 -40 108 -40q76 0 76 47t-72 47h-46l8 43h34q64 0 64 41q0 44 -62 44q-54 0 -105 -38l-38 41q63 52 148 52zM24 237l535 256l29 -53 l-534 -256zM547 0h-72v56h-179v48l136 227l61 -25l-115 -191h97l6 86h66v-86h56v-59h-56v-56z" />
<glyph unicode="&#xbf;" d="M324 498q28 0 47.5 -19.5t19.5 -47.5q0 -27 -19.5 -46.5t-47.5 -19.5t-47 19.5t-19 46.5q0 29 19 48t47 19zM369 261v-39q0 -45 -18 -79t-44 -55.5t-52.5 -40.5t-44.5 -43.5t-18 -55.5q0 -42 33 -66t86 -24q82 0 142 73l59 -44q-86 -99 -210 -99q-88 0 -142.5 46.5 t-54.5 108.5q0 37 13.5 66t33.5 45.5t43.5 34.5t43.5 34t33.5 42.5t13.5 60.5v35h83z" />
<glyph unicode="&#xc0;" d="M416 800l-26 -44l-205 81l46 72zM161 176l-56 -176h-84l224 688h110l224 -688h-90l-55 176h-273zM412 247l-114 369l-115 -369h229z" />
<glyph unicode="&#xc1;" d="M420 834l-213 -78l-22 44l198 105zM161 176l-56 -176h-84l224 688h110l224 -688h-90l-55 176h-273zM412 247l-114 369l-115 -369h229z" />
<glyph unicode="&#xc2;" d="M463 803l-37 -43l-126 81l-125 -81l-38 43l136 107h56zM161 176l-56 -176h-84l224 688h110l224 -688h-90l-55 176h-273zM412 247l-114 369l-115 -369h229z" />
<glyph unicode="&#xc3;" d="M351 771q-32 0 -64.5 24.5t-44.5 24.5q-26 0 -51 -44l-54 24q37 84 111 84q33 0 65 -24t44 -24q26 0 51 44l54 -24q-39 -85 -111 -85zM161 176l-56 -176h-84l224 688h110l224 -688h-90l-55 176h-273zM412 247l-114 369l-115 -369h229z" />
<glyph unicode="&#xc4;" d="M196 767q-23 0 -38.5 15t-15.5 38t15.5 38.5t38.5 15.5t38.5 -15.5t15.5 -38.5q0 -22 -15.5 -37.5t-38.5 -15.5zM402 767q-22 0 -37.5 15.5t-15.5 37.5q0 23 15 38.5t38 15.5q24 0 39.5 -15.5t15.5 -38.5t-15.5 -38t-39.5 -15zM161 176l-56 -176h-84l224 688h110 l224 -688h-90l-55 176h-273zM412 247l-114 369l-115 -369h229z" />
<glyph unicode="&#xc5;" d="M300 942q48 0 79.5 -29.5t31.5 -73.5q0 -42 -31.5 -71.5t-79.5 -29.5t-79.5 29.5t-31.5 71.5q0 44 31.5 73.5t79.5 29.5zM300 896q-25 0 -39.5 -15t-14.5 -42q0 -26 14.5 -41t39.5 -15t39.5 15t14.5 41q0 27 -14 42t-40 15zM161 176l-56 -176h-84l224 688h110l224 -688 h-90l-55 176h-273zM412 247l-114 369l-115 -369h229z" />
<glyph unicode="&#xc6;" d="M125 176l-49 -176h-88l202 688h376l-10 -70h-237l52 -234h186v-70h-173l52 -244h172v-70h-242l-36 176h-205zM314 248l-74 373l-92 -373h166z" />
<glyph unicode="&#xc7;" d="M370 -11v-46q46 -4 69 -27.5t23 -55.5q0 -47 -35 -72.5t-86 -25.5q-63 0 -105 24l27 48q30 -16 68 -16q60 0 60 42q0 25 -21.5 34t-65.5 9l7 90q-111 18 -179 109.5t-68 242.5q0 167 84.5 261t209.5 94q115 0 199 -67l-48 -56q-62 51 -145 51q-94 0 -152.5 -67.5 t-58.5 -215.5q0 -146 57.5 -214.5t152.5 -68.5q88 0 160 58l44 -57q-73 -71 -197 -74z" />
<glyph unicode="&#xc8;" d="M437 800l-26 -44l-205 81l46 72zM212 385h255v-71h-255v-245h313v-69h-399v688h390l-10 -70h-294v-233z" />
<glyph unicode="&#xc9;" d="M441 834l-213 -78l-22 44l198 105zM212 385h255v-71h-255v-245h313v-69h-399v688h390l-10 -70h-294v-233z" />
<glyph unicode="&#xca;" d="M484 803l-37 -43l-126 81l-125 -81l-38 43l136 107h56zM212 385h255v-71h-255v-245h313v-69h-399v688h390l-10 -70h-294v-233z" />
<glyph unicode="&#xcb;" d="M217 767q-23 0 -38.5 15t-15.5 38t15.5 38.5t38.5 15.5t38.5 -15.5t15.5 -38.5q0 -22 -15.5 -37.5t-38.5 -15.5zM423 767q-23 0 -38 15.5t-15 37.5q0 23 15 38.5t38 15.5q24 0 39.5 -15.5t15.5 -38.5t-15.5 -38t-39.5 -15zM212 385h255v-71h-255v-245h313v-69h-399v688 h390l-10 -70h-294v-233z" />
<glyph unicode="&#xcc;" d="M416 800l-26 -44l-205 81l46 72zM497 620h-154v-551h154v-69h-394v69h154v551h-154v68h394v-68z" />
<glyph unicode="&#xcd;" d="M420 834l-213 -78l-22 44l198 105zM497 620h-154v-551h154v-69h-394v69h154v551h-154v68h394v-68z" />
<glyph unicode="&#xce;" d="M463 803l-37 -43l-126 81l-125 -81l-38 43l136 107h56zM497 620h-154v-551h154v-69h-394v69h154v551h-154v68h394v-68z" />
<glyph unicode="&#xcf;" d="M196 767q-23 0 -38.5 15t-15.5 38t15.5 38.5t38.5 15.5t38.5 -15.5t15.5 -38.5q0 -22 -15.5 -37.5t-38.5 -15.5zM402 767q-22 0 -37.5 15.5t-15.5 37.5q0 23 15 38.5t38 15.5q24 0 39.5 -15.5t15.5 -38.5t-15.5 -38t-39.5 -15zM497 620h-154v-551h154v-69h-394v69h154 v551h-154v68h394v-68z" />
<glyph unicode="&#xd0;" d="M93 688h147q53 0 96 -7.5t86.5 -30t73 -59t48 -98.5t18.5 -145t-19 -146.5t-49 -101t-72.5 -61t-83 -31.5t-87.5 -8h-158v320h-73v66h73v302zM179 69h83q208 0 208 279q0 85 -18.5 142.5t-51.5 83.5t-65 35t-74 9h-82v-232h159v-66h-159v-251z" />
<glyph unicode="&#xd1;" d="M349 771q-32 0 -64.5 24.5t-44.5 24.5q-26 0 -51 -44l-54 24q37 84 111 84q33 0 65 -24t44 -24q26 0 51 44l54 -24q-39 -85 -111 -85zM156 589h-4q12 -156 12 -243v-346h-80v688h116l244 -592h4q-12 144 -12 247v345h80v-688h-120z" />
<glyph unicode="&#xd2;" d="M416 800l-26 -44l-205 81l46 72zM553 344q0 -161 -65.5 -258t-187.5 -97q-123 0 -188 95t-65 258q0 162 65.5 260t187.5 98t187.5 -96.5t65.5 -259.5zM464 344q0 141 -39 212t-125 71t-125 -71.5t-39 -213.5q0 -281 164 -281q85 0 124.5 71t39.5 212z" />
<glyph unicode="&#xd3;" d="M420 834l-213 -78l-22 44l198 105zM553 344q0 -161 -65.5 -258t-187.5 -97q-123 0 -188 95t-65 258q0 162 65.5 260t187.5 98t187.5 -96.5t65.5 -259.5zM464 344q0 141 -39 212t-125 71t-125 -71.5t-39 -213.5q0 -281 164 -281q85 0 124.5 71t39.5 212z" />
<glyph unicode="&#xd4;" d="M463 803l-37 -43l-126 81l-125 -81l-38 43l136 107h56zM553 344q0 -161 -65.5 -258t-187.5 -97q-123 0 -188 95t-65 258q0 162 65.5 260t187.5 98t187.5 -96.5t65.5 -259.5zM464 344q0 141 -39 212t-125 71t-125 -71.5t-39 -213.5q0 -281 164 -281q85 0 124.5 71 t39.5 212z" />
<glyph unicode="&#xd5;" d="M351 771q-32 0 -64.5 24.5t-44.5 24.5q-26 0 -51 -44l-54 24q37 84 111 84q33 0 65 -24t44 -24q26 0 51 44l54 -24q-39 -85 -111 -85zM553 344q0 -161 -65.5 -258t-187.5 -97q-123 0 -188 95t-65 258q0 162 65.5 260t187.5 98t187.5 -96.5t65.5 -259.5zM464 344 q0 141 -39 212t-125 71t-125 -71.5t-39 -213.5q0 -281 164 -281q85 0 124.5 71t39.5 212z" />
<glyph unicode="&#xd6;" d="M196 767q-23 0 -38.5 15t-15.5 38t15.5 38.5t38.5 15.5t38.5 -15.5t15.5 -38.5q0 -22 -15.5 -37.5t-38.5 -15.5zM402 767q-22 0 -37.5 15.5t-15.5 37.5q0 23 15 38.5t38 15.5q24 0 39.5 -15.5t15.5 -38.5t-15.5 -38t-39.5 -15zM553 344q0 -161 -65.5 -258t-187.5 -97 q-123 0 -188 95t-65 258q0 162 65.5 260t187.5 98t187.5 -96.5t65.5 -259.5zM464 344q0 141 -39 212t-125 71t-125 -71.5t-39 -213.5q0 -281 164 -281q85 0 124.5 71t39.5 212z" />
<glyph unicode="&#xd7;" d="M475 430l-123 -123l123 -123l-52 -52l-123 123l-123 -123l-52 52l123 123l-123 123l52 53l123 -124l123 124z" />
<glyph unicode="&#xd8;" d="M472 784l-39 -124q120 -87 120 -316q0 -161 -65.5 -258t-187.5 -97q-32 0 -64 8l-32 -107l-74 19l37 120q-120 85 -120 313q0 162 65.5 260t187.5 98q33 0 65 -8l32 111zM137 342q0 -185 60 -245l151 524q-21 6 -48 6q-85 0 -124 -71.5t-39 -213.5zM300 61q85 0 124 71 t39 212q0 189 -60 248l-152 -525q23 -6 49 -6z" />
<glyph unicode="&#xd9;" d="M416 800l-26 -44l-205 81l46 72zM527 688v-465q0 -105 -62 -169.5t-166 -64.5q-105 0 -165.5 64t-60.5 170v465h85v-469q0 -78 36.5 -117t104.5 -39q69 0 105.5 39t36.5 117v469h86z" />
<glyph unicode="&#xda;" d="M420 834l-213 -78l-22 44l198 105zM527 688v-465q0 -105 -62 -169.5t-166 -64.5q-105 0 -165.5 64t-60.5 170v465h85v-469q0 -78 36.5 -117t104.5 -39q69 0 105.5 39t36.5 117v469h86z" />
<glyph unicode="&#xdb;" d="M463 803l-37 -43l-126 81l-125 -81l-38 43l136 107h56zM527 688v-465q0 -105 -62 -169.5t-166 -64.5q-105 0 -165.5 64t-60.5 170v465h85v-469q0 -78 36.5 -117t104.5 -39q69 0 105.5 39t36.5 117v469h86z" />
<glyph unicode="&#xdc;" d="M196 767q-23 0 -38.5 15t-15.5 38t15.5 38.5t38.5 15.5t38.5 -15.5t15.5 -38.5q0 -22 -15.5 -37.5t-38.5 -15.5zM402 767q-22 0 -37.5 15.5t-15.5 37.5q0 23 15 38.5t38 15.5q24 0 39.5 -15.5t15.5 -38.5t-15.5 -38t-39.5 -15zM527 688v-465q0 -105 -62 -169.5 t-166 -64.5q-105 0 -165.5 64t-60.5 170v465h85v-469q0 -78 36.5 -117t104.5 -39q69 0 105.5 39t36.5 117v469h86z" />
<glyph unicode="&#xdd;" d="M423 834l-213 -78l-22 44l198 105zM343 0h-86v265l-233 423h95l183 -345l185 345h89l-233 -422v-266z" />
<glyph unicode="&#xde;" d="M193 572h100q127 0 194.5 -54t67.5 -163q0 -116 -70.5 -171.5t-192.5 -55.5h-99v-128h-85v688h85v-116zM193 504v-307h111q77 0 119 35.5t42 120.5q0 151 -162 151h-110z" />
<glyph unicode="&#xdf;" d="M297 749q77 0 125 -40t48 -104q0 -33 -18 -60t-39 -41.5t-39 -34.5t-18 -40q0 -24 21 -44.5t50.5 -38t59 -39t50.5 -57.5t21 -83q0 -84 -53.5 -131t-133.5 -47q-75 0 -129 34l34 57q43 -24 88 -24q51 0 80 27t29 79q0 35 -20.5 63t-49.5 46.5t-58.5 37t-50 46.5t-20.5 64 q0 32 18.5 57.5t40 39.5t40 35.5t18.5 45.5q0 33 -22.5 59t-72.5 26q-58 0 -87.5 -33.5t-29.5 -109.5v-539h-83v533q0 105 53 160.5t148 55.5z" />
<glyph unicode="&#xe0;" d="M177 715l44 72l185 -117l-27 -46zM477 368v-254q0 -30 10 -45t33 -22l-20 -59q-75 10 -96 75q-57 -74 -165 -74q-79 0 -124.5 44t-45.5 118q0 81 63.5 125t183.5 44h77v44q0 104 -125 104q-63 0 -137 -26l-22 62q91 34 171 34q96 0 146.5 -45t50.5 -125zM260 52 q39 0 74.5 19.5t58.5 55.5v136h-76q-159 0 -159 -111q0 -100 102 -100z" />
<glyph unicode="&#xe1;" d="M362 785l44 -71l-201 -90l-28 46zM477 368v-254q0 -30 10 -45t33 -22l-20 -59q-75 10 -96 75q-57 -74 -165 -74q-79 0 -124.5 44t-45.5 118q0 81 63.5 125t183.5 44h77v44q0 104 -125 104q-63 0 -137 -26l-22 62q91 34 171 34q96 0 146.5 -45t50.5 -125zM260 52 q39 0 74.5 19.5t58.5 55.5v136h-76q-159 0 -159 -111q0 -100 102 -100z" />
<glyph unicode="&#xe2;" d="M129 670l136 119h56l134 -119l-38 -41l-124 91l-124 -91zM477 368v-254q0 -30 10 -45t33 -22l-20 -59q-75 10 -96 75q-57 -74 -165 -74q-79 0 -124.5 44t-45.5 118q0 81 63.5 125t183.5 44h77v44q0 104 -125 104q-63 0 -137 -26l-22 62q91 34 171 34q96 0 146.5 -45 t50.5 -125zM260 52q39 0 74.5 19.5t58.5 55.5v136h-76q-159 0 -159 -111q0 -100 102 -100z" />
<glyph unicode="&#xe3;" d="M343 652q-32 0 -64.5 24.5t-44.5 24.5q-26 0 -51 -44l-54 24q37 84 111 84q33 0 65 -24t44 -24q26 0 51 44l54 -24q-39 -85 -111 -85zM477 368v-254q0 -30 10 -45t33 -22l-20 -59q-75 10 -96 75q-57 -74 -165 -74q-79 0 -124.5 44t-45.5 118q0 81 63.5 125t183.5 44h77 v44q0 104 -125 104q-63 0 -137 -26l-22 62q91 34 171 34q96 0 146.5 -45t50.5 -125zM260 52q39 0 74.5 19.5t58.5 55.5v136h-76q-159 0 -159 -111q0 -100 102 -100z" />
<glyph unicode="&#xe4;" d="M188 648q-23 0 -38.5 15t-15.5 38t15.5 38.5t38.5 15.5t38.5 -15.5t15.5 -38.5q0 -22 -15.5 -37.5t-38.5 -15.5zM394 648q-22 0 -37.5 15t-15.5 38t15 38.5t38 15.5q24 0 39.5 -15.5t15.5 -38.5t-15.5 -38t-39.5 -15zM477 368v-254q0 -30 10 -45t33 -22l-20 -59 q-75 10 -96 75q-57 -74 -165 -74q-79 0 -124.5 44t-45.5 118q0 81 63.5 125t183.5 44h77v44q0 104 -125 104q-63 0 -137 -26l-22 62q91 34 171 34q96 0 146.5 -45t50.5 -125zM260 52q39 0 74.5 19.5t58.5 55.5v136h-76q-159 0 -159 -111q0 -100 102 -100z" />
<glyph unicode="&#xe5;" d="M292 823q48 0 79.5 -29.5t31.5 -73.5q0 -42 -31.5 -71.5t-79.5 -29.5t-79.5 29.5t-31.5 71.5q0 44 31.5 73.5t79.5 29.5zM292 777q-25 0 -39.5 -15t-14.5 -42q0 -26 14.5 -41t39.5 -15t39.5 15t14.5 41q0 27 -14 42t-40 15zM477 368v-254q0 -30 10 -45t33 -22l-20 -59 q-75 10 -96 75q-57 -74 -165 -74q-79 0 -124.5 44t-45.5 118q0 81 63.5 125t183.5 44h77v44q0 104 -125 104q-63 0 -137 -26l-22 62q91 34 171 34q96 0 146.5 -45t50.5 -125zM260 52q39 0 74.5 19.5t58.5 55.5v136h-76q-159 0 -159 -111q0 -100 102 -100z" />
<glyph unicode="&#xe6;" d="M435 538q172 0 172 -259q0 -22 -2 -46h-270q7 -90 34 -132t79 -42q47 0 100 39l38 -57q-65 -52 -139 -52q-96 0 -148 89q-35 -48 -69.5 -68.5t-83.5 -20.5q-70 0 -111 44t-41 118q0 82 54.5 125.5t159.5 43.5h46v44q0 104 -91 104q-42 0 -105 -27l-22 63q71 34 135 34 q103 0 138 -88q14 41 46.5 64.5t79.5 23.5zM432 468q-46 0 -68 -38.5t-29 -131.5h190q-2 87 -22.5 128.5t-70.5 41.5zM254 263h-43q-127 0 -127 -107q0 -50 20 -76.5t54 -26.5q32 0 56.5 23t53.5 74q-14 46 -14 113z" />
<glyph unicode="&#xe7;" d="M359 -10v-47q46 -4 69 -27.5t23 -55.5q0 -47 -35 -72.5t-86 -25.5q-63 0 -105 24l27 48q30 -16 68 -16q60 0 60 42q0 25 -21.5 34t-65.5 9l7 88q-99 12 -153.5 84t-54.5 186q0 122 66 199.5t181 77.5q100 0 176 -62l-42 -57q-65 49 -135 49q-71 0 -113.5 -53t-42.5 -154 t42.5 -151t113.5 -50q75 0 138 50l40 -58q-63 -54 -157 -62z" />
<glyph unicode="&#xe8;" d="M195 715l44 72l185 -117l-27 -46zM520 234h-354q3 -88 46 -132t108 -44q80 0 141 49l39 -57q-79 -61 -180 -61q-114 0 -177.5 74.5t-63.5 199.5q0 120 62.5 197.5t163.5 77.5q102 0 159.5 -69.5t57.5 -189.5q0 -23 -2 -45zM306 469q-59 0 -97 -43.5t-43 -127.5h276 q-1 84 -37 127.5t-99 43.5z" />
<glyph unicode="&#xe9;" d="M380 785l44 -71l-201 -90l-28 46zM520 234h-354q3 -88 46 -132t108 -44q80 0 141 49l39 -57q-79 -61 -180 -61q-114 0 -177.5 74.5t-63.5 199.5q0 120 62.5 197.5t163.5 77.5q102 0 159.5 -69.5t57.5 -189.5q0 -23 -2 -45zM306 469q-59 0 -97 -43.5t-43 -127.5h276 q-1 84 -37 127.5t-99 43.5z" />
<glyph unicode="&#xea;" d="M147 670l136 119h56l134 -119l-38 -41l-124 91l-124 -91zM520 234h-354q3 -88 46 -132t108 -44q80 0 141 49l39 -57q-79 -61 -180 -61q-114 0 -177.5 74.5t-63.5 199.5q0 120 62.5 197.5t163.5 77.5q102 0 159.5 -69.5t57.5 -189.5q0 -23 -2 -45zM306 469 q-59 0 -97 -43.5t-43 -127.5h276q-1 84 -37 127.5t-99 43.5z" />
<glyph unicode="&#xeb;" d="M206 648q-23 0 -38.5 15t-15.5 38t15.5 38.5t38.5 15.5t38.5 -15.5t15.5 -38.5q0 -22 -15.5 -37.5t-38.5 -15.5zM412 648q-22 0 -37.5 15t-15.5 38t15 38.5t38 15.5q24 0 39.5 -15.5t15.5 -38.5t-15.5 -38t-39.5 -15zM520 234h-354q3 -88 46 -132t108 -44q80 0 141 49 l39 -57q-79 -61 -180 -61q-114 0 -177.5 74.5t-63.5 199.5q0 120 62.5 197.5t163.5 77.5q102 0 159.5 -69.5t57.5 -189.5q0 -23 -2 -45zM306 469q-59 0 -97 -43.5t-43 -127.5h276q-1 84 -37 127.5t-99 43.5z" />
<glyph unicode="&#xec;" d="M186 715l44 72l185 -117l-27 -46zM367 66h148v-66h-394v66h163v395h-158v65h241v-460z" />
<glyph unicode="&#xed;" d="M371 785l44 -71l-201 -90l-28 46zM367 66h148v-66h-394v66h163v395h-158v65h241v-460z" />
<glyph unicode="&#xee;" d="M138 670l136 119h56l134 -119l-38 -41l-124 91l-124 -91zM367 66h148v-66h-394v66h163v395h-158v65h241v-460z" />
<glyph unicode="&#xef;" d="M197 648q-23 0 -38.5 15t-15.5 38t15.5 38.5t38.5 15.5t38.5 -15.5t15.5 -38.5q0 -22 -15.5 -37.5t-38.5 -15.5zM403 648q-23 0 -38 15t-15 38t15 38.5t38 15.5q24 0 39.5 -15.5t15.5 -38.5t-15.5 -38t-39.5 -15zM367 66h148v-66h-394v66h163v395h-158v65h241v-460z" />
<glyph unicode="&#xf0;" d="M170 562l81 85q-46 22 -117 36l18 66q96 -21 150 -50l69 74l51 -44l-62 -64q88 -61 130 -159.5t42 -242.5q0 -126 -64.5 -200t-172.5 -74q-98 0 -163 65.5t-65 180.5q0 108 62.5 177t150.5 69q98 0 158 -69q-26 125 -130 201l-79 -81zM448 267q0 35 -3 66q-52 81 -155 81 q-59 0 -98.5 -44.5t-39.5 -130.5q0 -87 39 -135t103 -48q72 0 113 54.5t41 156.5z" />
<glyph unicode="&#xf1;" d="M351 654q-32 0 -64.5 24.5t-44.5 24.5q-26 0 -51 -44l-54 24q37 84 111 84q33 0 65 -24t44 -24q26 0 51 44l54 -24q-39 -85 -111 -85zM101 526h71l6 -73q32 40 79 62.5t95 22.5q148 0 148 -156v-382h-83v320q0 87 -16.5 119.5t-73.5 32.5q-43 0 -81.5 -26t-61.5 -62v-384 h-83v526z" />
<glyph unicode="&#xf2;" d="M185 715l44 72l185 -117l-27 -46zM301 538q109 0 167 -73.5t58 -200.5q0 -124 -59 -199.5t-167 -75.5q-109 0 -167.5 73.5t-58.5 200.5q0 125 59.5 200t167.5 75zM301 470q-138 0 -138 -207q0 -206 137 -206t137 207q0 206 -136 206z" />
<glyph unicode="&#xf3;" d="M370 785l44 -71l-201 -90l-28 46zM301 538q109 0 167 -73.5t58 -200.5q0 -124 -59 -199.5t-167 -75.5q-109 0 -167.5 73.5t-58.5 200.5q0 125 59.5 200t167.5 75zM301 470q-138 0 -138 -207q0 -206 137 -206t137 207q0 206 -136 206z" />
<glyph unicode="&#xf4;" d="M137 670l136 119h56l134 -119l-38 -41l-124 91l-124 -91zM301 538q109 0 167 -73.5t58 -200.5q0 -124 -59 -199.5t-167 -75.5q-109 0 -167.5 73.5t-58.5 200.5q0 125 59.5 200t167.5 75zM301 470q-138 0 -138 -207q0 -206 137 -206t137 207q0 206 -136 206z" />
<glyph unicode="&#xf5;" d="M351 652q-32 0 -64.5 24.5t-44.5 24.5q-26 0 -51 -44l-54 24q37 84 111 84q33 0 65 -24t44 -24q26 0 51 44l54 -24q-39 -85 -111 -85zM301 538q109 0 167 -73.5t58 -200.5q0 -124 -59 -199.5t-167 -75.5q-109 0 -167.5 73.5t-58.5 200.5q0 125 59.5 200t167.5 75z M301 470q-138 0 -138 -207q0 -206 137 -206t137 207q0 206 -136 206z" />
<glyph unicode="&#xf6;" d="M196 648q-23 0 -38.5 15t-15.5 38t15.5 38.5t38.5 15.5t38.5 -15.5t15.5 -38.5q0 -22 -15.5 -37.5t-38.5 -15.5zM402 648q-22 0 -37.5 15t-15.5 38t15 38.5t38 15.5q24 0 39.5 -15.5t15.5 -38.5t-15.5 -38t-39.5 -15zM301 538q109 0 167 -73.5t58 -200.5 q0 -124 -59 -199.5t-167 -75.5q-109 0 -167.5 73.5t-58.5 200.5q0 125 59.5 200t167.5 75zM301 470q-138 0 -138 -207q0 -206 137 -206t137 207q0 206 -136 206z" />
<glyph unicode="&#xf7;" d="M300 574q28 0 47.5 -19.5t19.5 -46.5q0 -28 -19.5 -47t-47.5 -19t-47.5 19t-19.5 47q0 27 19.5 46.5t47.5 19.5zM484 276h-368v71h368v-71zM300 183q28 0 47.5 -19.5t19.5 -47.5t-19.5 -47.5t-47.5 -19.5t-47.5 19.5t-19.5 47.5t19.5 47.5t47.5 19.5z" />
<glyph unicode="&#xf8;" d="M458 634l-41 -126q109 -67 109 -244q0 -124 -59 -199.5t-167 -75.5q-23 0 -50 5l-37 -124l-70 20l42 129q-111 67 -111 244q0 125 59.5 200t167.5 75q22 0 49 -5l38 121zM301 469q-138 0 -138 -206q0 -134 53 -179l118 382q-15 3 -33 3zM300 57q137 0 137 207 q0 131 -52 177l-118 -381q15 -3 33 -3z" />
<glyph unicode="&#xf9;" d="M185 715l44 72l185 -117l-27 -46zM184 526v-373q0 -51 21.5 -74.5t67.5 -23.5q42 0 81.5 24.5t61.5 59.5v387h83v-526h-71l-7 71q-30 -39 -75.5 -60.5t-92.5 -21.5q-75 0 -113.5 40t-38.5 114v383h83z" />
<glyph unicode="&#xfa;" d="M370 785l44 -71l-201 -90l-28 46zM184 526v-373q0 -51 21.5 -74.5t67.5 -23.5q42 0 81.5 24.5t61.5 59.5v387h83v-526h-71l-7 71q-30 -39 -75.5 -60.5t-92.5 -21.5q-75 0 -113.5 40t-38.5 114v383h83z" />
<glyph unicode="&#xfb;" d="M137 670l136 119h56l134 -119l-38 -41l-124 91l-124 -91zM184 526v-373q0 -51 21.5 -74.5t67.5 -23.5q42 0 81.5 24.5t61.5 59.5v387h83v-526h-71l-7 71q-30 -39 -75.5 -60.5t-92.5 -21.5q-75 0 -113.5 40t-38.5 114v383h83z" />
<glyph unicode="&#xfc;" d="M196 648q-23 0 -38.5 15t-15.5 38t15.5 38.5t38.5 15.5t38.5 -15.5t15.5 -38.5q0 -22 -15.5 -37.5t-38.5 -15.5zM402 648q-22 0 -37.5 15t-15.5 38t15 38.5t38 15.5q24 0 39.5 -15.5t15.5 -38.5t-15.5 -38t-39.5 -15zM184 526v-373q0 -51 21.5 -74.5t67.5 -23.5 q42 0 81.5 24.5t61.5 59.5v387h83v-526h-71l-7 71q-30 -39 -75.5 -60.5t-92.5 -21.5q-75 0 -113.5 40t-38.5 114v383h83z" />
<glyph unicode="&#xfd;" d="M370 785l44 -71l-201 -90l-28 46zM538 526l-185 -529q-32 -91 -85 -145t-149 -64l-13 67q77 13 111 45.5t57 99.5h-28l-184 526h89l152 -463l149 463h86z" />
<glyph unicode="&#xfe;" d="M184 749v-288q59 77 152 77q190 0 190 -274q0 -125 -52 -200t-151 -75q-87 0 -139 60v-251l-83 -10v951zM316 471q-75 0 -132 -85v-262q43 -66 121 -66q132 0 132 206q0 207 -121 207z" />
<glyph unicode="&#xff;" d="M196 648q-23 0 -38.5 15t-15.5 38t15.5 38.5t38.5 15.5t38.5 -15.5t15.5 -38.5q0 -22 -15.5 -37.5t-38.5 -15.5zM402 648q-22 0 -37.5 15t-15.5 38t15 38.5t38 15.5q24 0 39.5 -15.5t15.5 -38.5t-15.5 -38t-39.5 -15zM538 526l-185 -529q-32 -91 -85 -145t-149 -64 l-13 67q77 13 111 45.5t57 99.5h-28l-184 526h89l152 -463l149 463h86z" />
<glyph unicode="&#x100;" d="M165 795v64h269v-64h-269zM161 176l-56 -176h-84l224 688h110l224 -688h-90l-55 176h-273zM412 247l-114 369l-115 -369h229z" />
<glyph unicode="&#x101;" d="M157 676v64h269v-64h-269zM477 368v-254q0 -30 10 -45t33 -22l-20 -59q-75 10 -96 75q-57 -74 -165 -74q-79 0 -124.5 44t-45.5 118q0 81 63.5 125t183.5 44h77v44q0 104 -125 104q-63 0 -137 -26l-22 62q91 34 171 34q96 0 146.5 -45t50.5 -125zM260 52q39 0 74.5 19.5 t58.5 55.5v136h-76q-159 0 -159 -111q0 -100 102 -100z" />
<glyph unicode="&#x102;" d="M298 759q-58 0 -99.5 32.5t-47.5 86.5l57 12q24 -67 90 -67q69 0 93 67l57 -12q-6 -54 -48.5 -86.5t-101.5 -32.5zM161 176l-56 -176h-84l224 688h110l224 -688h-90l-55 176h-273zM412 247l-114 369l-115 -369h229z" />
<glyph unicode="&#x103;" d="M290 630q-63 0 -101.5 41.5t-45.5 93.5l57 13q24 -84 90 -84q68 0 93 84l57 -13q-7 -52 -46.5 -93.5t-103.5 -41.5zM477 368v-254q0 -30 10 -45t33 -22l-20 -59q-75 10 -96 75q-57 -74 -165 -74q-79 0 -124.5 44t-45.5 118q0 81 63.5 125t183.5 44h77v44q0 104 -125 104 q-63 0 -137 -26l-22 62q91 34 171 34q96 0 146.5 -45t50.5 -125zM260 52q39 0 74.5 19.5t58.5 55.5v136h-76q-159 0 -159 -111q0 -100 102 -100z" />
<glyph unicode="&#x104;" d="M579 0h-40q-72 -32 -98 -58.5t-26 -56.5q0 -47 55 -47q33 0 62 7l-8 -67q-35 -7 -64 -7q-56 0 -88.5 28t-32.5 70q0 95 145 148l-50 159h-273l-56 -176h-84l224 688h110zM412 247l-114 369l-115 -369h229z" />
<glyph unicode="&#x105;" d="M520 47l-20 -59q-72 -32 -98 -58.5t-26 -56.5q0 -47 55 -47q33 0 62 7l-8 -67q-35 -7 -64 -7q-56 0 -88.5 28t-32.5 70q0 96 148 149q-33 20 -44 57q-57 -74 -165 -74q-79 0 -124.5 44t-45.5 118q0 81 63.5 125t183.5 44h77v44q0 104 -125 104q-63 0 -137 -26l-22 62 q91 34 171 34q96 0 146.5 -45t50.5 -125v-254q0 -30 10 -45t33 -22zM393 263h-76q-159 0 -159 -111q0 -100 102 -100q39 0 74.5 19.5t58.5 55.5v136z" />
<glyph unicode="&#x106;" d="M485 834l-213 -78l-22 44l198 105zM358 700q115 0 199 -67l-48 -56q-62 51 -145 51q-94 0 -152.5 -67.5t-58.5 -215.5q0 -146 57.5 -214.5t152.5 -68.5q88 0 160 58l44 -57q-76 -74 -205 -74q-131 0 -214.5 93.5t-83.5 262.5q0 167 84.5 261t209.5 94z" />
<glyph unicode="&#x107;" d="M414 777l44 -71l-201 -90l-28 46zM338 60q75 0 138 50l40 -58q-34 -29 -82.5 -46t-95.5 -17q-116 0 -181 73.5t-65 198.5q0 122 66 199.5t181 77.5q100 0 176 -62l-42 -57q-65 49 -135 49q-71 0 -113.5 -53t-42.5 -154t42.5 -151t113.5 -50z" />
<glyph unicode="&#x108;" d="M529 803l-37 -43l-126 81l-125 -81l-38 43l136 107h56zM358 700q115 0 199 -67l-48 -56q-62 51 -145 51q-94 0 -152.5 -67.5t-58.5 -215.5q0 -146 57.5 -214.5t152.5 -68.5q88 0 160 58l44 -57q-76 -74 -205 -74q-131 0 -214.5 93.5t-83.5 262.5q0 167 84.5 261t209.5 94 z" />
<glyph unicode="&#x109;" d="M181 662l136 119h56l134 -119l-38 -41l-124 91l-124 -91zM338 60q75 0 138 50l40 -58q-34 -29 -82.5 -46t-95.5 -17q-116 0 -181 73.5t-65 198.5q0 122 66 199.5t181 77.5q100 0 176 -62l-42 -57q-65 49 -135 49q-71 0 -113.5 -53t-42.5 -154t42.5 -151t113.5 -50z" />
<glyph unicode="&#x10a;" d="M364 892q27 0 44 -17t17 -42q0 -26 -17 -42.5t-44 -16.5t-43.5 16.5t-16.5 42.5q0 25 16.5 42t43.5 17zM358 700q115 0 199 -67l-48 -56q-62 51 -145 51q-94 0 -152.5 -67.5t-58.5 -215.5q0 -146 57.5 -214.5t152.5 -68.5q88 0 160 58l44 -57q-76 -74 -205 -74 q-131 0 -214.5 93.5t-83.5 262.5q0 167 84.5 261t209.5 94z" />
<glyph unicode="&#x10b;" d="M343 765q27 0 44 -17t17 -42q0 -26 -17 -42.5t-44 -16.5t-43.5 16.5t-16.5 42.5q0 25 16.5 42t43.5 17zM338 60q75 0 138 50l40 -58q-34 -29 -82.5 -46t-95.5 -17q-116 0 -181 73.5t-65 198.5q0 122 66 199.5t181 77.5q100 0 176 -62l-42 -57q-65 49 -135 49 q-71 0 -113.5 -53t-42.5 -154t42.5 -151t113.5 -50z" />
<glyph unicode="&#x10c;" d="M529 862l-134 -108h-56l-136 108l38 42l125 -81l126 81zM358 700q115 0 199 -67l-48 -56q-62 51 -145 51q-94 0 -152.5 -67.5t-58.5 -215.5q0 -146 57.5 -214.5t152.5 -68.5q88 0 160 58l44 -57q-76 -74 -205 -74q-131 0 -214.5 93.5t-83.5 262.5q0 167 84.5 261 t209.5 94z" />
<glyph unicode="&#x10d;" d="M507 740l-134 -119h-56l-136 119l40 41l124 -91l124 91zM338 60q75 0 138 50l40 -58q-34 -29 -82.5 -46t-95.5 -17q-116 0 -181 73.5t-65 198.5q0 122 66 199.5t181 77.5q100 0 176 -62l-42 -57q-65 49 -135 49q-71 0 -113.5 -53t-42.5 -154t42.5 -151t113.5 -50z" />
<glyph unicode="&#x10e;" d="M447 862l-134 -108h-56l-136 108l38 42l125 -81l126 81zM552 348q0 -83 -19 -146.5t-49 -101t-72.5 -61t-83 -31.5t-87.5 -8h-157v688h146q53 0 96 -7.5t86.5 -30t73 -59t48 -98.5t18.5 -145zM461 348q0 85 -18.5 142.5t-52 83.5t-65.5 35t-74 9h-82v-549h83q41 0 75 12 t66 41t50 86.5t18 139.5z" />
<glyph unicode="&#x10f;" d="M470 739v-739h-72l-8 69q-58 -80 -150 -80q-100 0 -150 73t-50 200q0 122 55 199t151 77q87 0 142 -63v274zM612 738l-53 -178l-47 7l25 180zM267 471q-137 0 -137 -208q0 -207 127 -207q75 0 131 83v264q-47 68 -121 68z" />
<glyph unicode="&#x110;" d="M93 688h147q53 0 96 -7.5t86.5 -30t73 -59t48 -98.5t18.5 -145t-19 -146.5t-49 -101t-72.5 -61t-83 -31.5t-87.5 -8h-158v320h-73v66h73v302zM179 69h83q208 0 208 279q0 85 -18.5 142.5t-51.5 83.5t-65 35t-74 9h-82v-232h159v-66h-159v-251z" />
<glyph unicode="&#x111;" d="M581 598h-79v-598h-73l-8 69q-57 -80 -149 -80q-100 0 -150.5 73t-50.5 200q0 122 55 199t151 77q87 0 142 -63v123h-172v66h172v85l83 -10v-75h79v-66zM419 139v264q-47 68 -120 68q-67 0 -102.5 -52.5t-35.5 -155.5q0 -207 128 -207q74 0 130 83z" />
<glyph unicode="&#x112;" d="M186 795v64h269v-64h-269zM212 385h255v-71h-255v-245h313v-69h-399v688h390l-10 -70h-294v-233z" />
<glyph unicode="&#x113;" d="M175 676v64h269v-64h-269zM520 234h-354q3 -88 46 -132t108 -44q80 0 141 49l39 -57q-79 -61 -180 -61q-114 0 -177.5 74.5t-63.5 199.5q0 120 62.5 197.5t163.5 77.5q102 0 159.5 -69.5t57.5 -189.5q0 -23 -2 -45zM306 469q-59 0 -97 -43.5t-43 -127.5h276 q-1 84 -37 127.5t-99 43.5z" />
<glyph unicode="&#x114;" d="M319 759q-58 0 -99.5 32.5t-47.5 86.5l57 12q24 -67 90 -67q69 0 93 67l57 -12q-6 -54 -48.5 -86.5t-101.5 -32.5zM212 385h255v-71h-255v-245h313v-69h-399v688h390l-10 -70h-294v-233z" />
<glyph unicode="&#x115;" d="M308 630q-63 0 -101.5 41.5t-45.5 93.5l57 13q24 -84 90 -84q68 0 93 84l57 -13q-7 -52 -46.5 -93.5t-103.5 -41.5zM520 234h-354q3 -88 46 -132t108 -44q80 0 141 49l39 -57q-79 -61 -180 -61q-114 0 -177.5 74.5t-63.5 199.5q0 120 62.5 197.5t163.5 77.5 q102 0 159.5 -69.5t57.5 -189.5q0 -23 -2 -45zM306 469q-59 0 -97 -43.5t-43 -127.5h276q-1 84 -37 127.5t-99 43.5z" />
<glyph unicode="&#x116;" d="M320 892q27 0 44 -17t17 -42q0 -26 -17 -42.5t-44 -16.5t-43.5 16.5t-16.5 42.5q0 25 16.5 42t43.5 17zM212 385h255v-71h-255v-245h313v-69h-399v688h390l-10 -70h-294v-233z" />
<glyph unicode="&#x117;" d="M309 773q27 0 44 -17t17 -42q0 -26 -17 -42.5t-44 -16.5t-43.5 16.5t-16.5 42.5q0 25 16.5 42t43.5 17zM520 234h-354q3 -88 46 -132t108 -44q80 0 141 49l39 -57q-79 -61 -180 -61q-114 0 -177.5 74.5t-63.5 199.5q0 120 62.5 197.5t163.5 77.5q102 0 159.5 -69.5 t57.5 -189.5q0 -23 -2 -45zM306 469q-59 0 -97 -43.5t-43 -127.5h276q-1 84 -37 127.5t-99 43.5z" />
<glyph unicode="&#x118;" d="M525 69v-69h-57q-72 -32 -98 -58.5t-26 -56.5q0 -47 55 -47q33 0 62 7l-8 -67q-35 -7 -64 -7q-56 0 -88.5 28t-32.5 70q0 82 105 131h-247v688h390l-10 -70h-294v-233h255v-71h-255v-245h313z" />
<glyph unicode="&#x119;" d="M522 279q0 -23 -2 -45h-354q3 -88 46 -132t108 -44q80 0 141 49l39 -57q-46 -35 -101 -50q-72 -32 -98 -58.5t-26 -56.5q0 -47 55 -47q33 0 62 7l-8 -67q-35 -7 -64 -7q-56 0 -88.5 28t-32.5 70q0 79 102 121q-105 6 -163.5 79.5t-58.5 193.5t62.5 197.5t163.5 77.5 q102 0 159.5 -69.5t57.5 -189.5zM166 298h276q-1 84 -37 127.5t-99 43.5q-59 0 -97 -43.5t-43 -127.5z" />
<glyph unicode="&#x11a;" d="M484 862l-134 -108h-56l-136 108l38 42l125 -81l126 81zM212 385h255v-71h-255v-245h313v-69h-399v688h390l-10 -70h-294v-233z" />
<glyph unicode="&#x11b;" d="M473 748l-134 -119h-56l-136 119l40 41l124 -91l124 91zM520 234h-354q3 -88 46 -132t108 -44q80 0 141 49l39 -57q-79 -61 -180 -61q-114 0 -177.5 74.5t-63.5 199.5q0 120 62.5 197.5t163.5 77.5q102 0 159.5 -69.5t57.5 -189.5q0 -23 -2 -45zM306 469q-59 0 -97 -43.5 t-43 -127.5h276q-1 84 -37 127.5t-99 43.5z" />
<glyph unicode="&#x11c;" d="M493 803l-37 -43l-126 81l-125 -81l-38 43l136 107h56zM314 -11q-125 0 -196.5 90.5t-71.5 265.5q0 169 84.5 262t203.5 93q64 0 108.5 -18.5t87.5 -57.5l-52 -54q-61 57 -144 57q-85 0 -141 -67.5t-56 -214.5q0 -148 46 -216t138 -68q72 0 132 33v211h-136l-10 71h231 v-328q-111 -59 -224 -59z" />
<glyph unicode="&#x11d;" d="M139 670l136 119h56l134 -119l-38 -41l-124 91l-124 -91zM528 582l26 -79q-52 -15 -154 -15q92 -42 92 -132q0 -80 -53 -130t-145 -50q-44 0 -79 11q-27 -20 -27 -52q0 -44 70 -44h95q79 0 132.5 -41t53.5 -102q0 -77 -65.5 -118.5t-185.5 -41.5q-123 0 -172.5 38 t-49.5 121h75q0 -49 30.5 -70t115.5 -21q168 0 168 87q0 36 -33.5 56t-85.5 20h-94q-65 0 -99 28.5t-34 70.5q0 54 58 92q-88 45 -88 145q0 81 58.5 132t151.5 51q91 0 138 10t101 34zM288 477q-61 0 -92.5 -33t-31.5 -89t32 -89.5t94 -33.5q56 0 85.5 32.5t29.5 91.5 q0 121 -117 121z" />
<glyph unicode="&#x11e;" d="M328 759q-58 0 -99.5 32.5t-47.5 86.5l57 12q24 -67 90 -67q69 0 93 67l57 -12q-6 -54 -48.5 -86.5t-101.5 -32.5zM314 -11q-125 0 -196.5 90.5t-71.5 265.5q0 169 84.5 262t203.5 93q64 0 108.5 -18.5t87.5 -57.5l-52 -54q-61 57 -144 57q-85 0 -141 -67.5t-56 -214.5 q0 -148 46 -216t138 -68q72 0 132 33v211h-136l-10 71h231v-328q-111 -59 -224 -59z" />
<glyph unicode="&#x11f;" d="M300 630q-63 0 -101.5 41.5t-45.5 93.5l57 13q24 -84 90 -84q68 0 93 84l57 -13q-7 -52 -46.5 -93.5t-103.5 -41.5zM528 582l26 -79q-52 -15 -154 -15q92 -42 92 -132q0 -80 -53 -130t-145 -50q-44 0 -79 11q-27 -20 -27 -52q0 -44 70 -44h95q79 0 132.5 -41t53.5 -102 q0 -77 -65.5 -118.5t-185.5 -41.5q-123 0 -172.5 38t-49.5 121h75q0 -49 30.5 -70t115.5 -21q168 0 168 87q0 36 -33.5 56t-85.5 20h-94q-65 0 -99 28.5t-34 70.5q0 54 58 92q-88 45 -88 145q0 81 58.5 132t151.5 51q91 0 138 10t101 34zM288 477q-61 0 -92.5 -33t-31.5 -89 t32 -89.5t94 -33.5q56 0 85.5 32.5t29.5 91.5q0 121 -117 121z" />
<glyph unicode="&#x120;" d="M329 892q27 0 44 -17t17 -42q0 -26 -17 -42.5t-44 -16.5t-43.5 16.5t-16.5 42.5q0 25 16.5 42t43.5 17zM314 -11q-125 0 -196.5 90.5t-71.5 265.5q0 169 84.5 262t203.5 93q64 0 108.5 -18.5t87.5 -57.5l-52 -54q-61 57 -144 57q-85 0 -141 -67.5t-56 -214.5 q0 -148 46 -216t138 -68q72 0 132 33v211h-136l-10 71h231v-328q-111 -59 -224 -59z" />
<glyph unicode="&#x121;" d="M301 773q27 0 44 -17t17 -42q0 -26 -17 -42.5t-44 -16.5t-43.5 16.5t-16.5 42.5q0 25 16.5 42t43.5 17zM528 582l26 -79q-52 -15 -154 -15q92 -42 92 -132q0 -80 -53 -130t-145 -50q-44 0 -79 11q-27 -20 -27 -52q0 -44 70 -44h95q79 0 132.5 -41t53.5 -102 q0 -77 -65.5 -118.5t-185.5 -41.5q-123 0 -172.5 38t-49.5 121h75q0 -49 30.5 -70t115.5 -21q168 0 168 87q0 36 -33.5 56t-85.5 20h-94q-65 0 -99 28.5t-34 70.5q0 54 58 92q-88 45 -88 145q0 81 58.5 132t151.5 51q91 0 138 10t101 34zM288 477q-61 0 -92.5 -33t-31.5 -89 t32 -89.5t94 -33.5q56 0 85.5 32.5t29.5 91.5q0 121 -117 121z" />
<glyph unicode="&#x122;" d="M314 -11q-125 0 -196.5 90.5t-71.5 265.5q0 169 84.5 262t203.5 93q64 0 108.5 -18.5t87.5 -57.5l-52 -54q-61 57 -144 57q-85 0 -141 -67.5t-56 -214.5q0 -148 46 -216t138 -68q72 0 132 33v211h-136l-10 71h231v-328q-111 -59 -224 -59zM334 -71q23 0 38.5 -15 t15.5 -38t-15 -54l-50 -108h-50l29 118q-22 17 -22 44q0 23 15.5 38t38.5 15z" />
<glyph unicode="&#x123;" d="M299 597q-23 0 -38.5 15t-15.5 38t15 54l50 108h50l-29 -118q22 -17 22 -44q0 -23 -15.5 -38t-38.5 -15zM528 582l26 -79q-52 -15 -154 -15q92 -42 92 -132q0 -80 -53 -130t-145 -50q-44 0 -79 11q-27 -20 -27 -52q0 -44 70 -44h95q79 0 132.5 -41t53.5 -102 q0 -77 -65.5 -118.5t-185.5 -41.5q-123 0 -172.5 38t-49.5 121h75q0 -49 30.5 -70t115.5 -21q168 0 168 87q0 36 -33.5 56t-85.5 20h-94q-65 0 -99 28.5t-34 70.5q0 54 58 92q-88 45 -88 145q0 81 58.5 132t151.5 51q91 0 138 10t101 34zM288 477q-61 0 -92.5 -33t-31.5 -89 t32 -89.5t94 -33.5q56 0 85.5 32.5t29.5 91.5q0 121 -117 121z" />
<glyph unicode="&#x124;" d="M463 803l-37 -43l-126 81l-125 -81l-38 43l136 107h56zM431 328h-262v-328h-85v688h85v-291h262v291h85v-688h-85v328z" />
<glyph unicode="&#x125;" d="M463 853l-37 -43l-126 81l-125 -81l-38 43l136 107h56zM184 747v-293q30 40 75 62t93 22q148 0 148 -156v-382h-83v381q0 47 -22 69t-69 22q-42 0 -80.5 -26.5t-61.5 -61.5v-384h-83v737z" />
<glyph unicode="&#x126;" d="M598 509h-81v-509h-86v327h-262v-327h-86v509h-81v66h81v113h86v-113h262v113h86v-113h81v-66zM431 509h-262v-111h262v111z" />
<glyph unicode="&#x127;" d="M352 538q148 0 148 -156v-382h-83v381q0 47 -22 69t-69 22q-42 0 -80.5 -26.5t-61.5 -61.5v-384h-83v598h-82v66h82v73l83 10v-83h169v-66h-169v-144q30 40 75 62t93 22z" />
<glyph unicode="&#x128;" d="M351 771q-32 0 -64.5 24.5t-44.5 24.5q-26 0 -51 -44l-54 24q37 84 111 84q33 0 65 -24t44 -24q26 0 51 44l54 -24q-39 -85 -111 -85zM497 620h-154v-551h154v-69h-394v69h154v551h-154v68h394v-68z" />
<glyph unicode="&#x129;" d="M352 652q-32 0 -64.5 24.5t-44.5 24.5q-26 0 -51 -44l-54 24q37 84 111 84q33 0 65 -24t44 -24q26 0 51 44l54 -24q-39 -85 -111 -85zM367 66h148v-66h-394v66h163v395h-158v65h241v-460z" />
<glyph unicode="&#x12a;" d="M165 795v64h269v-64h-269zM497 620h-154v-551h154v-69h-394v69h154v551h-154v68h394v-68z" />
<glyph unicode="&#x12b;" d="M166 676v64h269v-64h-269zM367 66h148v-66h-394v66h163v395h-158v65h241v-460z" />
<glyph unicode="&#x12c;" d="M298 759q-58 0 -99.5 32.5t-47.5 86.5l57 12q24 -67 90 -67q69 0 93 67l57 -12q-6 -54 -48.5 -86.5t-101.5 -32.5zM497 620h-154v-551h154v-69h-394v69h154v551h-154v68h394v-68z" />
<glyph unicode="&#x12d;" d="M299 630q-63 0 -101.5 41.5t-45.5 93.5l57 13q24 -84 90 -84q68 0 93 84l57 -13q-7 -52 -46.5 -93.5t-103.5 -41.5zM367 66h148v-66h-394v66h163v395h-158v65h241v-460z" />
<glyph unicode="&#x12e;" d="M343 620v-551h154v-69h-153q-72 -32 -98 -58.5t-26 -56.5q0 -47 55 -47q33 0 62 7l-8 -67q-35 -7 -64 -7q-56 0 -88.5 28t-32.5 70q0 82 105 131h-146v69h154v551h-154v68h394v-68h-154z" />
<glyph unicode="&#x12f;" d="M300 655q-27 0 -43.5 16.5t-16.5 42.5q0 25 16.5 42t43.5 17t44 -17t17 -42q0 -26 -17 -42.5t-44 -16.5zM515 66v-66h-148q-72 -32 -98 -58.5t-26 -56.5q0 -47 55 -47q33 0 62 7l-8 -67q-35 -7 -64 -7q-56 0 -88.5 28t-32.5 70q0 82 105 131h-151v66h163v395h-158v65h241 v-460h148z" />
<glyph unicode="&#x130;" d="M299 892q27 0 44 -17t17 -42q0 -26 -17 -42.5t-44 -16.5t-43.5 16.5t-16.5 42.5q0 25 16.5 42t43.5 17zM497 620h-154v-551h154v-69h-394v69h154v551h-154v68h394v-68z" />
<glyph unicode="&#x131;" d="M367 66h148v-66h-394v66h163v395h-158v65h241v-460z" />
<glyph unicode="&#x132;" d="M205 -135l-10 64q144 14 197.5 79t53.5 186v423h-246v-546h80v-71h-269v71h101v546h-101v71h521v-500q0 -63 -14.5 -113.5t-49 -96.5t-101 -75.5t-162.5 -37.5z" />
<glyph unicode="&#x133;" d="M221 726q6 -30 -11.5 -54t-49.5 -29t-55.5 12t-29.5 47q-5 30 11.5 54t48.5 29q32 4 56.5 -12.5t29.5 -46.5zM558 726q6 -30 -11.5 -54t-49.5 -29t-56 12t-29 47t11.5 54t48.5 29q32 4 56.5 -12.5t29.5 -46.5zM49 0v66h94v397h-89v63h446v-472q0 -101 -68.5 -164 t-186.5 -102l-25 65q44 17 72.5 31.5t61 38t49 55t16.5 71.5v414h-197v-397h97v-66h-270z" />
<glyph unicode="&#x134;" d="M513 803l-37 -43l-126 81l-125 -81l-38 43l136 107h56zM496 688v-460q0 -46 -11.5 -86t-37 -76t-73 -57t-112.5 -21q-106 0 -189 63l38 57q76 -48 150 -48q71 0 110.5 46t39.5 127v385h-204v70h289z" />
<glyph unicode="&#x135;" d="M205 670l136 119h56l134 -119l-38 -41l-124 91l-124 -91zM445 526v-443q0 -127 -85 -197t-250 -98l-14 64q127 21 196.5 73.5t69.5 152.5v383h-220v65h303z" />
<glyph unicode="&#x136;" d="M106 0v688h85v-688h-85zM468 688h99l-270 -315l289 -373h-107l-283 368zM326 -71q23 0 38.5 -15t15.5 -38t-15 -54l-50 -108h-50l29 118q-22 17 -22 44q0 23 15.5 38t38.5 15z" />
<glyph unicode="&#x137;" d="M189 0h-83v739l83 10v-749zM303 289l266 -289h-110l-260 288l234 238h108zM309 -71q23 0 38.5 -15t15.5 -38t-15 -54l-50 -108h-50l29 118q-22 17 -22 44q0 23 15.5 38t38.5 15z" />
<glyph unicode="&#x138;" d="M184 0h-83v526h83v-526zM296 288l267 -288h-110l-260 283l234 243h108z" />
<glyph unicode="&#x139;" d="M299 834l-213 -78l-22 44l198 105zM136 688h86v-611h314l-10 -77h-390v688z" />
<glyph unicode="&#x13a;" d="M335 997l44 -71l-201 -90l-28 46zM305 739v-610q0 -71 87 -71q42 0 89 18l22 -60q-50 -27 -125 -27q-70 0 -113 39t-43 106v539h-162v66h245z" />
<glyph unicode="&#x13b;" d="M136 688h86v-611h314l-10 -77h-390v688zM335 -71q23 0 38.5 -15t15.5 -38t-15 -54l-50 -108h-50l29 118q-22 17 -22 44q0 23 15.5 38t38.5 15z" />
<glyph unicode="&#x13c;" d="M305 739v-610q0 -71 87 -71q42 0 89 18l22 -60q-50 -27 -125 -27q-70 0 -113 39t-43 106v539h-162v66h245zM364 -71q23 0 38.5 -15t15.5 -38t-15 -54l-50 -108h-50l29 118q-22 17 -22 44q0 23 15.5 38t38.5 15z" />
<glyph unicode="&#x13d;" d="M382 687l-53 -177l-47 7l25 179zM136 688h86v-611h314l-10 -77h-390v688z" />
<glyph unicode="&#x13e;" d="M456 738l-53 -177l-47 7l25 179zM305 739v-610q0 -71 87 -71q42 0 89 18l22 -60q-50 -27 -125 -27q-70 0 -113 39t-43 106v539h-162v66h245z" />
<glyph unicode="&#x13f;" d="M136 688h86v-611h314l-10 -77h-390v688zM472 437q27 0 44 -17t17 -42q0 -26 -17 -42.5t-44 -16.5t-43.5 16.5t-16.5 42.5q0 25 16.5 42t43.5 17z" />
<glyph unicode="&#x140;" d="M305 739v-610q0 -71 87 -71q42 0 89 18l22 -60q-50 -27 -125 -27q-70 0 -113 39t-43 106v539h-162v66h245zM560 441q27 0 44 -17t17 -42q0 -26 -17 -42.5t-44 -16.5t-43.5 16.5t-16.5 42.5q0 25 16.5 42t43.5 17z" />
<glyph unicode="&#x141;" d="M534 77l-10 -77h-390v268l-57 -35l-36 56l93 57v342h86v-289l165 103l37 -55l-202 -125v-245h314z" />
<glyph unicode="&#x142;" d="M481 76l22 -60q-50 -27 -125 -27q-70 0 -113 39t-43 106v172l-68 -41l-35 54l103 62v292h-162v66h245v-306l90 56l35 -54l-125 -78v-228q0 -71 87 -71q42 0 89 18z" />
<glyph unicode="&#x143;" d="M419 834l-213 -78l-22 44l198 105zM156 589h-4q12 -156 12 -243v-346h-80v688h116l244 -592h4q-12 144 -12 247v345h80v-688h-120z" />
<glyph unicode="&#x144;" d="M370 787l44 -71l-201 -90l-28 46zM101 526h71l6 -73q32 40 79 62.5t95 22.5q148 0 148 -156v-382h-83v320q0 87 -16.5 119.5t-73.5 32.5q-43 0 -81.5 -26t-61.5 -62v-384h-83v526z" />
<glyph unicode="&#x145;" d="M156 589h-4q12 -156 12 -243v-346h-80v688h116l244 -592h4q-12 144 -12 247v345h80v-688h-120zM303 -71q23 0 38.5 -15t15.5 -38t-15 -54l-50 -108h-50l29 118q-22 17 -22 44q0 23 15.5 38t38.5 15z" />
<glyph unicode="&#x146;" d="M101 526h71l6 -73q32 40 79 62.5t95 22.5q148 0 148 -156v-382h-83v320q0 87 -16.5 119.5t-73.5 32.5q-43 0 -81.5 -26t-61.5 -62v-384h-83v526zM304 -71q23 0 38.5 -15t15.5 -38t-15 -54l-50 -108h-50l29 118q-22 17 -22 44q0 23 15.5 38t38.5 15z" />
<glyph unicode="&#x147;" d="M462 862l-134 -108h-56l-136 108l38 42l125 -81l126 81zM156 589h-4q12 -156 12 -243v-346h-80v688h116l244 -592h4q-12 144 -12 247v345h80v-688h-120z" />
<glyph unicode="&#x148;" d="M463 750l-134 -119h-56l-136 119l40 41l124 -91l124 91zM101 526h71l6 -73q32 40 79 62.5t95 22.5q148 0 148 -156v-382h-83v320q0 87 -16.5 119.5t-73.5 32.5q-43 0 -81.5 -26t-61.5 -62v-384h-83v526z" />
<glyph unicode="&#x149;" d="M98 749q23 0 38.5 -15.5t15.5 -38.5q0 -22 -26 -76l-42 -89h-49l30 121q-23 21 -23 45q0 22 16.5 37.5t39.5 15.5zM109 526h71l7 -73q31 40 78.5 62.5t95.5 22.5q148 0 148 -156v-382h-83v320q0 87 -17 119.5t-74 32.5q-43 0 -81 -26t-62 -62v-384h-83v526z" />
<glyph unicode="&#x14a;" d="M516 688v-694q0 -146 -173 -206l-23 68q66 25 89 57t22 87h-35l-240 589h-4q12 -156 12 -243v-346h-80v688h116l244 -592h4q-12 144 -12 247v345h80z" />
<glyph unicode="&#x14b;" d="M500 382v-354q0 -73 -18.5 -118.5t-48.5 -70t-87 -50.5l-31 61q58 27 80 59.5t22 113.5v297q0 88 -16.5 120t-74.5 32q-42 0 -80.5 -26.5t-61.5 -61.5v-384h-83v526h71l6 -73q32 40 79 62.5t95 22.5q148 0 148 -156z" />
<glyph unicode="&#x14c;" d="M165 795v64h269v-64h-269zM553 344q0 -161 -65.5 -258t-187.5 -97q-123 0 -188 95t-65 258q0 162 65.5 260t187.5 98t187.5 -96.5t65.5 -259.5zM464 344q0 141 -39 212t-125 71t-125 -71.5t-39 -213.5q0 -281 164 -281q85 0 124.5 71t39.5 212z" />
<glyph unicode="&#x14d;" d="M165 676v64h269v-64h-269zM301 538q109 0 167 -73.5t58 -200.5q0 -124 -59 -199.5t-167 -75.5q-109 0 -167.5 73.5t-58.5 200.5q0 125 59.5 200t167.5 75zM301 470q-138 0 -138 -207q0 -206 137 -206t137 207q0 206 -136 206z" />
<glyph unicode="&#x14e;" d="M298 759q-58 0 -99.5 32.5t-47.5 86.5l57 12q24 -67 90 -67q69 0 93 67l57 -12q-6 -54 -48.5 -86.5t-101.5 -32.5zM553 344q0 -161 -65.5 -258t-187.5 -97q-123 0 -188 95t-65 258q0 162 65.5 260t187.5 98t187.5 -96.5t65.5 -259.5zM464 344q0 141 -39 212t-125 71 t-125 -71.5t-39 -213.5q0 -281 164 -281q85 0 124.5 71t39.5 212z" />
<glyph unicode="&#x14f;" d="M298 630q-63 0 -101.5 41.5t-45.5 93.5l57 13q24 -84 90 -84q68 0 93 84l57 -13q-7 -52 -46.5 -93.5t-103.5 -41.5zM301 538q109 0 167 -73.5t58 -200.5q0 -124 -59 -199.5t-167 -75.5q-109 0 -167.5 73.5t-58.5 200.5q0 125 59.5 200t167.5 75zM301 470 q-138 0 -138 -207q0 -206 137 -206t137 207q0 206 -136 206z" />
<glyph unicode="&#x150;" d="M260 954l74 -35l-97 -164l-54 26zM434 954l73 -38l-108 -163l-52 28zM553 344q0 -161 -65.5 -258t-187.5 -97q-123 0 -188 95t-65 258q0 162 65.5 260t187.5 98t187.5 -96.5t65.5 -259.5zM464 344q0 141 -39 212t-125 71t-125 -71.5t-39 -213.5q0 -281 164 -281 q85 0 124.5 71t39.5 212z" />
<glyph unicode="&#x151;" d="M254 835l74 -35l-97 -164l-54 26zM428 835l73 -38l-108 -163l-52 28zM301 538q109 0 167 -73.5t58 -200.5q0 -124 -59 -199.5t-167 -75.5q-109 0 -167.5 73.5t-58.5 200.5q0 125 59.5 200t167.5 75zM301 470q-138 0 -138 -207q0 -206 137 -206t137 207q0 206 -136 206z " />
<glyph unicode="&#x152;" d="M211 700q37 0 71 -12h326l-10 -70h-244q58 -69 65 -234h154v-70h-154q-4 -170 -69 -244h268v-70h-338q-36 -11 -69 -11q-212 0 -212 353q0 175 53.5 266.5t158.5 91.5zM211 629q-62 0 -91 -67.5t-29 -219.5q0 -150 29.5 -216.5t90.5 -66.5q64 0 93.5 66.5t29.5 218.5 t-29 218.5t-94 66.5z" />
<glyph unicode="&#x153;" d="M449 538q166 0 166 -259q0 -22 -2 -46h-263q7 -91 32.5 -132.5t77.5 -41.5q45 0 96 39l39 -57q-65 -52 -136 -52q-109 0 -150 101q-20 -49 -53 -75t-89 -26q-85 0 -127 72.5t-42 201.5q0 128 41.5 201.5t127.5 73.5q59 0 91.5 -26.5t51.5 -77.5q41 104 139 104zM177 471 q-48 0 -69 -50.5t-21 -157.5q0 -109 21 -157.5t69 -48.5q49 0 69 46.5t20 160.5q0 107 -20.5 157t-68.5 50zM447 468q-46 0 -68.5 -38.5t-28.5 -131.5h184q-2 88 -21 129t-66 41z" />
<glyph unicode="&#x154;" d="M420 834l-213 -78l-22 44l198 105zM537 496q0 -75 -46.5 -123.5t-122.5 -66.5l205 -306h-103l-188 296h-94v-296h-86v688h176q259 0 259 -192zM445 496q0 65 -38 94.5t-119 29.5h-100v-257h101q156 0 156 133z" />
<glyph unicode="&#x155;" d="M379 785l44 -71l-201 -90l-28 46zM94 0v66h123v395h-123v65h195l10 -101q23 55 63 84t89 29q36 0 69 -8l-15 -82q-34 9 -61 9q-51 0 -90.5 -42t-53.5 -100v-249h148v-66h-354z" />
<glyph unicode="&#x156;" d="M537 496q0 -75 -46.5 -123.5t-122.5 -66.5l205 -306h-103l-188 296h-94v-296h-86v688h176q259 0 259 -192zM445 496q0 65 -38 94.5t-119 29.5h-100v-257h101q156 0 156 133zM302 -71q23 0 38.5 -15t15.5 -38t-15 -54l-50 -108h-50l29 118q-22 17 -22 44q0 23 15.5 38 t38.5 15z" />
<glyph unicode="&#x157;" d="M94 0v66h123v395h-123v65h195l10 -101q23 55 63 84t89 29q36 0 69 -8l-15 -82q-34 9 -61 9q-51 0 -90.5 -42t-53.5 -100v-249h148v-66h-354zM261 -71q23 0 38.5 -15t15.5 -38t-15 -54l-50 -108h-50l29 118q-22 17 -22 44q0 23 15.5 38t38.5 15z" />
<glyph unicode="&#x158;" d="M463 862l-134 -108h-56l-136 108l38 42l125 -81l126 81zM537 496q0 -75 -46.5 -123.5t-122.5 -66.5l205 -306h-103l-188 296h-94v-296h-86v688h176q259 0 259 -192zM445 496q0 65 -38 94.5t-119 29.5h-100v-257h101q156 0 156 133z" />
<glyph unicode="&#x159;" d="M472 748l-134 -119h-56l-136 119l40 41l124 -91l124 91zM94 0v66h123v395h-123v65h195l10 -101q23 55 63 84t89 29q36 0 69 -8l-15 -82q-34 9 -61 9q-51 0 -90.5 -42t-53.5 -100v-249h148v-66h-354z" />
<glyph unicode="&#x15a;" d="M425 834l-213 -78l-22 44l198 105zM536 191q0 -91 -66.5 -146.5t-184.5 -55.5q-151 0 -241 87l51 58q78 -73 192 -73q67 0 113.5 33t46.5 95q0 51 -31.5 80t-119.5 55q-112 33 -167 77.5t-55 121.5q0 78 62 127.5t161 49.5q127 0 219 -79l-51 -56q-70 63 -166 63 q-60 0 -99 -26.5t-39 -76.5q0 -44 37.5 -71t136.5 -56q96 -28 148.5 -73t52.5 -134z" />
<glyph unicode="&#x15b;" d="M377 785l44 -71l-201 -90l-28 46zM280 57q60 0 95.5 23t35.5 61q0 39 -24 60.5t-103 41.5q-92 23 -136 55t-44 96q0 66 55 105t144 39q112 0 191 -59l-37 -56q-68 47 -152 47q-115 0 -115 -69q0 -35 28 -52.5t112 -40.5q86 -23 128.5 -58.5t42.5 -104.5q0 -53 -33 -89.5 t-81 -51.5t-108 -15q-123 0 -205 71l47 54q69 -57 159 -57z" />
<glyph unicode="&#x15c;" d="M468 803l-37 -43l-126 81l-125 -81l-38 43l136 107h56zM536 191q0 -91 -66.5 -146.5t-184.5 -55.5q-151 0 -241 87l51 58q78 -73 192 -73q67 0 113.5 33t46.5 95q0 51 -31.5 80t-119.5 55q-112 33 -167 77.5t-55 121.5q0 78 62 127.5t161 49.5q127 0 219 -79l-51 -56 q-70 63 -166 63q-60 0 -99 -26.5t-39 -76.5q0 -44 37.5 -71t136.5 -56q96 -28 148.5 -73t52.5 -134z" />
<glyph unicode="&#x15d;" d="M144 670l136 119h56l134 -119l-38 -41l-124 91l-124 -91zM280 57q60 0 95.5 23t35.5 61q0 39 -24 60.5t-103 41.5q-92 23 -136 55t-44 96q0 66 55 105t144 39q112 0 191 -59l-37 -56q-68 47 -152 47q-115 0 -115 -69q0 -35 28 -52.5t112 -40.5q86 -23 128.5 -58.5 t42.5 -104.5q0 -53 -33 -89.5t-81 -51.5t-108 -15q-123 0 -205 71l47 54q69 -57 159 -57z" />
<glyph unicode="&#x15e;" d="M536 191q0 -84 -57.5 -138.5t-161.5 -62.5v-47q46 -4 69 -27.5t23 -55.5q0 -47 -35 -72.5t-86 -25.5q-63 0 -105 24l27 48q30 -16 68 -16q60 0 60 42q0 25 -21.5 34t-65.5 9l7 87q-132 8 -214 86l51 58q78 -73 192 -73q67 0 113.5 33t46.5 95q0 51 -31.5 80t-119.5 55 q-112 33 -167 77.5t-55 121.5q0 78 62 127.5t161 49.5q127 0 219 -79l-51 -56q-70 63 -166 63q-60 0 -99 -26.5t-39 -76.5q0 -44 37.5 -71t136.5 -56q96 -28 148.5 -73t52.5 -134z" />
<glyph unicode="&#x15f;" d="M501 145q0 -70 -52 -108.5t-133 -45.5v-48q46 -4 69 -27.5t23 -55.5q0 -47 -35 -72.5t-86 -25.5q-63 0 -105 24l27 48q30 -16 68 -16q60 0 60 42q0 25 -21.5 34t-65.5 9l7 87q-109 5 -183 70l47 54q69 -57 159 -57q60 0 95.5 23t35.5 61q0 39 -24 60.5t-103 41.5 q-92 23 -136 55t-44 96q0 66 55 105t144 39q112 0 191 -59l-37 -56q-68 47 -152 47q-115 0 -115 -69q0 -35 28 -52.5t112 -40.5q86 -23 128.5 -58.5t42.5 -104.5z" />
<glyph unicode="&#x160;" d="M468 862l-134 -108h-56l-136 108l38 42l125 -81l126 81zM536 191q0 -91 -66.5 -146.5t-184.5 -55.5q-151 0 -241 87l51 58q78 -73 192 -73q67 0 113.5 33t46.5 95q0 51 -31.5 80t-119.5 55q-112 33 -167 77.5t-55 121.5q0 78 62 127.5t161 49.5q127 0 219 -79l-51 -56 q-70 63 -166 63q-60 0 -99 -26.5t-39 -76.5q0 -44 37.5 -71t136.5 -56q96 -28 148.5 -73t52.5 -134z" />
<glyph unicode="&#x161;" d="M470 748l-134 -119h-56l-136 119l40 41l124 -91l124 91zM280 57q60 0 95.5 23t35.5 61q0 39 -24 60.5t-103 41.5q-92 23 -136 55t-44 96q0 66 55 105t144 39q112 0 191 -59l-37 -56q-68 47 -152 47q-115 0 -115 -69q0 -35 28 -52.5t112 -40.5q86 -23 128.5 -58.5 t42.5 -104.5q0 -53 -33 -89.5t-81 -51.5t-108 -15q-123 0 -205 71l47 54q69 -57 159 -57z" />
<glyph unicode="&#x162;" d="M328 0v-57q46 -4 69 -27.5t23 -55.5q0 -47 -35 -72.5t-86 -25.5q-63 0 -105 24l27 48q30 -16 68 -16q60 0 60 42q0 25 -21.5 34t-65.5 9l8 97h-14v615h-216v73h519l-9 -73h-209v-615h-13z" />
<glyph unicode="&#x163;" d="M391 -11v-46q46 -4 69 -27.5t23 -55.5q0 -47 -35 -72.5t-86 -25.5q-63 0 -105 24l27 48q30 -16 68 -16q60 0 60 42q0 25 -21.5 34t-65.5 9l7 90q-62 11 -96.5 52t-34.5 102v315h-121v64h121v120l83 10v-130h182l-10 -64h-172v-314q0 -45 24 -67.5t77 -22.5t101 25l32 -57 q-50 -32 -127 -37z" />
<glyph unicode="&#x164;" d="M462 862l-134 -108h-56l-136 108l38 42l125 -81l126 81zM341 0h-85v615h-216v73h519l-9 -73h-209v-615z" />
<glyph unicode="&#x165;" d="M441 761l-54 -182l-48 7l25 184zM486 83l32 -57q-58 -37 -141 -37t-129.5 43.5t-46.5 114.5v315h-121v64h121v120l83 10v-130h182l-10 -64h-172v-314q0 -45 24 -67.5t77 -22.5t101 25z" />
<glyph unicode="&#x166;" d="M341 615v-198h132v-67h-132v-350h-85v350h-131v67h131v198h-216v73h519l-9 -73h-209z" />
<glyph unicode="&#x167;" d="M486 83l32 -57q-58 -37 -141 -37t-129.5 43.5t-46.5 114.5v141h-110v64h110v110h-121v64h121v120l83 10v-130h182l-10 -64h-172v-110h173v-64h-173v-140q0 -45 24 -67.5t77 -22.5t101 25z" />
<glyph unicode="&#x168;" d="M351 771q-32 0 -64.5 24.5t-44.5 24.5q-26 0 -51 -44l-54 24q37 84 111 84q33 0 65 -24t44 -24q26 0 51 44l54 -24q-39 -85 -111 -85zM527 688v-465q0 -105 -62 -169.5t-166 -64.5q-105 0 -165.5 64t-60.5 170v465h85v-469q0 -78 36.5 -117t104.5 -39q69 0 105.5 39 t36.5 117v469h86z" />
<glyph unicode="&#x169;" d="M351 652q-32 0 -64.5 24.5t-44.5 24.5q-26 0 -51 -44l-54 24q37 84 111 84q33 0 65 -24t44 -24q26 0 51 44l54 -24q-39 -85 -111 -85zM184 526v-373q0 -51 21.5 -74.5t67.5 -23.5q42 0 81.5 24.5t61.5 59.5v387h83v-526h-71l-7 71q-30 -39 -75.5 -60.5t-92.5 -21.5 q-75 0 -113.5 40t-38.5 114v383h83z" />
<glyph unicode="&#x16a;" d="M165 795v64h269v-64h-269zM527 688v-465q0 -105 -62 -169.5t-166 -64.5q-105 0 -165.5 64t-60.5 170v465h85v-469q0 -78 36.5 -117t104.5 -39q69 0 105.5 39t36.5 117v469h86z" />
<glyph unicode="&#x16b;" d="M165 676v64h269v-64h-269zM184 526v-373q0 -51 21.5 -74.5t67.5 -23.5q42 0 81.5 24.5t61.5 59.5v387h83v-526h-71l-7 71q-30 -39 -75.5 -60.5t-92.5 -21.5q-75 0 -113.5 40t-38.5 114v383h83z" />
<glyph unicode="&#x16c;" d="M298 759q-58 0 -99.5 32.5t-47.5 86.5l57 12q24 -67 90 -67q69 0 93 67l57 -12q-6 -54 -48.5 -86.5t-101.5 -32.5zM527 688v-465q0 -105 -62 -169.5t-166 -64.5q-105 0 -165.5 64t-60.5 170v465h85v-469q0 -78 36.5 -117t104.5 -39q69 0 105.5 39t36.5 117v469h86z" />
<glyph unicode="&#x16d;" d="M298 630q-63 0 -101.5 41.5t-45.5 93.5l57 13q24 -84 90 -84q68 0 93 84l57 -13q-7 -52 -46.5 -93.5t-103.5 -41.5zM184 526v-373q0 -51 21.5 -74.5t67.5 -23.5q42 0 81.5 24.5t61.5 59.5v387h83v-526h-71l-7 71q-30 -39 -75.5 -60.5t-92.5 -21.5q-75 0 -113.5 40 t-38.5 114v383h83z" />
<glyph unicode="&#x16e;" d="M300 942q48 0 79.5 -29.5t31.5 -73.5q0 -42 -31.5 -71.5t-79.5 -29.5t-79.5 29.5t-31.5 71.5q0 44 31.5 73.5t79.5 29.5zM300 896q-25 0 -39.5 -15t-14.5 -42q0 -26 14.5 -41t39.5 -15t39.5 15t14.5 41q0 27 -14 42t-40 15zM527 688v-465q0 -105 -62 -169.5t-166 -64.5 q-105 0 -165.5 64t-60.5 170v465h85v-469q0 -78 36.5 -117t104.5 -39q69 0 105.5 39t36.5 117v469h86z" />
<glyph unicode="&#x16f;" d="M300 823q48 0 79.5 -29.5t31.5 -73.5q0 -42 -31.5 -71.5t-79.5 -29.5t-79.5 29.5t-31.5 71.5q0 44 31.5 73.5t79.5 29.5zM300 777q-25 0 -39.5 -15t-14.5 -42q0 -26 14.5 -41t39.5 -15t39.5 15t14.5 41q0 27 -14 42t-40 15zM184 526v-373q0 -51 21.5 -74.5t67.5 -23.5 q42 0 81.5 24.5t61.5 59.5v387h83v-526h-71l-7 71q-30 -39 -75.5 -60.5t-92.5 -21.5q-75 0 -113.5 40t-38.5 114v383h83z" />
<glyph unicode="&#x170;" d="M260 954l74 -35l-97 -164l-54 26zM434 954l73 -38l-108 -163l-52 28zM527 688v-465q0 -105 -62 -169.5t-166 -64.5q-105 0 -165.5 64t-60.5 170v465h85v-469q0 -78 36.5 -117t104.5 -39q69 0 105.5 39t36.5 117v469h86z" />
<glyph unicode="&#x171;" d="M254 835l74 -35l-97 -164l-54 26zM428 835l73 -38l-108 -163l-52 28zM184 526v-373q0 -51 21.5 -74.5t67.5 -23.5q42 0 81.5 24.5t61.5 59.5v387h83v-526h-71l-7 71q-30 -39 -75.5 -60.5t-92.5 -21.5q-75 0 -113.5 40t-38.5 114v383h83z" />
<glyph unicode="&#x172;" d="M527 688v-465q0 -84 -40.5 -143t-111.5 -80q-72 -32 -97.5 -58.5t-25.5 -56.5q0 -47 55 -47q33 0 62 7l-8 -67q-35 -7 -64 -7q-56 0 -88.5 28t-32.5 70q0 74 87 122q-89 11 -139.5 73.5t-50.5 158.5v465h85v-469q0 -78 36.5 -117t104.5 -39q69 0 105.5 39t36.5 117v469 h86z" />
<glyph unicode="&#x173;" d="M499 526v-526q-72 -32 -98 -58.5t-26 -56.5q0 -47 55 -47q33 0 62 7l-8 -67q-35 -7 -64 -7q-56 0 -88.5 28t-32.5 70q0 89 128 141l-6 61q-30 -39 -75.5 -60.5t-92.5 -21.5q-75 0 -113.5 40t-38.5 114v383h83v-373q0 -51 21.5 -74.5t67.5 -23.5q42 0 81.5 24.5t61.5 59.5 v387h83z" />
<glyph unicode="&#x174;" d="M463 803l-37 -43l-126 81l-125 -81l-38 43l136 107h56zM490 0h-113l-77 505h-4l-78 -505h-116l-97 688h86l71 -585h4l82 505h106l76 -501h4l82 581h79z" />
<glyph unicode="&#x175;" d="M137 670l136 119h56l134 -119l-38 -41l-124 91l-124 -91zM372 0l-68 378h-4l-71 -378h-115l-96 526h85l68 -462h4l80 395h99l75 -393h4l68 460h81l-92 -526h-118z" />
<glyph unicode="&#x176;" d="M466 803l-37 -43l-126 81l-125 -81l-38 43l136 107h56zM343 0h-86v265l-233 423h95l183 -345l185 345h89l-233 -422v-266z" />
<glyph unicode="&#x177;" d="M137 670l136 119h56l134 -119l-38 -41l-124 91l-124 -91zM538 526l-185 -529q-32 -91 -85 -145t-149 -64l-13 67q77 13 111 45.5t57 99.5h-28l-184 526h89l152 -463l149 463h86z" />
<glyph unicode="&#x178;" d="M199 767q-23 0 -38.5 15t-15.5 38t15.5 38.5t38.5 15.5t38.5 -15.5t15.5 -38.5q0 -22 -15.5 -37.5t-38.5 -15.5zM405 767q-23 0 -38 15.5t-15 37.5q0 23 15 38.5t38 15.5q24 0 39.5 -15.5t15.5 -38.5t-15.5 -38t-39.5 -15zM343 0h-86v265l-233 423h95l183 -345l185 345 h89l-233 -422v-266z" />
<glyph unicode="&#x179;" d="M439 834l-213 -78l-22 44l198 105zM527 74l-10 -74h-445v70l364 545h-328v73h420v-70l-362 -544h361z" />
<glyph unicode="&#x17a;" d="M380 785l44 -71l-201 -90l-28 46zM498 71l-11 -71h-384v63l292 391h-269v72h369v-64l-291 -391h294z" />
<glyph unicode="&#x17b;" d="M317 892q27 0 44 -17t17 -42q0 -26 -17 -42.5t-44 -16.5t-43.5 16.5t-16.5 42.5q0 25 16.5 42t43.5 17zM527 74l-10 -74h-445v70l364 545h-328v73h420v-70l-362 -544h361z" />
<glyph unicode="&#x17c;" d="M309 773q27 0 44 -17t17 -42q0 -26 -17 -42.5t-44 -16.5t-43.5 16.5t-16.5 42.5q0 25 16.5 42t43.5 17zM498 71l-11 -71h-384v63l292 391h-269v72h369v-64l-291 -391h294z" />
<glyph unicode="&#x17d;" d="M482 862l-134 -108h-56l-136 108l38 42l125 -81l126 81zM527 74l-10 -74h-445v70l364 545h-328v73h420v-70l-362 -544h361z" />
<glyph unicode="&#x17e;" d="M473 748l-134 -119h-56l-136 119l40 41l124 -91l124 91zM498 71l-11 -71h-384v63l292 391h-269v72h369v-64l-291 -391h294z" />
<glyph unicode="&#x192;" d="M369 749q59 0 122 -27l-28 -61q-44 20 -92 20q-43 0 -61.5 -19t-18.5 -59v-77h129l-10 -65h-119v-422q0 -112 -33 -161.5t-120 -88.5l-30 60q57 27 79 60t22 114v438h-84v65h84v75q0 66 42.5 107t117.5 41z" />
<glyph unicode="&#x1fc;" d="M481 834l-213 -78l-22 44l198 105zM125 176l-49 -176h-88l202 688h376l-10 -70h-237l52 -234h186v-70h-173l52 -244h172v-70h-242l-36 176h-205zM314 248l-74 373l-92 -373h166z" />
<glyph unicode="&#x1fd;" d="M379 785l44 -71l-201 -90l-28 46zM435 538q172 0 172 -259q0 -22 -2 -46h-270q7 -90 34 -132t79 -42q47 0 100 39l38 -57q-65 -52 -139 -52q-96 0 -148 89q-35 -48 -69.5 -68.5t-83.5 -20.5q-70 0 -111 44t-41 118q0 82 54.5 125.5t159.5 43.5h46v44q0 104 -91 104 q-42 0 -105 -27l-22 63q71 34 135 34q103 0 138 -88q14 41 46.5 64.5t79.5 23.5zM432 468q-46 0 -68 -38.5t-29 -131.5h190q-2 87 -22.5 128.5t-70.5 41.5zM254 263h-43q-127 0 -127 -107q0 -50 20 -76.5t54 -26.5q32 0 56.5 23t53.5 74q-14 46 -14 113z" />
<glyph unicode="&#x1fe;" d="M207 756l-22 44l198 105l37 -71zM472 784l-39 -124q120 -87 120 -316q0 -161 -65.5 -258t-187.5 -97q-32 0 -64 8l-32 -107l-74 19l37 120q-120 85 -120 313q0 162 65.5 260t187.5 98q33 0 65 -8l32 111zM137 342q0 -185 60 -245l151 524q-21 6 -48 6q-85 0 -124 -71.5 t-39 -213.5zM300 61q85 0 124 71t39 212q0 189 -60 248l-152 -525q23 -6 49 -6z" />
<glyph unicode="&#x1ff;" d="M213 624l-28 46l185 115l44 -71zM458 634l-41 -126q109 -67 109 -244q0 -124 -59 -199.5t-167 -75.5q-23 0 -50 5l-37 -124l-70 20l42 129q-111 67 -111 244q0 125 59.5 200t167.5 75q22 0 49 -5l38 121zM301 469q-138 0 -138 -206q0 -134 53 -179l118 382q-15 3 -33 3z M300 57q137 0 137 207q0 131 -52 177l-118 -381q15 -3 33 -3z" />
<glyph unicode="&#x218;" d="M536 191q0 -91 -66.5 -146.5t-184.5 -55.5q-151 0 -241 87l51 58q78 -73 192 -73q67 0 113.5 33t46.5 95q0 51 -31.5 80t-119.5 55q-112 33 -167 77.5t-55 121.5q0 78 62 127.5t161 49.5q127 0 219 -79l-51 -56q-70 63 -166 63q-60 0 -99 -26.5t-39 -76.5q0 -44 37.5 -71 t136.5 -56q96 -28 148.5 -73t52.5 -134zM300 -71q23 0 38.5 -15t15.5 -38t-15 -54l-50 -108h-50l29 118q-22 17 -22 44q0 23 15.5 38t38.5 15z" />
<glyph unicode="&#x219;" d="M280 57q60 0 95.5 23t35.5 61q0 39 -24 60.5t-103 41.5q-92 23 -136 55t-44 96q0 66 55 105t144 39q112 0 191 -59l-37 -56q-68 47 -152 47q-115 0 -115 -69q0 -35 28 -52.5t112 -40.5q86 -23 128.5 -58.5t42.5 -104.5q0 -53 -33 -89.5t-81 -51.5t-108 -15 q-123 0 -205 71l47 54q69 -57 159 -57zM300 -71q23 0 38.5 -15t15.5 -38t-15 -54l-50 -108h-50l29 118q-22 17 -22 44q0 23 15.5 38t38.5 15z" />
<glyph unicode="&#x21a;" d="M341 0h-85v615h-216v73h519l-9 -73h-209v-615zM302 -71q23 0 38.5 -15t15.5 -38t-15 -54l-50 -108h-50l29 118q-22 17 -22 44q0 23 15.5 38t38.5 15z" />
<glyph unicode="&#x21b;" d="M486 83l32 -57q-58 -37 -141 -37t-129.5 43.5t-46.5 114.5v315h-121v64h121v120l83 10v-130h182l-10 -64h-172v-314q0 -45 24 -67.5t77 -22.5t101 25zM374 -71q23 0 38.5 -15t15.5 -38t-15 -54l-50 -108h-50l29 118q-22 17 -22 44q0 23 15.5 38t38.5 15z" />
<glyph unicode="&#x237;" d="M445 526v-443q0 -127 -85 -197t-250 -98l-14 64q127 21 196.5 73.5t69.5 152.5v383h-220v65h303z" />
<glyph unicode="&#x2bc;" d="M293 749q23 0 38.5 -15.5t15.5 -38.5q0 -21 -25 -76l-42 -89h-49l30 121q-23 21 -23 45q0 22 16 37.5t39 15.5z" />
<glyph unicode="&#x2c6;" d="M137 670l136 119h56l134 -119l-38 -41l-124 91l-124 -91z" />
<glyph unicode="&#x2c7;" d="M463 748l-134 -119h-56l-136 119l40 41l124 -91l124 91z" />
<glyph unicode="&#x2c9;" d="M165 683v64h269v-64h-269z" />
<glyph unicode="&#x2d8;" d="M298 630q-63 0 -101.5 41.5t-45.5 93.5l57 13q24 -84 90 -84q68 0 93 84l57 -13q-7 -52 -46.5 -93.5t-103.5 -41.5z" />
<glyph unicode="&#x2d9;" d="M299 773q27 0 44 -17t17 -42q0 -26 -17 -42.5t-44 -16.5t-43.5 16.5t-16.5 42.5q0 25 16.5 42t43.5 17z" />
<glyph unicode="&#x2da;" d="M300 823q48 0 79.5 -29.5t31.5 -73.5q0 -42 -31.5 -71.5t-79.5 -29.5t-79.5 29.5t-31.5 71.5q0 44 31.5 73.5t79.5 29.5zM300 777q-25 0 -39.5 -15t-14.5 -42q0 -26 14.5 -41t39.5 -15t39.5 15t14.5 41q0 27 -14 42t-40 15z" />
<glyph unicode="&#x2db;" d="M388 30l14 -30q-72 -32 -98 -58.5t-26 -56.5q0 -47 55 -47q33 0 62 7l-8 -67q-35 -7 -64 -7q-56 0 -88.5 28t-32.5 70q0 107 186 161z" />
<glyph unicode="&#x2dc;" d="M351 652q-32 0 -64.5 24.5t-44.5 24.5q-26 0 -51 -44l-54 24q37 84 111 84q33 0 65 -24t44 -24q26 0 51 44l54 -24q-39 -85 -111 -85z" />
<glyph unicode="&#x2dd;" d="M215 835l74 -35l-97 -164l-54 26zM389 835l73 -38l-108 -163l-52 28z" />
<glyph unicode="&#x300;" horiz-adv-x="0" d="M415 627l-25 -45l-205 82l46 71z" />
<glyph unicode="&#x301;" horiz-adv-x="0" d="M418 697l-213 -79l-23 45l198 105z" />
<glyph unicode="&#x302;" horiz-adv-x="0" d="M463 641l-37 -43l-126 81l-125 -81l-38 43l135 107h56z" />
<glyph unicode="&#x303;" horiz-adv-x="0" d="M353 598q-32 0 -65 24.5t-45 24.5q-26 0 -51 -44l-54 24q37 84 111 84q33 0 65 -24t44 -24q26 0 51 44l54 -24q-37 -85 -110 -85z" />
<glyph unicode="&#x304;" horiz-adv-x="0" d="M166 622v64h269v-64h-269z" />
<glyph unicode="&#x306;" horiz-adv-x="0" d="M298 586q-58 0 -99.5 32.5t-47.5 85.5l57 13q23 -67 90 -67q71 0 94 67l57 -13q-6 -53 -48.5 -85.5t-102.5 -32.5z" />
<glyph unicode="&#x307;" horiz-adv-x="0" d="M300 719q27 0 44 -17t17 -42q0 -26 -17 -42.5t-44 -16.5t-43.5 16.5t-16.5 42.5q0 25 16.5 42t43.5 17z" />
<glyph unicode="&#x308;" horiz-adv-x="0" d="M198 594q-24 0 -39.5 15t-15.5 38t15.5 38.5t39.5 15.5q23 0 38 -15.5t15 -38.5t-15.5 -38t-37.5 -15zM404 594q-23 0 -38.5 15t-15.5 38t15.5 38.5t38.5 15.5t38.5 -15.5t15.5 -38.5t-15.5 -38t-38.5 -15z" />
<glyph unicode="&#x30a;" horiz-adv-x="0" d="M300 769q48 0 79.5 -29.5t31.5 -73.5q0 -42 -31.5 -71.5t-79.5 -29.5t-79.5 29.5t-31.5 71.5q0 44 31.5 73.5t79.5 29.5zM300 723q-25 0 -39.5 -15t-14.5 -42q0 -26 14.5 -41t39.5 -15t39.5 15t14.5 41q0 27 -14 42t-40 15z" />
<glyph unicode="&#x30b;" horiz-adv-x="0" d="M215 781l74 -35l-97 -164l-54 26zM389 781l73 -38l-108 -163l-52 28z" />
<glyph unicode="&#x30c;" horiz-adv-x="0" d="M463 688l-135 -107h-56l-135 107l38 43l125 -81l126 81z" />
<glyph unicode="&#x313;" horiz-adv-x="0" d="M320 762q23 0 38.5 -15t15.5 -38q0 -19 -15 -54l-50 -108h-51l30 118q-22 16 -22 44q0 23 15.5 38t38.5 15z" />
<glyph unicode="&#x314;" horiz-adv-x="0" d="M394 559q-23 0 -38.5 15t-15.5 38q0 24 15 55l50 107h50l-29 -117q22 -19 22 -45q0 -22 -15.5 -37.5t-38.5 -15.5z" />
<glyph unicode="&#x326;" horiz-adv-x="0" d="M303 -71q23 0 38.5 -15t15.5 -38t-15 -54l-50 -108h-50l29 118q-22 17 -22 44q0 23 15.5 38t38.5 15z" />
<glyph unicode="&#x327;" horiz-adv-x="0" d="M342 -152q0 25 -21.5 34t-65.5 9l9 114h57v-73q46 -4 69.5 -28t23.5 -56q0 -46 -35.5 -71.5t-86.5 -25.5q-64 0 -104 24l26 48q30 -16 68 -16q60 0 60 41z" />
<glyph unicode="&#x335;" horiz-adv-x="0" d="M128 277v67h343v-67h-343z" />
<glyph unicode="&#x336;" horiz-adv-x="0" d="M-25 277v67h651v-67h-651z" />
<glyph unicode="&#x384;" d="M273 806l92 -16l-67 -200l-63 11z" />
<glyph unicode="&#x385;" d="M392 883l-60 -169l-65 10l29 176zM187 720q23 0 38.5 -15.5t15.5 -38.5t-15.5 -38t-38.5 -15t-39 15t-16 38t16 38.5t39 15.5zM411 720q24 0 39.5 -15.5t15.5 -38.5t-15.5 -38t-39.5 -15q-23 0 -38.5 15t-15.5 38t15.5 38.5t38.5 15.5z" />
<glyph unicode="&#x386;" d="M97 703l91 -15l-74 -180l-64 11zM161 176l-56 -176h-84l224 688h110l224 -688h-90l-55 176h-273zM412 247l-114 369l-115 -369h229z" />
<glyph unicode="&#x388;" d="M26 795l91 -15l-74 -180l-64 11zM212 385h255v-71h-255v-245h313v-69h-399v688h390l-10 -70h-294v-233z" />
<glyph unicode="&#x389;" d="M-39 703l91 -15l-74 -180l-64 11zM431 328h-262v-328h-85v688h85v-291h262v291h85v-688h-85v328z" />
<glyph unicode="&#x38a;" d="M-10 703l91 -15l-74 -180l-64 11zM497 620h-154v-551h154v-69h-394v69h154v551h-154v68h394v-68z" />
<glyph unicode="&#x38c;" d="M-7 703l91 -15l-74 -180l-64 11zM553 344q0 -161 -65.5 -258t-187.5 -97q-123 0 -188 95t-65 258q0 162 65.5 260t187.5 98t187.5 -96.5t65.5 -259.5zM464 344q0 141 -39 212t-125 71t-125 -71.5t-39 -213.5q0 -281 164 -281q85 0 124.5 71t39.5 212z" />
<glyph unicode="&#x38e;" d="M576 688l-233 -422v-266h-86v265l-232 421l-73 -178l-64 11l47 184l91 -15h93l183 -345l185 345h89z" />
<glyph unicode="&#x38f;" d="M-8 703l91 -15l-74 -180l-64 11zM300 628q-82 0 -123 -66t-41 -213q0 -221 130 -285v-64h-208v69h112v4q-123 64 -123 276q0 167 68 259t185 92t185 -92t68 -259q0 -208 -125 -276v-4h114v-69h-207v64q129 64 129 285q0 146 -41 212.5t-123 66.5z" />
<glyph unicode="&#x390;" d="M365 883l-60 -169l-65 10l29 176zM160 720q23 0 38.5 -15.5t15.5 -38.5t-15.5 -38t-38.5 -15t-39 15t-16 38t16 38.5t39 15.5zM384 720q24 0 39.5 -15.5t15.5 -38.5t-15.5 -38t-39.5 -15q-23 0 -38.5 15t-15.5 38t15.5 38.5t38.5 15.5zM63 456l10 70h251v-396 q0 -72 87 -72q42 0 89 18l22 -60q-46 -27 -125 -27q-71 0 -113.5 40t-42.5 110v317h-178z" />
<glyph unicode="&#x391;" d="M161 176l-56 -176h-84l224 688h110l224 -688h-90l-55 176h-273zM412 247l-114 369l-115 -369h229z" />
<glyph unicode="&#x392;" d="M539 196q0 -54 -22 -93.5t-60 -61t-81.5 -31.5t-94.5 -10h-184v688h169q48 0 89 -8.5t77 -27t56.5 -53.5t20.5 -84q0 -62 -36.5 -100t-91.5 -50q158 -27 158 -169zM421 510q0 109 -135 109h-104v-224h112q127 0 127 115zM449 193q0 131 -148 131h-119v-253h115 q152 0 152 122z" />
<glyph unicode="&#x393;" d="M535 613h-313v-613h-85v688h407z" />
<glyph unicode="&#x394;" d="M579 0h-558l224 688h110zM128 70h338l-168 544z" />
<glyph unicode="&#x395;" d="M212 385h255v-71h-255v-245h313v-69h-399v688h390l-10 -70h-294v-233z" />
<glyph unicode="&#x396;" d="M527 74l-10 -74h-445v70l364 545h-328v73h420v-70l-362 -544h361z" />
<glyph unicode="&#x397;" d="M431 328h-262v-328h-85v688h85v-291h262v291h85v-688h-85v328z" />
<glyph unicode="&#x398;" d="M553 344q0 -161 -65.5 -258t-187.5 -97q-123 0 -188 95t-65 258q0 162 65.5 260t187.5 98t187.5 -96.5t65.5 -259.5zM463 344q0 141 -38.5 212t-124.5 71t-124.5 -71.5t-38.5 -213.5q0 -281 163 -281q85 0 124 71t39 212zM197 316v72h205v-72h-205z" />
<glyph unicode="&#x399;" d="M497 620h-154v-551h154v-69h-394v69h154v551h-154v68h394v-68z" />
<glyph unicode="&#x39a;" d="M106 0v688h85v-688h-85zM468 688h99l-270 -315l289 -373h-107l-283 368z" />
<glyph unicode="&#x39b;" d="M574 0h-90l-186 609l-188 -609h-85l220 688h110z" />
<glyph unicode="&#x39c;" d="M569 0h-82l-22 361q-6 114 -6 229h-2l-114 -466h-87l-118 466h-4q0 -143 -4 -229l-19 -361h-80l39 688h120l112 -471l107 471h121z" />
<glyph unicode="&#x39d;" d="M156 589h-4q12 -156 12 -243v-346h-80v688h116l244 -592h4q-12 144 -12 247v345h80v-688h-120z" />
<glyph unicode="&#x39e;" d="M501 610h-424v78h436zM463 309h-336v80h336v-80zM523 0h-446v80h446v-80z" />
<glyph unicode="&#x39f;" d="M553 344q0 -161 -65.5 -258t-187.5 -97q-123 0 -188 95t-65 258q0 162 65.5 260t187.5 98t187.5 -96.5t65.5 -259.5zM464 344q0 141 -39 212t-125 71t-125 -71.5t-39 -213.5q0 -281 164 -281q85 0 124.5 71t39.5 212z" />
<glyph unicode="&#x3a0;" d="M431 614h-262v-614h-85v688h432v-688h-85v614z" />
<glyph unicode="&#x3a1;" d="M557 477q0 -115 -71 -168t-195 -53h-89v-256h-85v688h174q126 0 196 -53t70 -158zM465 476q0 144 -163 144h-100v-295h97q79 0 122.5 34t43.5 117z" />
<glyph unicode="&#x3a3;" d="M174 72h353v-72h-454v72l255 272l-255 271v73h454v-72h-355l232 -239v-61z" />
<glyph unicode="&#x3a4;" d="M341 0h-85v615h-216v73h519l-9 -73h-209v-615z" />
<glyph unicode="&#x3a5;" d="M343 0h-86v265l-233 423h95l183 -345l185 345h89l-233 -422v-266z" />
<glyph unicode="&#x3a6;" d="M342 688v-79q247 -12 247 -262q0 -128 -63 -195t-184 -71v-81h-84v81q-120 4 -183.5 71.5t-63.5 194.5q0 250 247 262v79h84zM259 145v400q-84 -2 -122.5 -46t-38.5 -152q0 -103 38 -150t123 -52zM341 545v-400q85 5 123 52t38 150q0 109 -38.5 153t-122.5 45z" />
<glyph unicode="&#x3a7;" d="M148 688l152 -265l152 265h93l-196 -316l220 -372h-99l-172 312l-175 -312h-92l217 367l-198 321h98z" />
<glyph unicode="&#x3a8;" d="M256 0v192q-122 9 -182.5 73t-60.5 165v258h88v-253q0 -78 35.5 -120t120.5 -50v423h87v-422q83 8 119 49.5t36 119.5v253h88v-258q0 -100 -61 -163.5t-181 -73.5v-193h-89z" />
<glyph unicode="&#x3a9;" d="M300 628q-82 0 -123 -66t-41 -213q0 -221 130 -285v-64h-208v69h112v4q-123 64 -123 276q0 167 68 259t185 92t185 -92t68 -259q0 -208 -125 -276v-4h114v-69h-207v64q129 64 129 285q0 146 -41 212.5t-123 66.5z" />
<glyph unicode="&#x3aa;" d="M196 767q-23 0 -38.5 15t-15.5 38t15.5 38.5t38.5 15.5t38.5 -15.5t15.5 -38.5q0 -22 -15.5 -37.5t-38.5 -15.5zM402 767q-22 0 -37.5 15.5t-15.5 37.5q0 23 15 38.5t38 15.5q24 0 39.5 -15.5t15.5 -38.5t-15.5 -38t-39.5 -15zM497 620h-154v-551h154v-69h-394v69h154 v551h-154v68h394v-68z" />
<glyph unicode="&#x3ab;" d="M199 767q-23 0 -38.5 15t-15.5 38t15.5 38.5t38.5 15.5t38.5 -15.5t15.5 -38.5q0 -22 -15.5 -37.5t-38.5 -15.5zM405 767q-23 0 -38 15.5t-15 37.5q0 23 15 38.5t38 15.5q24 0 39.5 -15.5t15.5 -38.5t-15.5 -38t-39.5 -15zM343 0h-86v265l-233 423h95l183 -345l185 345 h89l-233 -422v-266z" />
<glyph unicode="&#x3ac;" d="M279 806l92 -16l-67 -200l-63 11zM255 538q70 0 110 -37.5t56 -128.5l27 154h76l-51 -281l26 -136q6 -37 45 -51l-30 -70q-33 5 -59.5 30t-32.5 65l-8 56q-52 -150 -164 -150q-92 0 -141.5 67.5t-49.5 201.5q0 126 50.5 203t145.5 77zM261 471q-54 0 -83.5 -55 t-29.5 -158q0 -202 109 -202q102 0 143 211q-20 116 -53 160t-86 44z" />
<glyph unicode="&#x3ad;" d="M318 806l92 -16l-67 -200l-63 11zM391 241h-90q-67 0 -97.5 -20.5t-30.5 -65.5t38 -71.5t104 -26.5q102 0 186 58l45 -56q-94 -70 -236 -70q-100 0 -163.5 43t-63.5 120q0 59 33.5 90t98.5 40q-54 11 -82 41t-28 74q0 67 60 104t151 37q123 0 200 -54l-42 -52 q-64 39 -155 39q-128 0 -128 -82q0 -37 31 -58.5t84 -21.5h95z" />
<glyph unicode="&#x3ae;" d="M300 806l92 -16l-67 -200l-63 11zM351 538q149 0 149 -156v-584l-83 -10v532q0 87 -17 119.5t-75 32.5q-41 0 -79.5 -26.5t-62.5 -61.5v-384h-83v354q0 84 -27 173l78 11q17 -31 24 -88q33 42 80.5 65t95.5 23z" />
<glyph unicode="&#x3af;" d="M286 806l92 -16l-67 -200l-63 11zM63 456l10 70h251v-396q0 -72 87 -72q42 0 89 18l22 -60q-46 -27 -125 -27q-71 0 -113.5 40t-42.5 110v317h-178z" />
<glyph unicode="&#x3b0;" d="M395 883l-60 -169l-65 10l29 176zM190 720q23 0 38.5 -15.5t15.5 -38.5t-15.5 -38t-38.5 -15t-39 15t-16 38t16 38.5t39 15.5zM414 720q24 0 39.5 -15.5t15.5 -38.5t-15.5 -38t-39.5 -15q-23 0 -38.5 15t-15.5 38t15.5 38.5t38.5 15.5zM415 526h84q26 -143 26 -271 q0 -131 -69.5 -198.5t-167.5 -67.5q-83 0 -133.5 44t-50.5 128v365h83v-358q0 -111 104 -111q62 0 106 47.5t44 158.5q0 125 -26 263z" />
<glyph unicode="&#x3b1;" d="M255 538q70 0 110 -37.5t56 -128.5l27 154h76l-51 -281l26 -136q6 -37 45 -51l-30 -70q-33 5 -59.5 30t-32.5 65l-8 56q-52 -150 -164 -150q-92 0 -141.5 67.5t-49.5 201.5q0 126 50.5 203t145.5 77zM261 471q-54 0 -83.5 -55t-29.5 -158q0 -202 109 -202q102 0 143 211 q-20 116 -53 160t-86 44z" />
<glyph unicode="&#x3b2;" d="M341 404q206 -24 206 -202q0 -95 -66 -154t-156 -59q-86 0 -151 52v-242l-82 -11v752q0 98 53 153t147 55q84 0 142 -47.5t58 -128.5q0 -75 -42.5 -117.5t-108.5 -50.5zM317 57q63 0 104 38t41 107q0 81 -46.5 122.5t-134.5 41.5h-54l10 64h53q56 0 91 33t35 100 q0 60 -33.5 89.5t-89.5 29.5q-119 0 -119 -143v-430q52 -52 143 -52z" />
<glyph unicode="&#x3b3;" d="M557 519l-217 -502q-21 -49 -23 -102.5t11 -115.5l-67 -11q-24 48 -25 111.5t21 120.5q-35 149 -95 290.5t-119 196.5l85 30q52 -61 99 -176t77 -254l168 431z" />
<glyph unicode="&#x3b4;" d="M318 749q92 0 165 -60l-42 -49q-59 45 -128 45q-45 0 -70.5 -18.5t-25.5 -52.5q0 -32 23.5 -49.5t95.5 -47.5q107 -44 154.5 -104t47.5 -170q0 -105 -64 -179.5t-171 -74.5q-108 0 -171.5 73t-63.5 181q0 87 44.5 149t115.5 90q-53 27 -75 57.5t-22 71.5q0 65 52.5 101.5 t134.5 36.5zM291 454q-71 -32 -102 -83t-31 -129q0 -86 38.5 -135.5t106.5 -49.5q69 0 107 48t38 138q0 88 -32.5 130.5t-124.5 80.5z" />
<glyph unicode="&#x3b5;" d="M391 241h-90q-67 0 -97.5 -20.5t-30.5 -65.5t38 -71.5t104 -26.5q102 0 186 58l45 -56q-94 -70 -236 -70q-100 0 -163.5 43t-63.5 120q0 59 33.5 90t98.5 40q-54 11 -82 41t-28 74q0 67 60 104t151 37q123 0 200 -54l-42 -52q-64 39 -155 39q-128 0 -128 -82 q0 -37 31 -58.5t84 -21.5h95z" />
<glyph unicode="&#x3b6;" d="M518 739l12 -57q-179 -154 -253.5 -245t-74.5 -183q0 -70 34 -102.5t123 -62.5q91 -29 127.5 -54.5t36.5 -79.5q0 -56 -38.5 -99t-118.5 -79l-34 60q51 26 76 50t25 59q0 27 -21.5 40t-92.5 38q-112 38 -160 85.5t-48 142.5q0 101 79 199t259 232q-32 -13 -145 -13h-151 l10 69h355z" />
<glyph unicode="&#x3b7;" d="M351 538q149 0 149 -156v-584l-83 -10v532q0 87 -17 119.5t-75 32.5q-41 0 -79.5 -26.5t-62.5 -61.5v-384h-83v354q0 84 -27 173l78 11q17 -31 24 -88q33 42 80.5 65t95.5 23z" />
<glyph unicode="&#x3b8;" d="M301 749q110 0 167.5 -99t57.5 -278q0 -177 -59 -280t-167 -103q-109 0 -167.5 101t-58.5 281q0 176 59 277t168 101zM301 679q-69 0 -103 -65t-37 -208h278q-3 143 -36 208t-102 65zM438 339h-277q4 -147 37.5 -214.5t101.5 -67.5t101 67t37 215z" />
<glyph unicode="&#x3b9;" d="M63 456l10 70h251v-396q0 -72 87 -72q42 0 89 18l22 -60q-46 -27 -125 -27q-71 0 -113.5 40t-42.5 110v317h-178z" />
<glyph unicode="&#x3ba;" d="M527 489l-226 -204l148 -156q32 -34 56 -49.5t55 -22.5l-29 -68q-40 6 -70 24.5t-63 53.5l-198 216l257 255zM87 526h82q27 -75 27 -201v-325h-83v340q0 90 -26 186z" />
<glyph unicode="&#x3bb;" d="M243 526h34q-22 75 -59.5 111t-116.5 48l13 66q115 -17 171.5 -73.5t85.5 -178.5q48 -198 89 -310t98 -168l-85 -32q-107 131 -176 473l-169 -474l-79 17z" />
<glyph unicode="&#x3bc;" d="M483 526v-359q0 -81 28 -167l-78 -12q-18 30 -25 85q-23 -38 -62 -61.5t-79 -23.5t-62 11.5t-42 39.5q9 -65 9 -87v-154l-83 -10v738h83v-295q0 -90 16.5 -129.5t72.5 -39.5q82 0 139 80v384h83z" />
<glyph unicode="&#x3bd;" d="M339 0h-102q-39 166 -93 310.5t-112 195.5l84 31q102 -118 178 -463l169 464l84 -19z" />
<glyph unicode="&#x3be;" d="M357 749q113 0 194 -59l-40 -50q-69 44 -154 44q-64 0 -99 -26t-35 -76q0 -49 32 -76t88 -27h121l-10 -76h-120q-66 0 -105.5 -39t-39.5 -96q0 -40 9.5 -66t36.5 -45.5t57 -32t88 -29.5q94 -29 130 -57t36 -83q0 -56 -38.5 -98.5t-118.5 -79.5l-34 60q51 25 76 50.5 t25 61.5q0 26 -18 38.5t-76 31.5q-52 16 -86 29t-70.5 34t-57.5 45t-35 59t-14 79q0 42 16 76t41 54.5t50.5 32.5t50.5 16q-55 21 -87.5 52t-32.5 84q0 77 63.5 123t156.5 46z" />
<glyph unicode="&#x3bf;" d="M301 538q109 0 167 -73.5t58 -200.5q0 -124 -59 -199.5t-167 -75.5q-109 0 -167.5 73.5t-58.5 200.5q0 125 59.5 200t167.5 75zM301 470q-138 0 -138 -207q0 -206 137 -206t137 207q0 206 -136 206z" />
<glyph unicode="&#x3c0;" d="M474 457v-321q0 -39 11 -56t39 -23l-30 -68q-57 14 -80.5 45t-23.5 92v331h-192v-457h-84v457q-50 -1 -89 -12l-19 64q36 17 131 17h421v-69h-84z" />
<glyph unicode="&#x3c1;" d="M306 538q218 0 218 -274q0 -118 -53.5 -196.5t-152.5 -78.5q-87 0 -141 60v-251l-83 -10v482q0 131 54 199.5t158 68.5zM304 472q-69 0 -98 -53.5t-29 -161.5v-133q44 -66 122 -66q66 0 100.5 53t34.5 153q0 208 -130 208z" />
<glyph unicode="&#x3c2;" d="M348 538q56 0 96 -12.5t83 -43.5l-42 -55q-34 22 -63 31.5t-71 9.5q-68 0 -114 -52t-46 -145q0 -73 30 -105.5t128 -68.5q86 -32 123 -61t37 -83t-36.5 -92.5t-118.5 -74.5l-36 60q50 20 75.5 41.5t25.5 56.5q0 30 -22 44.5t-103 43.5q-100 36 -146 89.5t-46 149.5 q0 125 68.5 196t177.5 71z" />
<glyph unicode="&#x3c3;" d="M559 457l-124 9q86 -53 89 -201q2 -124 -58 -200t-166 -76q-107 0 -166.5 74t-59.5 200q0 123 66 196t182 73q72 0 237 -5v-70zM300 57q135 0 135 207q0 146 -72 204q-48 0 -81.5 -8t-62 -29.5t-42.5 -63.5t-14 -104q0 -206 137 -206z" />
<glyph unicode="&#x3c4;" d="M486 76l22 -60q-46 -27 -125 -27q-71 0 -113 39.5t-42 110.5v318h-45q-64 0 -130 -18l-14 66q62 21 156 21h311v-69h-195v-327q0 -72 86 -72q42 0 89 18z" />
<glyph unicode="&#x3c5;" d="M415 526h84q26 -143 26 -271q0 -131 -69.5 -198.5t-167.5 -67.5q-83 0 -133.5 44t-50.5 128v365h83v-358q0 -111 104 -111q62 0 106 47.5t44 158.5q0 125 -26 263z" />
<glyph unicode="&#x3c6;" d="M402 538q85 0 124.5 -67t39.5 -203q0 -257 -235 -278v-191l-79 -11v202q-218 19 -218 249q0 142 55 287h84q-56 -164 -56 -266q0 -97 29.5 -146t105.5 -58v262q0 108 34.5 164t115.5 56zM401 472q-17 0 -29 -5.5t-19.5 -19t-12 -26.5t-6.5 -36t-2.5 -39t-0.5 -45v-247 q83 9 116.5 60t33.5 154q0 110 -17.5 157t-62.5 47z" />
<glyph unicode="&#x3c7;" d="M552 -203l-86 -7l-159 334l-162 -332l-86 6l198 385q-61 136 -101.5 198t-100.5 125l81 31q49 -50 88 -116.5t84 -182.5l138 295l87 -4l-176 -341z" />
<glyph unicode="&#x3c8;" d="M340 526v-463q86 9 115.5 56t29.5 143q0 119 -27 264h85q26 -141 26 -272q0 -241 -229 -260v-196l-78 -10v206q-110 8 -165 63t-55 136v333h83v-326q0 -64 31 -96.5t106 -40.5v463h78z" />
<glyph unicode="&#x3c9;" d="M447 526h76q51 -135 51 -287q0 -118 -39 -184t-114 -66q-107 0 -122 116q-24 -116 -122 -116q-151 0 -151 250q0 162 50 287h74q-41 -129 -41 -266q0 -103 16.5 -153t59.5 -50q75 0 75 174v126l80 11v-138q0 -84 16 -128.5t58 -44.5q43 0 60 50t17 153q0 127 -44 266z " />
<glyph unicode="&#x3ca;" d="M180 648q-23 0 -38.5 15t-15.5 38t15.5 38.5t38.5 15.5t38.5 -15.5t15.5 -38.5q0 -22 -15.5 -37.5t-38.5 -15.5zM386 648q-22 0 -37.5 15t-15.5 38t15 38.5t38 15.5q24 0 39.5 -15.5t15.5 -38.5t-15.5 -38t-39.5 -15zM63 456l10 70h251v-396q0 -72 87 -72q42 0 89 18 l22 -60q-46 -27 -125 -27q-71 0 -113.5 40t-42.5 110v317h-178z" />
<glyph unicode="&#x3cb;" d="M196 648q-23 0 -38.5 15t-15.5 38t15.5 38.5t38.5 15.5t38.5 -15.5t15.5 -38.5q0 -22 -15.5 -37.5t-38.5 -15.5zM402 648q-22 0 -37.5 15t-15.5 38t15 38.5t38 15.5q24 0 39.5 -15.5t15.5 -38.5t-15.5 -38t-39.5 -15zM415 526h84q26 -143 26 -271q0 -131 -69.5 -198.5 t-167.5 -67.5q-83 0 -133.5 44t-50.5 128v365h83v-358q0 -111 104 -111q62 0 106 47.5t44 158.5q0 125 -26 263z" />
<glyph unicode="&#x3cc;" d="M302 806l92 -16l-67 -200l-63 11zM301 538q109 0 167 -73.5t58 -200.5q0 -124 -59 -199.5t-167 -75.5q-109 0 -167.5 73.5t-58.5 200.5q0 125 59.5 200t167.5 75zM301 470q-138 0 -138 -207q0 -206 137 -206t137 207q0 206 -136 206z" />
<glyph unicode="&#x3cd;" d="M302 806l92 -16l-67 -200l-63 11zM415 526h84q26 -143 26 -271q0 -131 -69.5 -198.5t-167.5 -67.5q-83 0 -133.5 44t-50.5 128v365h83v-358q0 -111 104 -111q62 0 106 47.5t44 158.5q0 125 -26 263z" />
<glyph unicode="&#x3ce;" d="M302 806l92 -16l-67 -200l-63 11zM447 526h76q51 -135 51 -287q0 -118 -39 -184t-114 -66q-107 0 -122 116q-24 -116 -122 -116q-151 0 -151 250q0 162 50 287h74q-41 -129 -41 -266q0 -103 16.5 -153t59.5 -50q75 0 75 174v126l80 11v-138q0 -84 16 -128.5t58 -44.5 q43 0 60 50t17 153q0 127 -44 266z" />
<glyph unicode="&#x401;" d="M217 767q-23 0 -38.5 15t-15.5 38t15.5 38.5t38.5 15.5t38.5 -15.5t15.5 -38.5q0 -22 -15.5 -37.5t-38.5 -15.5zM423 767q-23 0 -38 15.5t-15 37.5q0 23 15 38.5t38 15.5q24 0 39.5 -15.5t15.5 -38.5t-15.5 -38t-39.5 -15zM212 385h255v-71h-255v-245h313v-69h-399v688 h390l-10 -70h-294v-233z" />
<glyph unicode="&#x402;" d="M243 617v-227q68 59 145 59q178 0 178 -203v-150q0 -99 -42 -150t-130 -81l-22 69q65 26 86.5 59.5t21.5 101.5v145q0 72 -25.5 103.5t-85.5 31.5q-67 0 -126 -54v-321h-86v617h-162v71h418l-9 -71h-161z" />
<glyph unicode="&#x403;" d="M469 834l-213 -78l-22 44l198 105zM535 613h-313v-613h-85v688h407z" />
<glyph unicode="&#x404;" d="M352 700q114 0 200 -67l-49 -55q-61 52 -145 52q-86 0 -143 -58t-66 -182h305v-72h-308q6 -131 63.5 -194.5t147.5 -63.5q93 0 159 60l46 -56q-81 -75 -208 -75q-133 0 -214.5 93t-81.5 263q0 167 84.5 261t209.5 94z" />
<glyph unicode="&#x405;" d="M536 191q0 -91 -66.5 -146.5t-184.5 -55.5q-151 0 -241 87l51 58q78 -73 192 -73q67 0 113.5 33t46.5 95q0 51 -31.5 80t-119.5 55q-112 33 -167 77.5t-55 121.5q0 78 62 127.5t161 49.5q127 0 219 -79l-51 -56q-70 63 -166 63q-60 0 -99 -26.5t-39 -76.5q0 -44 37.5 -71 t136.5 -56q96 -28 148.5 -73t52.5 -134z" />
<glyph unicode="&#x406;" d="M497 620h-154v-551h154v-69h-394v69h154v551h-154v68h394v-68z" />
<glyph unicode="&#x407;" d="M196 767q-23 0 -38.5 15t-15.5 38t15.5 38.5t38.5 15.5t38.5 -15.5t15.5 -38.5q0 -22 -15.5 -37.5t-38.5 -15.5zM402 767q-22 0 -37.5 15.5t-15.5 37.5q0 23 15 38.5t38 15.5q24 0 39.5 -15.5t15.5 -38.5t-15.5 -38t-39.5 -15zM497 620h-154v-551h154v-69h-394v69h154 v551h-154v68h394v-68z" />
<glyph unicode="&#x408;" d="M496 688v-460q0 -46 -11.5 -86t-37 -76t-73 -57t-112.5 -21q-106 0 -189 63l38 57q76 -48 150 -48q71 0 110.5 46t39.5 127v385h-204v70h289z" />
<glyph unicode="&#x409;" d="M355 688v-255q124 0 184.5 -51.5t60.5 -160.5q0 -221 -237 -221h-93v617h-95l-23 -306q-9 -119 -24 -183.5t-31.5 -88.5t-50.5 -50l-44 57q27 30 42 81.5t25 185.5l31 375h255zM355 366v-296h15q72 0 106 31.5t34 118.5q0 79 -34 112.5t-105 33.5h-16z" />
<glyph unicode="&#x40a;" d="M354 688v-275q125 1 185.5 -48t60.5 -153q0 -112 -61 -162t-176 -50h-94v349h-143v-349h-84v688h84v-275h143v275h85zM354 349v-281h16q73 -1 106.5 28.5t33.5 114.5q0 76 -34 107t-106 31h-16z" />
<glyph unicode="&#x40b;" d="M404 617h-161v-227q62 59 145 59q178 0 178 -203v-246h-86v240q0 72 -25.5 103.5t-85.5 31.5q-67 0 -126 -54v-321h-86v617h-162v71h418z" />
<glyph unicode="&#x40c;" d="M483 926l-213 -78l-22 44l198 105zM181 326v-326h-86v688h86v-290h81l212 290h93l-232 -324l251 -364h-104l-221 326h-80z" />
<glyph unicode="&#x40e;" d="M308 759q-58 0 -99.5 32.5t-47.5 86.5l57 12q24 -67 90 -67q69 0 93 67l57 -12q-6 -54 -48.5 -86.5t-101.5 -32.5zM580 688l-212 -509q-38 -90 -90 -133.5t-156 -56.5l-13 68q87 13 123.5 42t58.5 91h-37l-227 498h89l197 -443l180 443h87z" />
<glyph unicode="&#x40f;" d="M516 0h-175v-147h-68l-14 147h-175v688h85v-617h74v1h98v-1h90v617h85v-688z" />
<glyph unicode="&#x410;" d="M161 176l-56 -176h-84l224 688h110l224 -688h-90l-55 176h-273zM412 247l-114 369l-115 -369h229z" />
<glyph unicode="&#x411;" d="M477 617h-290v-197h87q268 0 268 -206q0 -214 -267 -214h-174v688h384zM187 352v-282h100q80 0 122.5 30.5t42.5 112.5q0 139 -165 139h-100z" />
<glyph unicode="&#x412;" d="M539 196q0 -54 -22 -93.5t-60 -61t-81.5 -31.5t-94.5 -10h-184v688h169q48 0 89 -8.5t77 -27t56.5 -53.5t20.5 -84q0 -62 -36.5 -100t-91.5 -50q158 -27 158 -169zM421 510q0 109 -135 109h-104v-224h112q127 0 127 115zM449 193q0 131 -148 131h-119v-253h115 q152 0 152 122z" />
<glyph unicode="&#x413;" d="M535 613h-313v-613h-85v688h407z" />
<glyph unicode="&#x414;" d="M565 72v-219h-69l-14 147h-399l-15 -147h-68v219h43q36 36 51 99t42 267q5 35 7 53l26 197h345v-616h51zM426 616h-182l-15 -132q-26 -226 -43 -299.5t-60 -112.5h300v544z" />
<glyph unicode="&#x415;" d="M212 385h255v-71h-255v-245h313v-69h-399v688h390l-10 -70h-294v-233z" />
<glyph unicode="&#x416;" d="M199 327l-104 -327h-83l123 364l-108 324h82l91 -291h61v291h78v-291h61l92 291h81l-108 -324l123 -364h-85l-103 327h-61v-327h-78v327h-62z" />
<glyph unicode="&#x417;" d="M280 700q108 0 172.5 -50t64.5 -130q0 -61 -40 -98.5t-102 -46.5q69 -7 117 -51t48 -119q0 -95 -71 -155.5t-189 -60.5q-159 0 -245 98l56 47q68 -73 187 -73q81 0 125.5 37.5t44.5 103.5t-44 98.5t-117 32.5h-122l10 73h105q63 0 106 28.5t43 84.5q0 54 -41.5 82.5 t-107.5 28.5q-105 0 -182 -69l-49 53q97 86 231 86z" />
<glyph unicode="&#x418;" d="M84 688h85v-349q0 -130 -12 -246h4l245 595h110v-688h-85v351q0 127 12 242h-4l-243 -593h-112v688z" />
<glyph unicode="&#x419;" d="M298 773q-59 0 -100 29.5t-47 82.5l57 13q20 -60 90 -60q73 0 93 60l57 -13q-6 -53 -48 -82.5t-102 -29.5zM84 688h85v-349q0 -130 -12 -246h4l245 595h110v-688h-85v351q0 127 12 242h-4l-243 -593h-112v688z" />
<glyph unicode="&#x41a;" d="M181 326v-326h-86v688h86v-290h81l212 290h93l-232 -324l251 -364h-104l-221 326h-80z" />
<glyph unicode="&#x41b;" d="M516 0h-85v615h-187l-24 -206q-19 -155 -42.5 -238t-48.5 -114.5t-76 -67.5l-38 64q22 18 33 31.5t27.5 47.5t29 95.5t25.5 156.5l40 304h346v-688z" />
<glyph unicode="&#x41c;" d="M569 0h-82l-22 361q-6 114 -6 229h-2l-114 -466h-87l-118 466h-4q0 -143 -4 -229l-19 -361h-80l39 688h120l112 -471l107 471h121z" />
<glyph unicode="&#x41d;" d="M431 328h-262v-328h-85v688h85v-291h262v291h85v-688h-85v328z" />
<glyph unicode="&#x41e;" d="M553 344q0 -161 -65.5 -258t-187.5 -97q-123 0 -188 95t-65 258q0 162 65.5 260t187.5 98t187.5 -96.5t65.5 -259.5zM464 344q0 141 -39 212t-125 71t-125 -71.5t-39 -213.5q0 -281 164 -281q85 0 124.5 71t39.5 212z" />
<glyph unicode="&#x41f;" d="M431 614h-262v-614h-85v688h432v-688h-85v614z" />
<glyph unicode="&#x420;" d="M557 477q0 -115 -71 -168t-195 -53h-89v-256h-85v688h174q126 0 196 -53t70 -158zM465 476q0 144 -163 144h-100v-295h97q79 0 122.5 34t43.5 117z" />
<glyph unicode="&#x421;" d="M358 700q115 0 199 -67l-48 -56q-62 51 -145 51q-94 0 -152.5 -67.5t-58.5 -215.5q0 -146 57.5 -214.5t152.5 -68.5q88 0 160 58l44 -57q-76 -74 -205 -74q-131 0 -214.5 93.5t-83.5 262.5q0 167 84.5 261t209.5 94z" />
<glyph unicode="&#x422;" d="M341 0h-85v615h-216v73h519l-9 -73h-209v-615z" />
<glyph unicode="&#x423;" d="M580 688l-212 -509q-38 -90 -90 -133.5t-156 -56.5l-13 68q87 13 123.5 42t58.5 91h-37l-227 498h89l197 -443l180 443h87z" />
<glyph unicode="&#x424;" d="M342 718v-59q125 -9 185 -86.5t60 -225.5q0 -152 -63 -231t-182 -85v-60h-84v60q-245 11 -245 316q0 148 60 225.5t185 86.5v59h84zM259 95v500q-83 -2 -121 -59t-38 -189q0 -127 37.5 -186t121.5 -66zM341 595v-500q84 7 121.5 66t37.5 186q0 132 -38 189t-121 59z" />
<glyph unicode="&#x425;" d="M148 688l152 -265l152 265h93l-196 -316l220 -372h-99l-172 312l-175 -312h-92l217 367l-198 321h98z" />
<glyph unicode="&#x426;" d="M578 72v-219h-68l-15 147h-411v688h85v-617h262v617h85v-616h62z" />
<glyph unicode="&#x427;" d="M516 688v-688h-85v282q-47 -33 -87 -47.5t-93 -14.5q-90 0 -145 55.5t-55 147.5v265h86v-258q0 -135 135 -135q96 0 159 61v332h85z" />
<glyph unicode="&#x428;" d="M554 0h-508v688h81v-616h134v616h78v-616h134v616h81v-688z" />
<glyph unicode="&#x429;" d="M616 72v-219h-68l-15 147h-487v688h81v-616h134v616h78v-616h134v616h81v-616h62z" />
<glyph unicode="&#x42a;" d="M209 433h106q266 0 266 -212q0 -115 -71 -168t-194 -53h-194v613h-122v75h209v-255zM209 364v-294h122q77 0 119 32.5t42 117.5q0 144 -162 144h-121z" />
<glyph unicode="&#x42b;" d="M119 432h63q248 0 248 -211q0 -110 -63.5 -165.5t-182.5 -55.5h-153v688h88v-256zM569 0h-88v688h88v-688zM119 367v-298h74q73 0 109.5 35.5t36.5 115.5q0 147 -147 147h-73z" />
<glyph unicode="&#x42c;" d="M180 433h105q266 0 266 -212q0 -114 -71 -167.5t-194 -53.5h-191v688h85v-255zM180 365v-295h116q78 0 120.5 32.5t42.5 117.5q0 145 -162 145h-117z" />
<glyph unicode="&#x42d;" d="M269 700q127 0 198 -88t71 -259q0 -177 -73.5 -270.5t-203.5 -93.5q-133 0 -219 88l52 49q74 -66 162 -66q91 0 139 63t55 195h-304v72h304q-7 127 -53.5 183.5t-131.5 56.5q-52 0 -90 -17t-77 -48l-48 50q98 85 219 85z" />
<glyph unicode="&#x42e;" d="M388 700q105 0 148 -87t43 -269q0 -176 -45.5 -265.5t-145.5 -89.5q-52 0 -89.5 23.5t-59 68.5t-31.5 103.5t-11 136.5h-67v-321h-83v688h83v-296h68q6 155 50.5 231.5t139.5 76.5zM388 629q-56 0 -79 -63t-23 -221q0 -159 23 -222.5t79 -63.5q54 0 78.5 64t24.5 221 q0 156 -24.5 220.5t-78.5 64.5z" />
<glyph unicode="&#x42f;" d="M516 0h-85v277h-155l-146 -277h-96l162 297q-120 54 -120 187q0 98 67 151t193 53h180v-688zM431 620h-106q-80 0 -119 -32.5t-39 -102.5q0 -138 139 -138h125v273z" />
<glyph unicode="&#x430;" d="M477 368v-254q0 -30 10 -45t33 -22l-20 -59q-75 10 -96 75q-57 -74 -165 -74q-79 0 -124.5 44t-45.5 118q0 81 63.5 125t183.5 44h77v44q0 104 -125 104q-63 0 -137 -26l-22 62q91 34 171 34q96 0 146.5 -45t50.5 -125zM260 52q39 0 74.5 19.5t58.5 55.5v136h-76 q-159 0 -159 -111q0 -100 102 -100z" />
<glyph unicode="&#x431;" d="M332 492q87 0 139 -64.5t52 -175.5q0 -125 -61.5 -194t-162.5 -69q-100 0 -161.5 75t-61.5 225q0 171 40.5 258.5t151.5 125.5q108 37 164 77l37 -65q-64 -40 -160 -76q-47 -17 -73.5 -37t-45.5 -63.5t-26 -114.5q58 98 168 98zM299 57q62 0 97.5 42.5t35.5 149.5 q0 174 -113 174q-100 0 -152 -103v-65q0 -94 35.5 -146t96.5 -52z" />
<glyph unicode="&#x432;" d="M398 285q134 -12 134 -130q0 -77 -64.5 -116t-160.5 -39h-195v519q93 19 178 19q100 0 157 -36t57 -102q0 -43 -24 -71.5t-82 -43.5zM291 471q-48 0 -96 -6v-153h109q56 0 85 18t29 63q0 42 -30.5 60t-96.5 18zM195 68h96q33 0 54.5 2t46.5 10t38 26.5t13 48.5 q0 91 -133 91h-115v-178z" />
<glyph unicode="&#x433;" d="M158 0v526h366l-10 -69h-273v-457h-83z" />
<glyph unicode="&#x434;" d="M534 68v-215h-69l-14 147h-341l-14 -147h-69v215h35q37 32 55 91.5t28 196.5l12 170h339v-458h38zM411 459h-179l-6 -97q-10 -145 -28.5 -203t-64.5 -91h278v391z" />
<glyph unicode="&#x435;" d="M520 234h-354q3 -88 46 -132t108 -44q80 0 141 49l39 -57q-79 -61 -180 -61q-114 0 -177.5 74.5t-63.5 199.5q0 120 62.5 197.5t163.5 77.5q102 0 159.5 -69.5t57.5 -189.5q0 -23 -2 -45zM306 469q-59 0 -97 -43.5t-43 -127.5h276q-1 84 -37 127.5t-99 43.5z" />
<glyph unicode="&#x436;" d="M263 247h-57l-104 -247h-82l122 283l-112 243h84l93 -214h56v214h74v-214h56l95 214h82l-112 -243l122 -283h-85l-104 247h-54v-247h-74v247z" />
<glyph unicode="&#x437;" d="M192 309h95q52 0 83 22t31 58q0 82 -125 82q-94 0 -161 -49l-41 52q82 64 204 64q93 0 151 -35.5t58 -106.5q0 -41 -29 -71t-77 -44q136 -23 136 -129q0 -77 -66 -120t-169 -43q-137 0 -228 73l42 55q76 -60 189 -60q68 0 105 26.5t37 71.5q0 86 -135 86h-106z" />
<glyph unicode="&#x438;" d="M499 0h-80v247q0 131 9 188h-4l-223 -435h-100v526h80v-247q0 -104 -8 -184h4l220 431h102v-526z" />
<glyph unicode="&#x439;" d="M298 647q-59 0 -100 29.5t-47 82.5l57 13q20 -60 90 -60q73 0 93 60l57 -13q-6 -53 -48 -82.5t-102 -29.5zM499 0h-80v247q0 131 9 188h-4l-223 -435h-100v526h80v-247q0 -104 -8 -184h4l220 431h102v-526z" />
<glyph unicode="&#x43a;" d="M106 526h83v-213h106l152 213h94l-177 -243l205 -283h-101l-175 246h-104v-246h-83v526z" />
<glyph unicode="&#x43b;" d="M510 0h-83v457h-199l-11 -140q-10 -118 -25.5 -179.5t-39.5 -91t-74 -57.5l-36 53q29 18 44 37t29 76t22 158l16 213h357v-526z" />
<glyph unicode="&#x43c;" d="M557 0h-79l-21 258q-6 90 -5 186h-4l-105 -355h-83l-117 355h-4q4 -75 -2 -184l-15 -260h-79l37 526h110l113 -360l105 360h111z" />
<glyph unicode="&#x43d;" d="M416 235h-232v-235h-83v526h83v-223h232v223h83v-526h-83v235z" />
<glyph unicode="&#x43e;" d="M301 538q109 0 167 -73.5t58 -200.5q0 -124 -59 -199.5t-167 -75.5q-109 0 -167.5 73.5t-58.5 200.5q0 125 59.5 200t167.5 75zM301 470q-138 0 -138 -207q0 -206 137 -206t137 207q0 206 -136 206z" />
<glyph unicode="&#x43f;" d="M416 458h-232v-458h-83v526h398v-526h-83v458z" />
<glyph unicode="&#x440;" d="M336 538q190 0 190 -274q0 -125 -52 -200t-151 -75q-87 0 -139 60v-251l-83 -10v738h70l7 -73q61 85 158 85zM316 471q-75 0 -132 -85v-262q43 -66 121 -66q132 0 132 206q0 207 -121 207z" />
<glyph unicode="&#x441;" d="M338 60q75 0 138 50l40 -58q-34 -29 -82.5 -46t-95.5 -17q-116 0 -181 73.5t-65 198.5q0 122 66 199.5t181 77.5q100 0 176 -62l-42 -57q-65 49 -135 49q-71 0 -113.5 -53t-42.5 -154t42.5 -151t113.5 -50z" />
<glyph unicode="&#x442;" d="M530 457h-189v-457h-82v457h-193v69h474z" />
<glyph unicode="&#x443;" d="M538 526l-185 -529q-32 -91 -85 -145t-149 -64l-13 67q77 13 111 45.5t57 99.5h-28l-184 526h89l152 -463l149 463h86z" />
<glyph unicode="&#x444;" d="M338 738v-254q42 54 98 54q74 0 104.5 -70.5t30.5 -203.5q0 -126 -37.5 -200.5t-106.5 -74.5q-51 0 -89 56v-246l-76 -11v257q-38 -56 -91 -56q-68 0 -105 74t-37 201q0 274 140 274q54 0 93 -52v263zM187 472q-37 0 -54.5 -49t-17.5 -159t17.5 -159.5t54.5 -49.5 q21 0 36.5 11.5t38.5 39.5v319q-22 26 -37.5 36.5t-37.5 10.5zM417 472q-40 0 -79 -49v-317q37 -51 72 -51q76 0 76 209q0 112 -16 160t-53 48z" />
<glyph unicode="&#x445;" d="M56 0l195 278l-171 248h98l123 -196l124 196h95l-170 -244l194 -282h-102l-145 226l-146 -226h-95z" />
<glyph unicode="&#x446;" d="M575 68v-215h-69l-15 147h-396v526h83v-457h232v457h83v-458h82z" />
<glyph unicode="&#x447;" d="M488 0h-82v223q-66 -59 -166 -59q-76 0 -115 40.5t-39 114.5v207h82v-198q0 -52 22.5 -75t69.5 -23q39 0 80.5 16.5t65.5 43.5v236h82v-526z" />
<glyph unicode="&#x448;" d="M551 0h-502v526h78v-457h134v457h78v-457h134v457h78v-526z" />
<glyph unicode="&#x449;" d="M623 68v-215h-69l-15 147h-490v526h78v-457h134v457h78v-457h134v457h78v-458h72z" />
<glyph unicode="&#x44a;" d="M242 361h63q240 0 240 -177q0 -184 -241 -184h-145v462h-126v64h209v-165zM242 295v-228h72q68 0 105 25t37 91q0 60 -36 86t-105 26h-73z" />
<glyph unicode="&#x44b;" d="M142 355h36q224 0 224 -173q0 -93 -59 -137.5t-165 -44.5h-116v526h80v-171zM538 0h-81v526h81v-526zM142 293v-228h39q67 0 100.5 25.5t33.5 91.5q0 60 -32 85.5t-102 25.5h-39z" />
<glyph unicode="&#x44c;" d="M210 361h103q118 0 169 -47t51 -133q0 -88 -58.5 -134.5t-142.5 -46.5h-205v526h83v-165zM210 295v-228h113q121 0 121 114q0 59 -29 86.5t-103 27.5h-102z" />
<glyph unicode="&#x44d;" d="M278 538q118 0 178 -72.5t60 -199.5t-63 -202t-180 -75q-107 0 -181 63l40 54q66 -48 141 -48q69 0 110 44t47 135h-249v66h248q-15 167 -151 167q-79 0 -142 -47l-39 54q73 61 181 61z" />
<glyph unicode="&#x44e;" d="M384 538q92 0 138 -71.5t46 -202.5q0 -128 -45.5 -201.5t-138.5 -73.5q-86 0 -130 66.5t-49 178.5h-67v-234h-82v526h82v-222h67q6 111 50.5 172.5t128.5 61.5zM384 469q-52 0 -72.5 -49t-20.5 -157q0 -103 20 -154.5t73 -51.5q55 0 75 51t20 156q0 107 -21.5 156 t-73.5 49z" />
<glyph unicode="&#x44f;" d="M310 538q89 0 175 -19v-519h-83v204h-140l-113 -204h-94l126 223q-91 43 -91 147q0 168 220 168zM308 471q-73 0 -101.5 -24.5t-28.5 -76.5q0 -99 121 -99h103v194q-49 6 -94 6z" />
<glyph unicode="&#x451;" d="M206 648q-23 0 -38.5 15t-15.5 38t15.5 38.5t38.5 15.5t38.5 -15.5t15.5 -38.5q0 -22 -15.5 -37.5t-38.5 -15.5zM412 648q-22 0 -37.5 15t-15.5 38t15 38.5t38 15.5q24 0 39.5 -15.5t15.5 -38.5t-15.5 -38t-39.5 -15zM520 234h-354q3 -88 46 -132t108 -44q80 0 141 49 l39 -57q-79 -61 -180 -61q-114 0 -177.5 74.5t-63.5 199.5q0 120 62.5 197.5t163.5 77.5q102 0 159.5 -69.5t57.5 -189.5q0 -23 -2 -45zM306 469q-59 0 -97 -43.5t-43 -127.5h276q-1 84 -37 127.5t-99 43.5z" />
<glyph unicode="&#x452;" d="M184 664h169v-66h-169v-140q31 37 76 58.5t92 21.5q148 0 148 -156v-357q0 -71 -18.5 -116.5t-49 -70t-86.5 -49.5l-31 61q58 26 80 59t22 115v354q0 49 -22 71.5t-69 22.5q-42 0 -80.5 -26.5t-61.5 -61.5v-384h-83v598h-82v66h82v73l83 10v-83z" />
<glyph unicode="&#x453;" d="M455 856l44 -71l-201 -90l-28 46zM158 0v526h366l-10 -69h-273v-457h-83z" />
<glyph unicode="&#x454;" d="M339 538q103 0 177 -58l-42 -55q-63 45 -136 45q-63 0 -106.5 -43t-52.5 -124h241v-66h-242q6 -91 49 -135t111 -44q77 0 137 46l41 -56q-72 -59 -177 -59q-116 0 -181.5 73.5t-65.5 198.5q0 122 66 199.5t181 77.5z" />
<glyph unicode="&#x455;" d="M280 57q60 0 95.5 23t35.5 61q0 39 -24 60.5t-103 41.5q-92 23 -136 55t-44 96q0 66 55 105t144 39q112 0 191 -59l-37 -56q-68 47 -152 47q-115 0 -115 -69q0 -35 28 -52.5t112 -40.5q86 -23 128.5 -58.5t42.5 -104.5q0 -53 -33 -89.5t-81 -51.5t-108 -15 q-123 0 -205 71l47 54q69 -57 159 -57z" />
<glyph unicode="&#x456;" d="M300 773q27 0 44 -17t17 -42q0 -26 -17 -42.5t-44 -16.5t-43.5 16.5t-16.5 42.5q0 25 16.5 42t43.5 17zM367 66h148v-66h-394v66h163v395h-158v65h241v-460z" />
<glyph unicode="&#x457;" d="M197 648q-23 0 -38.5 15t-15.5 38t15.5 38.5t38.5 15.5t38.5 -15.5t15.5 -38.5q0 -22 -15.5 -37.5t-38.5 -15.5zM403 648q-23 0 -38 15t-15 38t15 38.5t38 15.5q24 0 39.5 -15.5t15.5 -38.5t-15.5 -38t-39.5 -15zM367 66h148v-66h-394v66h163v395h-158v65h241v-460z" />
<glyph unicode="&#x458;" d="M367 773q27 0 44 -17t17 -42q0 -26 -17 -42.5t-44 -16.5t-43.5 16.5t-16.5 42.5q0 25 16.5 42t43.5 17zM445 526v-443q0 -127 -85 -197t-250 -98l-14 64q127 21 196.5 73.5t69.5 152.5v383h-220v65h303z" />
<glyph unicode="&#x459;" d="M363 356h13q216 0 216 -173q0 -91 -57 -137t-158 -46h-95v460h-106l-7 -139q-5 -113 -21 -177.5t-41 -95t-73 -59.5l-31 56q24 20 37.5 38.5t27.5 77t19 154.5l11 211h265v-170zM363 294v-229h20q62 0 92 26t30 92q0 60 -29 85.5t-95 25.5h-18z" />
<glyph unicode="&#x45a;" d="M366 328h13q216 0 216 -163q0 -165 -213 -165h-96v267h-131v-267h-82v526h82v-198h131v198h80v-198zM366 266v-201h19q64 0 93 19t29 81q0 57 -29 79t-95 22h-17z" />
<glyph unicode="&#x45b;" d="M352 538q148 0 148 -156v-382h-83v381q0 47 -22 69t-69 22q-42 0 -80.5 -26.5t-61.5 -61.5v-384h-83v598h-82v66h82v73l83 10v-83h169v-66h-169v-144q30 40 75 62t93 22z" />
<glyph unicode="&#x45c;" d="M390 785l44 -71l-201 -90l-28 46zM106 526h83v-213h106l152 213h94l-177 -243l205 -283h-101l-175 246h-104v-246h-83v526z" />
<glyph unicode="&#x45e;" d="M298 647q-59 0 -100 29.5t-47 82.5l57 13q20 -60 90 -60q73 0 93 60l57 -13q-6 -53 -48 -82.5t-102 -29.5zM538 526l-185 -529q-32 -91 -85 -145t-149 -64l-13 67q77 13 111 45.5t57 99.5h-28l-184 526h89l152 -463l149 463h86z" />
<glyph unicode="&#x45f;" horiz-adv-x="603" d="M499 0h-157v-147h-69l-14 147h-158v526h83v-457h232v457h83v-526z" />
<glyph unicode="&#x462;" d="M248 420h67q270 0 270 -206q0 -214 -266 -214h-157v617h-162v71h417l-9 -71h-160v-197zM248 68h79q81 0 124.5 32t43.5 113q0 140 -168 140h-79v-285z" />
<glyph unicode="&#x463;" d="M229 536h133l-11 -67h-122v-114h70q240 0 240 -175q0 -180 -241 -180h-152v469h-87v67h87v108l83 11v-119zM229 290v-223h79q68 0 105 24t37 89q0 110 -141 110h-80z" />
<glyph unicode="&#x472;" d="M553 344q0 -161 -65.5 -258t-187.5 -97q-123 0 -188 95t-65 258q0 162 65.5 260t187.5 98t187.5 -96.5t65.5 -259.5zM300 627q-78 0 -117 -60.5t-45 -182.5h323q-5 122 -44 182.5t-117 60.5zM300 61q81 0 120 64.5t42 192.5h-325q6 -257 163 -257z" />
<glyph unicode="&#x473;" d="M301 538q109 0 167 -73.5t58 -200.5q0 -124 -59 -199.5t-167 -75.5q-109 0 -167.5 73.5t-58.5 200.5q0 125 59.5 200t167.5 75zM301 469q-127 0 -136 -167h270q-9 167 -134 167zM435 234h-270q6 -91 39 -134t96 -43q123 0 135 177z" />
<glyph unicode="&#x474;" d="M499 701l85 -16q-36 -51 -66 -146l-172 -539h-90l-231 688h92l185 -595l139 468q26 89 58 140z" />
<glyph unicode="&#x475;" d="M467 532l81 -11q-33 -51 -64 -136l-137 -385h-96l-190 526h88l153 -454l110 340q12 37 18 52.5t16 35.5t21 32z" />
<glyph unicode="&#x490;" d="M544 834v-146l-9 -75h-313v-613h-85v688h323v146h84z" />
<glyph unicode="&#x491;" d="M524 659v-133l-10 -69h-273v-457h-83v526h281v133h85z" />
<glyph unicode="&#x492;" d="M253 613v-180h158v-66h-158v-367h-86v367h-101v66h101v255h408l-9 -75h-313z" />
<glyph unicode="&#x493;" d="M272 457v-155h125v-66h-125v-236h-83v236h-94v66h94v224h366l-10 -69h-273z" />
<glyph unicode="&#x496;" d="M606 72v-219h-57l-12 147h-34l-103 327h-61v-327h-78v327h-62l-104 -327h-83l123 364l-108 324h82l91 -291h61v291h78v-291h61l92 291h81l-108 -324l99 -292h42z" />
<glyph unicode="&#x497;" d="M610 68v-215h-69l-15 147h-35l-100 247h-54v-247h-74v247h-57l-100 -247h-82l118 283l-108 243h85l88 -214h56v214h74v-214h56l91 214h82l-108 -243l89 -215h63z" />
<glyph unicode="&#x498;" d="M540 205q0 -77 -48 -132.5t-132 -74.5v-55q46 -4 69 -27.5t23 -55.5q0 -47 -35 -72.5t-86 -25.5q-63 0 -105 24l27 48q30 -16 68 -16q60 0 60 42q0 25 -21.5 34t-65.5 9l7 87l-21 -1q-159 0 -245 98l56 47q68 -73 187 -73q81 0 125.5 37.5t44.5 103.5t-44 98.5t-117 32.5 h-122l10 73h105q63 0 106 28.5t43 84.5q0 54 -41.5 82.5t-107.5 28.5q-105 0 -182 -69l-49 53q97 86 231 86q108 0 172.5 -50t64.5 -130q0 -61 -40 -98.5t-102 -46.5q69 -7 117 -51t48 -119z" />
<glyph unicode="&#x499;" d="M517 152q0 -69 -54 -111t-142 -50v-48q46 -4 69 -27.5t23 -55.5q0 -47 -35 -72.5t-86 -25.5q-63 0 -105 24l27 48q30 -16 68 -16q60 0 60 42q0 25 -21.5 34t-65.5 9l7 86q-122 5 -208 73l42 55q76 -60 189 -60q68 0 105 26.5t37 71.5q0 86 -135 86h-106l6 68h95 q52 0 83 22t31 58q0 82 -125 82q-94 0 -161 -49l-41 52q82 64 204 64q93 0 151 -35.5t58 -106.5q0 -41 -29 -71t-77 -44q136 -23 136 -129z" />
<glyph unicode="&#x49a;" d="M587 72v-219h-68l-15 147h-22l-221 326h-80v-326h-86v688h86v-290h81l212 290h93l-232 -324l201 -292h51z" />
<glyph unicode="&#x49b;" d="M587 68v-215h-69l-15 147h-35l-175 246h-104v-246h-83v526h83v-213h106l152 213h94l-177 -243l156 -215h67z" />
<glyph unicode="&#x49c;" d="M228 326h-49v-326h-84v688h84v-290h49v172h54v-172h26l170 290h90l-192 -324l211 -364h-96l-183 326h-26v-176h-54v176z" />
<glyph unicode="&#x49d;" d="M106 526h84v-211h45v115h47v-115h28l144 211h87l-164 -242l192 -284h-91l-168 244h-28v-124h-47v124h-45v-244h-84v526z" />
<glyph unicode="&#x4a0;" d="M220 326v-326h-87v613h-122v75h209v-289h71l196 289h93l-216 -324l235 -364h-104l-206 326h-69z" />
<glyph unicode="&#x4a1;" d="M588 0h-101l-176 246h-95v-246h-83v462h-125v64h208v-213h96l154 213h94l-179 -243z" />
<glyph unicode="&#x4a2;" d="M580 72v-219h-68l-15 147h-66v328h-262v-328h-85v688h85v-291h262v291h85v-616h64z" />
<glyph unicode="&#x4a3;" d="M566 68v-215h-69l-14 147h-81v235h-233v-235h-83v526h83v-223h233v223h83v-458h81z" />
<glyph unicode="&#x4aa;" d="M394 -10q74 -48 74 -118q0 -50 -33.5 -80.5t-90.5 -30.5q-55 0 -97 25l21 51q40 -19 70 -19q28 0 43 15.5t15 41.5q0 67 -77 117q-115 16 -185 107.5t-70 245.5q0 167 84.5 261t209.5 94q115 0 199 -67l-48 -56q-62 51 -145 51q-94 0 -152.5 -67.5t-58.5 -215.5 q0 -146 57.5 -214.5t152.5 -68.5q88 0 160 58l44 -57q-63 -63 -173 -73z" />
<glyph unicode="&#x4ab;" d="M379 -8q78 -49 78 -120q0 -50 -33.5 -80.5t-90.5 -30.5q-55 0 -97 25l21 51q40 -19 70 -19q28 0 43 15.5t15 41.5q0 67 -75 115q-103 9 -160.5 81.5t-57.5 189.5q0 122 66 199.5t181 77.5q100 0 176 -62l-42 -57q-65 49 -135 49q-71 0 -113.5 -53t-42.5 -154t42.5 -151 t113.5 -50q75 0 138 50l40 -58q-57 -47 -137 -60z" />
<glyph unicode="&#x4ac;" d="M341 615v-543h62v-219h-68l-15 147h-64v615h-216v73h519l-9 -73h-209z" />
<glyph unicode="&#x4ad;" d="M341 457v-389h82v-215h-69l-15 147h-80v457h-193v69h474l-10 -69h-189z" />
<glyph unicode="&#x4ae;" d="M343 0h-86v265l-233 423h95l183 -345l185 345h89l-233 -422v-266z" />
<glyph unicode="&#x4af;" d="M259 16l-201 510h88l156 -430l154 430h86l-201 -510v-218l-82 -10v228z" />
<glyph unicode="&#x4b0;" d="M372 319h100v-67h-129v-252h-86v252h-129v67h99l-203 369h95l183 -345l185 345h89z" />
<glyph unicode="&#x4b1;" d="M363 72h83v-67h-105v-207l-82 -10v217h-105v67h83l-179 454h88l156 -430l154 430h86z" />
<glyph unicode="&#x4b2;" d="M575 72v-219h-68l-15 147h-22l-172 312l-175 -312h-92l217 367l-198 321h98l152 -265l152 265h93l-196 -316l177 -300h49z" />
<glyph unicode="&#x4b3;" d="M561 68v-215h-69l-15 147h-35l-145 226l-146 -226h-95l195 278l-171 248h98l123 -196l124 196h95l-170 -244l147 -214h64z" />
<glyph unicode="&#x4b6;" d="M578 72v-219h-68l-15 147h-64v282q-47 -33 -87 -47.5t-93 -14.5q-90 0 -145 55.5t-55 147.5v265h86v-258q0 -135 135 -135q96 0 159 61v332h85v-616h62z" />
<glyph unicode="&#x4b7;" d="M560 68v-215h-69l-14 147h-81v223q-66 -59 -166 -59q-76 0 -115 40.5t-39 114.5v207h82v-198q0 -52 22.5 -75t69.5 -23q39 0 80.5 16.5t65.5 43.5v236h82v-458h82z" />
<glyph unicode="&#x4b8;" d="M516 688v-688h-85v282q-59 -43 -113 -55v-108h-58v101h-9q-90 0 -145 55.5t-55 147.5v265h86v-258q0 -129 123 -135v243h58v-239q65 11 113 57v332h85z" />
<glyph unicode="&#x4b9;" d="M488 526v-526h-82v223q-41 -37 -101 -51v-81h-54v73h-11q-76 0 -115 40.5t-39 114.5v207h82v-198q0 -50 20 -73t63 -25v159h54v-154q66 15 101 55v236h82z" />
<glyph unicode="&#x4ba;" d="M345 449q96 0 149.5 -56.5t53.5 -156.5v-236h-86v235q0 139 -136 139q-94 0 -157 -80v-294h-85v688h85v-310q65 71 176 71z" />
<glyph unicode="&#x4bb;" d="M350 477q70 0 110 -43.5t40 -118.5v-315h-83v303q0 60 -23 84t-67 24q-81 0 -141 -96l-1 3v-318h-83v737l83 10v-354q62 84 165 84z" />
<glyph unicode="&#x4c0;" d="M497 620h-154v-551h154v-69h-394v69h154v551h-154v68h394v-68z" />
<glyph unicode="&#x4c1;" d="M298 773q-59 0 -100 29.5t-47 82.5l57 13q20 -60 90 -60q73 0 93 60l57 -13q-6 -53 -48 -82.5t-102 -29.5zM199 327l-104 -327h-83l123 364l-108 324h82l91 -291h61v291h78v-291h61l92 291h81l-108 -324l123 -364h-85l-103 327h-61v-327h-78v327h-62z" />
<glyph unicode="&#x4c2;" d="M298 647q-59 0 -100 29.5t-47 82.5l57 13q20 -60 90 -60q73 0 93 60l57 -13q-6 -53 -48 -82.5t-102 -29.5zM263 247h-57l-104 -247h-82l122 283l-112 243h84l93 -214h56v214h74v-214h56l95 214h82l-112 -243l122 -283h-85l-104 247h-54v-247h-74v247z" />
<glyph unicode="&#x4cb;" d="M516 688v-688h-73l-15 -147h-68v219h71v210q-47 -33 -87 -47.5t-93 -14.5q-90 0 -145 55.5t-55 147.5v265h86v-258q0 -135 135 -135q96 0 159 61v332h85z" />
<glyph unicode="&#x4cc;" d="M488 526v-526h-84l-15 -147h-69v215h86v155q-66 -59 -166 -59q-76 0 -115 40.5t-39 114.5v207h82v-198q0 -52 22.5 -75t69.5 -23q39 0 80.5 16.5t65.5 43.5v236h82z" />
<glyph unicode="&#x4cf;" d="M305 739v-610q0 -71 87 -71q42 0 89 18l22 -60q-50 -27 -125 -27q-70 0 -113 39t-43 106v539h-162v66h245z" />
<glyph unicode="&#x4d0;" d="M298 773q-59 0 -100 29.5t-47 82.5l57 13q20 -60 90 -60q73 0 93 60l57 -13q-6 -53 -48 -82.5t-102 -29.5zM161 176l-56 -176h-84l224 688h110l224 -688h-90l-55 176h-273zM412 247l-114 369l-115 -369h229z" />
<glyph unicode="&#x4d1;" d="M290 647q-59 0 -100 29.5t-47 82.5l57 13q20 -60 90 -60q73 0 93 60l57 -13q-6 -53 -48 -82.5t-102 -29.5zM477 368v-254q0 -30 10 -45t33 -22l-20 -59q-75 10 -96 75q-57 -74 -165 -74q-79 0 -124.5 44t-45.5 118q0 81 63.5 125t183.5 44h77v44q0 104 -125 104 q-63 0 -137 -26l-22 62q91 34 171 34q96 0 146.5 -45t50.5 -125zM260 52q39 0 74.5 19.5t58.5 55.5v136h-76q-159 0 -159 -111q0 -100 102 -100z" />
<glyph unicode="&#x4d2;" d="M196 767q-23 0 -38.5 15t-15.5 38t15.5 38.5t38.5 15.5t38.5 -15.5t15.5 -38.5q0 -22 -15.5 -37.5t-38.5 -15.5zM402 767q-22 0 -37.5 15.5t-15.5 37.5q0 23 15 38.5t38 15.5q24 0 39.5 -15.5t15.5 -38.5t-15.5 -38t-39.5 -15zM161 176l-56 -176h-84l224 688h110 l224 -688h-90l-55 176h-273zM412 247l-114 369l-115 -369h229z" />
<glyph unicode="&#x4d3;" d="M188 648q-23 0 -38.5 15t-15.5 38t15.5 38.5t38.5 15.5t38.5 -15.5t15.5 -38.5q0 -22 -15.5 -37.5t-38.5 -15.5zM394 648q-22 0 -37.5 15t-15.5 38t15 38.5t38 15.5q24 0 39.5 -15.5t15.5 -38.5t-15.5 -38t-39.5 -15zM477 368v-254q0 -30 10 -45t33 -22l-20 -59 q-75 10 -96 75q-57 -74 -165 -74q-79 0 -124.5 44t-45.5 118q0 81 63.5 125t183.5 44h77v44q0 104 -125 104q-63 0 -137 -26l-22 62q91 34 171 34q96 0 146.5 -45t50.5 -125zM260 52q39 0 74.5 19.5t58.5 55.5v136h-76q-159 0 -159 -111q0 -100 102 -100z" />
<glyph unicode="&#x4d4;" d="M125 176l-49 -176h-88l202 688h376l-10 -70h-237l52 -234h186v-70h-173l52 -244h172v-70h-242l-36 176h-205zM314 248l-74 373l-92 -373h166z" />
<glyph unicode="&#x4d5;" d="M435 538q172 0 172 -259q0 -22 -2 -46h-270q7 -90 34 -132t79 -42q47 0 100 39l38 -57q-65 -52 -139 -52q-96 0 -148 89q-35 -48 -69.5 -68.5t-83.5 -20.5q-70 0 -111 44t-41 118q0 82 54.5 125.5t159.5 43.5h46v44q0 104 -91 104q-42 0 -105 -27l-22 63q71 34 135 34 q103 0 138 -88q14 41 46.5 64.5t79.5 23.5zM432 468q-46 0 -68 -38.5t-29 -131.5h190q-2 87 -22.5 128.5t-70.5 41.5zM254 263h-43q-127 0 -127 -107q0 -50 20 -76.5t54 -26.5q32 0 56.5 23t53.5 74q-14 46 -14 113z" />
<glyph unicode="&#x4d6;" d="M319 773q-59 0 -100 29.5t-47 82.5l57 13q20 -60 90 -60q73 0 93 60l57 -13q-6 -53 -48 -82.5t-102 -29.5zM212 385h255v-71h-255v-245h313v-69h-399v688h390l-10 -70h-294v-233z" />
<glyph unicode="&#x4d7;" d="M308 647q-59 0 -100 29.5t-47 82.5l57 13q20 -60 90 -60q73 0 93 60l57 -13q-6 -53 -48 -82.5t-102 -29.5zM520 234h-354q3 -88 46 -132t108 -44q80 0 141 49l39 -57q-79 -61 -180 -61q-114 0 -177.5 74.5t-63.5 199.5q0 120 62.5 197.5t163.5 77.5q102 0 159.5 -69.5 t57.5 -189.5q0 -23 -2 -45zM306 469q-59 0 -97 -43.5t-43 -127.5h276q-1 84 -37 127.5t-99 43.5z" />
<glyph unicode="&#x4d8;" d="M45 331q0 22 3 49h415q-4 132 -48 191.5t-124 59.5q-83 0 -155 -62l-48 54q91 77 205 77q126 0 192 -87t66 -260q0 -171 -68 -267.5t-186 -96.5q-119 0 -185.5 87t-66.5 255zM298 59q151 0 165 250h-335q6 -133 47 -191.5t123 -58.5z" />
<glyph unicode="&#x4d9;" d="M292 538q119 0 176 -72t57 -202q0 -129 -62 -202t-170 -73q-102 0 -160.5 68.5t-58.5 189.5q0 32 2 46h359q-6 91 -41 133t-103 42q-81 0 -140 -50l-39 58q77 62 180 62zM293 56q69 0 104 40t39 132h-280v-8q-1 -78 35 -121t102 -43z" />
<glyph unicode="&#x4da;" d="M234 767q-23 0 -38.5 15t-15.5 38t15.5 38.5t38.5 15.5t38.5 -15.5t15.5 -38.5q0 -22 -15.5 -37.5t-38.5 -15.5zM440 767q-22 0 -37.5 15.5t-15.5 37.5q0 23 15 38.5t38 15.5q24 0 39.5 -15.5t15.5 -38.5t-15.5 -38t-39.5 -15zM45 331q0 22 3 49h415q-4 132 -48 191.5 t-124 59.5q-83 0 -155 -62l-48 54q91 77 205 77q126 0 192 -87t66 -260q0 -171 -68 -267.5t-186 -96.5q-119 0 -185.5 87t-66.5 255zM298 59q151 0 165 250h-335q6 -133 47 -191.5t123 -58.5z" />
<glyph unicode="&#x4db;" d="M196 648q-23 0 -38.5 15t-15.5 38t15.5 38.5t38.5 15.5t38.5 -15.5t15.5 -38.5q0 -22 -15.5 -37.5t-38.5 -15.5zM402 648q-22 0 -37.5 15t-15.5 38t15 38.5t38 15.5q24 0 39.5 -15.5t15.5 -38.5t-15.5 -38t-39.5 -15zM292 538q119 0 176 -72t57 -202q0 -129 -62 -202 t-170 -73q-102 0 -160.5 68.5t-58.5 189.5q0 32 2 46h359q-6 91 -41 133t-103 42q-81 0 -140 -50l-39 58q77 62 180 62zM293 56q69 0 104 40t39 132h-280v-8q-1 -78 35 -121t102 -43z" />
<glyph unicode="&#x4dc;" d="M196 767q-23 0 -38.5 15t-15.5 38t15.5 38.5t38.5 15.5t38.5 -15.5t15.5 -38.5q0 -22 -15.5 -37.5t-38.5 -15.5zM402 767q-22 0 -37.5 15.5t-15.5 37.5q0 23 15 38.5t38 15.5q24 0 39.5 -15.5t15.5 -38.5t-15.5 -38t-39.5 -15zM199 327l-104 -327h-83l123 364l-108 324 h82l91 -291h61v291h78v-291h61l92 291h81l-108 -324l123 -364h-85l-103 327h-61v-327h-78v327h-62z" />
<glyph unicode="&#x4dd;" d="M196 648q-23 0 -38.5 15t-15.5 38t15.5 38.5t38.5 15.5t38.5 -15.5t15.5 -38.5q0 -22 -15.5 -37.5t-38.5 -15.5zM402 648q-22 0 -37.5 15t-15.5 38t15 38.5t38 15.5q24 0 39.5 -15.5t15.5 -38.5t-15.5 -38t-39.5 -15zM263 247h-57l-104 -247h-82l122 283l-112 243h84 l93 -214h56v214h74v-214h56l95 214h82l-112 -243l122 -283h-85l-104 247h-54v-247h-74v247z" />
<glyph unicode="&#x4de;" d="M236 859q-23 0 -38.5 15t-15.5 38t15.5 38.5t38.5 15.5t38.5 -15.5t15.5 -38.5q0 -22 -15.5 -37.5t-38.5 -15.5zM442 859q-22 0 -37.5 15.5t-15.5 37.5q0 23 15 38.5t38 15.5q24 0 39.5 -15.5t15.5 -38.5t-15.5 -38t-39.5 -15zM280 700q108 0 172.5 -50t64.5 -130 q0 -61 -40 -98.5t-102 -46.5q69 -7 117 -51t48 -119q0 -95 -71 -155.5t-189 -60.5q-159 0 -245 98l56 47q68 -73 187 -73q81 0 125.5 37.5t44.5 103.5t-44 98.5t-117 32.5h-122l10 73h105q63 0 106 28.5t43 84.5q0 54 -41.5 82.5t-107.5 28.5q-105 0 -182 -69l-49 53 q97 86 231 86z" />
<glyph unicode="&#x4df;" d="M190 649q-23 0 -38.5 15t-15.5 38t15.5 38.5t38.5 15.5t38.5 -15.5t15.5 -38.5q0 -22 -15.5 -37.5t-38.5 -15.5zM396 649q-22 0 -37.5 15.5t-15.5 37.5q0 23 15 38.5t38 15.5q24 0 39.5 -15.5t15.5 -38.5t-15.5 -38t-39.5 -15zM192 309h95q52 0 83 22t31 58q0 82 -125 82 q-94 0 -161 -49l-41 52q82 64 204 64q93 0 151 -35.5t58 -106.5q0 -41 -29 -71t-77 -44q136 -23 136 -129q0 -77 -66 -120t-169 -43q-137 0 -228 73l42 55q76 -60 189 -60q68 0 105 26.5t37 71.5q0 86 -135 86h-106z" />
<glyph unicode="&#x4e2;" d="M165 795v64h269v-64h-269zM84 688h85v-349q0 -130 -12 -246h4l245 595h110v-688h-85v351q0 127 12 242h-4l-243 -593h-112v688z" />
<glyph unicode="&#x4e3;" d="M165 676v64h269v-64h-269zM499 0h-80v247q0 131 9 188h-4l-223 -435h-100v526h80v-247q0 -104 -8 -184h4l220 431h102v-526z" />
<glyph unicode="&#x4e4;" d="M196 767q-23 0 -38.5 15t-15.5 38t15.5 38.5t38.5 15.5t38.5 -15.5t15.5 -38.5q0 -22 -15.5 -37.5t-38.5 -15.5zM402 767q-22 0 -37.5 15.5t-15.5 37.5q0 23 15 38.5t38 15.5q24 0 39.5 -15.5t15.5 -38.5t-15.5 -38t-39.5 -15zM84 688h85v-349q0 -130 -12 -246h4l245 595 h110v-688h-85v351q0 127 12 242h-4l-243 -593h-112v688z" />
<glyph unicode="&#x4e5;" d="M196 648q-23 0 -38.5 15t-15.5 38t15.5 38.5t38.5 15.5t38.5 -15.5t15.5 -38.5q0 -22 -15.5 -37.5t-38.5 -15.5zM402 648q-22 0 -37.5 15t-15.5 38t15 38.5t38 15.5q24 0 39.5 -15.5t15.5 -38.5t-15.5 -38t-39.5 -15zM499 0h-80v247q0 131 9 188h-4l-223 -435h-100v526 h80v-247q0 -104 -8 -184h4l220 431h102v-526z" />
<glyph unicode="&#x4e6;" d="M196 767q-23 0 -38.5 15t-15.5 38t15.5 38.5t38.5 15.5t38.5 -15.5t15.5 -38.5q0 -22 -15.5 -37.5t-38.5 -15.5zM402 767q-22 0 -37.5 15.5t-15.5 37.5q0 23 15 38.5t38 15.5q24 0 39.5 -15.5t15.5 -38.5t-15.5 -38t-39.5 -15zM553 344q0 -161 -65.5 -258t-187.5 -97 q-123 0 -188 95t-65 258q0 162 65.5 260t187.5 98t187.5 -96.5t65.5 -259.5zM464 344q0 141 -39 212t-125 71t-125 -71.5t-39 -213.5q0 -281 164 -281q85 0 124.5 71t39.5 212z" />
<glyph unicode="&#x4e7;" d="M196 648q-23 0 -38.5 15t-15.5 38t15.5 38.5t38.5 15.5t38.5 -15.5t15.5 -38.5q0 -22 -15.5 -37.5t-38.5 -15.5zM402 648q-22 0 -37.5 15t-15.5 38t15 38.5t38 15.5q24 0 39.5 -15.5t15.5 -38.5t-15.5 -38t-39.5 -15zM301 538q109 0 167 -73.5t58 -200.5 q0 -124 -59 -199.5t-167 -75.5q-109 0 -167.5 73.5t-58.5 200.5q0 125 59.5 200t167.5 75zM301 470q-138 0 -138 -207q0 -206 137 -206t137 207q0 206 -136 206z" />
<glyph unicode="&#x4e8;" d="M553 344q0 -161 -65.5 -258t-187.5 -97q-123 0 -188 95t-65 258q0 162 65.5 260t187.5 98t187.5 -96.5t65.5 -259.5zM300 627q-78 0 -117 -60.5t-45 -182.5h323q-5 122 -44 182.5t-117 60.5zM300 61q81 0 120 64.5t42 192.5h-325q6 -257 163 -257z" />
<glyph unicode="&#x4e9;" d="M301 538q109 0 167 -73.5t58 -200.5q0 -124 -59 -199.5t-167 -75.5q-109 0 -167.5 73.5t-58.5 200.5q0 125 59.5 200t167.5 75zM301 469q-127 0 -136 -167h270q-9 167 -134 167zM435 234h-270q6 -91 39 -134t96 -43q123 0 135 177z" />
<glyph unicode="&#x4ea;" d="M196 767q-23 0 -38.5 15t-15.5 38t15.5 38.5t38.5 15.5t38.5 -15.5t15.5 -38.5q0 -22 -15.5 -37.5t-38.5 -15.5zM402 767q-22 0 -37.5 15.5t-15.5 37.5q0 23 15 38.5t38 15.5q24 0 39.5 -15.5t15.5 -38.5t-15.5 -38t-39.5 -15zM553 344q0 -161 -65.5 -258t-187.5 -97 q-123 0 -188 95t-65 258q0 162 65.5 260t187.5 98t187.5 -96.5t65.5 -259.5zM300 627q-78 0 -117 -60.5t-45 -182.5h323q-5 122 -44 182.5t-117 60.5zM300 61q81 0 120 64.5t42 192.5h-325q6 -257 163 -257z" />
<glyph unicode="&#x4eb;" d="M197 648q-23 0 -38.5 15t-15.5 38t15.5 38.5t38.5 15.5t38.5 -15.5t15.5 -38.5q0 -22 -15.5 -37.5t-38.5 -15.5zM403 648q-23 0 -38 15t-15 38t15 38.5t38 15.5q24 0 39.5 -15.5t15.5 -38.5t-15.5 -38t-39.5 -15zM301 538q109 0 167 -73.5t58 -200.5q0 -124 -59 -199.5 t-167 -75.5q-109 0 -167.5 73.5t-58.5 200.5q0 125 59.5 200t167.5 75zM301 469q-127 0 -136 -167h270q-9 167 -134 167zM435 234h-270q6 -91 39 -134t96 -43q123 0 135 177z" />
<glyph unicode="&#x4ec;" d="M185 768q-23 0 -38.5 15t-15.5 38t15.5 38.5t38.5 15.5t38.5 -15.5t15.5 -38.5q0 -22 -15.5 -37.5t-38.5 -15.5zM391 768q-23 0 -38 15t-15 38t15 38.5t38 15.5q24 0 39.5 -15.5t15.5 -38.5t-15.5 -38t-39.5 -15zM269 700q127 0 198 -88t71 -259q0 -177 -73.5 -270.5 t-203.5 -93.5q-133 0 -219 88l52 49q74 -66 162 -66q91 0 139 63t55 195h-304v72h304q-7 127 -53.5 183.5t-131.5 56.5q-52 0 -90 -17t-77 -48l-48 50q98 85 219 85z" />
<glyph unicode="&#x4ed;" d="M190 648q-23 0 -38.5 15t-15.5 38t15.5 38.5t38.5 15.5t38.5 -15.5t15.5 -38.5q0 -22 -15.5 -37.5t-38.5 -15.5zM396 648q-22 0 -37.5 15t-15.5 38t15 38.5t38 15.5q24 0 39.5 -15.5t15.5 -38.5t-15.5 -38t-39.5 -15zM278 538q118 0 178 -72.5t60 -199.5t-63 -202 t-180 -75q-107 0 -181 63l40 54q66 -48 141 -48q69 0 110 44t47 135h-249v66h248q-15 167 -151 167q-79 0 -142 -47l-39 54q73 61 181 61z" />
<glyph unicode="&#x4ee;" d="M175 795v64h269v-64h-269zM580 688l-212 -509q-38 -90 -90 -133.5t-156 -56.5l-13 68q87 13 123.5 42t58.5 91h-37l-227 498h89l197 -443l180 443h87z" />
<glyph unicode="&#x4ef;" d="M165 676v64h269v-64h-269zM538 526l-185 -529q-32 -91 -85 -145t-149 -64l-13 67q77 13 111 45.5t57 99.5h-28l-184 526h89l152 -463l149 463h86z" />
<glyph unicode="&#x4f0;" d="M206 767q-23 0 -38.5 15t-15.5 38t15.5 38.5t38.5 15.5t38.5 -15.5t15.5 -38.5q0 -22 -15.5 -37.5t-38.5 -15.5zM412 767q-22 0 -37.5 15.5t-15.5 37.5q0 23 15 38.5t38 15.5q24 0 39.5 -15.5t15.5 -38.5t-15.5 -38t-39.5 -15zM580 688l-212 -509q-38 -90 -90 -133.5 t-156 -56.5l-13 68q87 13 123.5 42t58.5 91h-37l-227 498h89l197 -443l180 443h87z" />
<glyph unicode="&#x4f1;" d="M196 648q-23 0 -38.5 15t-15.5 38t15.5 38.5t38.5 15.5t38.5 -15.5t15.5 -38.5q0 -22 -15.5 -37.5t-38.5 -15.5zM402 648q-22 0 -37.5 15t-15.5 38t15 38.5t38 15.5q24 0 39.5 -15.5t15.5 -38.5t-15.5 -38t-39.5 -15zM538 526l-185 -529q-32 -91 -85 -145t-149 -64 l-13 67q77 13 111 45.5t57 99.5h-28l-184 526h89l152 -463l149 463h86z" />
<glyph unicode="&#x4f2;" d="M270 954l74 -35l-97 -164l-54 26zM444 954l73 -38l-108 -163l-52 28zM580 688l-212 -509q-38 -90 -90 -133.5t-156 -56.5l-13 68q87 13 123.5 42t58.5 91h-37l-227 498h89l197 -443l180 443h87z" />
<glyph unicode="&#x4f3;" d="M254 835l74 -35l-97 -164l-54 26zM428 835l73 -38l-108 -163l-52 28zM538 526l-185 -529q-32 -91 -85 -145t-149 -64l-13 67q77 13 111 45.5t57 99.5h-28l-184 526h89l152 -463l149 463h86z" />
<glyph unicode="&#x4f4;" d="M185 767q-23 0 -38.5 15t-15.5 38t15.5 38.5t38.5 15.5t38.5 -15.5t15.5 -38.5q0 -22 -15.5 -37.5t-38.5 -15.5zM391 767q-23 0 -38 15.5t-15 37.5q0 23 15 38.5t38 15.5q24 0 39.5 -15.5t15.5 -38.5t-15.5 -38t-39.5 -15zM516 688v-688h-85v282q-47 -33 -87 -47.5 t-93 -14.5q-90 0 -145 55.5t-55 147.5v265h86v-258q0 -135 135 -135q96 0 159 61v332h85z" />
<glyph unicode="&#x4f5;" d="M183 648q-23 0 -38.5 15t-15.5 38t15.5 38.5t38.5 15.5t38.5 -15.5t15.5 -38.5q0 -22 -15.5 -37.5t-38.5 -15.5zM389 648q-23 0 -38 15t-15 38t15 38.5t38 15.5q24 0 39.5 -15.5t15.5 -38.5t-15.5 -38t-39.5 -15zM488 0h-82v223q-66 -59 -166 -59q-76 0 -115 40.5 t-39 114.5v207h82v-198q0 -52 22.5 -75t69.5 -23q39 0 80.5 16.5t65.5 43.5v236h82v-526z" />
<glyph unicode="&#x4f6;" d="M222 613v-541h59v-219h-68l-15 147h-61v688h407l-9 -75h-313z" />
<glyph unicode="&#x4f7;" d="M241 457v-389h82v-215h-69l-15 147h-81v526h366l-10 -69h-273z" />
<glyph unicode="&#x4f8;" d="M196 767q-23 0 -38.5 15t-15.5 38t15.5 38.5t38.5 15.5t38.5 -15.5t15.5 -38.5q0 -22 -15.5 -37.5t-38.5 -15.5zM402 767q-22 0 -37.5 15.5t-15.5 37.5q0 23 15 38.5t38 15.5q24 0 39.5 -15.5t15.5 -38.5t-15.5 -38t-39.5 -15zM119 432h63q248 0 248 -211 q0 -110 -63.5 -165.5t-182.5 -55.5h-153v688h88v-256zM569 0h-88v688h88v-688zM119 367v-298h74q73 0 109.5 35.5t36.5 115.5q0 147 -147 147h-73z" />
<glyph unicode="&#x4f9;" d="M196 648q-23 0 -38.5 15t-15.5 38t15.5 38.5t38.5 15.5t38.5 -15.5t15.5 -38.5q0 -22 -15.5 -37.5t-38.5 -15.5zM402 648q-22 0 -37.5 15t-15.5 38t15 38.5t38 15.5q24 0 39.5 -15.5t15.5 -38.5t-15.5 -38t-39.5 -15zM142 355h36q224 0 224 -173q0 -93 -59 -137.5 t-165 -44.5h-116v526h80v-171zM538 0h-81v526h81v-526zM142 293v-228h39q67 0 100.5 25.5t33.5 91.5q0 60 -32 85.5t-102 25.5h-39z" />
<glyph unicode="&#x51c;" d="M490 0h-113l-77 505h-4l-78 -505h-116l-97 688h86l71 -585h4l82 505h106l76 -501h4l82 581h79z" />
<glyph unicode="&#x51d;" d="M372 0l-68 378h-4l-71 -378h-115l-96 526h85l68 -462h4l80 395h99l75 -393h4l68 460h81l-92 -526h-118z" />
<glyph unicode="&#x524;" d="M578 72v-219h-68l-15 147h-64v614h-262v-614h-85v688h432v-616h62z" />
<glyph unicode="&#x525;" d="M574 68v-215h-69l-14 147h-81v458h-233v-458h-83v526h399v-458h81z" />
<glyph unicode="&#x526;" d="M601 72v-219h-68l-15 147h-62v235q0 139 -134 139q-90 0 -153 -80v-294h-85v688h85v-310q65 71 172 71q94 0 147 -56.5t53 -156.5v-164h60z" />
<glyph unicode="&#x527;" d="M576 68v-215h-69l-14 147h-81v303q0 60 -22.5 84t-67.5 24q-81 0 -141 -96l-1 3v-318h-83v737l83 10v-354q62 84 165 84q70 0 110 -43.5t40 -118.5v-247h81z" />
<glyph unicode="&#x1e80;" d="M416 800l-26 -44l-205 81l46 72zM490 0h-113l-77 505h-4l-78 -505h-116l-97 688h86l71 -585h4l82 505h106l76 -501h4l82 581h79z" />
<glyph unicode="&#x1e81;" d="M185 715l44 72l185 -117l-27 -46zM372 0l-68 378h-4l-71 -378h-115l-96 526h85l68 -462h4l80 395h99l75 -393h4l68 460h81l-92 -526h-118z" />
<glyph unicode="&#x1e82;" d="M420 834l-213 -78l-22 44l198 105zM490 0h-113l-77 505h-4l-78 -505h-116l-97 688h86l71 -585h4l82 505h106l76 -501h4l82 581h79z" />
<glyph unicode="&#x1e83;" d="M370 785l44 -71l-201 -90l-28 46zM372 0l-68 378h-4l-71 -378h-115l-96 526h85l68 -462h4l80 395h99l75 -393h4l68 460h81l-92 -526h-118z" />
<glyph unicode="&#x1e84;" d="M196 767q-23 0 -38.5 15t-15.5 38t15.5 38.5t38.5 15.5t38.5 -15.5t15.5 -38.5q0 -22 -15.5 -37.5t-38.5 -15.5zM402 767q-22 0 -37.5 15.5t-15.5 37.5q0 23 15 38.5t38 15.5q24 0 39.5 -15.5t15.5 -38.5t-15.5 -38t-39.5 -15zM490 0h-113l-77 505h-4l-78 -505h-116 l-97 688h86l71 -585h4l82 505h106l76 -501h4l82 581h79z" />
<glyph unicode="&#x1e85;" d="M196 648q-23 0 -38.5 15t-15.5 38t15.5 38.5t38.5 15.5t38.5 -15.5t15.5 -38.5q0 -22 -15.5 -37.5t-38.5 -15.5zM402 648q-22 0 -37.5 15t-15.5 38t15 38.5t38 15.5q24 0 39.5 -15.5t15.5 -38.5t-15.5 -38t-39.5 -15zM372 0l-68 378h-4l-71 -378h-115l-96 526h85l68 -462 h4l80 395h99l75 -393h4l68 460h81l-92 -526h-118z" />
<glyph unicode="&#x1ef2;" d="M419 800l-26 -44l-205 81l46 72zM343 0h-86v265l-233 423h95l183 -345l185 345h89l-233 -422v-266z" />
<glyph unicode="&#x1ef3;" d="M185 715l44 72l185 -117l-27 -46zM538 526l-185 -529q-32 -91 -85 -145t-149 -64l-13 67q77 13 111 45.5t57 99.5h-28l-184 526h89l152 -463l149 463h86z" />
<glyph unicode="&#x1f70;" d="M163 715l44 72l185 -117l-27 -46zM255 538q70 0 110 -37.5t56 -128.5l27 154h76l-51 -281l26 -136q6 -37 45 -51l-30 -70q-33 5 -59.5 30t-32.5 65l-8 56q-52 -150 -164 -150q-92 0 -141.5 67.5t-49.5 201.5q0 126 50.5 203t145.5 77zM261 471q-54 0 -83.5 -55 t-29.5 -158q0 -202 109 -202q102 0 143 211q-20 116 -53 160t-86 44z" />
<glyph unicode="&#x1f71;" d="M348 785l44 -71l-201 -90l-28 46zM255 538q70 0 110 -37.5t56 -128.5l27 154h76l-51 -281l26 -136q6 -37 45 -51l-30 -70q-33 5 -59.5 30t-32.5 65l-8 56q-52 -150 -164 -150q-92 0 -141.5 67.5t-49.5 201.5q0 126 50.5 203t145.5 77zM261 471q-54 0 -83.5 -55 t-29.5 -158q0 -202 109 -202q102 0 143 211q-20 116 -53 160t-86 44z" />
<glyph unicode="&#x1f72;" d="M201 715l44 72l185 -117l-27 -46zM391 241h-90q-67 0 -97.5 -20.5t-30.5 -65.5t38 -71.5t104 -26.5q102 0 186 58l45 -56q-94 -70 -236 -70q-100 0 -163.5 43t-63.5 120q0 59 33.5 90t98.5 40q-54 11 -82 41t-28 74q0 67 60 104t151 37q123 0 200 -54l-42 -52 q-64 39 -155 39q-128 0 -128 -82q0 -37 31 -58.5t84 -21.5h95z" />
<glyph unicode="&#x1f73;" d="M386 785l44 -71l-201 -90l-28 46zM391 241h-90q-67 0 -97.5 -20.5t-30.5 -65.5t38 -71.5t104 -26.5q102 0 186 58l45 -56q-94 -70 -236 -70q-100 0 -163.5 43t-63.5 120q0 59 33.5 90t98.5 40q-54 11 -82 41t-28 74q0 67 60 104t151 37q123 0 200 -54l-42 -52 q-64 39 -155 39q-128 0 -128 -82q0 -37 31 -58.5t84 -21.5h95z" />
<glyph unicode="&#x1f74;" d="M184 715l44 72l185 -117l-27 -46zM351 538q149 0 149 -156v-584l-83 -10v532q0 87 -17 119.5t-75 32.5q-41 0 -79.5 -26.5t-62.5 -61.5v-384h-83v354q0 84 -27 173l78 11q17 -31 24 -88q33 42 80.5 65t95.5 23z" />
<glyph unicode="&#x1f75;" d="M369 785l44 -71l-201 -90l-28 46zM351 538q149 0 149 -156v-584l-83 -10v532q0 87 -17 119.5t-75 32.5q-41 0 -79.5 -26.5t-62.5 -61.5v-384h-83v354q0 84 -27 173l78 11q17 -31 24 -88q33 42 80.5 65t95.5 23z" />
<glyph unicode="&#x1f76;" d="M169 715l44 72l185 -117l-27 -46zM63 456l10 70h251v-396q0 -72 87 -72q42 0 89 18l22 -60q-46 -27 -125 -27q-71 0 -113.5 40t-42.5 110v317h-178z" />
<glyph unicode="&#x1f77;" d="M354 785l44 -71l-201 -90l-28 46zM63 456l10 70h251v-396q0 -72 87 -72q42 0 89 18l22 -60q-46 -27 -125 -27q-71 0 -113.5 40t-42.5 110v317h-178z" />
<glyph unicode="&#x1f78;" d="M185 715l44 72l185 -117l-27 -46zM301 538q109 0 167 -73.5t58 -200.5q0 -124 -59 -199.5t-167 -75.5q-109 0 -167.5 73.5t-58.5 200.5q0 125 59.5 200t167.5 75zM301 470q-138 0 -138 -207q0 -206 137 -206t137 207q0 206 -136 206z" />
<glyph unicode="&#x1f79;" d="M370 785l44 -71l-201 -90l-28 46zM301 538q109 0 167 -73.5t58 -200.5q0 -124 -59 -199.5t-167 -75.5q-109 0 -167.5 73.5t-58.5 200.5q0 125 59.5 200t167.5 75zM301 470q-138 0 -138 -207q0 -206 137 -206t137 207q0 206 -136 206z" />
<glyph unicode="&#x1f7a;" d="M185 715l44 72l185 -117l-27 -46zM415 526h84q26 -143 26 -271q0 -131 -69.5 -198.5t-167.5 -67.5q-83 0 -133.5 44t-50.5 128v365h83v-358q0 -111 104 -111q62 0 106 47.5t44 158.5q0 125 -26 263z" />
<glyph unicode="&#x1f7b;" d="M370 785l44 -71l-201 -90l-28 46zM415 526h84q26 -143 26 -271q0 -131 -69.5 -198.5t-167.5 -67.5q-83 0 -133.5 44t-50.5 128v365h83v-358q0 -111 104 -111q62 0 106 47.5t44 158.5q0 125 -26 263z" />
<glyph unicode="&#x1f7c;" d="M185 715l44 72l185 -117l-27 -46zM447 526h76q51 -135 51 -287q0 -118 -39 -184t-114 -66q-107 0 -122 116q-24 -116 -122 -116q-151 0 -151 250q0 162 50 287h74q-41 -129 -41 -266q0 -103 16.5 -153t59.5 -50q75 0 75 174v126l80 11v-138q0 -84 16 -128.5t58 -44.5 q43 0 60 50t17 153q0 127 -44 266z" />
<glyph unicode="&#x1f7d;" d="M370 785l44 -71l-201 -90l-28 46zM447 526h76q51 -135 51 -287q0 -118 -39 -184t-114 -66q-107 0 -122 116q-24 -116 -122 -116q-151 0 -151 250q0 162 50 287h74q-41 -129 -41 -266q0 -103 16.5 -153t59.5 -50q75 0 75 174v126l80 11v-138q0 -84 16 -128.5t58 -44.5 q43 0 60 50t17 153q0 127 -44 266z" />
<glyph unicode="&#x1fb0;" d="M276 630q-63 0 -101.5 41.5t-45.5 93.5l57 13q24 -84 90 -84q68 0 93 84l57 -13q-7 -52 -46.5 -93.5t-103.5 -41.5zM255 538q70 0 110 -37.5t56 -128.5l27 154h76l-51 -281l26 -136q6 -37 45 -51l-30 -70q-33 5 -59.5 30t-32.5 65l-8 56q-52 -150 -164 -150 q-92 0 -141.5 67.5t-49.5 201.5q0 126 50.5 203t145.5 77zM261 471q-54 0 -83.5 -55t-29.5 -158q0 -202 109 -202q102 0 143 211q-20 116 -53 160t-86 44z" />
<glyph unicode="&#x1fb1;" d="M143 676v64h269v-64h-269zM255 538q70 0 110 -37.5t56 -128.5l27 154h76l-51 -281l26 -136q6 -37 45 -51l-30 -70q-33 5 -59.5 30t-32.5 65l-8 56q-52 -150 -164 -150q-92 0 -141.5 67.5t-49.5 201.5q0 126 50.5 203t145.5 77zM261 471q-54 0 -83.5 -55t-29.5 -158 q0 -202 109 -202q102 0 143 211q-20 116 -53 160t-86 44z" />
<glyph unicode="&#x1fb6;" d="M329 652q-32 0 -64.5 24.5t-44.5 24.5q-26 0 -51 -44l-54 24q37 84 111 84q33 0 65 -24t44 -24q26 0 51 44l54 -24q-39 -85 -111 -85zM255 538q70 0 110 -37.5t56 -128.5l27 154h76l-51 -281l26 -136q6 -37 45 -51l-30 -70q-33 5 -59.5 30t-32.5 65l-8 56 q-52 -150 -164 -150q-92 0 -141.5 67.5t-49.5 201.5q0 126 50.5 203t145.5 77zM261 471q-54 0 -83.5 -55t-29.5 -158q0 -202 109 -202q102 0 143 211q-20 116 -53 160t-86 44z" />
<glyph unicode="&#x1fb8;" d="M298 759q-58 0 -99.5 32.5t-47.5 86.5l57 12q24 -67 90 -67q69 0 93 67l57 -12q-6 -54 -48.5 -86.5t-101.5 -32.5zM161 176l-56 -176h-84l224 688h110l224 -688h-90l-55 176h-273zM412 247l-114 369l-115 -369h229z" />
<glyph unicode="&#x1fb9;" d="M165 795v64h269v-64h-269zM161 176l-56 -176h-84l224 688h110l224 -688h-90l-55 176h-273zM412 247l-114 369l-115 -369h229z" />
<glyph unicode="&#x1fba;" d="M416 800l-26 -44l-205 81l46 72zM161 176l-56 -176h-84l224 688h110l224 -688h-90l-55 176h-273zM412 247l-114 369l-115 -369h229z" />
<glyph unicode="&#x1fbb;" d="M420 834l-213 -78l-22 44l198 105zM161 176l-56 -176h-84l224 688h110l224 -688h-90l-55 176h-273zM412 247l-114 369l-115 -369h229z" />
<glyph unicode="&#x1fc0;" d="M351 652q-32 0 -64.5 24.5t-44.5 24.5q-26 0 -51 -44l-54 24q37 84 111 84q33 0 65 -24t44 -24q26 0 51 44l54 -24q-39 -85 -111 -85z" />
<glyph unicode="&#x1fc6;" d="M350 652q-32 0 -64.5 24.5t-44.5 24.5q-26 0 -51 -44l-54 24q37 84 111 84q33 0 65 -24t44 -24q26 0 51 44l54 -24q-39 -85 -111 -85zM351 538q149 0 149 -156v-584l-83 -10v532q0 87 -17 119.5t-75 32.5q-41 0 -79.5 -26.5t-62.5 -61.5v-384h-83v354q0 84 -27 173l78 11 q17 -31 24 -88q33 42 80.5 65t95.5 23z" />
<glyph unicode="&#x1fc8;" d="M437 800l-26 -44l-205 81l46 72zM212 385h255v-71h-255v-245h313v-69h-399v688h390l-10 -70h-294v-233z" />
<glyph unicode="&#x1fc9;" d="M441 834l-213 -78l-22 44l198 105zM212 385h255v-71h-255v-245h313v-69h-399v688h390l-10 -70h-294v-233z" />
<glyph unicode="&#x1fca;" d="M416 800l-26 -44l-205 81l46 72zM431 328h-262v-328h-85v688h85v-291h262v291h85v-688h-85v328z" />
<glyph unicode="&#x1fcb;" d="M420 834l-213 -78l-22 44l198 105zM431 328h-262v-328h-85v688h85v-291h262v291h85v-688h-85v328z" />
<glyph unicode="&#x1fd0;" d="M282 630q-63 0 -101.5 41.5t-45.5 93.5l57 13q24 -84 90 -84q68 0 93 84l57 -13q-7 -52 -46.5 -93.5t-103.5 -41.5zM63 456l10 70h251v-396q0 -72 87 -72q42 0 89 18l22 -60q-46 -27 -125 -27q-71 0 -113.5 40t-42.5 110v317h-178z" />
<glyph unicode="&#x1fd1;" d="M149 676v64h269v-64h-269zM63 456l10 70h251v-396q0 -72 87 -72q42 0 89 18l22 -60q-46 -27 -125 -27q-71 0 -113.5 40t-42.5 110v317h-178z" />
<glyph unicode="&#x1fd2;" d="M169 888l44 72l185 -117l-27 -46zM180 648q-23 0 -38.5 15t-15.5 38t15.5 38.5t38.5 15.5t38.5 -15.5t15.5 -38.5q0 -22 -15.5 -37.5t-38.5 -15.5zM386 648q-22 0 -37.5 15t-15.5 38t15 38.5t38 15.5q24 0 39.5 -15.5t15.5 -38.5t-15.5 -38t-39.5 -15zM63 456l10 70h251 v-396q0 -72 87 -72q42 0 89 18l22 -60q-46 -27 -125 -27q-71 0 -113.5 40t-42.5 110v317h-178z" />
<glyph unicode="&#x1fd3;" d="M354 958l44 -71l-201 -90l-28 46zM180 648q-23 0 -38.5 15t-15.5 38t15.5 38.5t38.5 15.5t38.5 -15.5t15.5 -38.5q0 -22 -15.5 -37.5t-38.5 -15.5zM386 648q-22 0 -37.5 15t-15.5 38t15 38.5t38 15.5q24 0 39.5 -15.5t15.5 -38.5t-15.5 -38t-39.5 -15zM63 456l10 70h251 v-396q0 -72 87 -72q42 0 89 18l22 -60q-46 -27 -125 -27q-71 0 -113.5 40t-42.5 110v317h-178z" />
<glyph unicode="&#x1fd6;" d="M335 652q-32 0 -64.5 24.5t-44.5 24.5q-26 0 -51 -44l-54 24q37 84 111 84q33 0 65 -24t44 -24q26 0 51 44l54 -24q-39 -85 -111 -85zM63 456l10 70h251v-396q0 -72 87 -72q42 0 89 18l22 -60q-46 -27 -125 -27q-71 0 -113.5 40t-42.5 110v317h-178z" />
<glyph unicode="&#x1fd7;" d="M335 825q-32 0 -64.5 24.5t-44.5 24.5q-26 0 -51 -44l-54 24q37 84 111 84q33 0 65 -24t44 -24q26 0 51 44l54 -24q-39 -85 -111 -85zM180 648q-23 0 -38.5 15t-15.5 38t15.5 38.5t38.5 15.5t38.5 -15.5t15.5 -38.5q0 -22 -15.5 -37.5t-38.5 -15.5zM386 648 q-22 0 -37.5 15t-15.5 38t15 38.5t38 15.5q24 0 39.5 -15.5t15.5 -38.5t-15.5 -38t-39.5 -15zM63 456l10 70h251v-396q0 -72 87 -72q42 0 89 18l22 -60q-46 -27 -125 -27q-71 0 -113.5 40t-42.5 110v317h-178z" />
<glyph unicode="&#x1fd8;" d="M298 759q-58 0 -99.5 32.5t-47.5 86.5l57 12q24 -67 90 -67q69 0 93 67l57 -12q-6 -54 -48.5 -86.5t-101.5 -32.5zM497 620h-154v-551h154v-69h-394v69h154v551h-154v68h394v-68z" />
<glyph unicode="&#x1fd9;" d="M165 795v64h269v-64h-269zM497 620h-154v-551h154v-69h-394v69h154v551h-154v68h394v-68z" />
<glyph unicode="&#x1fda;" d="M416 800l-26 -44l-205 81l46 72zM497 620h-154v-551h154v-69h-394v69h154v551h-154v68h394v-68z" />
<glyph unicode="&#x1fdb;" d="M420 834l-213 -78l-22 44l198 105zM497 620h-154v-551h154v-69h-394v69h154v551h-154v68h394v-68z" />
<glyph unicode="&#x1fe0;" d="M298 630q-63 0 -101.5 41.5t-45.5 93.5l57 13q24 -84 90 -84q68 0 93 84l57 -13q-7 -52 -46.5 -93.5t-103.5 -41.5zM415 526h84q26 -143 26 -271q0 -131 -69.5 -198.5t-167.5 -67.5q-83 0 -133.5 44t-50.5 128v365h83v-358q0 -111 104 -111q62 0 106 47.5t44 158.5 q0 125 -26 263z" />
<glyph unicode="&#x1fe1;" d="M165 676v64h269v-64h-269zM415 526h84q26 -143 26 -271q0 -131 -69.5 -198.5t-167.5 -67.5q-83 0 -133.5 44t-50.5 128v365h83v-358q0 -111 104 -111q62 0 106 47.5t44 158.5q0 125 -26 263z" />
<glyph unicode="&#x1fe2;" d="M185 888l44 72l185 -117l-27 -46zM196 648q-23 0 -38.5 15t-15.5 38t15.5 38.5t38.5 15.5t38.5 -15.5t15.5 -38.5q0 -22 -15.5 -37.5t-38.5 -15.5zM402 648q-22 0 -37.5 15t-15.5 38t15 38.5t38 15.5q24 0 39.5 -15.5t15.5 -38.5t-15.5 -38t-39.5 -15zM415 526h84 q26 -143 26 -271q0 -131 -69.5 -198.5t-167.5 -67.5q-83 0 -133.5 44t-50.5 128v365h83v-358q0 -111 104 -111q62 0 106 47.5t44 158.5q0 125 -26 263z" />
<glyph unicode="&#x1fe3;" d="M370 958l44 -71l-201 -90l-28 46zM196 648q-23 0 -38.5 15t-15.5 38t15.5 38.5t38.5 15.5t38.5 -15.5t15.5 -38.5q0 -22 -15.5 -37.5t-38.5 -15.5zM402 648q-22 0 -37.5 15t-15.5 38t15 38.5t38 15.5q24 0 39.5 -15.5t15.5 -38.5t-15.5 -38t-39.5 -15zM415 526h84 q26 -143 26 -271q0 -131 -69.5 -198.5t-167.5 -67.5q-83 0 -133.5 44t-50.5 128v365h83v-358q0 -111 104 -111q62 0 106 47.5t44 158.5q0 125 -26 263z" />
<glyph unicode="&#x1fe6;" d="M351 652q-32 0 -64.5 24.5t-44.5 24.5q-26 0 -51 -44l-54 24q37 84 111 84q33 0 65 -24t44 -24q26 0 51 44l54 -24q-39 -85 -111 -85zM415 526h84q26 -143 26 -271q0 -131 -69.5 -198.5t-167.5 -67.5q-83 0 -133.5 44t-50.5 128v365h83v-358q0 -111 104 -111 q62 0 106 47.5t44 158.5q0 125 -26 263z" />
<glyph unicode="&#x1fe7;" d="M351 825q-32 0 -64.5 24.5t-44.5 24.5q-26 0 -51 -44l-54 24q37 84 111 84q33 0 65 -24t44 -24q26 0 51 44l54 -24q-39 -85 -111 -85zM196 648q-23 0 -38.5 15t-15.5 38t15.5 38.5t38.5 15.5t38.5 -15.5t15.5 -38.5q0 -22 -15.5 -37.5t-38.5 -15.5zM402 648 q-22 0 -37.5 15t-15.5 38t15 38.5t38 15.5q24 0 39.5 -15.5t15.5 -38.5t-15.5 -38t-39.5 -15zM415 526h84q26 -143 26 -271q0 -131 -69.5 -198.5t-167.5 -67.5q-83 0 -133.5 44t-50.5 128v365h83v-358q0 -111 104 -111q62 0 106 47.5t44 158.5q0 125 -26 263z" />
<glyph unicode="&#x1fe8;" d="M301 759q-58 0 -99.5 32.5t-47.5 86.5l57 12q24 -67 90 -67q69 0 93 67l57 -12q-6 -54 -48.5 -86.5t-101.5 -32.5zM343 0h-86v265l-233 423h95l183 -345l185 345h89l-233 -422v-266z" />
<glyph unicode="&#x1fe9;" d="M168 795v64h269v-64h-269zM343 0h-86v265l-233 423h95l183 -345l185 345h89l-233 -422v-266z" />
<glyph unicode="&#x1fea;" d="M419 800l-26 -44l-205 81l46 72zM343 0h-86v265l-233 423h95l183 -345l185 345h89l-233 -422v-266z" />
<glyph unicode="&#x1feb;" d="M423 834l-213 -78l-22 44l198 105zM343 0h-86v265l-233 423h95l183 -345l185 345h89l-233 -422v-266z" />
<glyph unicode="&#x1ff6;" d="M351 652q-32 0 -64.5 24.5t-44.5 24.5q-26 0 -51 -44l-54 24q37 84 111 84q33 0 65 -24t44 -24q26 0 51 44l54 -24q-39 -85 -111 -85zM447 526h76q51 -135 51 -287q0 -118 -39 -184t-114 -66q-107 0 -122 116q-24 -116 -122 -116q-151 0 -151 250q0 162 50 287h74 q-41 -129 -41 -266q0 -103 16.5 -153t59.5 -50q75 0 75 174v126l80 11v-138q0 -84 16 -128.5t58 -44.5q43 0 60 50t17 153q0 127 -44 266z" />
<glyph unicode="&#x1ff8;" d="M416 800l-26 -44l-205 81l46 72zM553 344q0 -161 -65.5 -258t-187.5 -97q-123 0 -188 95t-65 258q0 162 65.5 260t187.5 98t187.5 -96.5t65.5 -259.5zM464 344q0 141 -39 212t-125 71t-125 -71.5t-39 -213.5q0 -281 164 -281q85 0 124.5 71t39.5 212z" />
<glyph unicode="&#x1ff9;" d="M420 834l-213 -78l-22 44l198 105zM553 344q0 -161 -65.5 -258t-187.5 -97q-123 0 -188 95t-65 258q0 162 65.5 260t187.5 98t187.5 -96.5t65.5 -259.5zM464 344q0 141 -39 212t-125 71t-125 -71.5t-39 -213.5q0 -281 164 -281q85 0 124.5 71t39.5 212z" />
<glyph unicode="&#x1ffa;" d="M456 892l-26 -44l-205 81l46 72zM300 628q-82 0 -123 -66t-41 -213q0 -221 130 -285v-64h-208v69h112v4q-123 64 -123 276q0 167 68 259t185 92t185 -92t68 -259q0 -208 -125 -276v-4h114v-69h-207v64q129 64 129 285q0 146 -41 212.5t-123 66.5z" />
<glyph unicode="&#x1ffb;" d="M460 926l-213 -78l-22 44l198 105zM300 628q-82 0 -123 -66t-41 -213q0 -221 130 -285v-64h-208v69h112v4q-123 64 -123 276q0 167 68 259t185 92t185 -92t68 -259q0 -208 -125 -276v-4h114v-69h-207v64q129 64 129 285q0 146 -41 212.5t-123 66.5z" />
<glyph unicode="&#x2007;" />
<glyph unicode="&#x2008;" />
<glyph unicode="&#x200b;" />
<glyph unicode="&#x2012;" d="M35 348h530v-72h-530v72z" />
<glyph unicode="&#x2013;" d="M33 349h534v-72h-534v72z" />
<glyph unicode="&#x2014;" d="M0 349h600v-72h-600v72z" />
<glyph unicode="&#x2015;" d="M33 389h534v-72h-534v72z" />
<glyph unicode="&#x2017;" d="M607 -79h-614v79h614v-79zM607 -215h-614v79h614v-79z" />
<glyph unicode="&#x2018;" d="M368 551q0 -31 -22 -52t-54 -21q-31 0 -52.5 21t-21.5 52q0 29 17 65l82 173h65l-40 -184q26 -18 26 -54z" />
<glyph unicode="&#x2019;" d="M231 716q0 30 22.5 51.5t53.5 21.5t53 -21t22 -52q0 -27 -18 -65l-82 -173h-65l40 184q-26 18 -26 54z" />
<glyph unicode="&#x201a;" d="M231 56q0 30 22.5 51.5t52.5 21.5q32 0 54 -21t22 -52q0 -27 -18 -65l-82 -173h-65l40 184q-26 18 -26 54z" />
<glyph unicode="&#x201c;" d="M260 551q0 -31 -22 -52t-53 -21q-32 0 -53.5 21t-21.5 52q0 29 17 65l81 173h66l-40 -184q26 -18 26 -54zM476 551q0 -30 -22.5 -51.5t-53.5 -21.5t-52.5 21t-21.5 52q0 29 17 65l82 173h65l-40 -184q26 -18 26 -54z" />
<glyph unicode="&#x201d;" d="M123 715q0 30 22.5 51.5t52.5 21.5q32 0 54 -21t22 -52q0 -24 -19 -65l-81 -173h-65l39 183q-25 20 -25 55zM339 715q0 30 22.5 51.5t52.5 21.5q32 0 54 -21t22 -52q0 -27 -18 -65l-82 -173h-65l40 183q-26 20 -26 55z" />
<glyph unicode="&#x201e;" d="M124 56q0 30 22.5 51.5t53.5 21.5t53 -21t22 -52q0 -27 -18 -65l-82 -173h-65l40 184q-26 18 -26 54zM339 56q0 30 22.5 51.5t52.5 21.5q32 0 53.5 -21t21.5 -52q0 -29 -17 -65l-82 -173h-65l40 184q-26 18 -26 54z" />
<glyph unicode="&#x2020;" d="M340 520h169v-70h-169v-450h-80v450h-169v70h169v157h80v-157z" />
<glyph unicode="&#x2021;" d="M340 512h169v-70h-169v-211h169v-70h-169v-161h-80v161h-169v70h169v211h-169v70h169v165h80v-165z" />
<glyph unicode="&#x2022;" d="M300 221q-52 0 -86.5 34.5t-34.5 86.5t34 86t87 34q52 0 86.5 -34t34.5 -87q0 -52 -34 -86t-87 -34z" />
<glyph unicode="&#x2026;" d="M32 57q0 28 19.5 47.5t47.5 19.5q29 0 48.5 -19.5t19.5 -47.5q0 -29 -19.5 -48.5t-48.5 -19.5q-28 0 -47.5 19.5t-19.5 48.5zM232 57q0 28 20 47.5t48 19.5t47.5 -19.5t19.5 -47.5q0 -29 -19.5 -48.5t-47.5 -19.5t-48 19.5t-20 48.5zM433 57q0 28 19.5 47.5t47.5 19.5 q29 0 48.5 -19.5t19.5 -47.5q0 -29 -19.5 -48.5t-48.5 -19.5q-28 0 -47.5 19.5t-19.5 48.5z" />
<glyph unicode="&#x2030;" d="M176 700q56 0 92.5 -37t36.5 -98q0 -62 -36.5 -99t-92.5 -37q-58 0 -94.5 36.5t-36.5 99.5q0 61 37 98t94 37zM176 649q-63 0 -63 -84q0 -88 63 -88t63 88q0 84 -63 84zM575 472l-531 -209l-25 56l532 210zM175 258q56 0 93 -37t37 -98q0 -62 -36.5 -98.5t-93.5 -36.5 t-93.5 36t-36.5 99q0 61 36.5 98t93.5 37zM452 258q56 0 92.5 -37t36.5 -98q0 -62 -36.5 -98.5t-92.5 -36.5q-58 0 -94.5 36.5t-36.5 98.5q0 61 37 98t94 37zM175 207q-63 0 -63 -84q0 -88 63 -88t63 88q0 84 -63 84zM452 207q-64 0 -64 -84q0 -88 64 -88q63 0 63 88 q0 84 -63 84z" />
<glyph unicode="&#x2039;" d="M362 56l-173 207v60l173 209l49 -31l-134 -207l134 -207z" />
<glyph unicode="&#x203a;" d="M189 501l49 31l173 -209v-60l-173 -207l-49 31l134 207z" />
<glyph unicode="&#x2044;" horiz-adv-x="0" d="M-282 237l535 256l29 -53l-534 -256z" />
<glyph unicode="&#x2070;" d="M453 476q0 -72 -40 -119.5t-113 -47.5t-114 48t-41 119q0 72 40.5 119t114.5 47q73 0 113 -47t40 -119zM378 476q0 106 -78 106q-80 0 -80 -106q0 -52 21 -80.5t59 -28.5q78 0 78 109z" />
<glyph unicode="&#x2074;" d="M397 315h-72v56h-179v48l136 227l61 -25l-115 -191h97l6 86h66v-86h56v-59h-56v-56z" />
<glyph unicode="&#x2075;" d="M444 424q0 -56 -40 -85.5t-104 -29.5q-89 0 -144 55l44 39q43 -37 98 -37q72 0 72 58q0 53 -63 53q-35 0 -66 -17h-55v176h243l-7 -59h-165v-63q33 15 70 15q53 0 85 -27.5t32 -77.5z" />
<glyph unicode="&#x2076;" d="M427 613l-35 -47q-33 17 -78 17q-91 0 -95 -99q50 43 113 43q50 0 85 -26t35 -75q0 -53 -42 -85t-103 -32q-76 0 -117.5 47t-41.5 122q0 70 43 117t123 47q65 0 113 -29zM318 478q-50 0 -97 -41q24 -69 86 -69q34 0 53 15.5t19 40.5q0 54 -61 54z" />
<glyph unicode="&#x2077;" d="M206 337l156 240h-202v59h280v-49l-164 -280z" />
<glyph unicode="&#x2078;" d="M441 559q0 -61 -70 -68q87 -26 87 -82q0 -45 -43 -72.5t-116 -27.5q-74 0 -115.5 27t-41.5 71q0 57 80 76q-62 17 -62 74q0 37 39.5 61t100.5 24q64 0 102.5 -24t38.5 -59zM231 557q0 -17 18.5 -26.5t65.5 -17.5q30 9 42.5 18t12.5 25q0 13 -18 22.5t-52 9.5t-51.5 -9 t-17.5 -22zM384 410q0 20 -26 30t-82 20q-60 -17 -60 -51q0 -41 83 -41q39 0 62 12t23 30z" />
<glyph unicode="&#x2079;" d="M202 310l-18 56q90 12 135 32.5t63 63.5q-62 -33 -109 -33q-54 0 -90 26t-36 75q0 51 44 81.5t108 30.5q74 0 115 -36.5t41 -100.5q0 -91 -61 -136t-192 -59zM292 483q44 0 90 23q-2 77 -84 77q-36 0 -56.5 -13.5t-20.5 -38.5q0 -48 71 -48z" />
<glyph unicode="&#x207a;" d="M333 512h85v-62h-85v-89h-65v89h-86v62h86v90h65v-90z" />
<glyph unicode="&#x207b;" d="M416 448h-232v62h232v-62z" />
<glyph unicode="&#x207c;" d="M416 510h-233v62h233v-62zM416 390h-233v62h233v-62z" />
<glyph unicode="&#x207d;" d="M296 474q0 -74 17.5 -121t62.5 -116l-45 -28q-56 71 -81 126t-25 139t25 140t81 127l45 -28q-45 -69 -62.5 -116.5t-17.5 -122.5z" />
<glyph unicode="&#x207e;" d="M304 474q0 75 -17.5 122.5t-62.5 116.5l45 28q56 -71 81 -127t25 -140t-25 -139t-81 -126l-45 28q45 69 62.5 116t17.5 121z" />
<glyph unicode="&#x207f;" d="M332 723q101 0 101 -103v-242h-71v204q0 48 -9 66t-38 18q-41 0 -76 -47v-241h-71v338h63l3 -30q45 37 98 37z" />
<glyph unicode="&#x2080;" d="M453 -32q0 -72 -40 -119.5t-113 -47.5t-114 48t-41 119q0 72 40.5 119t114.5 47q73 0 113 -47t40 -119zM378 -32q0 106 -78 106q-80 0 -80 -106q0 -52 21 -80.5t59 -28.5q78 0 78 109z" />
<glyph unicode="&#x2081;" d="M365 46l-96 -52l-35 49l144 85h56v-321h-69v239z" />
<glyph unicode="&#x2082;" d="M435 28q0 -47 -35.5 -79.5t-133.5 -81.5h179l-9 -60h-277v52q131 80 165.5 107.5t34.5 58.5q0 23 -15.5 36t-43.5 13q-56 0 -95 -49l-51 38q60 71 148 71q63 0 98 -29t35 -77z" />
<glyph unicode="&#x2083;" d="M308 134q60 0 95 -24t35 -65q0 -28 -16 -44t-55 -23q45 -7 65 -24t20 -52q0 -46 -41 -73.5t-113 -27.5q-93 0 -151 58l46 38q46 -40 108 -40q76 0 76 47t-72 47h-46l8 43h34q64 0 64 41q0 44 -62 44q-54 0 -105 -38l-38 41q63 52 148 52z" />
<glyph unicode="&#x2084;" d="M397 -193h-72v56h-179v48l136 227l61 -25l-115 -191h97l6 86h66v-86h56v-59h-56v-56z" />
<glyph unicode="&#x2085;" d="M444 -84q0 -56 -40 -85.5t-104 -29.5q-89 0 -144 55l44 39q43 -37 98 -37q72 0 72 58q0 53 -63 53q-35 0 -66 -17h-55v176h243l-7 -59h-165v-63q33 15 70 15q53 0 85 -27.5t32 -77.5z" />
<glyph unicode="&#x2086;" d="M427 105l-35 -47q-33 17 -78 17q-91 0 -95 -99q50 43 113 43q50 0 85 -26t35 -75q0 -53 -42 -85t-103 -32q-76 0 -117.5 47t-41.5 122q0 70 43 117t123 47q65 0 113 -29zM318 -30q-50 0 -97 -41q24 -69 86 -69q34 0 53 15.5t19 40.5q0 54 -61 54z" />
<glyph unicode="&#x2087;" d="M206 -171l156 240h-202v59h280v-49l-164 -280z" />
<glyph unicode="&#x2088;" d="M441 51q0 -61 -70 -68q87 -26 87 -82q0 -45 -43 -72.5t-116 -27.5q-74 0 -115.5 27t-41.5 71q0 57 80 76q-62 17 -62 74q0 37 39.5 61t100.5 24q64 0 102.5 -24t38.5 -59zM231 49q0 -17 18.5 -26.5t65.5 -17.5q30 9 42.5 18t12.5 25q0 13 -18 22.5t-52 9.5t-51.5 -9 t-17.5 -22zM384 -98q0 20 -26 30t-82 20q-60 -17 -60 -51q0 -41 83 -41q39 0 62 12t23 30z" />
<glyph unicode="&#x2089;" d="M202 -198l-18 56q90 12 135 32.5t63 63.5q-62 -33 -109 -33q-54 0 -90 26t-36 75q0 51 44 81.5t108 30.5q74 0 115 -36.5t41 -100.5q0 -91 -61 -136t-192 -59zM292 -25q44 0 90 23q-2 77 -84 77q-36 0 -56.5 -13.5t-20.5 -38.5q0 -48 71 -48z" />
<glyph unicode="&#x208a;" d="M333 4h85v-62h-85v-89h-65v89h-86v62h86v90h65v-90z" />
<glyph unicode="&#x208b;" d="M416 -60h-232v62h232v-62z" />
<glyph unicode="&#x208c;" d="M416 2h-233v62h233v-62zM416 -118h-233v62h233v-62z" />
<glyph unicode="&#x208d;" d="M290 -34q0 -74 17 -121t62 -116l-45 -28q-56 71 -81 126t-25 139t25 140t81 127l45 -28q-45 -69 -62 -116t-17 -123z" />
<glyph unicode="&#x208e;" d="M309 -34q0 76 -17 123t-62 116l45 28q55 -70 80 -126t25 -141q0 -84 -25 -139.5t-80 -125.5l-45 28q45 69 62 116t17 121z" />
<glyph unicode="&#x20ac;" d="M381 700q90 0 159 -46l-42 -60q-52 34 -114 34q-140 0 -166 -176h246l-14 -58h-238v-92h218l-14 -59h-201q12 -95 51.5 -139t112.5 -44q82 0 141 51v-86q-59 -36 -144 -36q-104 0 -167 65t-80 189h-94l15 59h72l1 92h-88l14 58h82q21 118 88.5 183t161.5 65z" />
<glyph unicode="&#x2113;" d="M348 749q63 0 98 -35.5t35 -92.5q0 -35 -11.5 -76.5t-34.5 -86t-65.5 -83t-96.5 -59.5v-76q0 -60 6.5 -98t19.5 -55.5t27 -23t36 -5.5q42 0 85 25l22 -60q-56 -34 -110 -34q-37 0 -65.5 12t-52.5 39.5t-37 80t-13 127.5v41q-63 -15 -107 -22l-10 58q72 13 117 26v175 q0 223 157 223zM347 688q-40 0 -57 -39t-17 -121v-148q64 29 96 101t32 137q0 36 -12.5 53t-41.5 17z" />
<glyph unicode="&#x2116;" d="M453 701q130 0 130 -221q0 -222 -130 -222q-132 0 -132 222q0 221 132 221zM302 0h-108l-110 589h-4q11 -121 11 -240v-349h-63v688h110l108 -592h4q-11 110 -11 244v348h63v-688zM453 644q-29 0 -40.5 -39.5t-11.5 -124.5q0 -86 11.5 -125.5t40.5 -39.5q30 0 41 39 t11 126q0 85 -11.5 124.5t-40.5 39.5zM576 0h-245v69h245v-69z" />
<glyph unicode="&#x2122;" d="M579 298h-60l-10 233q-2 75 -1 98h-3l-47 -294h-65l-57 294h-3q2 -48 0 -97l-9 -234h-57l14 335h-107v-335h-62v335h-99v55h361l52 -281l43 281h95z" />
<glyph unicode="&#x212e;" d="M302 701q127 0 195.5 -64.5t85.5 -168.5v-134h-432v-261q57 -47 154 -47q139 0 193 97h49q-68 -135 -243 -135q-123 0 -193.5 61.5t-89.5 164.5v254q17 104 85.5 168.5t195.5 64.5zM303 662q-98 0 -152 -42v-247h299v246q-53 43 -147 43z" />
<glyph unicode="&#x2153;" d="M120 607l-96 -52l-35 49l144 85h56v-321h-69v239zM2 237l535 256l30 -53l-534 -256zM467 327q60 0 95 -24t35 -65q0 -28 -16 -44t-55 -23q45 -7 65 -24t20 -52q0 -46 -41 -73.5t-113 -27.5q-93 0 -150 58l45 38q47 -40 108 -40q76 0 76 47t-71 47h-47l8 43h34q64 0 64 41 q0 44 -61 44q-55 0 -105 -38l-39 41q63 52 148 52z" />
<glyph unicode="&#x2154;" d="M240 589q0 -47 -35.5 -79.5t-133.5 -81.5h179l-9 -60h-277v52q131 80 165.5 107.5t34.5 58.5q0 23 -15.5 36t-43.5 13q-56 0 -95 -49l-51 38q60 71 148 71q63 0 98 -29t35 -77zM33 237l535 256l29 -53l-534 -256zM497 327q60 0 95 -24t35 -65q0 -28 -16 -44t-55 -23 q45 -7 65 -24t20 -52q0 -46 -41 -73.5t-113 -27.5q-93 0 -151 58l46 38q46 -40 108 -40q76 0 76 47t-72 47h-46l8 43h34q64 0 64 41q0 44 -62 44q-54 0 -105 -38l-38 41q63 52 148 52z" />
<glyph unicode="&#x2155;" d="M114 607l-96 -52l-35 49l144 85h56v-321h-69v239zM-16 237l535 256l30 -53l-534 -256zM619 109q0 -56 -40 -85.5t-105 -29.5q-89 0 -144 55l45 39q42 -37 98 -37q71 0 71 58q0 53 -63 53q-34 0 -66 -17h-54v176h242l-6 -59h-165v-63q33 15 70 15q53 0 85 -27.5t32 -77.5z " />
<glyph unicode="&#x2156;" d="M234 589q0 -47 -35.5 -79.5t-133.5 -81.5h179l-9 -60h-277v52q131 80 165.5 107.5t34.5 58.5q0 23 -15.5 36t-43.5 13q-56 0 -95 -49l-51 38q60 71 148 71q63 0 98 -29t35 -77zM15 237l535 256l30 -53l-534 -256zM647 109q0 -56 -40 -85.5t-105 -29.5q-89 0 -144 55 l45 39q42 -37 97 -37q72 0 72 58q0 53 -63 53q-34 0 -66 -17h-55v176h243l-7 -59h-165v-63q33 15 71 15q53 0 85 -27.5t32 -77.5z" />
<glyph unicode="&#x2157;" d="M133 695q60 0 95 -24t35 -65q0 -28 -16 -44t-55 -23q45 -7 65 -24t20 -52q0 -46 -41 -73.5t-113 -27.5q-93 0 -151 58l46 38q46 -40 108 -40q76 0 76 47t-72 47h-46l8 43h34q64 0 64 41q0 44 -62 44q-54 0 -105 -38l-38 41q63 52 148 52zM-5 237l535 256l29 -53 l-534 -256zM626 109q0 -56 -40 -85.5t-104 -29.5q-89 0 -144 55l44 39q43 -37 98 -37q72 0 72 58q0 53 -63 53q-35 0 -66 -17h-55v176h243l-7 -59h-165v-63q33 15 70 15q53 0 85 -27.5t32 -77.5z" />
<glyph unicode="&#x2158;" d="M215 368h-72v56h-179v48l136 227l61 -25l-115 -191h97l6 86h66v-86h56v-59h-56v-56zM9 237l535 256l29 -53l-534 -256zM636 109q0 -56 -40.5 -85.5t-104.5 -29.5q-89 0 -144 55l45 39q42 -37 97 -37q72 0 72 58q0 53 -63 53q-34 0 -66 -17h-55v176h243l-7 -59h-165v-63 q33 15 70 15q53 0 85.5 -27.5t32.5 -77.5z" />
<glyph unicode="&#x2159;" d="M142 607l-96 -52l-35 49l144 85h56v-321h-69v239zM10 237l535 256l30 -53l-534 -256zM564 298l-35 -47q-33 17 -78 17q-91 0 -94 -99q48 43 112 43q50 0 85 -26t35 -75q0 -53 -42 -85t-102 -32q-77 0 -118.5 47t-41.5 122q0 70 43.5 117t123.5 47q64 0 112 -29zM455 163 q-49 0 -96 -41q11 -32 29.5 -50.5t55.5 -18.5q34 0 53 15.5t19 40.5q0 54 -61 54z" />
<glyph unicode="&#x215a;" d="M295 477q0 -56 -40 -85.5t-104 -29.5q-89 0 -144 55l44 39q43 -37 98 -37q72 0 72 58q0 53 -63 53q-35 0 -66 -17h-55v176h243l-7 -59h-165v-63q33 15 70 15q53 0 85 -27.5t32 -77.5zM12 237l535 256l30 -53l-534 -256zM568 298l-34 -47q-33 17 -78 17q-91 0 -95 -99 q50 43 112 43q51 0 86 -26t35 -75q0 -53 -42 -85t-103 -32q-76 0 -117.5 47t-41.5 122q0 70 43 117t123 47q65 0 112 -29zM460 163q-50 0 -97 -41q24 -69 86 -69q34 0 53 15.5t19 40.5q0 54 -61 54z" />
<glyph unicode="&#x215b;" d="M120 607l-96 -52l-35 49l144 85h56v-321h-69v239zM-2 237l535 256l29 -53l-534 -256zM595 244q0 -61 -70 -68q87 -26 87 -82q0 -45 -43 -72.5t-116 -27.5q-74 0 -115.5 27t-41.5 71q0 57 80 76q-62 17 -62 74q0 37 39.5 61t100.5 24q64 0 102.5 -24t38.5 -59zM385 242 q0 -17 18.5 -26.5t65.5 -17.5q30 9 42.5 18t12.5 25q0 13 -18 22.5t-52 9.5t-51.5 -9t-17.5 -22zM538 95q0 20 -26 30t-82 20q-60 -17 -60 -51q0 -41 83 -41q39 0 62 12t23 30z" />
<glyph unicode="&#x215c;" d="M147 695q60 0 95 -24t35 -65q0 -28 -16 -44t-55 -23q45 -7 65 -24t20 -52q0 -46 -41 -73.5t-113 -27.5q-93 0 -151 58l46 38q46 -40 108 -40q76 0 76 47t-72 47h-46l8 43h34q64 0 64 41q0 44 -62 44q-54 0 -105 -38l-38 41q63 52 148 52zM3 237l535 256l30 -53l-534 -256 zM598 244q0 -61 -71 -68q45 -13 66.5 -32.5t21.5 -49.5q0 -45 -43 -72.5t-116 -27.5q-74 0 -115.5 27t-41.5 71q0 57 80 76q-62 17 -62 74q0 37 39.5 61t100.5 24q64 0 102.5 -24t38.5 -59zM388 242q0 -17 18.5 -26.5t65.5 -17.5q30 9 42.5 18t12.5 25q0 13 -18 22.5 t-52 9.5t-51.5 -9t-17.5 -22zM541 95q0 20 -26 30t-82 20q-60 -17 -60 -51q0 -41 83 -41q39 0 62 12t23 30z" />
<glyph unicode="&#x215d;" d="M287 477q0 -56 -40 -85.5t-104 -29.5q-89 0 -144 55l44 39q43 -37 98 -37q72 0 72 58q0 53 -63 53q-35 0 -66 -17h-55v176h243l-7 -59h-165v-63q33 15 70 15q53 0 85 -27.5t32 -77.5zM-6 237l535 256l30 -53l-534 -256zM588 244q0 -61 -71 -68q45 -13 66.5 -32.5 t21.5 -49.5q0 -45 -43 -72.5t-116 -27.5q-74 0 -115.5 27t-41.5 71q0 57 80 76q-62 17 -62 74q0 37 39.5 61t100.5 24q64 0 102.5 -24t38.5 -59zM378 242q0 -17 18.5 -26.5t65.5 -17.5q30 9 42.5 18t12.5 25q0 13 -18 22.5t-52 9.5t-51.5 -9t-17.5 -22zM531 95q0 20 -26 30 t-82 20q-60 -17 -60 -51q0 -41 83 -41q39 0 62 12t23 30z" />
<glyph unicode="&#x215e;" d="M96 389l156 240h-202v59h280v-49l-164 -280zM-5 237l535 256l29 -53l-534 -256zM588 244q0 -61 -70 -68q87 -26 87 -82q0 -45 -43 -72.5t-116 -27.5q-74 0 -115.5 27t-41.5 71q0 57 80 76q-62 17 -62 74q0 37 39.5 61t100.5 24q64 0 102.5 -24t38.5 -59zM378 242 q0 -17 18.5 -26.5t65.5 -17.5q30 9 42.5 18t12.5 25q0 13 -18 22.5t-52 9.5t-51.5 -9t-17.5 -22zM531 95q0 20 -26 30t-82 20q-60 -17 -60 -51q0 -41 83 -41q39 0 62 12t23 30z" />
<glyph unicode="&#x215f;" d="M148 607l-96 -52l-35 49l144 85h56v-321h-69v239zM19 237l535 256l29 -53l-534 -256z" />
<glyph unicode="&#x2190;" d="M356 581l-144 -158q-21 -24 -32 -34t-31 -23h428v-74h-428q30 -19 63 -57l144 -158l-62 -52l-271 304l271 304z" />
<glyph unicode="&#x2191;" d="M612 388l-50 -56l-162 149q-41 36 -59 70v-551h-82v551q-20 -36 -59 -70l-162 -149l-50 56l312 279z" />
<glyph unicode="&#x2192;" d="M577 329l-271 -304l-62 52l144 158q33 38 63 57h-428v74h428q-20 13 -31 23t-32 34l-144 158l62 52z" />
<glyph unicode="&#x2193;" d="M341 631v-551q18 34 59 70l162 149l50 -56l-312 -279l-312 279l50 56l162 -149q39 -34 59 -70v551h82z" />
<glyph unicode="&#x2194;" d="M430 52l-62 53l116 130q32 37 64 57h-496q28 -18 64 -57l119 -130l-62 -53l-247 277l248 276l62 -52l-120 -130q-23 -26 -33 -35t-30 -22h494q-20 13 -30 22t-33 35l-118 130l62 52l246 -276z" />
<glyph unicode="&#x2195;" d="M612 586l-50 -56l-162 149q-41 36 -59 69v-816q18 33 59 69l162 149l50 -56l-312 -279l-312 279l50 56l162 -148q41 -37 59 -71v818q-18 -34 -59 -71l-162 -148l-50 56l312 279z" />
<glyph unicode="&#x2196;" d="M505 79l-381 385q11 -55 8 -101l-13 -206l-80 5l22 416l408 22l4 -77l-190 -10q-53 -3 -104 7l382 -386z" />
<glyph unicode="&#x2197;" d="M39 134l382 386q-51 -10 -104 -7l-190 10l4 77l408 -22l22 -416l-80 -5l-13 206q-3 46 8 101l-381 -385z" />
<glyph unicode="&#x2198;" d="M95 565l381 -386q-11 56 -8 102l13 205l80 -4l-22 -417l-408 -22l-4 77l190 10q57 3 104 -6l-382 385z" />
<glyph unicode="&#x2199;" d="M561 509l-382 -385q47 9 104 6l190 -10l-4 -77l-408 22l-22 417l80 4l13 -205q3 -46 -8 -102l381 386z" />
<glyph unicode="&#x21e6;" d="M258 437h332q22 0 36 -13.5t14 -36.5v-148q0 -23 -14 -36.5t-36 -13.5h-332v-176l-298 300l298 300v-176zM24 313l189 -191v111h383v160h-383v111z" />
<glyph unicode="&#x21e7;" d="M600 534h-169v-496q0 -22 -13.5 -36t-36.5 -14h-162q-23 0 -36.5 14t-13.5 36v496h-169l300 298zM109 579h107v-547h168v547h107l-191 189z" />
<glyph unicode="&#x21e8;" d="M640 313l-298 -300v176h-332q-22 0 -36 13.5t-14 36.5v148q0 23 14 36.5t36 13.5h332v176zM387 393h-383v-160h383v-111l189 191l-189 191v-111z" />
<glyph unicode="&#x21e9;" d="M219 750h162q23 0 36.5 -14t13.5 -36v-496h169l-300 -298l-300 298h169v496q0 22 13.5 36t36.5 14zM216 706v-547h-107l191 -189l191 189h-107v547h-168z" />
<glyph unicode="&#x21ea;" d="M600 534h-169v-279h-262v279h-169l300 298zM109 579h107v-282h168v282h107l-191 189zM431 155v-117q0 -22 -13.5 -36t-36.5 -14h-162q-23 0 -36.5 14t-13.5 36v117h262zM216 113v-81h168v81h-168z" />
<glyph unicode="&#x2202;" d="M145 633l20 63q186 -51 266 -149t80 -289q0 -119 -57.5 -194t-154.5 -75q-88 0 -148.5 59.5t-60.5 160.5q0 97 54.5 158.5t134.5 61.5q91 0 145 -79q-5 104 -77.5 176t-201.5 107zM289 363q-50 0 -82.5 -39.5t-32.5 -109.5q0 -72 33.5 -115t88.5 -43q63 0 97 49.5 t35 147.5v24q-63 86 -139 86z" />
<glyph unicode="&#x220f;" d="M573 618h-87v-820l-83 -10v830h-205v-820l-82 -10v830h-89v70h546v-70z" />
<glyph unicode="&#x2211;" d="M497 616h-298l198 -240v-61l-198 -243h298v-72h-396v73l226 271l-226 271v73h396v-72z" />
<glyph unicode="&#x2212;" d="M484 275h-368v75h368v-75z" />
<glyph unicode="&#x2215;" horiz-adv-x="0" d="M-282 237l535 256l29 -53l-534 -256z" />
<glyph unicode="&#x2219;" d="M212 342q0 37 25 62t62 25q38 0 63 -25t25 -62q0 -38 -25 -63t-63 -25q-37 0 -62 25t-25 63z" />
<glyph unicode="&#x221a;" d="M694 795h-183l-221 -795h-93l-167 456l72 25l139 -392l212 777h241v-71z" />
<glyph unicode="&#x221e;" d="M453 512q79 0 115.5 -54t36.5 -143t-36.5 -142.5t-112.5 -53.5q-53 0 -90 32t-65 99q-29 -62 -65 -96.5t-90 -34.5q-79 0 -115.5 54t-36.5 143t36.5 142.5t112.5 53.5q52 0 88.5 -32t66.5 -99q30 63 65.5 97t89.5 34zM148 445q-72 0 -72 -129t72 -129q21 0 37.5 10.5 t31.5 34.5t23 41t22 52q-1 3 -7.5 16.5t-9 18.5t-9 17.5t-11 18t-11.5 15t-13.5 14.5t-15 10.5t-18 7.5t-19.5 2zM451 443q-17 0 -32 -8.5t-25.5 -19.5t-22 -32t-18 -36t-16.5 -41q1 -3 7.5 -16.5t9 -18.5t9 -17.5t11 -18t11.5 -15t13.5 -14.5t15 -10.5t18 -7.5t19.5 -2 q71 0 71 129q0 128 -71 128z" />
<glyph unicode="&#x2229;" d="M300 574q94 0 160 -66t66 -160v-305h-72v305q0 63 -45.5 108.5t-108.5 45.5t-108.5 -45.5t-45.5 -108.5v-305h-72v305q0 94 66 160t160 66z" />
<glyph unicode="&#x222b;" d="M400 851q62 0 122 -27l-27 -62q-42 20 -91 20q-40 0 -56 -19t-16 -58v-779q0 -69 -36 -103.5t-103 -34.5q-54 0 -115 26l27 62q42 -19 83 -19q64 0 64 70v778q0 73 39 109.5t109 36.5z" />
<glyph unicode="&#x2248;" d="M226 496q44 0 91 -28.5t63 -28.5q38 0 67 51l58 -30q-45 -87 -131 -87q-44 0 -91 28t-63 28q-38 0 -67 -51l-58 30q46 88 131 88zM226 256q44 0 91 -28.5t63 -28.5q38 0 67 51l58 -30q-46 -87 -131 -87q-44 0 -91 28t-63 28q-38 0 -67 -51l-58 30q45 88 131 88z" />
<glyph unicode="&#x2260;" d="M364 370l-69 -118h199v-72h-242l-89 -151l-47 26l74 125h-84v72h127l70 118h-197v72h240l90 152l46 -25l-75 -127h87v-72h-130z" />
<glyph unicode="&#x2261;" d="M494 466h-388v71h388v-71zM494 276h-388v72h388v-72zM494 86h-388v72h388v-72z" />
<glyph unicode="&#x2264;" d="M492 478l-321 -139l321 -127l-34 -70l-351 154v89l351 161zM474 0h-368v73h368v-73z" />
<glyph unicode="&#x2265;" d="M492 385v-89l-351 -154l-34 67l321 130l-321 137l34 70zM493 0h-368v73h368v-73z" />
<glyph unicode="&#x2302;" d="M560 308v-308h-520v308l259 231zM110 277v-212h380v212l-191 171z" />
<glyph unicode="&#x2310;" d="M484 276h-292v-141h-76v212h368v-71z" />
<glyph unicode="&#x2320;" d="M400 851q62 0 122 -27l-27 -62q-42 20 -91 20q-40 0 -56 -19t-16 -58v-1205h-80v1205q0 73 39 109.5t109 36.5z" />
<glyph unicode="&#x2321;" d="M332 1000v-1074q0 -69 -36 -103.5t-103 -34.5q-54 0 -115 26l27 62q42 -19 83 -19q64 0 64 70v1073h80z" />
<glyph unicode="&#x2326;" d="M740 352l-340 -324h-430q-22 0 -36 14t-14 36v545q0 23 14 36.5t36 13.5h430zM220 422l-134 135l-67 -69l134 -133l-134 -134l67 -67l134 134l134 -134l67 67l-134 134l134 133l-67 69z" />
<glyph unicode="&#x2327;" d="M-30 673h660q22 0 36 -13.5t14 -36.5v-545q0 -22 -14 -36t-36 -14h-660q-22 0 -36 14t-14 36v545q0 23 14 36.5t36 13.5zM300 422l-134 135l-67 -69l134 -133l-134 -134l67 -67l134 134l134 -134l67 67l-134 134l134 133l-67 69z" />
<glyph unicode="&#x2328;" d="M-25 633h680q23 0 36.5 -13.5t13.5 -36.5v-495q0 -22 -13.5 -36t-36.5 -14h-680q-23 0 -36.5 14t-13.5 36v495q0 23 13.5 36.5t36.5 13.5zM79 558h-74q-8 0 -14 -6t-6 -14v-74q0 -8 6 -14t14 -6h74q8 0 14 6t6 14v74q0 8 -6 14t-14 6zM251 558h-74q-8 0 -14 -6t-6 -14 v-74q0 -8 6 -14t14 -6h74q8 0 14 6t6 14v74q0 8 -6 14t-14 6zM423 558h-74q-8 0 -14 -6t-6 -14v-74q0 -8 6 -14t14 -6h74q8 0 14 6t6 14v74q0 8 -6 14t-14 6zM624 558h-94q-8 0 -14 -6t-6 -14v-74q0 -8 6 -14t14 -6t14 -6t6 -14v-130q0 -8 6 -14t14 -6h54q8 0 14 6t6 14v244 q0 8 -6 14t-14 6zM119 388h-74q-8 0 -14 -6t-6 -14v-74q0 -8 6 -14t14 -6h74q8 0 14 6t6 14v74q0 8 -6 14t-14 6zM291 388h-74q-8 0 -14 -6t-6 -14v-74q0 -8 6 -14t14 -6h74q8 0 14 6t6 14v74q0 8 -6 14t-14 6zM463 388h-74q-8 0 -14 -6t-6 -14v-74q0 -8 6 -14t14 -6h74 q8 0 14 6t6 14v74q0 8 -6 14t-14 6zM535 223h-436q-8 0 -14 -6t-6 -14v-74q0 -8 6 -14t14 -6h436q8 0 14 6t6 14v74q0 8 -6 14t-14 6z" />
<glyph unicode="&#x232b;" d="M200 673h430q22 0 36 -13.5t14 -36.5v-545q0 -22 -14 -36t-36 -14h-430l-340 324zM380 422l-134 135l-67 -69l134 -133l-134 -134l67 -67l134 134l134 -134l67 67l-134 134l134 133l-67 69z" />
<glyph unicode="&#x23ce;" d="M421 750h159q22 0 36 -14t14 -36v-461q0 -23 -14 -36.5t-36 -13.5h-312v-174l-298 298l298 299v-174h103v262q0 22 13.5 36t36.5 14zM416 706v-313h-193v111l-189 -191l189 -191v111h361v473h-168z" />
<glyph unicode="&#x2400;" />
<glyph unicode="&#x2500;" d="M605 310h-610v80h610v-80z" />
<glyph unicode="&#x2501;" d="M605 230h-610v240h610v-240z" />
<glyph unicode="&#x2502;" d="M340 -500h-80v1500h80v-1500z" />
<glyph unicode="&#x2503;" d="M420 -500h-240v1500h240v-1500z" />
<glyph unicode="&#x250c;" d="M605 310h-265v-810h-80v890h345v-80z" />
<glyph unicode="&#x250d;" d="M605 230h-265v-730h-80v970h345v-240z" />
<glyph unicode="&#x250e;" d="M605 310h-185v-810h-240v890h425v-80z" />
<glyph unicode="&#x250f;" d="M605 230h-185v-730h-240v970h425v-240z" />
<glyph unicode="&#x2510;" d="M340 -500h-80v810h-265v80h345v-890z" />
<glyph unicode="&#x2511;" d="M340 -500h-80v730h-265v240h345v-970z" />
<glyph unicode="&#x2512;" d="M420 -500h-240v810h-185v80h425v-890z" />
<glyph unicode="&#x2513;" d="M420 -500h-240v730h-185v240h425v-970z" />
<glyph unicode="&#x2514;" d="M340 390h265v-80h-345v690h80v-610z" />
<glyph unicode="&#x2515;" d="M340 470h265v-240h-345v770h80v-530z" />
<glyph unicode="&#x2516;" d="M420 390h185v-80h-425v690h240v-610z" />
<glyph unicode="&#x2517;" d="M420 470h185v-240h-425v770h240v-530z" />
<glyph unicode="&#x2518;" d="M340 310h-345v80h265v610h80v-690z" />
<glyph unicode="&#x2519;" d="M340 230h-345v240h265v530h80v-770z" />
<glyph unicode="&#x251a;" d="M420 310h-425v80h185v610h240v-690z" />
<glyph unicode="&#x251b;" d="M420 230h-425v240h185v530h240v-770z" />
<glyph unicode="&#x251c;" d="M340 390h265v-80h-265v-810h-80v1500h80v-610z" />
<glyph unicode="&#x251d;" d="M340 470h265v-240h-265v-730h-80v1500h80v-530z" />
<glyph unicode="&#x251e;" d="M420 390h185v-80h-265v-810h-80v810h-80v690h240v-610z" />
<glyph unicode="&#x251f;" d="M340 390h265v-80h-185v-810h-240v890h80v610h80v-610z" />
<glyph unicode="&#x2520;" d="M420 390h185v-80h-185v-810h-240v1500h240v-610z" />
<glyph unicode="&#x2521;" d="M420 470h185v-240h-265v-730h-80v730h-80v770h240v-530z" />
<glyph unicode="&#x2522;" d="M340 470h265v-240h-185v-730h-240v970h80v530h80v-530z" />
<glyph unicode="&#x2523;" d="M420 470h185v-240h-185v-730h-240v1500h240v-530z" />
<glyph unicode="&#x2524;" d="M340 -500h-80v810h-265v80h265v610h80v-1500z" />
<glyph unicode="&#x2525;" d="M340 -500h-80v730h-265v240h265v530h80v-1500z" />
<glyph unicode="&#x2526;" d="M420 310h-80v-810h-80v810h-265v80h185v610h240v-690z" />
<glyph unicode="&#x2527;" d="M340 390h80v-890h-240v810h-185v80h265v610h80v-610z" />
<glyph unicode="&#x2528;" d="M420 -500h-240v810h-185v80h185v610h240v-1500z" />
<glyph unicode="&#x2529;" d="M420 230h-80v-730h-80v730h-265v240h185v530h240v-770z" />
<glyph unicode="&#x252a;" d="M340 470h80v-970h-240v730h-185v240h265v530h80v-530z" />
<glyph unicode="&#x252b;" d="M420 -500h-240v730h-185v240h185v530h240v-1500z" />
<glyph unicode="&#x252c;" d="M605 310h-265v-810h-80v810h-265v80h610v-80z" />
<glyph unicode="&#x252d;" d="M340 390h265v-80h-265v-810h-80v730h-265v240h345v-80z" />
<glyph unicode="&#x252e;" d="M605 230h-265v-730h-80v810h-265v80h265v80h345v-240z" />
<glyph unicode="&#x252f;" d="M605 230h-265v-730h-80v730h-265v240h610v-240z" />
<glyph unicode="&#x2530;" d="M605 310h-185v-810h-240v810h-185v80h610v-80z" />
<glyph unicode="&#x2531;" d="M420 390h185v-80h-185v-810h-240v730h-185v240h425v-80z" />
<glyph unicode="&#x2532;" d="M605 230h-185v-730h-240v810h-185v80h185v80h425v-240z" />
<glyph unicode="&#x2533;" d="M605 230h-185v-730h-240v730h-185v240h610v-240z" />
<glyph unicode="&#x2534;" d="M340 390h265v-80h-610v80h265v610h80v-610z" />
<glyph unicode="&#x2535;" d="M340 390h265v-80h-265v-80h-345v240h265v530h80v-610z" />
<glyph unicode="&#x2536;" d="M340 470h265v-240h-345v80h-265v80h265v610h80v-530z" />
<glyph unicode="&#x2537;" d="M340 470h265v-240h-610v240h265v530h80v-530z" />
<glyph unicode="&#x2538;" d="M420 390h185v-80h-610v80h185v610h240v-610z" />
<glyph unicode="&#x2539;" d="M420 390h185v-80h-185v-80h-425v240h185v530h240v-610z" />
<glyph unicode="&#x253a;" d="M420 470h185v-240h-425v80h-185v80h185v610h240v-530z" />
<glyph unicode="&#x253b;" d="M420 470h185v-240h-610v240h185v530h240v-530z" />
<glyph unicode="&#x253c;" d="M340 390h265v-80h-265v-810h-80v810h-265v80h265v610h80v-610z" />
<glyph unicode="&#x253d;" d="M340 390h265v-80h-265v-810h-80v730h-265v240h265v530h80v-610z" />
<glyph unicode="&#x253e;" d="M340 470h265v-240h-265v-730h-80v810h-265v80h265v610h80v-530z" />
<glyph unicode="&#x253f;" d="M340 470h265v-240h-265v-730h-80v730h-265v240h265v530h80v-530z" />
<glyph unicode="&#x2540;" d="M420 390h185v-80h-265v-810h-80v810h-265v80h185v610h240v-610z" />
<glyph unicode="&#x2541;" d="M340 390h265v-80h-185v-810h-240v810h-185v80h265v610h80v-610z" />
<glyph unicode="&#x2542;" d="M420 390h185v-80h-185v-810h-240v810h-185v80h185v610h240v-610z" />
<glyph unicode="&#x2543;" d="M420 390h185v-80h-185v-80h-80v-730h-80v730h-265v240h185v530h240v-610z" />
<glyph unicode="&#x2544;" d="M420 470h185v-240h-265v-730h-80v730h-80v80h-185v80h185v610h240v-530z" />
<glyph unicode="&#x2545;" d="M340 470h80v-80h185v-80h-185v-810h-240v730h-185v240h265v530h80v-530z" />
<glyph unicode="&#x2546;" d="M340 470h265v-240h-185v-730h-240v810h-185v80h185v80h80v530h80v-530z" />
<glyph unicode="&#x2547;" d="M420 470h185v-240h-265v-730h-80v730h-265v240h185v530h240v-530z" />
<glyph unicode="&#x2548;" d="M340 470h265v-240h-185v-730h-240v730h-185v240h265v530h80v-530z" />
<glyph unicode="&#x2549;" d="M420 390h185v-80h-185v-810h-240v730h-185v240h185v530h240v-610z" />
<glyph unicode="&#x254a;" d="M420 470h185v-240h-185v-730h-240v810h-185v80h185v610h240v-530z" />
<glyph unicode="&#x254b;" d="M420 470h185v-240h-185v-730h-240v730h-185v240h185v530h240v-530z" />
<glyph unicode="&#x254c;" d="M260 310h-265v80h265v-80zM605 310h-265v80h265v-80z" />
<glyph unicode="&#x254d;" d="M180 230h-185v240h185v-240zM605 230h-185v240h185v-240z" />
<glyph unicode="&#x254e;" d="M340 390h-80v610h80v-610zM340 -500h-80v810h80v-810z" />
<glyph unicode="&#x254f;" d="M420 470h-240v530h240v-530zM420 -500h-240v730h240v-730z" />
<glyph unicode="&#x2550;" d="M605 390h-610v80h610v-80zM605 230h-610v80h610v-80z" />
<glyph unicode="&#x2551;" d="M260 -500h-80v1500h80v-1500zM420 -500h-80v1500h80v-1500z" />
<glyph unicode="&#x2552;" d="M605 390h-265v-80h265v-80h-265v-730h-80v970h345v-80z" />
<glyph unicode="&#x2553;" d="M605 310h-185v-810h-80v810h-80v-810h-80v890h425v-80z" />
<glyph unicode="&#x2554;" d="M605 390h-345v-890h-80v970h425v-80zM605 230h-185v-730h-80v810h265v-80z" />
<glyph unicode="&#x2555;" d="M340 -500h-80v730h-265v80h265v80h-265v80h345v-970z" />
<glyph unicode="&#x2556;" d="M420 -500h-80v810h-80v-810h-80v810h-185v80h425v-890z" />
<glyph unicode="&#x2557;" d="M420 -500h-80v890h-345v80h425v-970zM260 -500h-80v730h-185v80h265v-810z" />
<glyph unicode="&#x2558;" d="M340 470h265v-80h-265v-80h265v-80h-345v770h80v-530z" />
<glyph unicode="&#x2559;" d="M420 390h185v-80h-425v690h80v-610h80v610h80v-610z" />
<glyph unicode="&#x255a;" d="M260 310h345v-80h-425v770h80v-690zM420 470h185v-80h-265v610h80v-530z" />
<glyph unicode="&#x255b;" d="M340 230h-345v80h265v80h-265v80h265v530h80v-770z" />
<glyph unicode="&#x255c;" d="M420 310h-425v80h185v610h80v-610h80v610h80v-690z" />
<glyph unicode="&#x255d;" d="M420 230h-425v80h345v690h80v-770zM260 390h-265v80h185v530h80v-610z" />
<glyph unicode="&#x255e;" d="M340 470h265v-80h-265v-80h265v-80h-265v-730h-80v1500h80v-530z" />
<glyph unicode="&#x255f;" d="M260 -500h-80v1500h80v-1500zM420 390h185v-80h-185v-810h-80v1500h80v-610z" />
<glyph unicode="&#x2560;" d="M260 -500h-80v1500h80v-1500zM420 470h185v-80h-265v610h80v-530zM605 230h-185v-730h-80v810h265v-80z" />
<glyph unicode="&#x2561;" d="M340 -500h-80v730h-265v80h265v80h-265v80h265v530h80v-1500z" />
<glyph unicode="&#x2562;" d="M260 -500h-80v810h-185v80h185v610h80v-1500zM420 -500h-80v1500h80v-1500z" />
<glyph unicode="&#x2563;" d="M260 390h-265v80h185v530h80v-610zM420 -500h-80v1500h80v-1500zM260 -500h-80v730h-185v80h265v-810z" />
<glyph unicode="&#x2564;" d="M605 390h-610v80h610v-80zM605 230h-265v-730h-80v730h-265v80h610v-80z" />
<glyph unicode="&#x2565;" d="M605 310h-185v-810h-80v810h-80v-810h-80v810h-185v80h610v-80z" />
<glyph unicode="&#x2566;" d="M605 390h-610v80h610v-80zM260 -500h-80v730h-185v80h265v-810zM605 230h-185v-730h-80v810h265v-80z" />
<glyph unicode="&#x2567;" d="M340 470h265v-80h-610v80h265v530h80v-530zM605 230h-610v80h610v-80z" />
<glyph unicode="&#x2568;" d="M420 390h185v-80h-610v80h185v610h80v-610h80v610h80v-610z" />
<glyph unicode="&#x2569;" d="M260 390h-265v80h185v530h80v-610zM420 470h185v-80h-265v610h80v-530zM605 230h-610v80h610v-80z" />
<glyph unicode="&#x256a;" d="M340 470h265v-80h-265v-80h265v-80h-265v-730h-80v730h-265v80h265v80h-265v80h265v530h80v-530z" />
<glyph unicode="&#x256b;" d="M420 390h185v-80h-185v-810h-80v810h-80v-810h-80v810h-185v80h185v610h80v-610h80v610h80v-610z" />
<glyph unicode="&#x256c;" d="M260 390h-265v80h185v530h80v-610zM420 470h185v-80h-265v610h80v-530zM260 -500h-80v730h-185v80h265v-810zM605 230h-185v-730h-80v810h265v-80z" />
<glyph unicode="&#x2571;" d="M544 537l-431 -431l-57 57l431 431z" />
<glyph unicode="&#x2572;" d="M544 163l-57 -57l-431 431l57 57z" />
<glyph unicode="&#x2573;" d="M544 537l-187 -187l187 -187l-57 -57l-187 187l-187 -187l-57 57l187 187l-187 187l57 57l187 -187l187 187z" />
<glyph unicode="&#x2574;" d="M340 310h-345v80h345v-80z" />
<glyph unicode="&#x2575;" d="M340 -500h-80v890h80v-890z" />
<glyph unicode="&#x2576;" d="M605 310h-345v80h345v-80z" />
<glyph unicode="&#x2577;" d="M340 310h-80v690h80v-690z" />
<glyph unicode="&#x2578;" d="M340 230h-345v240h345v-240z" />
<glyph unicode="&#x2579;" d="M420 310h-240v690h240v-690z" />
<glyph unicode="&#x257a;" d="M605 230h-345v240h345v-240z" />
<glyph unicode="&#x257b;" d="M420 -500h-240v890h240v-890z" />
<glyph unicode="&#x257c;" d="M605 230h-345v80h-265v80h265v80h345v-240z" />
<glyph unicode="&#x257d;" d="M340 390h80v-890h-240v890h80v610h80v-610z" />
<glyph unicode="&#x257e;" d="M340 390h265v-80h-265v-80h-345v240h345v-80z" />
<glyph unicode="&#x257f;" d="M420 310h-80v-810h-80v810h-80v690h240v-690z" />
<glyph unicode="&#x2580;" d="M600 250h-600v750h600v-750z" />
<glyph unicode="&#x2581;" d="M600 -500h-600v188h600v-188z" />
<glyph unicode="&#x2582;" d="M600 -500h-600v375h600v-375z" />
<glyph unicode="&#x2583;" d="M600 -500h-600v562h600v-562z" />
<glyph unicode="&#x2584;" d="M600 -500h-600v750h600v-750z" />
<glyph unicode="&#x2585;" d="M600 -500h-600v937h600v-937z" />
<glyph unicode="&#x2586;" d="M600 -500h-600v1125h600v-1125z" />
<glyph unicode="&#x2587;" d="M600 -500h-600v1312h600v-1312z" />
<glyph unicode="&#x2588;" d="M600 -500h-600v1500h600v-1500z" />
<glyph unicode="&#x2589;" d="M525 -500h-525v1500h525v-1500z" />
<glyph unicode="&#x258a;" d="M450 -500h-450v1500h450v-1500z" />
<glyph unicode="&#x258b;" d="M375 -500h-375v1500h375v-1500z" />
<glyph unicode="&#x258c;" d="M300 -500h-300v1500h300v-1500z" />
<glyph unicode="&#x258d;" d="M225 -500h-225v1500h225v-1500z" />
<glyph unicode="&#x258e;" d="M150 -500h-150v1500h150v-1500z" />
<glyph unicode="&#x258f;" d="M75 -500h-75v1500h75v-1500z" />
<glyph unicode="&#x2590;" d="M600 -500h-300v1500h300v-1500z" />
<glyph unicode="&#x2591;" d="M100 850h-50v75h50v-75zM200 850h-50v75h50v-75zM300 850h-50v75h50v-75zM400 850h-50v75h50v-75zM500 850h-50v75h50v-75zM600 850h-50v75h50v-75zM100 700h-50v75h50v-75zM200 700h-50v75h50v-75zM300 700h-50v75h50v-75zM400 700h-50v75h50v-75zM500 700h-50v75h50 v-75zM600 700h-50v75h50v-75zM100 550h-50v75h50v-75zM200 550h-50v75h50v-75zM300 550h-50v75h50v-75zM400 550h-50v75h50v-75zM500 550h-50v75h50v-75zM600 550h-50v75h50v-75zM100 400h-50v75h50v-75zM200 400h-50v75h50v-75zM300 400h-50v75h50v-75zM400 400h-50v75h50 v-75zM500 400h-50v75h50v-75zM600 400h-50v75h50v-75zM100 250h-50v75h50v-75zM200 250h-50v75h50v-75zM300 250h-50v75h50v-75zM400 250h-50v75h50v-75zM500 250h-50v75h50v-75zM600 250h-50v75h50v-75zM100 100h-50v75h50v-75zM200 100h-50v75h50v-75zM300 100h-50v75h50 v-75zM400 100h-50v75h50v-75zM500 100h-50v75h50v-75zM600 100h-50v75h50v-75zM100 -50h-50v75h50v-75zM200 -50h-50v75h50v-75zM300 -50h-50v75h50v-75zM400 -50h-50v75h50v-75zM500 -50h-50v75h50v-75zM600 -50h-50v75h50v-75zM100 -200h-50v75h50v-75zM200 -200h-50v75 h50v-75zM300 -200h-50v75h50v-75zM400 -200h-50v75h50v-75zM500 -200h-50v75h50v-75zM600 -200h-50v75h50v-75zM100 -350h-50v75h50v-75zM200 -350h-50v75h50v-75zM300 -350h-50v75h50v-75zM400 -350h-50v75h50v-75zM500 -350h-50v75h50v-75zM600 -350h-50v75h50v-75z M100 -500h-50v75h50v-75zM200 -500h-50v75h50v-75zM300 -500h-50v75h50v-75zM400 -500h-50v75h50v-75zM500 -500h-50v75h50v-75zM600 -500h-50v75h50v-75z" />
<glyph unicode="&#x2592;" d="M550 926h50v-76h-50v-74h50v-76h-50v-74h50v-76h-50v-74h50v-76h-50v-74h50v-76h-50v-74h50v-76h-50v-74h50v-76h-50v-74h50v-76h-50v-74h50v-76h-50v-74h50v-76h-51v75h-49v-75h-51v75h-49v-75h-51v75h-49v-75h-51v75h-49v-75h-51v75h-49v-75h-51v75h-49v76h49v74h-49 v76h49v74h-49v76h49v74h-49v76h49v74h-49v76h49v74h-49v76h49v74h-49v76h49v74h-49v76h49v74h-49v76h49v74h-49v75h50v-74h49v74h51v-74h49v74h51v-74h49v74h51v-74h49v74h51v-74h49v74h51v-74zM100 925v-74h49v74h-49zM200 925v-74h49v74h-49zM300 925v-74h49v74h-49z M400 925v-74h49v74h-49zM500 925v-74h49v74h-49zM50 850v-74h49v74h-49zM150 850v-74h49v74h-49zM250 850v-74h49v74h-49zM350 850v-74h49v74h-49zM450 850v-74h49v74h-49zM60 815v-74h49v74h-49zM200 775v-74h49v74h-49zM300 775v-74h49v74h-49zM400 775v-74h49v74h-49z M500 775v-74h49v74h-49zM10 740v-74h49v74h-49zM110 740v-74h49v74h-49zM250 700v-74h49v74h-49zM350 700v-74h49v74h-49zM450 700v-74h49v74h-49zM100 625v-74h49v74h-49zM200 625v-74h49v74h-49zM300 625v-74h49v74h-49zM400 625v-74h49v74h-49zM500 625v-74h49v74h-49z M50 550v-74h49v74h-49zM150 550v-74h49v74h-49zM250 550v-74h49v74h-49zM350 550v-74h49v74h-49zM450 550v-74h49v74h-49zM100 475v-74h49v74h-49zM200 475v-74h49v74h-49zM300 475v-74h49v74h-49zM500 475v-74h49v74h-49zM440 435v-74h49v74h-49zM50 400v-74h49v74h-49z M150 400v-74h49v74h-49zM250 400v-74h49v74h-49zM390 360v-74h49v74h-49zM490 360v-74h49v74h-49zM100 325v-74h49v74h-49zM200 325v-74h49v74h-49zM300 325v-74h49v74h-49zM400 325v-74h49v74h-49zM500 325v-74h49v74h-49zM50 250v-74h49v74h-49zM150 250v-74h49v74h-49z M250 250v-74h49v74h-49zM350 250v-74h49v74h-49zM450 250v-74h49v74h-49zM100 175v-74h49v74h-49zM200 175v-74h49v74h-49zM300 175v-74h49v74h-49zM400 175v-74h49v74h-49zM500 175v-74h49v74h-49zM10 140v-74h49v74h-49zM150 100v-74h49v74h-49zM250 100v-74h49v74h-49z M350 100v-74h49v74h-49zM450 100v-74h49v74h-49zM100 25v-74h49v74h-49zM200 25v-74h49v74h-49zM300 25v-74h49v74h-49zM400 25v-74h49v74h-49zM500 25v-74h49v74h-49zM50 -50v-74h49v74h-49zM150 -50v-74h49v74h-49zM250 -50v-74h49v74h-49zM350 -50v-74h49v74h-49z M450 -50v-74h49v74h-49zM100 -125v-74h49v74h-49zM200 -125v-74h49v74h-49zM300 -125v-74h49v74h-49zM400 -125v-74h49v74h-49zM500 -125v-74h49v74h-49zM50 -200v-74h49v74h-49zM150 -200v-74h49v74h-49zM250 -200v-74h49v74h-49zM450 -200v-74h49v74h-49zM390 -240v-74h49 v74h-49zM100 -275v-74h49v74h-49zM200 -275v-74h49v74h-49zM300 -275v-74h49v74h-49zM400 -275v-74h49v74h-49zM500 -275v-74h49v74h-49zM50 -350v-74h49v74h-49zM150 -350v-74h49v74h-49zM250 -350v-74h49v74h-49zM350 -350v-74h49v74h-49zM450 -350v-74h49v74h-49z" />
<glyph unicode="&#x2593;" d="M600 925h-50v-75h50v-75h-50v-75h50v-75h-50v-75h50v-75h-50v-75h50v-75h-50v-75h50v-75h-50v-75h50v-75h-50v-75h50v-75h-50v-75h50v-75h-50v-75h50v-75h-50v-75h-50v75h-50v-75h-50v75h-50v-75h-50v75h-50v-75h-50v75h-50v-75h-50v75h-50v-75h-50v1500h600v-75zM50 925 v-75h50v75h-50zM150 925v-75h50v75h-50zM250 925v-75h50v75h-50zM350 925v-75h50v75h-50zM450 925v-75h50v75h-50zM50 775v-75h50v75h-50zM150 775v-75h50v75h-50zM250 775v-75h50v75h-50zM350 775v-75h50v75h-50zM450 775v-75h50v75h-50zM50 625v-75h50v75h-50zM150 625 v-75h50v75h-50zM250 625v-75h50v75h-50zM350 625v-75h50v75h-50zM450 625v-75h50v75h-50zM50 475v-75h50v75h-50zM150 475v-75h50v75h-50zM250 475v-75h50v75h-50zM350 475v-75h50v75h-50zM450 475v-75h50v75h-50zM50 325v-75h50v75h-50zM150 325v-75h50v75h-50zM250 325 v-75h50v75h-50zM350 325v-75h50v75h-50zM450 325v-75h50v75h-50zM50 175v-75h50v75h-50zM150 175v-75h50v75h-50zM250 175v-75h50v75h-50zM350 175v-75h50v75h-50zM450 175v-75h50v75h-50zM50 25v-75h50v75h-50zM150 25v-75h50v75h-50zM250 25v-75h50v75h-50zM350 25v-75h50 v75h-50zM450 25v-75h50v75h-50zM50 -125v-75h50v75h-50zM150 -125v-75h50v75h-50zM250 -125v-75h50v75h-50zM350 -125v-75h50v75h-50zM450 -125v-75h50v75h-50zM50 -275v-75h50v75h-50zM150 -275v-75h50v75h-50zM250 -275v-75h50v75h-50zM350 -275v-75h50v75h-50zM450 -275 v-75h50v75h-50z" />
<glyph unicode="&#x2594;" d="M600 812h-600v188h600v-188z" />
<glyph unicode="&#x2595;" d="M600 -500h-75v1500h75v-1500z" />
<glyph unicode="&#x2596;" d="M300 -500h-300v750h300v-750z" />
<glyph unicode="&#x2597;" d="M600 -500h-300v750h300v-750z" />
<glyph unicode="&#x2598;" d="M300 250h-300v750h300v-750z" />
<glyph unicode="&#x2599;" d="M300 250h300v-750h-600v1500h300v-750z" />
<glyph unicode="&#x259a;" d="M300 251h300v-751h-300v750h-300v750h300v-749z" />
<glyph unicode="&#x259b;" d="M600 250h-300v-750h-300v1500h600v-750z" />
<glyph unicode="&#x259c;" d="M600 -500h-300v750h-300v750h600v-1500z" />
<glyph unicode="&#x259d;" d="M600 250h-300v750h300v-750z" />
<glyph unicode="&#x259e;" d="M600 251h-300v749h300v-749zM300 -500h-300v750h300v-750z" />
<glyph unicode="&#x259f;" d="M600 -500h-600v750h300v750h300v-1500z" />
<glyph unicode="&#x25a0;" d="M570 0h-540v540h540v-540z" />
<glyph unicode="&#x25a1;" d="M570 0h-540v540h540v-540zM110 460v-380h380v380h-380z" />
<glyph unicode="&#x25a2;" d="M300 540q90 0 139.5 -9t81 -40.5t40.5 -81t9 -139.5q0 -91 -9 -140t-40.5 -80.5t-81 -40.5t-139.5 -9q-61 0 -100.5 3.5t-71.5 15.5t-49.5 29.5t-29.5 49.5t-15.5 71.5t-3.5 100.5q0 90 9 139.5t40.5 81t80.5 40.5t140 9zM300 460q-121 0 -155.5 -34.5t-34.5 -155.5 q0 -122 34 -156t156 -34q121 0 155.5 34.5t34.5 155.5t-34.5 155.5t-155.5 34.5z" />
<glyph unicode="&#x25a3;" d="M570 0h-540v540h540v-540zM110 460v-380h380v380h-380zM410 160h-220v220h220v-220z" />
<glyph unicode="&#x25aa;" d="M427 0h-285v270h285v-270z" />
<glyph unicode="&#x25ab;" d="M427 0h-285v270h285v-270zM222 190v-110h125v110h-125z" />
<glyph unicode="&#x25ac;" d="M570 0h-540v270h540v-270z" />
<glyph unicode="&#x25ad;" d="M570 0h-540v270h540v-270zM110 190v-110h380v110h-380z" />
<glyph unicode="&#x25ae;" d="M427 0h-285v540h285v-540z" />
<glyph unicode="&#x25af;" d="M427 0h-285v540h285v-540zM222 460v-380h125v380h-125z" />
<glyph unicode="&#x25b2;" d="M570 0h-540l270 540z" />
<glyph unicode="&#x25ba;" d="M570 270l-540 -270v540z" />
<glyph unicode="&#x25bc;" d="M300 0l-270 540h540z" />
<glyph unicode="&#x25c4;" d="M570 0l-540 270l540 270v-540z" />
<glyph unicode="&#x25c6;" d="M570 270l-270 -270l-270 270l270 270z" />
<glyph unicode="&#x25c7;" d="M570 270l-270 -270l-270 270l270 270zM143 270l157 -157l156 157l-156 156z" />
<glyph unicode="&#x25c9;" d="M300 540q112 0 191 -79t79 -191t-79 -191t-191 -79t-191 79t-79 191t79 191t191 79zM300 460q-79 0 -134.5 -56t-55.5 -134q0 -79 55.5 -134.5t134.5 -55.5q78 0 134 55.5t56 134.5q0 78 -56 134t-134 56zM300 380q45 0 77.5 -32.5t32.5 -77.5q0 -46 -32.5 -78t-77.5 -32 q-46 0 -78 32t-32 78q0 45 32 77.5t78 32.5z" />
<glyph unicode="&#x25ca;" d="M533 345l-185 -345h-97l-184 344l184 344h97zM298 624l-143 -280l143 -280h4l143 280l-143 280h-4z" />
<glyph unicode="&#x25cb;" d="M300 540q112 0 191 -79t79 -191t-79 -191t-191 -79t-191 79t-79 191t79 191t191 79zM300 460q-79 0 -134.5 -56t-55.5 -134q0 -79 55.5 -134.5t134.5 -55.5q78 0 134 55.5t56 134.5q0 78 -56 134t-134 56z" />
<glyph unicode="&#x25ce;" d="M300 540q112 0 191 -79t79 -191t-79 -191t-191 -79t-191 79t-79 191t79 191t191 79zM300 460q-79 0 -134.5 -56t-55.5 -134q0 -79 55.5 -134.5t134.5 -55.5q78 0 134 55.5t56 134.5q0 78 -56 134t-134 56zM300 380q45 0 77.5 -32.5t32.5 -77.5q0 -46 -32.5 -78t-77.5 -32 q-46 0 -78 32t-32 78q0 45 32 77.5t78 32.5zM300 300q-13 0 -21.5 -9t-8.5 -21q0 -13 8.5 -21.5t21.5 -8.5q12 0 21 8.5t9 21.5q0 12 -9 21t-21 9z" />
<glyph unicode="&#x25cf;" d="M300 540q112 0 191 -79t79 -191t-79 -191t-191 -79t-191 79t-79 191t79 191t191 79z" />
<glyph unicode="&#x25d2;" d="M300 540q112 0 191 -79t79 -191t-79 -191t-191 -79t-191 79t-79 191t79 191t191 79zM300 460q-79 0 -134.5 -56t-55.5 -134h380q0 78 -56 134t-134 56z" />
<glyph unicode="&#x25d3;" d="M300 540q112 0 191 -79t79 -191t-79 -191t-191 -79t-191 79t-79 191t79 191t191 79zM490 270h-380q0 -79 55.5 -134.5t134.5 -55.5q78 0 134 55.5t56 134.5z" />
<glyph unicode="&#x25d6;" d="M300 540v-540q-112 0 -191 79t-79 191t79 191t191 79z" />
<glyph unicode="&#x25d7;" d="M300 0v540q112 0 191 -79t79 -191t-79 -191t-191 -79z" />
<glyph unicode="&#x25d9;" d="M570 0h-540v540h540v-540zM300 500q-95 0 -162.5 -67.5t-67.5 -162.5t67.5 -162.5t162.5 -67.5t162.5 67.5t67.5 162.5q0 94 -68 162t-162 68zM300 420q62 0 106 -44t44 -106t-44 -106t-106 -44t-106 44t-44 106t44 106t106 44z" />
<glyph unicode="&#x25da;" d="M570 270h-40q0 94 -68 162t-162 68q-95 0 -162.5 -67.5t-67.5 -162.5h-40v270h540v-270zM300 420q62 0 106 -44t44 -106h-300q0 62 44 106t106 44z" />
<glyph unicode="&#x25db;" d="M570 0h-540v270h40q0 -95 67.5 -162.5t162.5 -67.5t162.5 67.5t67.5 162.5h40v-270zM150 270h300q0 -62 -44 -106t-106 -44t-106 44t-44 106z" />
<glyph unicode="&#x25dc;" d="M300 540v-80q-79 0 -134.5 -56t-55.5 -134h-80q0 112 79 191t191 79z" />
<glyph unicode="&#x25dd;" d="M300 460v80q112 0 191 -79t79 -191h-80q0 78 -56 134t-134 56z" />
<glyph unicode="&#x25de;" d="M30 270h80q0 -79 55.5 -134.5t134.5 -55.5v-80q-112 0 -191 79t-79 191z" />
<glyph unicode="&#x25df;" d="M490 270h80q0 -112 -79 -191t-191 -79v80q78 0 134 55.5t56 134.5z" />
<glyph unicode="&#x25e0;" d="M300 540q112 0 191 -79t79 -191h-80q0 78 -56 134t-134 56q-79 0 -134.5 -56t-55.5 -134h-80q0 112 79 191t191 79z" />
<glyph unicode="&#x25e1;" d="M490 270h80q0 -112 -79 -191t-191 -79t-191 79t-79 191h80q0 -79 55.5 -134.5t134.5 -55.5q78 0 134 55.5t56 134.5z" />
<glyph unicode="&#x25e2;" d="M570 0h-540l540 540v-540z" />
<glyph unicode="&#x25e3;" d="M570 0h-540v540z" />
<glyph unicode="&#x25e4;" d="M30 0v540h540z" />
<glyph unicode="&#x25e5;" d="M570 0l-540 540h540v-540z" />
<glyph unicode="&#x25e7;" d="M570 0h-540v540h540v-540zM300 460v-380h190v380h-190z" />
<glyph unicode="&#x25e8;" d="M570 0h-540v540h540v-540zM110 460v-380h190v380h-190z" />
<glyph unicode="&#x25e9;" d="M570 0h-540v540h540v-540zM110 80h380v380z" />
<glyph unicode="&#x25ea;" d="M570 0h-540v540h540v-540zM110 460v-380l380 380h-380z" />
<glyph unicode="&#x25eb;" d="M570 0h-540v540h540v-540zM110 460v-380h150v380h-150zM340 460v-380h150v380h-150z" />
<glyph unicode="&#x25ef;" d="M300 540q112 0 191 -79t79 -191t-79 -191t-191 -79t-191 79t-79 191t79 191t191 79zM300 460q-79 0 -134.5 -56t-55.5 -134q0 -79 55.5 -134.5t134.5 -55.5q78 0 134 55.5t56 134.5q0 78 -56 134t-134 56z" />
<glyph unicode="&#x25f0;" d="M570 0h-540v540h540v-540zM340 460v-230h-230v-150h380v380h-150zM110 460v-150h150v150h-150z" />
<glyph unicode="&#x25f1;" d="M570 0h-540v540h540v-540zM110 460v-150h230v-230h150v380h-380zM110 230v-150h150v150h-150z" />
<glyph unicode="&#x25f2;" d="M570 0h-540v540h540v-540zM110 460v-380h150v230h230v150h-380zM340 230v-150h150v150h-150z" />
<glyph unicode="&#x25f3;" d="M570 0h-540v540h540v-540zM110 460v-380h380v150h-230v230h-150zM340 460v-150h150v150h-150z" />
<glyph unicode="&#x25f4;" d="M300 540q112 0 191 -79t79 -191t-79 -191t-191 -79t-191 79t-79 191t79 191t191 79zM300 270v190q-79 0 -134.5 -56t-55.5 -134h190z" />
<glyph unicode="&#x25f5;" d="M300 540q112 0 191 -79t79 -191t-79 -191t-191 -79t-191 79t-79 191t79 191t191 79zM300 460q-67 0 -119.5 -42.5t-66.5 -107.5h226v-226q65 14 107.5 66.5t42.5 119.5q0 78 -56 134t-134 56zM260 230h-146q12 -55 51.5 -95t94.5 -51v146z" />
<glyph unicode="&#x25f6;" d="M300 540q112 0 191 -79t79 -191t-79 -191t-191 -79t-191 79t-79 191t79 191t191 79zM300 460q-79 0 -134.5 -56t-55.5 -134q0 -68 42.5 -120t107.5 -66v226h225q-14 64 -66 107t-119 43zM340 230v-146q54 11 93.5 51t51.5 95h-145z" />
<glyph unicode="&#x25f7;" d="M300 540q112 0 191 -79t79 -191t-79 -191t-191 -79t-191 79t-79 191t79 191t191 79zM260 230v225q-65 -14 -107.5 -66t-42.5 -119q0 -79 55.5 -134.5t134.5 -55.5q67 0 119 42.5t66 107.5h-225zM340 310h146q-12 54 -52 93.5t-94 51.5v-145z" />
<glyph unicode="&#x25fc;" horiz-adv-x="525" d="M0 525h525v-525h-525v525z" />
<glyph unicode="&#x2609;" d="M324 527v-107q36 -4 68 -27l81 82l36 -36l-81 -80q25 -31 31 -72h111v-47h-111q-6 -40 -29 -69l79 -78l-36 -36l-79 80q-32 -21 -70 -27v-110h-48v110q-40 6 -70 27l-79 -80l-36 36l79 78q-24 34 -29 69h-111v47h111q6 40 30 72l-80 80l36 36l80 -82q33 23 69 27v107h48z M300 376q-48 0 -78.5 -32t-30.5 -80t30.5 -79.5t78.5 -31.5t79 31.5t31 79.5t-31 80t-79 32z" />
<glyph unicode="&#x2620;" d="M301 539q69 0 115 -43.5t46 -109.5q0 -57 -28 -102v-52l-26 -18l-43 -75h-129l-43 75l-25 18v52q-29 44 -29 102q0 66 46 109.5t116 43.5zM60 367q28 0 39 -58l28 -16v-55l-51 21q-30 -19 -49 -19q-27 0 -27 22q0 26 33 31l13 27q-8 9 -8 23q0 9 6 16.5t16 7.5zM541 367 q10 0 16 -7.5t6 -16.5q0 -14 -8 -23l13 -27q32 -5 32 -31q0 -10 -8 -16t-18 -6q-19 0 -50 19l-51 -17v51l28 16q11 58 40 58zM227 362q-16 0 -27.5 -11.5t-11.5 -28.5t11.5 -29t27.5 -12q17 0 28.5 12t11.5 29t-11.5 28.5t-28.5 11.5zM374 362q-17 0 -28.5 -11.5 t-11.5 -28.5t11.5 -29t28.5 -12q16 0 28 12.5t12 28.5q0 17 -12 28.5t-28 11.5zM301 280q-8 0 -18.5 -14.5t-16.5 -30.5v-29l35 7l34 -7v29q-6 16 -16 30.5t-18 14.5zM192 130l-70 -43q-8 -64 -34 -64q-12 0 -19 8t-7 20q0 7 5 20l-13 24q-14 0 -24.5 8.5t-10.5 20.5 q0 11 7.5 18t20.5 7q14 0 47 -16l72 39zM436 172l71 -39q33 16 48 16q12 0 19.5 -7t7.5 -18q0 -12 -10 -20.5t-24 -8.5l-14 -24q6 -12 6 -20q0 -12 -7.5 -20t-19.5 -8q-26 0 -34 64l-69 43z" />
<glyph unicode="&#x263a;" d="M300 539q112 0 191 -78.5t79 -190.5t-79 -191t-191 -79t-191 79t-79 191t79 190.5t191 78.5zM300 487q-89 0 -150 -64t-61 -153q0 -91 61 -154.5t150 -63.5q88 0 149.5 64t61.5 154q0 89 -61.5 153t-149.5 64zM218 391q21 0 34.5 -13t13.5 -32q0 -20 -13.5 -33.5 t-34.5 -13.5t-34.5 13.5t-13.5 33.5q0 19 13.5 32t34.5 13zM378 391q21 0 34.5 -13t13.5 -32q0 -20 -13.5 -33.5t-34.5 -13.5t-34.5 13.5t-13.5 33.5q0 19 13.5 32t34.5 13zM399 240h44q-7 -57 -46 -95.5t-97 -38.5t-97 38.5t-46 95.5h44q22 -89 99 -89t99 89z" />
<glyph unicode="&#x263b;" d="M300 539q112 0 191 -78.5t79 -190.5t-79 -191t-191 -79t-191 79t-79 191t79 190.5t191 78.5zM213 396q-21 0 -34.5 -13t-13.5 -32q0 -20 13.5 -33.5t34.5 -13.5t34.5 13.5t13.5 33.5q0 19 -13.5 32t-34.5 13zM383 396q-21 0 -34.5 -13t-13.5 -32q0 -20 13.5 -33.5 t34.5 -13.5t34.5 13.5t13.5 33.5q0 19 -13.5 32t-34.5 13zM447 235h-43q-10 -41 -36.5 -65t-67.5 -24t-67.5 24t-36.5 65h-43q7 -56 48 -94.5t99 -38.5t99 38.5t48 94.5z" />
<glyph unicode="&#x2640;" d="M299 539q67 0 114 -46t47 -112q0 -60 -38.5 -102.5t-97.5 -50.5v-83h96v-40h-96v-105h-48v105h-96v40h96v82q-59 8 -98 51t-39 103q0 67 46.5 112.5t113.5 45.5zM299 493q-48 0 -78.5 -32t-30.5 -80t30.5 -79.5t78.5 -31.5t79 31.5t31 79.5t-31 80t-79 32z" />
<glyph unicode="&#x2642;" d="M529 476l11 -214l-44 -2l-5 99q-1 24 3 48l-2 1l-148 -151q37 -45 37 -102q0 -66 -47 -110.5t-114 -44.5t-113.5 44.5t-46.5 110.5q0 67 46.5 112.5t113.5 45.5q45 0 87 -25l152 151l-1 2q-22 -1 -47 0l-100 4l4 42zM220 267q-48 0 -78.5 -32t-30.5 -80t30.5 -79.5 t78.5 -31.5t79 31.5t31 79.5t-31 80t-79 32z" />
<glyph unicode="&#x2660;" d="M300 539q58 -54 80.5 -75t60 -59.5t51.5 -60.5t26 -50.5t12 -54.5q0 -48 -26.5 -76.5t-71.5 -28.5q-74 0 -114 66l16 -135h156l40 -65h-460l40 65h156l16 135q-40 -66 -114 -66q-45 0 -71.5 28.5t-26.5 76.5q0 26 12 54.5t26 50.5t51.5 60.5t60 59.5t80.5 75z" />
<glyph unicode="&#x2663;" d="M300 539q56 0 88 -24t32 -71q0 -25 -8.5 -45.5t-18.5 -31.5t-27 -25q33 14 67 14q47 0 72 -30.5t25 -86.5q0 -46 -29.5 -75.5t-74.5 -29.5q-69 0 -108 66l16 -135h156l40 -65h-460l40 65h156l16 135q-40 -66 -108 -66q-45 0 -74.5 29.5t-29.5 75.5q0 56 25 86.5t72 30.5 q34 0 67 -14q-17 14 -27 25t-18.5 31.5t-8.5 45.5q0 47 32 71t88 24z" />
<glyph unicode="&#x2665;" d="M434 539q53 0 84.5 -36t31.5 -88q0 -42 -17 -87.5t-58 -104.5t-74.5 -101.5t-100.5 -121.5q-68 80 -101 121.5t-74 100.5t-58 104.5t-17 88.5q0 52 31.5 88t84.5 36q49 0 79.5 -25t54.5 -77q24 52 54.5 77t79.5 25z" />
<glyph unicode="&#x2666;" d="M496 266l-196 -278l-196 278l196 273z" />
<glyph unicode="&#x266a;" d="M338 527l47 -31q45 -30 63 -57t18 -66q0 -40 -18 -78l-29 12q0 59 -12 87.5t-46 50.5l-23 15v-382q0 -32 -36 -61t-88 -29q-49 0 -77 18t-28 52q0 38 36.5 64t88.5 26q32 0 56 -13v392h48z" />
<glyph unicode="&#x266b;" d="M536 577v-449q0 -32 -36 -61t-88 -29q-49 0 -77 18t-28 52q0 38 36.5 64t88.5 26q32 0 56 -13v311l-235 -59v-359q0 -32 -36 -61t-88 -29q-49 0 -77 18t-28 52q0 38 36.5 64t88.5 26q32 0 56 -13v356z" />
<glyph unicode="&#x27a1;" d="M640 313l-298 -300v176h-332q-22 0 -36 13.5t-14 36.5v148q0 23 14 36.5t36 13.5h332v176z" />
<glyph unicode="&#x2b05;" d="M258 437h332q22 0 36 -13.5t14 -36.5v-148q0 -23 -14 -36.5t-36 -13.5h-332v-176l-298 300l298 300v-176z" />
<glyph unicode="&#x2b06;" d="M600 534h-169v-496q0 -22 -13.5 -36t-36.5 -14h-162q-23 0 -36.5 14t-13.5 36v496h-169l300 298z" />
<glyph unicode="&#x2b07;" d="M219 750h162q23 0 36.5 -14t13.5 -36v-496h169l-300 -298l-300 298h169v496q0 22 13.5 36t36.5 14z" />
</font>
</defs>
</svg>
