<?xml version="1.0" standalone="no"?>
<!DOCTYPE svg PUBLIC "-//W3C//DTD SVG 1.1//EN" "http://www.w3.org/Graphics/SVG/1.1/DTD/svg11.dtd" >
<svg xmlns="http://www.w3.org/2000/svg">
<metadata></metadata>
<defs>
<font id="hermitlight" horiz-adv-x="617" >
<font-face units-per-em="1000" ascent="750" descent="-250" />
<missing-glyph horiz-adv-x="500" />
<glyph unicode=" " />
<glyph unicode="!" d="M308 75q27 0 51 -24t24 -51t-24 -51t-51 -24t-50.5 24t-23.5 51t23.5 51t50.5 24zM279 735h60v-470h-60v470z" />
<glyph unicode="&#x22;" d="M451 672q0 -89 -8.5 -168t-22.5 -79q-13 0 -21 74t-8 161v12q0 18 7 40.5t22 22.5q16 0 23.5 -24t7.5 -39zM227 672q0 -89 -8.5 -168t-22.5 -79q-13 0 -21 74t-8 161v12q0 18 7 40.5t22 22.5q16 0 23.5 -24t7.5 -39z" />
<glyph unicode="#" d="M183 735h60v-160h132v160h59v-160h90v-60h-90v-280h90v-60h-90v-160h-59v160h-132v-160h-60v160h-90v60h90v280h-90v60h90v160zM375 515h-132v-280h132v280z" />
<glyph unicode="$" horiz-adv-x="557" d="M254 645v90h50v-90h13h12q79 -2 104 -16q43 -24 46 -121h-61q-5 36 -32.5 55.5t-68.5 21.5h-13v-180h12q77 -3 101 -12q62 -25 62 -136q0 -44 -6.5 -73t-17 -44.5t-31 -23t-40 -9t-52.5 -2.5h-15h-13v-90h-50v90h-13q-83 2 -106 11q-47 18 -55 96q-2 14 -2 30h60 q2 -27 10.5 -43t26.5 -23t29 -8.5t37 -2.5h13v180h-13q-77 3 -101 12q-62 25 -62 136q0 44 6.5 73t17 44.5t31.5 23t40.5 9t52.5 2.5h15h13zM254 585h-13q-26 -1 -39.5 -3t-31 -10.5t-25 -28t-7.5 -50.5q0 -30 7.5 -48.5t25.5 -26.5t31 -10t39 -3h13v180zM304 165h13 q26 1 39.5 3t30.5 10.5t24.5 27.5t7.5 51q0 30 -7.5 48.5t-24.5 26.5t-30.5 10t-39.5 3h-13v-180z" />
<glyph unicode="%" horiz-adv-x="557" d="M257 595q0 -8 -0.5 -17.5t-7.5 -33.5t-18.5 -42t-37 -32.5t-59.5 -14.5q-37 0 -64.5 14.5t-40 33t-20 42t-8.5 33.5t-1 17t1 17.5t8.5 34t20.5 41.5t40 32.5t64 14.5q34 0 59.5 -14.5t37 -33t18 -42t7.5 -33.5t1 -17zM134 686q-27 0 -46 -11.5t-26 -29t-9.5 -28.5 t-2.5 -20v-5q0 -9 2.5 -20t10 -28t26 -28.5t45.5 -11.5q33 0 52 21t22 37t3 30v5q0 9 -2 20t-8.5 28.5t-24 29t-42.5 11.5zM557 155q0 -7 -1 -18t-8.5 -34.5t-20.5 -41t-41 -32t-65 -14.5q-34 0 -59.5 14.5t-37 32.5t-18.5 42t-7.5 34t-0.5 17q0 4 0.5 9.5t3 20.5t6.5 28 t13.5 29t22 27.5t32.5 19t45 7.5q37 0 64.5 -14.5t40.5 -33t21 -42t9 -34.5t1 -17zM421 246q-33 0 -52 -21t-22 -37t-3 -30v-5q0 -9 2 -20t8.5 -28.5t24 -28.5t42.5 -11q27 0 45.5 11.5t26 28.5t10 28t2.5 20v5q0 9 -2.5 20t-10 28t-26 28.5t-45.5 11.5zM543 735l-470 -720 h-59l470 720h59z" />
<glyph unicode="&#x26;" d="M428 515h-60q-4 28 -18 47t-33 26t-30 9t-21 2h-2q-7 0 -15 -0.5t-27 -6t-32.5 -15t-25 -29.5t-11.5 -48q0 -32 45 -79.5t121 -114.5t116 -115l21 -25l5 33q3 22 3 63v35h60q-3 -102 -35 -171l-3 -7l4 -6q29 -53 33 -98h-60q-2 16 -4 27l-6 23l-19 -16q-40 -34 -80 -34 q-87 0 -135.5 9t-78 37t-38.5 70.5t-9 118.5q0 79 50 125l11 10l-10 11q-51 57 -51 104q0 7 1 18.5t10.5 38.5t25.5 47.5t51 37.5t83 17q47 0 81 -16t50.5 -41.5t23 -45.5t9.5 -41zM183 340q-30 -23 -30 -90q0 -77 15 -112t56 -49t130 -14q39 0 67 28l8 9l-7 10 q-24 36 -57.5 70t-92.5 85.5t-70 61.5l-9 9z" />
<glyph unicode="'" d="M339 672q0 -89 -8.5 -168t-22.5 -79q-13 0 -21 74t-8 161v12q0 18 7 40.5t22 22.5q16 0 23.5 -24t7.5 -39z" />
<glyph unicode="(" d="M485 -15v-60q-72 2 -130 26t-93.5 57.5t-62.5 79.5t-39 83.5t-19 78t-8 56t-1 24.5t1 24.5t8 56.5t19.5 78.5t39 83t62 79t94 57.5t129.5 26v-60q-59 -2 -107 -22.5t-78 -48.5t-51.5 -66.5t-32 -70.5t-16.5 -66.5t-6.5 -48t-0.5 -22.5q0 -8 0.5 -20t6.5 -47t16 -67 t32 -71t51.5 -67.5t77.5 -49.5t108 -23z" />
<glyph unicode=")" d="M132 -15q59 2 107 22.5t78 48.5t51.5 66.5t32 70.5t16.5 66.5t6.5 48t0.5 22.5q0 8 -0.5 20t-6.5 47t-16 67t-32 71t-51.5 67.5t-77.5 49.5t-108 23v60q72 -2 130 -26t93.5 -57.5t62.5 -79.5t39 -83.5t19 -78t8 -56t1 -24.5t-1 -24.5t-8 -56.5t-19.5 -78.5t-39 -83 t-62 -79t-94 -57.5t-129.5 -26v60z" />
<glyph unicode="*" d="M99 441l35 48l145 -101v177h60v-177l145 101l34 -47l-158 -112l158 -112l-34 -47l-145 101v-177h-60v177l-145 -101l-35 48l157 111z" />
<glyph unicode="+" d="M524 360v-60h-185v-205h-60v205h-186v60h186v205h60v-205h185z" />
<glyph unicode="," d="M302 16q-26 4 -47 26.5t-21 47.5q0 27 23.5 51t50.5 24t51 -24t24 -51q0 -83 -35.5 -152.5t-105.5 -80.5q56 60 73 141l3 16z" />
<glyph unicode="-" d="M93 360h431v-60h-431v60z" />
<glyph unicode="." d="M308 165q27 0 51 -24t24 -51t-24 -51t-51 -24t-50.5 24t-23.5 51t23.5 51t50.5 24z" />
<glyph unicode="/" d="M202 -75h-64l277 810h64z" />
<glyph unicode="0" horiz-adv-x="557" d="M278 735h20q40 0 61.5 -3.5t48 -22.5t39.5 -56t22.5 -106.5t9.5 -171.5t-9.5 -171.5t-22.5 -106.5t-39.5 -56t-48 -22.5t-61.5 -3.5h-20h-20q-28 0 -44.5 1.5t-38 8.5t-34 21t-26.5 40t-21 64.5t-11.5 94.5t-4.5 130t4.5 130t11.5 94.5t21 64.5t26.5 40t34 21t38 8.5 t44.5 1.5h20zM414 516l-4 43l-241 -414l5 -8q18 -30 41 -38.5t63 -8.5q30 0 47 3.5t37.5 19.5t31 47t18 88.5t7.5 141.5q0 69 -5 126zM388 605l-5 8q-18 29 -41 38t-64 9q-30 0 -47 -3.5t-37.5 -19.5t-31 -47t-17.5 -88.5t-7 -141.5q0 -70 5 -127l4 -44z" />
<glyph unicode="1" horiz-adv-x="557" d="M310 671l-159 -260h-73l202 324h90v-720h-60v656z" />
<glyph unicode="2" horiz-adv-x="557" d="M196 115l-34 -25h317v-60h-401v67q19 14 53.5 42.5t86 76.5t95 94.5t75 97.5t31.5 86q0 27 -1.5 44.5t-9 43t-21.5 40.5t-42 26.5t-67 11.5q-45 0 -74.5 -13.5t-42.5 -39t-18 -47.5t-5 -52h-60q0 29 1 46.5t5 43t11.5 40.5t22 32.5t35.5 27t52.5 16t72.5 6.5t73.5 -7.5 t53.5 -17.5t35.5 -29.5t22 -35t11.5 -42t4.5 -43t0.5 -45.5v-6q0 -37 -29 -89t-64 -95t-84.5 -93.5t-68 -67.5t-36.5 -33z" />
<glyph unicode="3" horiz-adv-x="557" d="M392 388q6 -6 25.5 -23t30 -29t20.5 -40.5t10 -65.5q0 -83 -57 -141.5t-143 -58.5q-82 0 -138.5 54t-61.5 131h60q4 -62 42 -93.5t98 -31.5q63 0 101.5 36t38.5 104q0 64 -35 99.5t-93 39.5v58q46 4 76 34.5t30 81.5q0 54 -34 85.5t-84 31.5q-47 0 -80 -27t-38 -76h-60 q5 77 50 120t128 43q87 0 132 -47t45 -130q0 -35 -12.5 -64.5t-20.5 -39t-30 -33.5l-8 -9z" />
<glyph unicode="4" horiz-adv-x="557" d="M390 735h89v-720h-60v285h-341v69zM150 360h269v318z" />
<glyph unicode="5" horiz-adv-x="557" d="M278 390h-200v330h336v-60h-276v-210h140q90 0 145.5 -55.5t55.5 -153.5q0 -84 -58 -147.5t-143 -63.5h-200v60h200q62 0 101.5 42t39.5 108q0 67 -36.5 108.5t-104.5 41.5z" />
<glyph unicode="6" horiz-adv-x="557" d="M138 240q0 -68 38.5 -109t101.5 -41q62 0 101.5 40.5t39.5 109.5t-39 109.5t-102 40.5t-101.5 -41t-38.5 -109zM78 232v143q0 79 10 139.5t27.5 99t43 63t54.5 34t65 9.5q75 0 118 -34.5t50 -79.5h-62q-22 54 -106 54q-131 0 -139 -245l-1 -37l27 26q17 17 50.5 31.5 t62.5 14.5q89 0 145 -59.5t56 -158.5t-56 -158t-145 -59t-144.5 59t-55.5 158z" />
<glyph unicode="7" horiz-adv-x="557" d="M78 660v60h392q-40 -84 -85 -184t-76 -172.5t-80 -188t-75 -175.5h-67l288 660h-297z" />
<glyph unicode="8" horiz-adv-x="557" d="M397 544q0 54 -34.5 85t-84.5 31t-84 -31t-34 -85t34 -84.5t84 -30.5t84.5 31t34.5 84zM393 388q6 -7 25 -24.5t30 -30.5t21 -42.5t10 -68.5q0 -85 -57.5 -146t-143.5 -61t-143 60.5t-57 146.5q0 39 10 69t21 43t30 30t25 24l9 10l-9 10q-1 1 -9 10t-10 12t-9.5 11.5 t-9.5 13.5t-7.5 14.5t-8 17.5t-5.5 18.5t-4 22t-1 24.5q0 86 45.5 134.5t132.5 48.5t132.5 -48.5t45.5 -134.5q0 -13 -1 -24.5t-4 -22t-5 -18.5t-7.5 -17.5t-8 -14.5t-9.5 -14t-9 -11t-10 -11.5t-9 -10.5l-9 -10zM419 230q0 67 -39 103t-102 36t-101.5 -35.5t-38.5 -103.5 t38.5 -104t101.5 -36t102 36t39 104z" />
<glyph unicode="9" horiz-adv-x="557" d="M419 510q0 69 -39.5 109.5t-101.5 40.5q-63 0 -101.5 -41t-38.5 -109t38.5 -109t101.5 -41t102 40.5t39 109.5zM419 372l-26 -25q-17 -17 -50.5 -32t-64.5 -15q-89 0 -144.5 59.5t-55.5 158.5t55.5 158t144.5 59t145 -59t56 -158v-503h-60v357z" />
<glyph unicode=":" d="M308 503q27 0 51 -24t24 -51t-24 -51t-51 -24t-50.5 24t-23.5 51t23.5 51t50.5 24zM308 165q27 0 51 -24t24 -51t-24 -51t-51 -24t-50.5 24t-23.5 51t23.5 51t50.5 24z" />
<glyph unicode=";" d="M308 503q27 0 51 -24t24 -51t-24 -51t-51 -24t-50.5 24t-23.5 51t23.5 51t50.5 24zM302 16q-26 4 -47 26.5t-21 47.5q0 27 23.5 51t50.5 24t51 -24t24 -51q0 -83 -35.5 -152.5t-105.5 -80.5q56 60 73 141l3 16z" />
<glyph unicode="&#x3c;" d="M132 294v72l353 189v-68l-293 -157l293 -157v-68z" />
<glyph unicode="=" d="M93 235h431v-60h-431v60zM93 485h431v-60h-431v60z" />
<glyph unicode="&#x3e;" d="M485 294l-353 -189v68l292 157l-292 157v68l353 -189v-72z" />
<glyph unicode="?" d="M308 75q27 0 51 -24t24 -51t-24 -51t-51 -24t-50.5 24t-23.5 51t23.5 51t50.5 24zM339 390v-125h-60v185h34q39 0 61 2.5t45.5 12.5t34 34t10.5 63q0 32 -8.5 54t-20.5 33.5t-35 17.5t-41 7t-51 1q-32 0 -49 -1t-39.5 -6t-34.5 -15t-21 -29t-11 -47h-60q1 38 7 65 t19 44.5t26 27.5t39 14.5t46.5 5.5t58.5 1h19h18q34 0 52.5 -0.5t43 -4t37 -10.5t27.5 -19t22 -30.5t11.5 -45.5t4.5 -63q0 -58 -10 -93t-34.5 -51.5t-51 -21.5t-74.5 -6h-15z" />
<glyph unicode="@" d="M293 375q0 -21 8 -35t18 -21.5t31 -11t34.5 -4t40.5 -0.5h39v144h-42h-4q-21 0 -33.5 -0.5t-32 -4.5t-31 -11t-20 -21.5t-8.5 -34.5zM524 145q-2 -27 -10.5 -48t-20 -34.5t-31 -23t-34 -14t-40 -7t-40 -3t-40.5 -0.5q-51 0 -88.5 17t-67 57t-44.5 111.5t-15 174.5 t15 174.5t44.5 111.5t67 57t88.5 17q27 0 41.5 -0.5t41 -3t42 -8t35 -16t30.5 -25.5t18.5 -38.5t7.5 -53.5v-347h-96q-106 0 -150 29t-44 103q0 82 41.5 107t152.5 25h36v83q0 85 -145 85h-9h-2q-79 0 -117 -71t-38 -229t38 -229t117 -71h2h10q129 0 143 70h61z" />
<glyph unicode="A" horiz-adv-x="557" d="M244 735h60l167 -720h-62l-50 205h-170l-49 -205h-62zM204 280h141l-71 347z" />
<glyph unicode="B" horiz-adv-x="557" d="M138 401v-311h140q39 0 68 16t42.5 39t21 46t8.5 39l1 16q0 6 -1 16.5t-8.5 37.5t-21 47t-42.5 37t-68 17h-140zM278 15h-200v720h200q43 0 75 -19t47 -42t23.5 -53.5t9.5 -43.5t1 -21q0 -10 -2 -27t-15.5 -48t-36.5 -43l-24 -13l24 -13q27 -15 47 -38t29.5 -44t15 -44 t6.5 -33t1 -15q0 -6 -0.5 -15.5t-5 -32t-12 -44t-22.5 -46.5t-35.5 -43t-53 -30t-72.5 -12zM138 438h140q27 0 46.5 11.5t28.5 28t14.5 32.5t6.5 28v11q0 5 -0.5 12t-6 26.5t-14.5 34t-28.5 26.5t-46.5 12h-140v-222z" />
<glyph unicode="C" horiz-adv-x="557" d="M418 156h61q-2 -30 -12 -53t-28 -36t-34.5 -21t-43.5 -11.5t-42 -4t-41 -0.5q-36 0 -65 9.5t-54.5 34t-43 63t-27.5 99t-10 139.5t10 139.5t27.5 99t43 63t54.5 34t65 9.5q26 0 41.5 -1t42 -4t43 -11t34.5 -21.5t28 -36t12 -52.5h-61q-14 66 -126 66h-12h-2 q-140 0 -140 -285t140 -285h2h9q115 0 129 66z" />
<glyph unicode="D" horiz-adv-x="557" d="M78 15v720h200q46 0 82 -25t56.5 -66.5t34.5 -83.5t19.5 -87.5t7 -66.5t1.5 -31q0 -11 -1.5 -32t-7 -66t-19.5 -87t-34.5 -83.5t-56.5 -66.5t-82 -25h-200zM138 660v-570h140q39 0 67 27t42 62t21.5 81t9 69.5t1.5 42.5v3v2q0 18 -1.5 41t-9 69.5t-21 81.5t-42 63 t-67.5 28h-140z" />
<glyph unicode="E" horiz-adv-x="557" d="M78 30v690h401v-60h-341v-255h166v-60h-166v-255h341v-60h-401z" />
<glyph unicode="F" horiz-adv-x="557" d="M78 15v705h401v-60h-341v-255h166v-60h-166v-330h-60z" />
<glyph unicode="G" horiz-adv-x="557" d="M291 360h113q4 0 10 -0.5t18.5 -5t22 -11.5t17 -22.5t7.5 -35.5v-125q0 -30 -7.5 -53.5t-18 -38.5t-29.5 -26t-33.5 -16t-39 -7.5t-37.5 -3t-36 -0.5q-45 0 -79.5 17t-62.5 56.5t-43 111t-15 174.5q0 99 15 168t43 107t62.5 54.5t79.5 16.5q26 0 41.5 -1t42 -4t43 -11.5 t34.5 -21.5t28 -36t12 -53h-61q-14 67 -127 67h-11h-2q-140 0 -140 -285t140 -285h2h8q131 0 131 79v131h-128v60z" />
<glyph unicode="H" horiz-adv-x="557" d="M78 15v720h60v-330h281v330h60v-720h-60v330h-281v-330h-60z" />
<glyph unicode="I" horiz-adv-x="557" d="M98 720h362v-60h-157v-570h157v-60h-362v60h157v570h-157v60z" />
<glyph unicode="J" horiz-adv-x="557" d="M419 256v404h-128v60h188v-464q0 -65 -9 -108t-22 -66.5t-39.5 -35t-48 -14t-62.5 -2.5h-20h-16q-34 0 -53 1.5t-43 7.5t-37 19.5t-26 36.5t-18.5 59.5t-6.5 87.5h60q1 -43 9.5 -72.5t19.5 -45t31 -23.5t36 -9.5t44 -1.5q36 0 56 4t42.5 19t32.5 50.5t10 92.5z" />
<glyph unicode="K" horiz-adv-x="557" d="M78 15v720h60v-614l29 58q27 62 108.5 256.5t128.5 299.5h66l-165 -360l165 -360h-66l-127 292l-123 -292h-76z" />
<glyph unicode="L" horiz-adv-x="557" d="M78 30v720h60v-660l341 -3v-57h-401z" />
<glyph unicode="M" horiz-adv-x="557" d="M419 15v621l-105 -246h-69l-107 245v-620h-60v720h76l124 -294l126 294h75v-720h-60z" />
<glyph unicode="N" horiz-adv-x="557" d="M419 121v614h60v-720h-75q-47 106 -128 298t-109 257l-29 60v-615h-60v720h76q42 -96 119.5 -281.5t116.5 -274.5z" />
<glyph unicode="O" horiz-adv-x="557" d="M278 735h20q40 0 61.5 -3.5t48 -22.5t39.5 -56t22.5 -106.5t9.5 -171.5t-9.5 -171.5t-22.5 -106.5t-39.5 -56t-48 -22.5t-61.5 -3.5h-20h-20q-28 0 -44.5 1.5t-38 8.5t-34 21t-26.5 40t-21 64.5t-11.5 94.5t-4.5 130t4.5 130t11.5 94.5t21 64.5t26.5 40t34 21t38 8.5 t44.5 1.5h20zM419 375q0 80 -7.5 134t-18 84t-30.5 45t-37.5 18.5t-47.5 3.5t-47 -3.5t-37.5 -18.5t-31 -45t-17.5 -84t-7 -134t7 -134t17.5 -84t31 -45t37.5 -18.5t47 -3.5t47.5 3.5t37.5 18.5t30.5 45t18 84t7.5 134z" />
<glyph unicode="P" horiz-adv-x="557" d="M138 660v-255h140q39 0 67.5 13.5t42 30.5t21.5 38.5t9 30.5t1 14t-1 14.5t-9 31t-21.5 38.5t-42.5 30.5t-67 13.5h-140zM78 15v720h200q55 0 96 -20.5t60 -45.5t30.5 -58t13 -47.5t1.5 -23.5t-1.5 -23.5t-13 -47.5t-30.5 -58t-60 -45.5t-96 -20.5h-140v-330h-60z" />
<glyph unicode="Q" horiz-adv-x="557" d="M419 375q0 80 -7.5 134t-18 84t-30.5 45t-37.5 18.5t-47.5 3.5t-47 -3.5t-37.5 -18.5t-31 -45t-17.5 -84t-7 -134t7 -134t17.5 -84t31 -45t37.5 -18.5t47 -3.5q44 0 72 31l7 7l-4 9q-17 40 -33 76t-27 62h56l45 -90l10 38q15 61 15 152zM375 90l-15 -14q-42 -47 -82 -47 h-20q-28 0 -44.5 1.5t-38 8.5t-34 21t-26.5 40t-21 64.5t-11.5 94.5t-4.5 130t4.5 130t11.5 94.5t21 64.5t26.5 40t34 21t38 8.5t44.5 1.5h20h20q40 0 61.5 -3.5t48 -22.5t39.5 -56t22.5 -106.5t9.5 -171.5q0 -132 -61 -237l-4 -7l56 -116h-66z" />
<glyph unicode="R" horiz-adv-x="557" d="M78 15v720h200q41 0 74 -11t53.5 -27t35.5 -38t22 -40.5t11 -38.5t4.5 -28t0.5 -12q0 -46 -19.5 -85t-46 -59.5t-47.5 -32t-30 -11.5h-20l154 -337h-66l-142 330h-124v-330h-60zM138 660v-255h140q39 0 67.5 13.5t42 30.5t21.5 38.5t9 30.5t1 14t-1 14.5t-9 31 t-21.5 38.5t-42.5 30.5t-67 13.5h-140z" />
<glyph unicode="S" horiz-adv-x="557" d="M278 367h-15q-42 0 -64 2t-49.5 11.5t-40.5 28.5t-22 55t-9 89q0 34 4.5 60.5t11.5 44t21 29.5t26 18.5t34.5 10t39.5 4t47 0.5h16q97 0 147 -31.5t54 -114.5h-60q-2 37 -19.5 57t-38 24.5t-53.5 4.5h-30q-35 0 -54.5 -2.5t-42.5 -12t-33 -32t-10 -59.5q0 -45 6 -70 t24.5 -38t41 -16t68.5 -3h3h15q30 0 46.5 -0.5t39 -4.5t34.5 -11t26 -20.5t21 -33.5t11.5 -49t4.5 -68q0 -43 -4.5 -76t-11.5 -55.5t-21 -37.5t-26 -23t-34.5 -12t-39 -5t-45.5 -1h-19h-10q-31 0 -47.5 0.5t-40 3.5t-35.5 8.5t-26.5 15.5t-21.5 26t-12.5 39t-6.5 53h60 q2 -25 11 -41.5t20 -25.5t31.5 -13.5t35 -5t40.5 -0.5h2q35 0 55.5 3.5t43 17t32.5 45.5t10 83q0 45 -6 70.5t-24 38.5t-40 16t-66 3h-5z" />
<glyph unicode="T" horiz-adv-x="557" d="M78 685v50h401v-50h-175v-670h-50v670h-176z" />
<glyph unicode="U" horiz-adv-x="557" d="M419 245v505h60v-505v-58q0 -42 -0.5 -64t-6.5 -42.5t-13 -28t-26.5 -14t-40 -7.5t-59.5 -1h-55q-56 0 -97 23t-60 51t-29.5 64.5t-12 51.5t-1.5 25v505h60v-505q0 -6 1 -16.5t8.5 -37.5t20.5 -47t42 -37t68 -17q53 0 77 3t41 21t20 45t3 86z" />
<glyph unicode="V" horiz-adv-x="557" d="M471 735l-167 -720h-60l-166 720h62l134 -612l135 612h62z" />
<glyph unicode="W" horiz-adv-x="557" d="M139 735l42 -554l67 304h58l68 -306l42 556h61l-55 -720h-65l-80 368l-79 -368h-65l-55 720h61z" />
<glyph unicode="X" horiz-adv-x="557" d="M269 443l126 292h66l-164 -360l164 -360h-66l-126 292l-124 -292h-67l164 360l-164 360h67z" />
<glyph unicode="Y" horiz-adv-x="557" d="M245 15v364l-167 356h66l125 -283l124 283h68l-166 -357v-363h-50z" />
<glyph unicode="Z" horiz-adv-x="557" d="M479 90v-60h-392l288 630h-297v60h392q-113 -223 -279 -610l-10 -20h298z" />
<glyph unicode="[" d="M132 735h353v-60h-293v-690h293v-60h-353v810z" />
<glyph unicode="\" d="M414 15l-275 720h64l275 -720h-64z" />
<glyph unicode="]" d="M485 735v-810h-353v60h293v690h-293v60h353z" />
<glyph unicode="^" d="M344 735l134 -345h-64l-106 268l-104 -268h-65l135 345h70z" />
<glyph unicode="_" d="M93 -15h431v-60h-431v60z" />
<glyph unicode="`" d="M150 715q0 8 6 14t12 6h1q9 0 22 -6.5t21 -13.5l9 -7q38 -36 58 -56t39 -45t20 -41q0 -6 -2 -6h-1h-2q-41 0 -154 105q-28 29 -29 50z" />
<glyph unicode="a" horiz-adv-x="557" d="M273 220h-8q-127 0 -127 -65q0 -22 11 -36t32.5 -20t39 -7.5t43.5 -1.5h14h141v130h-146zM278 410q-65 0 -145 -36l-25 44q110 52 170 52q53 0 93 -15.5t60 -35.5t31.5 -47.5t14 -45t2.5 -33.5v-278h-201q-98 0 -149 31t-51 102q0 79 48 105.5t152 26.5h141v13 q0 117 -141 117z" />
<glyph unicode="b" horiz-adv-x="557" d="M278 500q40 0 72.5 -13t53 -32t35.5 -45t22.5 -48.5t12 -46.5t5 -34t0.5 -16t-0.5 -16t-5 -34t-12 -46.5t-22.5 -48.5t-35.5 -45t-53 -32t-72.5 -13h-200v720h60v-250h140zM138 410v-320h140q39 0 68.5 16.5t42.5 40t20.5 47t8.5 40.5l1 16q0 7 -1 17.5t-8.5 38t-21 48.5 t-42.5 38.5t-68 17.5h-140z" />
<glyph unicode="c" horiz-adv-x="557" d="M418 154h61q-2 -26 -10.5 -46t-19.5 -33t-29.5 -22t-33 -13.5t-37.5 -6.5t-35.5 -2.5t-35.5 -0.5q-90 0 -145 57.5t-55 162.5t55 162.5t145 57.5q26 0 41.5 -1t42 -4t43 -11t34.5 -21t28 -35t12 -52h-61q-14 64 -126 64h-12h-2q-62 0 -101 -46.5t-39 -113.5t39 -113.5 t101 -46.5h2h9q115 0 129 64z" />
<glyph unicode="d" horiz-adv-x="557" d="M138 250q0 -7 1 -18.5t8.5 -39t21 -48t42 -37.5t67.5 -17h141v320h-141q-39 0 -67.5 -17t-42 -37.5t-21 -48t-8.5 -39t-1 -18.5zM278 30q-55 0 -96 24.5t-60 55.5t-30 70.5t-12.5 56.5t-1.5 28q0 6 0.5 15.5t4.5 33.5t11.5 46.5t22.5 49t35 45.5t53 32t73 13h141v250h60 v-720h-201z" />
<glyph unicode="e" horiz-adv-x="557" d="M138 293v-13h281v13q0 33 -8 55.5t-19 34.5t-32 18.5t-37.5 7.5t-44.5 1q-35 0 -55 -3t-42.5 -13.5t-32.5 -35.5t-10 -65zM78 250q0 56 5 96.5t17.5 66t25 40.5t37 22t43 8.5t52.5 1.5h20h20q34 0 53 -1.5t43 -8.5t37 -22t25.5 -40.5t17.5 -66t5 -96.5v-30h-341v-13 q0 -40 10 -65t32.5 -35.5t42.5 -13.5t55 -3h156v-60h-156h-18q-29 0 -45.5 1t-39 5t-34.5 12.5t-26 24.5t-21 39.5t-11.5 58t-4.5 79.5z" />
<glyph unicode="f" horiz-adv-x="557" d="M208 15h-60v546q0 189 157 189q62 0 168 -52l-25 -48q-80 40 -143 40q-97 0 -97 -130v-235h119v-60h-119v-250z" />
<glyph unicode="g" horiz-adv-x="557" d="M391 2l1 9q-22 -11 -114 -11h-20q-34 0 -52.5 1.5t-43 8.5t-37 22t-25 40.5t-17.5 66t-5 96.5t5 96.5t17.5 66t25 40.5t37 22t43 8.5t52.5 1.5h20h20q34 0 53 -1.5t43 -8.5t37 -22t25.5 -40.5t17.5 -66t5 -96.5v-295q0 -18 -2.5 -36t-14 -48t-31.5 -51.5t-60 -38 t-93 -16.5q-64 0 -170 52l25 48q80 -40 145 -40q141 0 141 130v61zM419 250q0 45 -8 75.5t-19 47t-31.5 25t-37.5 10.5t-45 2t-45 -2t-37.5 -10.5t-31.5 -25t-18.5 -47t-7.5 -75.5t7.5 -75.5t18.5 -47t31.5 -25t37.5 -10.5t45 -2t45 2t37.5 10.5t31.5 25t19 47t8 75.5z" />
<glyph unicode="h" horiz-adv-x="557" d="M479 235v-235h-60v235q0 4 -0.5 10t-3 24.5t-7.5 35t-15.5 36.5t-25 34.5t-37.5 24.5t-52 10h-140v-410h-60v750h60v-274h140q40 0 73 -13.5t53.5 -33.5t35.5 -47t22 -50t11.5 -47.5t5 -34.5t0.5 -15z" />
<glyph unicode="i" horiz-adv-x="557" d="M123 410v60h181v-380h175v-60h-401v60h176v320h-131zM174 675q0 27 22 51t45 24t43 -24t20 -51t-20 -51t-43 -24t-45 24t-22 51z" />
<glyph unicode="j" horiz-adv-x="557" d="M152 470h312v-530q0 -18 -2.5 -36t-14 -48t-31 -51.5t-58.5 -38t-92 -16.5q-67 0 -173 52l26 48q80 -40 147 -40q138 0 138 130v470h-252v60zM279 675q0 27 19 51t41 24q26 0 49.5 -24t23.5 -51t-23.5 -51t-49.5 -24q-22 0 -41 24t-19 51z" />
<glyph unicode="k" horiz-adv-x="557" d="M313 265l152 -235h-72l-113 183l-10 -17q-55 -92 -105 -166h-87v720h60v-654l27 38q128 200 228 366h72q-63 -90 -147 -226z" />
<glyph unicode="l" horiz-adv-x="557" d="M174 690v60h130v-660h175v-60h-401v60h176v600h-80z" />
<glyph unicode="m" horiz-adv-x="527" d="M138 255v-255h-60v255v66q0 40 0.5 61t6.5 40.5t12 26.5t24 13.5t36.5 7t54.5 0.5h51h51q36 0 55 -1t36.5 -7t24 -13.5t12.5 -28t6.5 -42t0.5 -62.5v-61v-255h-60v263q0 100 -13 123.5t-70 23.5h-12v-410h-60v410h-12q-32 -1 -46.5 -4.5t-24 -21.5t-11.5 -45t-2 -84z" />
<glyph unicode="n" horiz-adv-x="557" d="M138 255v-255h-60v255v62q0 41 0.5 62t6.5 41.5t13 28t26.5 13.5t39.5 7t59 1h55q56 0 97 -23t60 -51t30 -64.5t12.5 -52t1.5 -24.5v-255h-60v255q0 6 -1 16.5t-8.5 37.5t-21 47t-42.5 37t-68 17q-36 0 -56 -1t-38 -7.5t-25.5 -15t-13 -28.5t-6.5 -41.5t-1 -61.5z" />
<glyph unicode="o" horiz-adv-x="557" d="M278 485h20q34 0 53 -1.5t43 -8.5t37 -22t25.5 -40.5t17.5 -66t5 -96.5t-5 -96.5t-17.5 -66t-25.5 -40.5t-37 -22t-43 -8.5t-53 -1.5h-20h-20q-34 0 -52.5 1.5t-43 8.5t-37 22t-25 40.5t-17.5 66t-5 96.5t5 96.5t17.5 66t25 40.5t37 22t43 8.5t52.5 1.5h20zM419 250 q0 45 -8 75.5t-19 47t-31.5 25t-37.5 10.5t-45 2t-45 -2t-37.5 -10.5t-31.5 -25t-18.5 -47t-7.5 -75.5t7.5 -75.5t18.5 -47t31.5 -25t37.5 -10.5t45 -2t45 2t37.5 10.5t31.5 25t19 47t8 75.5z" />
<glyph unicode="p" horiz-adv-x="557" d="M278 470q40 0 72.5 -13t53 -32t35.5 -45t22.5 -48.5t12 -46.5t5 -34t0.5 -16t-0.5 -16t-5 -34t-12 -46.5t-22.5 -48.5t-35.5 -45t-53 -32t-72.5 -13h-140v-250h-60v720h200zM419 250q0 7 -1 17.5t-8.5 38t-21 48.5t-42.5 38.5t-68 17.5h-140v-320h140q39 0 68.5 16.5 t42.5 40t20.5 47t8.5 40.5z" />
<glyph unicode="q" horiz-adv-x="557" d="M419 90v320h-141q-39 0 -67.5 -17t-42 -37.5t-21 -48t-8.5 -39t-1 -18.5t1 -18.5t8.5 -39t21 -48t42 -37.5t67.5 -17h141zM278 0q-55 0 -96 24.5t-60 55.5t-30 70.5t-12.5 56.5t-1.5 28q0 6 0.5 15.5t4.5 33.5t11.5 46.5t22.5 49t35 45.5t53 32t73 13h201v-720h-60v250 h-141z" />
<glyph unicode="r" horiz-adv-x="557" d="M278 410q-36 0 -55.5 -1.5t-37.5 -8.5t-25.5 -16.5t-13.5 -31.5t-7 -47t-1 -70v-235h-60v235v63q0 46 0.5 70t7 47t13.5 31t27 15t40.5 8t60.5 1h51q26 0 41.5 -1t42 -4t43 -11.5t34.5 -22t28 -37t12 -54.5h-61q-14 70 -127 70h-11h-2z" />
<glyph unicode="s" horiz-adv-x="557" d="M419 155q0 19 -8.5 32t-18.5 19t-31 9.5t-35 4t-40 0.5h-11q-32 0 -48 0.5t-44 4t-43 11t-31 20.5t-23.5 34.5t-7.5 51.5q0 31 5 53.5t18.5 36.5t26.5 22t40 11.5t46 4t58 0.5h6q40 0 58.5 -0.5t46.5 -3.5t40.5 -10t27 -19.5t21 -32.5t7.5 -48h-61q-4 19 -14.5 30.5 t-29.5 16t-35 6t-43 1.5h-18h-12q-25 0 -39.5 -0.5t-34 -4t-29.5 -10t-17.5 -19.5t-7.5 -31q0 -19 8 -32t18.5 -19t31.5 -9.5t34.5 -4t39.5 -0.5h11q32 0 48.5 -0.5t44 -4t42.5 -11t31.5 -20.5t24 -34.5t7.5 -51.5q0 -37 -9.5 -62t-22.5 -38t-42.5 -19.5t-52 -7.5t-68.5 -1 h-6h-39.5t-34 1t-32 3t-26.5 6t-23.5 9.5t-17 14t-14 20t-8.5 26.5t-5 34h61q3 -19 13.5 -30.5t29.5 -16t35 -6t43 -1.5h18h12q25 0 39.5 0.5t34 4t30 10t18 19.5t7.5 31z" />
<glyph unicode="t" horiz-adv-x="557" d="M414 410h-252v-201q0 -119 138 -119q68 0 148 40l25 -48q-110 -52 -173 -52q-53 0 -92 16.5t-58.5 38t-31 51.5t-14 48t-2.5 36v530h60v-274h252v-66z" />
<glyph unicode="u" horiz-adv-x="557" d="M419 245v255h60v-255v-58q0 -42 -0.5 -64t-6.5 -42.5t-13 -28t-26.5 -14t-40 -7.5t-59.5 -1h-55q-56 0 -97 23t-60 51t-29.5 64.5t-12 51.5t-1.5 25v255h60v-255q0 -6 1 -16.5t8.5 -37.5t20.5 -47t42 -37t68 -17q53 0 77 3t41 21t20 45t3 86z" />
<glyph unicode="v" horiz-adv-x="557" d="M466 485l-163 -470h-63l-162 470h65l129 -399l129 399h65z" />
<glyph unicode="w" horiz-adv-x="557" d="M139 485l39 -345l70 230h58l70 -231l39 346h60l-53 -470h-66l-80 269l-78 -269h-66l-54 470h61z" />
<glyph unicode="x" horiz-adv-x="557" d="M78 15l157 235l-157 235h73l113 -183l115 183h72l-156 -235l156 -235h-72l-115 183l-113 -183h-73z" />
<glyph unicode="y" horiz-adv-x="557" d="M170 -250l75 235l-167 485h65l129 -399l129 399h65l-166 -480l-74 -240h-56z" />
<glyph unicode="z" horiz-adv-x="557" d="M220 112l-14 -22h273v-60h-387q102 134 245 358l14 22h-273v60h387q-102 -134 -245 -358z" />
<glyph unicode="{" d="M132 300v60q54 0 81 4t43.5 23.5t19.5 46t3 84.5q0 40 3 71t11 54t15.5 38.5t24 26t28 16t36 8t40.5 3t48 0.5v-60q-54 0 -80.5 -4t-43 -23t-19.5 -45.5t-3 -84.5q0 -152 -16 -181l-4 -7l4 -7q16 -29 16 -181q0 -58 3 -84.5t19.5 -45.5t43 -23t80.5 -4v-60q-32 0 -48 0.5 t-40.5 3t-36.5 8.5t-28 16t-23.5 26t-15.5 38.5t-11 53.5t-3 71q0 57 -3.5 84.5t-20 46.5t-43 23t-80.5 4z" />
<glyph unicode="|" d="M279 735h60v-810h-60v810z" />
<glyph unicode="}" d="M485 300q-54 0 -81 -4t-43 -23.5t-19 -46t-3 -84.5q0 -36 -3 -64.5t-7 -50t-14 -37.5t-18 -27t-24 -18.5t-27 -11.5t-34 -5.5t-37 -2t-43 -0.5v60q36 0 58 1.5t40 8.5t26.5 16t14.5 29t7 42t1 60v28q0 124 15 153l4 7l-4 7q-15 29 -15 153v28q0 38 -1.5 60.5t-7 42 t-14 28.5t-26.5 16t-40 8.5t-58 1.5v60q32 0 48 -0.5t40.5 -3t36.5 -8.5t28.5 -16t24 -26t15.5 -38.5t11 -53.5t3 -71q0 -39 1 -60.5t6.5 -42t14 -29.5t26.5 -16t40 -8.5t58 -1.5v-60z" />
<glyph unicode="~" d="M94 298q2 17 8 32t18 34t37 30t59 11q37 0 63 -9.5t40 -22.5t25 -26t25 -22.5t33 -9.5q27 0 41.5 14t18.5 31h61q-2 -16 -7.5 -31t-17.5 -33.5t-37 -29.5t-59 -11q-37 0 -63 9.5t-40 22.5t-25 26t-25.5 22.5t-33.5 9.5q-48 0 -60 -47h-61z" />
<glyph unicode="&#xa0;" />
<glyph unicode="&#xa1;" d="M308 575q27 0 51 -24t24 -51t-24 -51t-51 -24t-50.5 24t-23.5 51t23.5 51t50.5 24zM279 235h60v-470h-60v470z" />
<glyph unicode="&#xa2;" d="M279 735h60v-126l14 -1q75 -3 120.5 -29.5t50.5 -99.5h-61q-11 60 -108 69l-16 1v-350l16 1q97 9 108 69h61q-3 -39 -17.5 -65.5t-41 -39t-52 -18t-60.5 -6.5l-14 -1v-124h-60v125l-13 2q-81 13 -127 72.5t-46 159.5t46 159.5t127 72.5l13 2v127zM259 542 q-51 -17 -78.5 -62.5t-27.5 -105.5t27.5 -105.5t78.5 -62.5l20 -7v350z" />
<glyph unicode="&#xa3;" d="M117 88v457q0 18 2.5 36t15 48t34 51.5t64 38t100.5 16.5q79 0 185 -52l-25 -48q-80 40 -160 40q-156 0 -156 -130v-185h210v-60h-210v-225h347v-60h-426z" />
<glyph unicode="&#xa5;" d="M339 300v-65h146v-60h-146v-160h-60v160h-147v60h147v65h-147v60h156l-186 375h67l139 -283l139 283h68l-185 -375h155v-60h-146z" />
<glyph unicode="&#xa6;" d="M279 735h60v-300h-60v300zM339 225v-300h-60v300h60z" />
<glyph unicode="&#xa7;" d="M308 367q-41 0 -63 -2.5t-46.5 -13t-35 -35.5t-10.5 -66q0 -43 6 -66t27 -35.5t46 -15t76 -2.5h4q40 0 62 3t45.5 14t34 36t10.5 66q0 79 -29.5 98t-126.5 19zM475 103q49 -39 49 -165q0 -36 -4.5 -63t-11.5 -45.5t-22 -30.5t-27.5 -19t-37 -10.5t-43 -4t-52.5 -0.5h-18 q-108 0 -159.5 31.5t-55.5 118.5h60q3 -56 33.5 -73t87.5 -17h34q33 0 51 1t41 7t35 17.5t20.5 33.5t8.5 54q0 48 -6 74.5t-27 40.5t-46 17t-77 3h-17q-34 0 -52.5 0.5t-43 4t-37 10.5t-27.5 19.5t-22 31.5t-11.5 46.5t-4.5 64.5q0 102 35 140l9 10l-9 10q-35 41 -35 152 q0 42 5 71.5t18 48.5t26.5 30t40 16t47.5 6t60 1h18q108 0 160 -32t56 -118h-60q-3 56 -33 73t-87 17h-36q-33 0 -51 -1t-41 -7t-34.5 -17.5t-20 -33.5t-8.5 -54q0 -48 6 -74.5t26.5 -40.5t45.5 -17t77 -3h17q39 0 60 -1t48 -6t40.5 -16.5t27 -30.5t18.5 -49.5t5 -73.5 q0 -81 -50 -124l-13 -12z" />
<glyph unicode="&#xa8;" d="M434 675q29 0 37.5 -9t8.5 -38t-8.5 -38t-37.5 -9t-38 9t-9 38t9 38t38 9zM184 675q29 0 37.5 -9t8.5 -38t-8.5 -38t-37.5 -9t-38 9t-9 38t9 38t38 9z" />
<glyph unicode="&#xa9;" d="M602 308q0 -7 -1 -19.5t-7 -42.5t-16.5 -57.5t-32.5 -60.5t-52 -57t-78 -40t-107 -16t-107.5 16.5t-78 40.5t-51.5 57t-32.5 61t-16.5 58t-6.5 41.5t-0.5 18.5t0.5 18.5t6.5 42t16.5 58t32.5 61t51.5 57.5t78 40.5t107.5 16.5t107.5 -16t78 -40.5t51.5 -57.5t32.5 -60.5 t16.5 -58t7 -42.5t1 -19zM308 549q-49 0 -88.5 -13.5t-63.5 -34.5t-42 -47t-26.5 -51.5t-13 -46.5t-4.5 -34l-1 -14q0 -10 1.5 -26t14.5 -57t35.5 -72.5t71.5 -57.5t116 -26q49 0 88.5 13t64 34.5t42.5 46.5t26.5 50.5t13.5 47t5 34.5l1 13q0 9 -1.5 26.5t-15 58t-36.5 72.5 t-72 58t-116 26zM449 234q-3 -27 -15.5 -44t-35.5 -23.5t-40 -8t-47 -1.5h-3q-80 0 -115.5 37t-35.5 114q0 78 36 115.5t115 37.5h3q29 0 47 -1.5t40.5 -8.5t35 -23.5t15.5 -43.5h-43q-11 47 -85 47h-13q-108 0 -108 -123q0 -53 25 -87.5t83 -34.5h7q81 0 91 48h43z" />
<glyph unicode="&#xaa;" d="M132 280h353v-60h-353v60zM177 486q0 -20 10 -33t29.5 -18t35.5 -6.5t41 -1.5h15h133v118h-133h-16q-115 0 -115 -59zM177 667l-18 31q83 37 149 37q47 0 82 -12t52.5 -28.5t28 -38t12.5 -35t2 -25.5v-206h-177q-90 0 -133 22.5t-43 73.5q0 57 40 76t136 19h133v15 q0 101 -133 101q-60 0 -131 -30z" />
<glyph unicode="&#xab;" d="M323 292v76l201 179v-64l-128 -153l128 -153v-64zM93 292v76l200 179v-64l-126 -153l126 -153v-64z" />
<glyph unicode="&#xac;" d="M93 360h431v-220h-60v160h-371v60z" />
<glyph unicode="&#xad;" d="M132 360h353v-60h-353v60z" />
<glyph unicode="&#xae;" d="M181 461h127q36 0 62.5 -8.5t38.5 -19t18.5 -24t7.5 -19t1 -8.5q-1 -32 -35 -57t-51 -26h-29l101 -142h-24l-98 139h-95v-139h-24v304zM205 321h103q27 0 47.5 6t30.5 13.5t16 17t7.5 15t1.5 9.5t-1.5 9.5t-7.5 15t-16.5 17.5t-30.5 13.5t-47 5.5h-103v-122zM602 308 q0 -7 -1 -19.5t-7 -42.5t-16.5 -57.5t-32.5 -60.5t-52 -57t-78 -40t-107 -16t-107.5 16.5t-78 40.5t-51.5 57t-32.5 61t-16.5 58t-6.5 41.5t-0.5 18.5t0.5 18.5t6.5 42t16.5 58t32.5 61t51.5 57.5t78 40.5t107.5 16.5t107.5 -16t78 -40.5t51.5 -57.5t32.5 -60.5t16.5 -58 t7 -42.5t1 -19zM308 549q-49 0 -88.5 -13.5t-63.5 -34.5t-42 -47t-26.5 -51.5t-13 -46.5t-4.5 -34l-1 -14q0 -10 1.5 -26t14.5 -57t35.5 -72.5t71.5 -57.5t116 -26q49 0 88.5 13t64 34.5t42.5 46.5t26.5 50.5t13.5 47t5 34.5l1 13q0 9 -1.5 26.5t-15 58t-36.5 72.5t-72 58 t-116 26z" />
<glyph unicode="&#xaf;" d="M132 602h355v-59h-355v59z" />
<glyph unicode="&#xb0;" d="M485 562q0 -35 -10 -63.5t-24 -45.5t-34 -30t-37 -19t-35 -9.5t-25 -4t-12 -0.5q-8 0 -20.5 1t-42.5 10.5t-53 25.5t-41.5 51.5t-18.5 83.5q0 35 9.5 63.5t24 46t34.5 30.5t36.5 19t34.5 9.5t25.5 4t11.5 0.5q5 0 12 -0.5t25.5 -4t35 -9.5t36.5 -19t34.5 -30.5t24 -46 t9.5 -63.5zM308 682q-4 0 -12.5 -1t-28 -7.5t-35 -18t-28 -36t-12.5 -57.5t12 -57.5t29 -35.5t34 -17.5t29 -7.5l12 -1q5 0 13 1t28 7.5t35.5 17.5t28 35.5t12.5 57.5t-12 57.5t-29 36t-34.5 18t-29.5 7.5z" />
<glyph unicode="&#xb1;" d="M93 225h431v-60h-431v60zM524 543v-60h-185v-138h-60v138h-186v60h186v138h60v-138h185z" />
<glyph unicode="&#xb2;" d="M256 423h178v-33h-251v40q207 128 207 195q0 34 -16 50t-66 16q-43 0 -61 -12.5t-20 -38.5h-44q0 24 3 37t14.5 28.5t38 22.5t69.5 7q44 0 71 -8t38 -25t14 -31t3 -37v-9q0 -21 -18 -49.5t-49 -58t-44 -41t-30 -25.5l-1 -1z" />
<glyph unicode="&#xb3;" d="M434 486q0 -96 -126 -96q-115 0 -124 81h44q3 -17 14.5 -25.5t23.5 -10t36 -1.5h6q45 0 63.5 9t18.5 43q0 35 -15.5 52.5t-51.5 19.5v33q54 4 54 59q0 20 -9 29q-11 12 -39 12h-21h-21q-26 0 -37 -11q-6 -6 -8 -15h-44q10 70 110 70q113 0 113 -85q0 -10 -2 -18t-7 -15 t-7.5 -11t-11 -11.5t-10.5 -9.5l-10 -11l10 -11q3 -3 20.5 -16t24 -25.5t6.5 -35.5z" />
<glyph unicode="&#xb4;" d="M282 560h-1q-2 0 -2 6q1 16 20.5 42t38.5 44.5t58 55.5q31 27 52 27h1q7 0 12.5 -6.5t5.5 -13.5q0 -10 -7.5 -22.5t-14.5 -20.5l-7 -7q-113 -105 -154 -105h-2z" />
<glyph unicode="&#xb5;" d="M464 485h60v-255v-55q0 -43 -0.5 -65t-7 -43.5t-14 -29t-28.5 -14t-43 -7.5t-64 -1h-59q-79 0 -131 38l-24 17v-304h-60v719h60v-255q0 -6 1 -16.5t9.5 -37.5t23 -47t46.5 -37t75 -17q40 0 62 1t42 7.5t28 15t15 28t8 42t1 61.5v255z" />
<glyph unicode="&#xb6;" d="M524 735v-720h-54v660h-93v-660h-54v330h-59q-47 0 -82 20.5t-51.5 46t-26 58.5t-10.5 47t-1 23t1.5 23.5t11 47t25.5 58t51 46t82 20.5h260z" />
<glyph unicode="&#xb7;" d="M308 450q27 0 51 -24t24 -51t-24 -51t-51 -24t-50.5 24t-23.5 51t23.5 51t50.5 24z" />
<glyph unicode="&#xb8;" d="M339 75v-129h18h4q12 0 21.5 -2t23 -10t21 -27.5t7.5 -50.5q0 -32 -8 -51.5t-27 -27.5t-35 -10t-47 -2h-9h-95v32h95q83 0 83 59q0 57 -83 57h-29v162h60z" />
<glyph unicode="&#xb9;" d="M253 589h-52l129 146h65v-345h-44v314z" />
<glyph unicode="&#xba;" d="M132 280h353v-60h-353v60zM485 562q0 -35 -10 -63.5t-24 -45.5t-34 -30t-37 -19t-35 -9.5t-25 -4t-12 -0.5q-8 0 -20.5 1t-42.5 10.5t-53 25.5t-41.5 51.5t-18.5 83.5q0 35 9.5 63.5t24 46t34.5 30.5t36.5 19t34.5 9.5t25.5 4t11.5 0.5q5 0 12 -0.5t25.5 -4t35 -9.5 t36.5 -19t34.5 -30.5t24 -46t9.5 -63.5zM308 682q-4 0 -12.5 -1t-28 -7.5t-35 -18t-28 -36t-12.5 -57.5t12 -57.5t29 -35.5t34 -17.5t29 -7.5l12 -1q5 0 13 1t28 7.5t35.5 17.5t28 35.5t12.5 57.5t-12 57.5t-29 36t-34.5 18t-29.5 7.5z" />
<glyph unicode="&#xbb;" d="M293 292l-200 -179v64l128 153l-128 153v64l200 -179v-76zM524 292l-201 -179v64l129 153l-129 153v64l201 -179v-76z" />
<glyph unicode="&#xbf;" d="M308 427q-27 0 -50.5 24t-23.5 51t23.5 51t50.5 24t51 -24t24 -51t-24 -51t-51 -24zM279 111v126h60v-185h-36q-31 0 -49 -1t-40 -7t-33.5 -17.5t-19.5 -33t-8 -53.5t8.5 -54t20 -33.5t34.5 -17.5t41 -7t51 -1q32 0 49 1t40 6t34.5 15t21 29t11.5 47h60 q-1 -33 -6.5 -57.5t-12.5 -41.5t-21.5 -28t-27.5 -17.5t-36.5 -9.5t-42 -3.5t-50.5 -0.5h-19h-18q-39 0 -60 1t-47.5 6t-40 16t-26.5 30t-18 48.5t-5 71.5q0 58 10 93t35 51.5t51.5 21t74.5 5.5h15z" />
<glyph unicode="&#xc0;" horiz-adv-x="527" d="M244 735h60l167 -720h-62l-50 205h-170l-49 -205h-62zM204 280h141l-71 347zM116 965q0 8 6 14t12 6h1q9 0 22 -6.5t21 -13.5l9 -7q38 -36 58 -56t39 -45t20 -41q0 -6 -2 -6h-1h-2q-41 0 -154 105q-28 29 -29 50z" />
<glyph unicode="&#xc1;" horiz-adv-x="527" d="M244 735h60l167 -720h-62l-50 205h-170l-49 -205h-62zM204 280h141l-71 347zM248 810h-1q-2 0 -2 6q1 16 20.5 42t38.5 44.5t58 55.5q31 27 52 27h1q7 0 12.5 -6.5t5.5 -13.5q0 -10 -7.5 -22.5t-14.5 -20.5l-7 -7q-113 -105 -154 -105h-2z" />
<glyph unicode="&#xc2;" horiz-adv-x="527" d="M244 735h60l167 -720h-62l-50 205h-170l-49 -205h-62zM204 280h141l-71 347zM312 985l125 -175h-60l-103 131l-101 -131h-61l126 175h74z" />
<glyph unicode="&#xc3;" horiz-adv-x="527" d="M244 735h60l167 -720h-62l-50 205h-170l-49 -205h-62zM204 280h141l-71 347zM60 852q2 17 8 32t18 34t37 30t59 11q37 0 63 -9.5t40 -22.5t25 -26t25 -22.5t33 -9.5q27 0 41.5 14t18.5 31h61q-2 -16 -7.5 -31t-17.5 -33.5t-37 -29.5t-59 -11q-37 0 -63 9.5t-40 22.5 t-25 26t-25.5 22.5t-33.5 9.5q-48 0 -60 -47h-61z" />
<glyph unicode="&#xc4;" horiz-adv-x="527" d="M244 735h60l167 -720h-62l-50 205h-170l-49 -205h-62zM204 280h141l-71 347zM400 904q29 0 37.5 -9t8.5 -38t-8.5 -38t-37.5 -9t-38 9t-9 38t9 38t38 9zM150 904q29 0 37.5 -9t8.5 -38t-8.5 -38t-37.5 -9t-38 9t-9 38t9 38t38 9z" />
<glyph unicode="&#xc5;" horiz-adv-x="527" d="M244 735h60l167 -720h-62l-50 205h-170l-49 -205h-62zM204 280h141l-71 347zM197 898q0 -3 1 -8t5.5 -13.5t12.5 -15.5t23 -12.5t35 -5.5t35.5 5.5t23 12.5t12.5 16t6 13.5t1 7.5v1q0 3 -1 8t-6 13.5t-12.5 15.5t-23 12t-35.5 5t-35.5 -5.5t-23 -12.5t-12 -16t-5.5 -13.5 t-1 -7.5zM274 810q-30 0 -52 8.5t-32.5 19.5t-16.5 25t-7 21t-1 13v1q0 5 1 11.5t7 21t16.5 25.5t32.5 20t52 9t52.5 -9t33.5 -20t17 -25t7 -21t1 -12t-1 -12t-7.5 -21.5t-17 -25.5t-33 -20t-52.5 -9z" />
<glyph unicode="&#xc6;" horiz-adv-x="557" d="M287 220h-98l-50 -205h-61l166 705h231v-60h-138v-255h93v-60h-93v-255h138v-60h-188v190zM203 280h84v408z" />
<glyph unicode="&#xc7;" horiz-adv-x="557" d="M138 375q0 -285 140 -285h2h8q116 0 130 70h61q-2 -43 -17 -72.5t-40.5 -43.5t-49.5 -20t-56 -7h-12v-86h15h3q67 0 67 -90q0 -32 -7.5 -51.5t-24.5 -27.5t-31 -10t-41 -2h-7h-80v32h80q70 0 70 59q0 57 -70 57h-24v104l-11 2q-165 28 -165 356q0 103 15 175t43 111.5 t62.5 56.5t79.5 17q26 0 41.5 -1t42 -4t43 -11.5t34.5 -22t28 -37t12 -54.5h-61q-14 70 -127 70h-11h-2q-140 0 -140 -285z" />
<glyph unicode="&#xc8;" horiz-adv-x="527" d="M78 30v690h401v-60h-341v-255h166v-60h-166v-255h341v-60h-401zM120 965q0 8 6 14t12 6h1q9 0 22 -6.5t21 -13.5l9 -7q38 -36 58 -56t39 -45t20 -41q0 -6 -2 -6h-1h-2q-41 0 -154 105q-28 29 -29 50z" />
<glyph unicode="&#xc9;" horiz-adv-x="527" d="M78 30v690h401v-60h-341v-255h166v-60h-166v-255h341v-60h-401zM252 810h-1q-2 0 -2 6q1 16 20.5 42t38.5 44.5t58 55.5q31 27 52 27h1q7 0 12.5 -6.5t5.5 -13.5q0 -10 -7.5 -22.5t-14.5 -20.5l-7 -7q-113 -105 -154 -105h-2z" />
<glyph unicode="&#xca;" horiz-adv-x="527" d="M78 30v690h401v-60h-341v-255h166v-60h-166v-255h341v-60h-401zM316 985l125 -175h-60l-103 131l-101 -131h-61l126 175h74z" />
<glyph unicode="&#xcb;" horiz-adv-x="527" d="M78 30v690h401v-60h-341v-255h166v-60h-166v-255h341v-60h-401zM404 904q29 0 37.5 -9t8.5 -38t-8.5 -38t-37.5 -9t-38 9t-9 38t9 38t38 9zM154 904q29 0 37.5 -9t8.5 -38t-8.5 -38t-37.5 -9t-38 9t-9 38t9 38t38 9z" />
<glyph unicode="&#xcc;" horiz-adv-x="527" d="M98 720h362v-60h-157v-570h157v-60h-362v60h157v570h-157v60zM120 965q0 8 6 14t12 6h1q9 0 22 -6.5t21 -13.5l9 -7q38 -36 58 -56t39 -45t20 -41q0 -6 -2 -6h-1h-2q-41 0 -154 105q-28 29 -29 50z" />
<glyph unicode="&#xcd;" horiz-adv-x="527" d="M98 720h362v-60h-157v-570h157v-60h-362v60h157v570h-157v60zM252 810h-1q-2 0 -2 6q1 16 20.5 42t38.5 44.5t58 55.5q31 27 52 27h1q7 0 12.5 -6.5t5.5 -13.5q0 -10 -7.5 -22.5t-14.5 -20.5l-7 -7q-113 -105 -154 -105h-2z" />
<glyph unicode="&#xce;" horiz-adv-x="527" d="M98 720h362v-60h-157v-570h157v-60h-362v60h157v570h-157v60zM316 985l125 -175h-60l-103 131l-101 -131h-61l126 175h74z" />
<glyph unicode="&#xcf;" horiz-adv-x="527" d="M98 720h362v-60h-157v-570h157v-60h-362v60h157v570h-157v60zM404 904q29 0 37.5 -9t8.5 -38t-8.5 -38t-37.5 -9t-38 9t-9 38t9 38t38 9zM154 904q29 0 37.5 -9t8.5 -38t-8.5 -38t-37.5 -9t-38 9t-9 38t9 38t38 9z" />
<glyph unicode="&#xd0;" horiz-adv-x="557" d="M138 345v-255h140q39 0 67 27t42 62t21.5 81t9 69.5t1.5 42.5v3v2q0 18 -1.5 41t-9 69.5t-21 81.5t-42 63t-67.5 28h-140v-255h166v-60h-166zM78 15v720h200q46 0 82 -25t56.5 -66.5t34.5 -83.5t19.5 -87.5t7 -66.5t1.5 -31q0 -11 -1.5 -32t-7 -66t-19.5 -87t-34.5 -83.5 t-56.5 -66.5t-82 -25h-200z" />
<glyph unicode="&#xd1;" horiz-adv-x="527" d="M419 121v614h60v-720h-75q-47 106 -128 298t-109 257l-29 60v-615h-60v720h76q42 -96 119.5 -281.5t116.5 -274.5zM64 852q2 17 8 32t18 34t37 30t59 11q37 0 63 -9.5t40 -22.5t25 -26t25 -22.5t33 -9.5q27 0 41.5 14t18.5 31h61q-2 -16 -7.5 -31t-17.5 -33.5t-37 -29.5 t-59 -11q-37 0 -63 9.5t-40 22.5t-25 26t-25.5 22.5t-33.5 9.5q-48 0 -60 -47h-61z" />
<glyph unicode="&#xd2;" horiz-adv-x="527" d="M278 735h20q40 0 61.5 -3.5t48 -22.5t39.5 -56t22.5 -106.5t9.5 -171.5t-9.5 -171.5t-22.5 -106.5t-39.5 -56t-48 -22.5t-61.5 -3.5h-20h-20q-28 0 -44.5 1.5t-38 8.5t-34 21t-26.5 40t-21 64.5t-11.5 94.5t-4.5 130t4.5 130t11.5 94.5t21 64.5t26.5 40t34 21t38 8.5 t44.5 1.5h20zM419 375q0 80 -7.5 134t-18 84t-30.5 45t-37.5 18.5t-47.5 3.5t-47 -3.5t-37.5 -18.5t-31 -45t-17.5 -84t-7 -134t7 -134t17.5 -84t31 -45t37.5 -18.5t47 -3.5t47.5 3.5t37.5 18.5t30.5 45t18 84t7.5 134zM120 965q0 8 6 14t12 6h1q9 0 22 -6.5t21 -13.5l9 -7 q38 -36 58 -56t39 -45t20 -41q0 -6 -2 -6h-1h-2q-41 0 -154 105q-28 29 -29 50z" />
<glyph unicode="&#xd3;" horiz-adv-x="527" d="M278 735h20q40 0 61.5 -3.5t48 -22.5t39.5 -56t22.5 -106.5t9.5 -171.5t-9.5 -171.5t-22.5 -106.5t-39.5 -56t-48 -22.5t-61.5 -3.5h-20h-20q-28 0 -44.5 1.5t-38 8.5t-34 21t-26.5 40t-21 64.5t-11.5 94.5t-4.5 130t4.5 130t11.5 94.5t21 64.5t26.5 40t34 21t38 8.5 t44.5 1.5h20zM419 375q0 80 -7.5 134t-18 84t-30.5 45t-37.5 18.5t-47.5 3.5t-47 -3.5t-37.5 -18.5t-31 -45t-17.5 -84t-7 -134t7 -134t17.5 -84t31 -45t37.5 -18.5t47 -3.5t47.5 3.5t37.5 18.5t30.5 45t18 84t7.5 134zM252 810h-1q-2 0 -2 6q1 16 20.5 42t38.5 44.5 t58 55.5q31 27 52 27h1q7 0 12.5 -6.5t5.5 -13.5q0 -10 -7.5 -22.5t-14.5 -20.5l-7 -7q-113 -105 -154 -105h-2z" />
<glyph unicode="&#xd4;" horiz-adv-x="527" d="M278 735h20q40 0 61.5 -3.5t48 -22.5t39.5 -56t22.5 -106.5t9.5 -171.5t-9.5 -171.5t-22.5 -106.5t-39.5 -56t-48 -22.5t-61.5 -3.5h-20h-20q-28 0 -44.5 1.5t-38 8.5t-34 21t-26.5 40t-21 64.5t-11.5 94.5t-4.5 130t4.5 130t11.5 94.5t21 64.5t26.5 40t34 21t38 8.5 t44.5 1.5h20zM419 375q0 80 -7.5 134t-18 84t-30.5 45t-37.5 18.5t-47.5 3.5t-47 -3.5t-37.5 -18.5t-31 -45t-17.5 -84t-7 -134t7 -134t17.5 -84t31 -45t37.5 -18.5t47 -3.5t47.5 3.5t37.5 18.5t30.5 45t18 84t7.5 134zM316 985l125 -175h-60l-103 131l-101 -131h-61 l126 175h74z" />
<glyph unicode="&#xd5;" horiz-adv-x="527" d="M278 735h20q40 0 61.5 -3.5t48 -22.5t39.5 -56t22.5 -106.5t9.5 -171.5t-9.5 -171.5t-22.5 -106.5t-39.5 -56t-48 -22.5t-61.5 -3.5h-20h-20q-28 0 -44.5 1.5t-38 8.5t-34 21t-26.5 40t-21 64.5t-11.5 94.5t-4.5 130t4.5 130t11.5 94.5t21 64.5t26.5 40t34 21t38 8.5 t44.5 1.5h20zM419 375q0 80 -7.5 134t-18 84t-30.5 45t-37.5 18.5t-47.5 3.5t-47 -3.5t-37.5 -18.5t-31 -45t-17.5 -84t-7 -134t7 -134t17.5 -84t31 -45t37.5 -18.5t47 -3.5t47.5 3.5t37.5 18.5t30.5 45t18 84t7.5 134zM64 852q2 17 8 32t18 34t37 30t59 11q37 0 63 -9.5 t40 -22.5t25 -26t25 -22.5t33 -9.5q27 0 41.5 14t18.5 31h61q-2 -16 -7.5 -31t-17.5 -33.5t-37 -29.5t-59 -11q-37 0 -63 9.5t-40 22.5t-25 26t-25.5 22.5t-33.5 9.5q-48 0 -60 -47h-61z" />
<glyph unicode="&#xd6;" horiz-adv-x="527" d="M278 735h20q40 0 61.5 -3.5t48 -22.5t39.5 -56t22.5 -106.5t9.5 -171.5t-9.5 -171.5t-22.5 -106.5t-39.5 -56t-48 -22.5t-61.5 -3.5h-20h-20q-28 0 -44.5 1.5t-38 8.5t-34 21t-26.5 40t-21 64.5t-11.5 94.5t-4.5 130t4.5 130t11.5 94.5t21 64.5t26.5 40t34 21t38 8.5 t44.5 1.5h20zM419 375q0 80 -7.5 134t-18 84t-30.5 45t-37.5 18.5t-47.5 3.5t-47 -3.5t-37.5 -18.5t-31 -45t-17.5 -84t-7 -134t7 -134t17.5 -84t31 -45t37.5 -18.5t47 -3.5t47.5 3.5t37.5 18.5t30.5 45t18 84t7.5 134zM404 904q29 0 37.5 -9t8.5 -38t-8.5 -38t-37.5 -9 t-38 9t-9 38t9 38t38 9zM154 904q29 0 37.5 -9t8.5 -38t-8.5 -38t-37.5 -9t-38 9t-9 38t9 38t38 9z" />
<glyph unicode="&#xd7;" horiz-adv-x="557" d="M305 455l139 -147l-44 -42l-126 148l-129 -148l-43 42l138 147l-138 157l42 42l130 -157l127 157l43 -42z" />
<glyph unicode="&#xd8;" horiz-adv-x="557" d="M199 45l-11 -30h-64l30 75l-5 7q-71 98 -71 278q0 74 4.5 130t11.5 94.5t21 64.5t26.5 40t34 21t38 8.5t44.5 1.5h20q33 0 68 -22l14 -9l10 31h63l-29 -76l5 -7q70 -96 70 -277q0 -102 -9.5 -171.5t-22.5 -106.5t-39.5 -56t-48 -22.5t-61.5 -3.5h-20q-31 0 -66 22z M331 656q-12 4 -37 4h-16q-30 0 -47 -3.5t-37.5 -19.5t-31 -47t-17.5 -88.5t-7 -141.5q0 -133 16 -203l12 -48l180 543zM402 593l-12 48l-179 -543l15 -4q17 -4 52 -4q30 0 47 3.5t37.5 19.5t31 47t18 88.5t7.5 141.5q0 128 -17 203z" />
<glyph unicode="&#xd9;" horiz-adv-x="527" d="M419 245v505h60v-505v-58q0 -42 -0.5 -64t-6.5 -42.5t-13 -28t-26.5 -14t-40 -7.5t-59.5 -1h-55q-56 0 -97 23t-60 51t-29.5 64.5t-12 51.5t-1.5 25v505h60v-505q0 -6 1 -16.5t8.5 -37.5t20.5 -47t42 -37t68 -17q53 0 77 3t41 21t20 45t3 86zM120 965q0 8 6 14t12 6h1 q9 0 22 -6.5t21 -13.5l9 -7q38 -36 58 -56t39 -45t20 -41q0 -6 -2 -6h-1h-2q-41 0 -154 105q-28 29 -29 50z" />
<glyph unicode="&#xda;" horiz-adv-x="527" d="M419 245v505h60v-505v-58q0 -42 -0.5 -64t-6.5 -42.5t-13 -28t-26.5 -14t-40 -7.5t-59.5 -1h-55q-56 0 -97 23t-60 51t-29.5 64.5t-12 51.5t-1.5 25v505h60v-505q0 -6 1 -16.5t8.5 -37.5t20.5 -47t42 -37t68 -17q53 0 77 3t41 21t20 45t3 86zM252 810h-1q-2 0 -2 6 q1 16 20.5 42t38.5 44.5t58 55.5q31 27 52 27h1q7 0 12.5 -6.5t5.5 -13.5q0 -10 -7.5 -22.5t-14.5 -20.5l-7 -7q-113 -105 -154 -105h-2z" />
<glyph unicode="&#xdb;" horiz-adv-x="527" d="M419 245v505h60v-505v-58q0 -42 -0.5 -64t-6.5 -42.5t-13 -28t-26.5 -14t-40 -7.5t-59.5 -1h-55q-56 0 -97 23t-60 51t-29.5 64.5t-12 51.5t-1.5 25v505h60v-505q0 -6 1 -16.5t8.5 -37.5t20.5 -47t42 -37t68 -17q53 0 77 3t41 21t20 45t3 86zM316 985l125 -175h-60 l-103 131l-101 -131h-61l126 175h74z" />
<glyph unicode="&#xdc;" horiz-adv-x="527" d="M419 245v505h60v-505v-58q0 -42 -0.5 -64t-6.5 -42.5t-13 -28t-26.5 -14t-40 -7.5t-59.5 -1h-55q-56 0 -97 23t-60 51t-29.5 64.5t-12 51.5t-1.5 25v505h60v-505q0 -6 1 -16.5t8.5 -37.5t20.5 -47t42 -37t68 -17q53 0 77 3t41 21t20 45t3 86zM404 904q29 0 37.5 -9 t8.5 -38t-8.5 -38t-37.5 -9t-38 9t-9 38t9 38t38 9zM154 904q29 0 37.5 -9t8.5 -38t-8.5 -38t-37.5 -9t-38 9t-9 38t9 38t38 9z" />
<glyph unicode="&#xdd;" horiz-adv-x="527" d="M245 15v364l-167 356h66l125 -283l124 283h68l-166 -357v-363h-50zM243 810h-1q-2 0 -2 6q1 16 20.5 42t38.5 44.5t58 55.5q31 27 52 27h1q7 0 12.5 -6.5t5.5 -13.5q0 -10 -7.5 -22.5t-14.5 -20.5l-7 -7q-113 -105 -154 -105h-2z" />
<glyph unicode="&#xde;" horiz-adv-x="557" d="M278 645q55 0 96 -19.5t60 -44.5t30.5 -57t13 -46t1.5 -23t-1.5 -23.5t-13 -46t-30.5 -56t-60 -44t-96 -19.5h-140v-251h-60v720h60v-90h140zM278 585h-140v-259h140q38 0 67 13.5t42.5 31t21.5 39t9 31t1 14.5t-1 15t-9 31.5t-21.5 39t-42.5 31t-67 13.5z" />
<glyph unicode="&#xdf;" horiz-adv-x="557" d="M292 30v60q57 4 92 42t35 105t-35 104.5t-92 41.5v61q45 5 75 37.5t30 85.5q0 57 -34 90t-83 33q-50 0 -85 -33t-35 -90v-537h-60v537q0 86 46 134.5t134 48.5q86 0 131 -48.5t45 -134.5q0 -13 -1 -24.5t-4 -22t-5 -18.5t-7.5 -17.5t-8 -14.5t-9.5 -14t-9 -11t-10 -11.5 t-9 -10.5l-9 -10l9 -10q6 -7 25 -24.5t30 -30.5t21 -42.5t10 -68.5q0 -82 -53.5 -142t-133.5 -65z" />
<glyph unicode="&#xe0;" horiz-adv-x="527" d="M273 220h-8q-127 0 -127 -65q0 -22 11 -36t32.5 -20t39 -7.5t43.5 -1.5h14h141v130h-146zM278 410q-65 0 -145 -36l-25 44q110 52 170 52q53 0 93 -15.5t60 -35.5t31.5 -47.5t14 -45t2.5 -33.5v-278h-201q-98 0 -149 31t-51 102q0 79 48 105.5t152 26.5h141v13 q0 117 -141 117zM120 715q0 8 6 14t12 6h1q9 0 22 -6.5t21 -13.5l9 -7q38 -36 58 -56t39 -45t20 -41q0 -6 -2 -6h-1h-2q-41 0 -154 105q-28 29 -29 50z" />
<glyph unicode="&#xe1;" horiz-adv-x="527" d="M273 220h-8q-127 0 -127 -65q0 -22 11 -36t32.5 -20t39 -7.5t43.5 -1.5h14h141v130h-146zM278 410q-65 0 -145 -36l-25 44q110 52 170 52q53 0 93 -15.5t60 -35.5t31.5 -47.5t14 -45t2.5 -33.5v-278h-201q-98 0 -149 31t-51 102q0 79 48 105.5t152 26.5h141v13 q0 117 -141 117zM252 560h-1q-2 0 -2 6q1 16 20.5 42t38.5 44.5t58 55.5q31 27 52 27h1q7 0 12.5 -6.5t5.5 -13.5q0 -10 -7.5 -22.5t-14.5 -20.5l-7 -7q-113 -105 -154 -105h-2z" />
<glyph unicode="&#xe2;" horiz-adv-x="527" d="M273 220h-8q-127 0 -127 -65q0 -22 11 -36t32.5 -20t39 -7.5t43.5 -1.5h14h141v130h-146zM278 410q-65 0 -145 -36l-25 44q110 52 170 52q53 0 93 -15.5t60 -35.5t31.5 -47.5t14 -45t2.5 -33.5v-278h-201q-98 0 -149 31t-51 102q0 79 48 105.5t152 26.5h141v13 q0 117 -141 117zM316 735l125 -175h-60l-103 131l-101 -131h-61l126 175h74z" />
<glyph unicode="&#xe3;" horiz-adv-x="527" d="M273 220h-8q-127 0 -127 -65q0 -22 11 -36t32.5 -20t39 -7.5t43.5 -1.5h14h141v130h-146zM278 410q-65 0 -145 -36l-25 44q110 52 170 52q53 0 93 -15.5t60 -35.5t31.5 -47.5t14 -45t2.5 -33.5v-278h-201q-98 0 -149 31t-51 102q0 79 48 105.5t152 26.5h141v13 q0 117 -141 117zM64 628q2 17 8 32t18 34t37 30t59 11q37 0 63 -9.5t40 -22.5t25 -26t25 -22.5t33 -9.5q27 0 41.5 14t18.5 31h61q-2 -16 -7.5 -31t-17.5 -33.5t-37 -29.5t-59 -11q-37 0 -63 9.5t-40 22.5t-25 26t-25.5 22.5t-33.5 9.5q-48 0 -60 -47h-61z" />
<glyph unicode="&#xe4;" horiz-adv-x="527" d="M273 220h-8q-127 0 -127 -65q0 -22 11 -36t32.5 -20t39 -7.5t43.5 -1.5h14h141v130h-146zM278 410q-65 0 -145 -36l-25 44q110 52 170 52q53 0 93 -15.5t60 -35.5t31.5 -47.5t14 -45t2.5 -33.5v-278h-201q-98 0 -149 31t-51 102q0 79 48 105.5t152 26.5h141v13 q0 117 -141 117zM404 675q29 0 37.5 -9t8.5 -38t-8.5 -38t-37.5 -9t-38 9t-9 38t9 38t38 9zM154 675q29 0 37.5 -9t8.5 -38t-8.5 -38t-37.5 -9t-38 9t-9 38t9 38t38 9z" />
<glyph unicode="&#xe5;" horiz-adv-x="527" d="M273 220h-8q-127 0 -127 -65q0 -22 11 -36t32.5 -20t39 -7.5t43.5 -1.5h14h141v130h-146zM278 410q-65 0 -145 -36l-25 44q110 52 170 52q53 0 93 -15.5t60 -35.5t31.5 -47.5t14 -45t2.5 -33.5v-278h-201q-98 0 -149 31t-51 102q0 79 48 105.5t152 26.5h141v13 q0 117 -141 117zM201 648q0 -3 1 -8t5.5 -13.5t12.5 -15.5t23 -12.5t35 -5.5t35.5 5.5t23 12.5t12.5 16t6 13.5t1 7.5v1q0 3 -1 8t-6 13.5t-12.5 15.5t-23 12t-35.5 5t-35.5 -5.5t-23 -12.5t-12 -16t-5.5 -13.5t-1 -7.5zM278 560q-30 0 -52 8.5t-32.5 19.5t-16.5 25t-7 21 t-1 13v1q0 5 1 11.5t7 21t16.5 25.5t32.5 20t52 9t52.5 -9t33.5 -20t17 -25t7 -21t1 -12t-1 -12t-7.5 -21.5t-17 -25.5t-33 -20t-52.5 -9z" />
<glyph unicode="&#xe6;" horiz-adv-x="557" d="M200 278h54v62q0 49 -10 69t-44 20q-51 0 -96 -32l-22 38q23 20 32.5 27t32.5 15t53 8q34 0 57 -26l12 -13l8 17q7 15 22 18.5t60 3.5h37q61 0 72 -30t11 -182v-23v-28h-175v-20q0 -89 21 -116t106 -27h48v-44h-279q-78 0 -100 22.5t-22 102.5q0 90 22 114t100 24z M200 222q-37 0 -57.5 -18t-20.5 -64t20 -63.5t58 -17.5h54v163h-54zM304 354v-76h131v15q0 88 -12.5 112t-63.5 24q-33 0 -44 -16t-11 -59z" />
<glyph unicode="&#xe7;" horiz-adv-x="557" d="M138 250q0 -67 39 -113.5t101 -46.5h2h8q116 0 130 70h61q-2 -43 -17 -72.5t-40.5 -43.5t-49.5 -20t-56 -7h-12v-86h15h3q67 0 67 -90q0 -32 -7.5 -51.5t-24.5 -27.5t-31 -10t-41 -2h-7h-80v32h80q70 0 70 59q0 57 -70 57h-24v103l-11 2q-76 13 -120.5 73t-44.5 159 q0 112 55 173.5t145 61.5q26 0 41.5 -1t42 -4t43 -11.5t34.5 -22t28 -37t12 -54.5h-61q-14 70 -127 70h-11h-2q-62 0 -101 -46.5t-39 -113.5z" />
<glyph unicode="&#xe8;" horiz-adv-x="527" d="M138 293v-13h281v13q0 33 -8 55.5t-19 34.5t-32 18.5t-37.5 7.5t-44.5 1q-35 0 -55 -3t-42.5 -13.5t-32.5 -35.5t-10 -65zM78 250q0 56 5 96.5t17.5 66t25 40.5t37 22t43 8.5t52.5 1.5h20h20q34 0 53 -1.5t43 -8.5t37 -22t25.5 -40.5t17.5 -66t5 -96.5v-30h-341v-13 q0 -40 10 -65t32.5 -35.5t42.5 -13.5t55 -3h156v-60h-156h-18q-29 0 -45.5 1t-39 5t-34.5 12.5t-26 24.5t-21 39.5t-11.5 58t-4.5 79.5zM120 715q0 8 6 14t12 6h1q9 0 22 -6.5t21 -13.5l9 -7q38 -36 58 -56t39 -45t20 -41q0 -6 -2 -6h-1h-2q-41 0 -154 105q-28 29 -29 50z " />
<glyph unicode="&#xe9;" horiz-adv-x="527" d="M138 293v-13h281v13q0 33 -8 55.5t-19 34.5t-32 18.5t-37.5 7.5t-44.5 1q-35 0 -55 -3t-42.5 -13.5t-32.5 -35.5t-10 -65zM78 250q0 56 5 96.5t17.5 66t25 40.5t37 22t43 8.5t52.5 1.5h20h20q34 0 53 -1.5t43 -8.5t37 -22t25.5 -40.5t17.5 -66t5 -96.5v-30h-341v-13 q0 -40 10 -65t32.5 -35.5t42.5 -13.5t55 -3h156v-60h-156h-18q-29 0 -45.5 1t-39 5t-34.5 12.5t-26 24.5t-21 39.5t-11.5 58t-4.5 79.5zM252 560h-1q-2 0 -2 6q1 16 20.5 42t38.5 44.5t58 55.5q31 27 52 27h1q7 0 12.5 -6.5t5.5 -13.5q0 -10 -7.5 -22.5t-14.5 -20.5l-7 -7 q-113 -105 -154 -105h-2z" />
<glyph unicode="&#xea;" horiz-adv-x="527" d="M138 293v-13h281v13q0 33 -8 55.5t-19 34.5t-32 18.5t-37.5 7.5t-44.5 1q-35 0 -55 -3t-42.5 -13.5t-32.5 -35.5t-10 -65zM78 250q0 56 5 96.5t17.5 66t25 40.5t37 22t43 8.5t52.5 1.5h20h20q34 0 53 -1.5t43 -8.5t37 -22t25.5 -40.5t17.5 -66t5 -96.5v-30h-341v-13 q0 -40 10 -65t32.5 -35.5t42.5 -13.5t55 -3h156v-60h-156h-18q-29 0 -45.5 1t-39 5t-34.5 12.5t-26 24.5t-21 39.5t-11.5 58t-4.5 79.5zM316 735l125 -175h-60l-103 131l-101 -131h-61l126 175h74z" />
<glyph unicode="&#xeb;" horiz-adv-x="527" d="M138 293v-13h281v13q0 33 -8 55.5t-19 34.5t-32 18.5t-37.5 7.5t-44.5 1q-35 0 -55 -3t-42.5 -13.5t-32.5 -35.5t-10 -65zM78 250q0 56 5 96.5t17.5 66t25 40.5t37 22t43 8.5t52.5 1.5h20h20q34 0 53 -1.5t43 -8.5t37 -22t25.5 -40.5t17.5 -66t5 -96.5v-30h-341v-13 q0 -40 10 -65t32.5 -35.5t42.5 -13.5t55 -3h156v-60h-156h-18q-29 0 -45.5 1t-39 5t-34.5 12.5t-26 24.5t-21 39.5t-11.5 58t-4.5 79.5zM404 675q29 0 37.5 -9t8.5 -38t-8.5 -38t-37.5 -9t-38 9t-9 38t9 38t38 9zM154 675q29 0 37.5 -9t8.5 -38t-8.5 -38t-37.5 -9t-38 9 t-9 38t9 38t38 9z" />
<glyph unicode="&#xec;" horiz-adv-x="557" d="M123 410v60h181v-380h175v-60h-401v60h176v320h-131zM135 715q0 8 6 14t12 6h1q9 0 22 -6.5t22 -13.5l8 -7q38 -36 58 -56t39 -45t20 -41q0 -6 -2 -6h-1h-2q-41 0 -154 105q-28 29 -29 50z" />
<glyph unicode="&#xed;" horiz-adv-x="557" d="M223 560h-1q-2 0 -2 6q1 16 20.5 42t38.5 44.5t58 55.5q31 27 52 27h1q7 0 12.5 -6.5t5.5 -13.5q0 -10 -7.5 -22.5t-14.5 -20.5l-7 -7q-113 -105 -154 -105h-2zM123 410v60h181v-380h175v-60h-401v60h176v320h-131z" />
<glyph unicode="&#xee;" horiz-adv-x="557" d="M123 410v60h181v-380h175v-60h-401v60h176v320h-131zM292 735l125 -175h-60l-103 131l-101 -131h-61l126 175h74z" />
<glyph unicode="&#xef;" horiz-adv-x="557" d="M123 410v60h181v-380h175v-60h-401v60h176v320h-131zM393 675q29 0 37.5 -9t8.5 -38t-8.5 -38t-37.5 -9t-38 9t-9 38t9 38t38 9zM143 675q29 0 37.5 -9t8.5 -38t-8.5 -38t-37.5 -9t-38 9t-9 38t9 38t38 9z" />
<glyph unicode="&#xf0;" horiz-adv-x="557" d="M419 393v36q0 113 -90 205l-7 7l-105 -72v54l73 48l-20 13q-19 13 -46 25l22 38q37 -18 72 -48l6 -6l89 51l18 -37l-76 -45l13 -14q111 -111 111 -258v-143q0 -91 -57.5 -154t-143.5 -63q-89 0 -144.5 59t-55.5 158t55.5 158.5t144.5 59.5q31 0 64.5 -15t50.5 -32z M138 247q0 -72 38.5 -114.5t101.5 -42.5q62 0 101.5 42.5t39.5 114.5t-39 115t-102 43t-101.5 -43t-38.5 -115z" />
<glyph unicode="&#xf1;" horiz-adv-x="527" d="M138 255v-255h-60v255v62q0 41 0.5 62t6.5 41.5t13 28t26.5 13.5t39.5 7t59 1h55q56 0 97 -23t60 -51t30 -64.5t12.5 -52t1.5 -24.5v-255h-60v255q0 6 -1 16.5t-8.5 37.5t-21 47t-42.5 37t-68 17q-36 0 -56 -1t-38 -7.5t-25.5 -15t-13 -28.5t-6.5 -41.5t-1 -61.5zM64 628 q2 17 8 32t18 34t37 30t59 11q37 0 63 -9.5t40 -22.5t25 -26t25 -22.5t33 -9.5q27 0 41.5 14t18.5 31h61q-2 -16 -7.5 -31t-17.5 -33.5t-37 -29.5t-59 -11q-37 0 -63 9.5t-40 22.5t-25 26t-25.5 22.5t-33.5 9.5q-48 0 -60 -47h-61z" />
<glyph unicode="&#xf2;" horiz-adv-x="527" d="M278 485h20q34 0 53 -1.5t43 -8.5t37 -22t25.5 -40.5t17.5 -66t5 -96.5t-5 -96.5t-17.5 -66t-25.5 -40.5t-37 -22t-43 -8.5t-53 -1.5h-20h-20q-34 0 -52.5 1.5t-43 8.5t-37 22t-25 40.5t-17.5 66t-5 96.5t5 96.5t17.5 66t25 40.5t37 22t43 8.5t52.5 1.5h20zM419 250 q0 45 -8 75.5t-19 47t-31.5 25t-37.5 10.5t-45 2t-45 -2t-37.5 -10.5t-31.5 -25t-18.5 -47t-7.5 -75.5t7.5 -75.5t18.5 -47t31.5 -25t37.5 -10.5t45 -2t45 2t37.5 10.5t31.5 25t19 47t8 75.5zM120 715q0 8 6 14t12 6h1q9 0 22 -6.5t21 -13.5l9 -7q38 -36 58 -56t39 -45 t20 -41q0 -6 -2 -6h-1h-2q-41 0 -154 105q-28 29 -29 50z" />
<glyph unicode="&#xf3;" horiz-adv-x="527" d="M278 485h20q34 0 53 -1.5t43 -8.5t37 -22t25.5 -40.5t17.5 -66t5 -96.5t-5 -96.5t-17.5 -66t-25.5 -40.5t-37 -22t-43 -8.5t-53 -1.5h-20h-20q-34 0 -52.5 1.5t-43 8.5t-37 22t-25 40.5t-17.5 66t-5 96.5t5 96.5t17.5 66t25 40.5t37 22t43 8.5t52.5 1.5h20zM419 250 q0 45 -8 75.5t-19 47t-31.5 25t-37.5 10.5t-45 2t-45 -2t-37.5 -10.5t-31.5 -25t-18.5 -47t-7.5 -75.5t7.5 -75.5t18.5 -47t31.5 -25t37.5 -10.5t45 -2t45 2t37.5 10.5t31.5 25t19 47t8 75.5zM252 560h-1q-2 0 -2 6q1 16 20.5 42t38.5 44.5t58 55.5q31 27 52 27h1 q7 0 12.5 -6.5t5.5 -13.5q0 -10 -7.5 -22.5t-14.5 -20.5l-7 -7q-113 -105 -154 -105h-2z" />
<glyph unicode="&#xf4;" horiz-adv-x="527" d="M278 485h20q34 0 53 -1.5t43 -8.5t37 -22t25.5 -40.5t17.5 -66t5 -96.5t-5 -96.5t-17.5 -66t-25.5 -40.5t-37 -22t-43 -8.5t-53 -1.5h-20h-20q-34 0 -52.5 1.5t-43 8.5t-37 22t-25 40.5t-17.5 66t-5 96.5t5 96.5t17.5 66t25 40.5t37 22t43 8.5t52.5 1.5h20zM419 250 q0 45 -8 75.5t-19 47t-31.5 25t-37.5 10.5t-45 2t-45 -2t-37.5 -10.5t-31.5 -25t-18.5 -47t-7.5 -75.5t7.5 -75.5t18.5 -47t31.5 -25t37.5 -10.5t45 -2t45 2t37.5 10.5t31.5 25t19 47t8 75.5zM316 735l125 -175h-60l-103 131l-101 -131h-61l126 175h74z" />
<glyph unicode="&#xf5;" horiz-adv-x="527" d="M278 485h20q34 0 53 -1.5t43 -8.5t37 -22t25.5 -40.5t17.5 -66t5 -96.5t-5 -96.5t-17.5 -66t-25.5 -40.5t-37 -22t-43 -8.5t-53 -1.5h-20h-20q-34 0 -52.5 1.5t-43 8.5t-37 22t-25 40.5t-17.5 66t-5 96.5t5 96.5t17.5 66t25 40.5t37 22t43 8.5t52.5 1.5h20zM419 250 q0 45 -8 75.5t-19 47t-31.5 25t-37.5 10.5t-45 2t-45 -2t-37.5 -10.5t-31.5 -25t-18.5 -47t-7.5 -75.5t7.5 -75.5t18.5 -47t31.5 -25t37.5 -10.5t45 -2t45 2t37.5 10.5t31.5 25t19 47t8 75.5zM64 628q2 17 8 32t18 34t37 30t59 11q37 0 63 -9.5t40 -22.5t25 -26t25 -22.5 t33 -9.5q27 0 41.5 14t18.5 31h61q-2 -16 -7.5 -31t-17.5 -33.5t-37 -29.5t-59 -11q-37 0 -63 9.5t-40 22.5t-25 26t-25.5 22.5t-33.5 9.5q-48 0 -60 -47h-61z" />
<glyph unicode="&#xf6;" horiz-adv-x="527" d="M278 485h20q34 0 53 -1.5t43 -8.5t37 -22t25.5 -40.5t17.5 -66t5 -96.5t-5 -96.5t-17.5 -66t-25.5 -40.5t-37 -22t-43 -8.5t-53 -1.5h-20h-20q-34 0 -52.5 1.5t-43 8.5t-37 22t-25 40.5t-17.5 66t-5 96.5t5 96.5t17.5 66t25 40.5t37 22t43 8.5t52.5 1.5h20zM419 250 q0 45 -8 75.5t-19 47t-31.5 25t-37.5 10.5t-45 2t-45 -2t-37.5 -10.5t-31.5 -25t-18.5 -47t-7.5 -75.5t7.5 -75.5t18.5 -47t31.5 -25t37.5 -10.5t45 -2t45 2t37.5 10.5t31.5 25t19 47t8 75.5zM404 675q29 0 37.5 -9t8.5 -38t-8.5 -38t-37.5 -9t-38 9t-9 38t9 38t38 9z M154 675q29 0 37.5 -9t8.5 -38t-8.5 -38t-37.5 -9t-38 9t-9 38t9 38t38 9z" />
<glyph unicode="&#xf7;" horiz-adv-x="557" d="M239 281q0 29 7.5 38t31.5 9q25 0 32.5 -9t7.5 -38q0 -28 -7.5 -37t-32.5 -9t-32 8.5t-7 37.5zM238 613q0 29 7.5 38t32.5 9q24 0 31.5 -9t7.5 -38t-7.5 -38t-31.5 -9q-25 0 -32.5 9t-7.5 38zM78 425v60h401v-60h-401z" />
<glyph unicode="&#xf8;" horiz-adv-x="557" d="M308 410h-30q-23 0 -37.5 -1.5t-33 -6.5t-29 -17t-21 -30.5t-15 -48.5t-4.5 -71q0 -121 44 -154l16 -12zM396 481q40 -16 61.5 -67.5t21.5 -163.5q0 -70 -9 -117t-22 -72.5t-39.5 -38t-48.5 -15t-63 -2.5h-19h-49l-41 -130h-64l51 138l-14 6q-40 16 -61.5 67.5 t-21.5 163.5q0 51 4.5 89t11.5 64t20.5 43.5t25.5 27t34.5 14.5t39 6t45.5 1h19h49l42 130h64l-51 -138zM359 431l-110 -341h29q28 0 45 2t37.5 11.5t32 27.5t19 51.5t7.5 82.5q0 121 -44 154z" />
<glyph unicode="&#xf9;" horiz-adv-x="527" d="M419 245v255h60v-255v-58q0 -42 -0.5 -64t-6.5 -42.5t-13 -28t-26.5 -14t-40 -7.5t-59.5 -1h-55q-56 0 -97 23t-60 51t-29.5 64.5t-12 51.5t-1.5 25v255h60v-255q0 -6 1 -16.5t8.5 -37.5t20.5 -47t42 -37t68 -17q53 0 77 3t41 21t20 45t3 86zM120 715q0 8 6 14t12 6h1 q9 0 22 -6.5t21 -13.5l9 -7q38 -36 58 -56t39 -45t20 -41q0 -6 -2 -6h-1h-2q-41 0 -154 105q-28 29 -29 50z" />
<glyph unicode="&#xfa;" horiz-adv-x="527" d="M419 245v255h60v-255v-58q0 -42 -0.5 -64t-6.5 -42.5t-13 -28t-26.5 -14t-40 -7.5t-59.5 -1h-55q-56 0 -97 23t-60 51t-29.5 64.5t-12 51.5t-1.5 25v255h60v-255q0 -6 1 -16.5t8.5 -37.5t20.5 -47t42 -37t68 -17q53 0 77 3t41 21t20 45t3 86zM252 560h-1q-2 0 -2 6 q1 16 20.5 42t38.5 44.5t58 55.5q31 27 52 27h1q7 0 12.5 -6.5t5.5 -13.5q0 -10 -7.5 -22.5t-14.5 -20.5l-7 -7q-113 -105 -154 -105h-2z" />
<glyph unicode="&#xfb;" horiz-adv-x="527" d="M419 245v255h60v-255v-58q0 -42 -0.5 -64t-6.5 -42.5t-13 -28t-26.5 -14t-40 -7.5t-59.5 -1h-55q-56 0 -97 23t-60 51t-29.5 64.5t-12 51.5t-1.5 25v255h60v-255q0 -6 1 -16.5t8.5 -37.5t20.5 -47t42 -37t68 -17q53 0 77 3t41 21t20 45t3 86zM316 735l125 -175h-60 l-103 131l-101 -131h-61l126 175h74z" />
<glyph unicode="&#xfc;" horiz-adv-x="527" d="M419 245v255h60v-255v-58q0 -42 -0.5 -64t-6.5 -42.5t-13 -28t-26.5 -14t-40 -7.5t-59.5 -1h-55q-56 0 -97 23t-60 51t-29.5 64.5t-12 51.5t-1.5 25v255h60v-255q0 -6 1 -16.5t8.5 -37.5t20.5 -47t42 -37t68 -17q53 0 77 3t41 21t20 45t3 86zM404 675q29 0 37.5 -9 t8.5 -38t-8.5 -38t-37.5 -9t-38 9t-9 38t9 38t38 9zM154 675q29 0 37.5 -9t8.5 -38t-8.5 -38t-37.5 -9t-38 9t-9 38t9 38t38 9z" />
<glyph unicode="&#xfd;" horiz-adv-x="527" d="M170 -250l75 235l-167 485h65l129 -399l129 399h65l-166 -480l-74 -240h-56zM282 560h-1q-2 0 -2 6q1 16 20.5 42t38.5 44.5t58 55.5q31 27 52 27h1q7 0 12.5 -6.5t5.5 -13.5q0 -10 -7.5 -22.5t-14.5 -20.5l-7 -7q-113 -105 -154 -105h-2z" />
<glyph unicode="&#xfe;" horiz-adv-x="557" d="M278 54q-45 0 -72.5 8t-32.5 16l-5 7h-30v-335h-60v1000h60v-335h30q1 3 5.5 8.5t32 14t72.5 8.5q55 0 96 -20.5t60 -46t30.5 -58t13 -47.5t1.5 -24t-1.5 -24t-13 -48t-30.5 -58t-60 -45.5t-96 -20.5zM138 320v-140q0 -5 2 -11t11 -15t23 -16.5t41 -12.5t63 -5 q39 0 67.5 14t42 31t21.5 39t9 31.5t1 14.5t-1 15t-9 31.5t-21.5 39t-42.5 31t-67 13.5q-36 0 -63 -5t-41 -12.5t-23 -16.5t-11 -15t-2 -11z" />
<glyph unicode="&#xff;" horiz-adv-x="527" d="M170 -250l75 235l-167 485h65l129 -399l129 399h65l-166 -480l-74 -240h-56zM398 675q29 0 37.5 -9t8.5 -38t-8.5 -38t-37.5 -9t-38 9t-9 38t9 38t38 9zM148 675q29 0 37.5 -9t8.5 -38t-8.5 -38t-37.5 -9t-38 9t-9 38t9 38t38 9z" />
<glyph unicode="&#x131;" horiz-adv-x="557" d="M123 410v60h181v-380h175v-60h-401v60h176v320h-131z" />
<glyph unicode="&#x152;" horiz-adv-x="557" d="M291 687v33h188v-60h-138v-255h93v-60h-93v-255h138v-60h-188v21l-19 -11q-17 -10 -53 -10h-11q-18 0 -29.5 2.5t-28.5 12t-28 32.5t-22 59.5t-16.5 97t-5.5 141.5t5.5 141.5t16.5 97t22 59.5t28 32.5t28.5 12t29.5 2.5h11q44 0 50 -8zM291 375q0 77 -5 132.5t-12 84 t-18 45t-19 20t-18 3.5q-11 0 -20 -3.5t-21 -20t-20 -45t-14 -84t-6 -132.5t6 -132.5t14 -84t20 -45t21 -20t20 -3.5q12 0 20.5 3.5t19 20t17 45.5t11 84t4.5 132z" />
<glyph unicode="&#x153;" horiz-adv-x="557" d="M304 354v-76h131v15q0 88 -12.5 112t-63.5 24q-33 0 -44 -16t-11 -59zM254 250q0 121 -9 150t-50 29q-46 0 -59.5 -31.5t-13.5 -147.5q0 -124 11 -157.5t62 -33.5q41 0 50 33.5t9 157.5zM479 222h-175v-20q0 -47 3 -70t16 -42t38 -25t70 -6h48v-44q-131 1 -187 19l-8 3 l-5 -7q-12 -15 -84 -15h-37q-21 0 -32.5 1t-22 8t-14.5 15t-7 30.5t-3.5 45.5t-0.5 67v68v68q0 44 0.5 67t3.5 45.5t7 30.5t14.5 15t22 8t32.5 1h37q24 0 51.5 -8t35.5 -8h3l3 2q20 14 71 14h37q61 0 72 -30t11 -182v-23v-28z" />
<glyph unicode="&#x160;" horiz-adv-x="527" d="M278 367h-15q-42 0 -64 2t-49.5 11.5t-40.5 28.5t-22 55t-9 89q0 34 4.5 60.5t11.5 44t21 29.5t26 18.5t34.5 10t39.5 4t47 0.5h16q97 0 147 -31.5t54 -114.5h-60q-2 37 -19.5 57t-38 24.5t-53.5 4.5h-30q-35 0 -54.5 -2.5t-42.5 -12t-33 -32t-10 -59.5q0 -45 6 -70 t24.5 -38t41 -16t68.5 -3h3h15q30 0 46.5 -0.5t39 -4.5t34.5 -11t26 -20.5t21 -33.5t11.5 -49t4.5 -68q0 -43 -4.5 -76t-11.5 -55.5t-21 -37.5t-26 -23t-34.5 -12t-39 -5t-45.5 -1h-19h-10q-31 0 -47.5 0.5t-40 3.5t-35.5 8.5t-26.5 15.5t-21.5 26t-12.5 39t-6.5 53h60 q2 -25 11 -41.5t20 -25.5t31.5 -13.5t35 -5t40.5 -0.5h2q35 0 55.5 3.5t43 17t32.5 45.5t10 83q0 45 -6 70.5t-24 38.5t-40 16t-66 3h-5zM316 810h-74l-126 175h61l101 -131l103 131h60z" />
<glyph unicode="&#x161;" horiz-adv-x="527" d="M419 155q0 19 -8.5 32t-18.5 19t-31 9.5t-35 4t-40 0.5h-11q-32 0 -48 0.5t-44 4t-43 11t-31 20.5t-23.5 34.5t-7.5 51.5q0 31 5 53.5t18.5 36.5t26.5 22t40 11.5t46 4t58 0.5h6q40 0 58.5 -0.5t46.5 -3.5t40.5 -10t27 -19.5t21 -32.5t7.5 -48h-61q-4 19 -14.5 30.5 t-29.5 16t-35 6t-43 1.5h-18h-12q-25 0 -39.5 -0.5t-34 -4t-29.5 -10t-17.5 -19.5t-7.5 -31q0 -19 8 -32t18.5 -19t31.5 -9.5t34.5 -4t39.5 -0.5h11q32 0 48.5 -0.5t44 -4t42.5 -11t31.5 -20.5t24 -34.5t7.5 -51.5q0 -37 -9.5 -62t-22.5 -38t-42.5 -19.5t-52 -7.5t-68.5 -1 h-6h-39.5t-34 1t-32 3t-26.5 6t-23.5 9.5t-17 14t-14 20t-8.5 26.5t-5 34h61q3 -19 13.5 -30.5t29.5 -16t35 -6t43 -1.5h18h12q25 0 39.5 0.5t34 4t30 10t18 19.5t7.5 31zM316 560h-74l-126 175h61l101 -131l103 131h60z" />
<glyph unicode="&#x178;" horiz-adv-x="527" d="M245 15v364l-167 356h66l125 -283l124 283h68l-166 -357v-363h-50zM395 904q29 0 37.5 -9t8.5 -38t-8.5 -38t-37.5 -9t-38 9t-9 38t9 38t38 9zM145 904q29 0 37.5 -9t8.5 -38t-8.5 -38t-37.5 -9t-38 9t-9 38t9 38t38 9z" />
<glyph unicode="&#x17d;" horiz-adv-x="527" d="M479 90v-60h-392l288 630h-297v60h392q-113 -223 -279 -610l-10 -20h298zM316 810h-74l-126 175h61l101 -131l103 131h60z" />
<glyph unicode="&#x17e;" horiz-adv-x="527" d="M220 112l-14 -22h273v-60h-387q102 134 245 358l14 22h-273v60h387q-102 -134 -245 -358zM316 560h-74l-126 175h61l101 -131l103 131h60z" />
<glyph unicode="&#x2c6;" d="M346 735l125 -175h-60l-103 131l-101 -131h-61l126 175h74z" />
<glyph unicode="&#x2c7;" d="M346 560h-74l-126 175h61l101 -131l103 131h60z" />
<glyph unicode="&#x2da;" d="M231 648q0 -3 1 -8t5.5 -13.5t12.5 -15.5t23 -12.5t35 -5.5t35.5 5.5t23 12.5t12.5 16t6 13.5t1 7.5v1q0 3 -1 8t-6 13.5t-12.5 15.5t-23 12t-35.5 5t-35.5 -5.5t-23 -12.5t-12 -16t-5.5 -13.5t-1 -7.5zM308 560q-30 0 -52 8.5t-32.5 19.5t-16.5 25t-7 21t-1 13v1 q0 5 1 11.5t7 21t16.5 25.5t32.5 20t52 9t52.5 -9t33.5 -20t17 -25t7 -21t1 -12t-1 -12t-7.5 -21.5t-17 -25.5t-33 -20t-52.5 -9z" />
<glyph unicode="&#x2010;" d="M93 360h431v-60h-431v60z" />
<glyph unicode="&#x2011;" d="M93 360h431v-60h-431v60z" />
<glyph unicode="&#x2012;" d="M93 360h431v-60h-431v60z" />
<glyph unicode="&#x2013;" d="M93 360h431v-60h-431v60z" />
<glyph unicode="&#x2014;" d="M15 360h587v-60h-587v60z" />
<glyph unicode="&#x2015;" d="M15 360h587v-60h-587v60z" />
<glyph unicode="&#x2022;" d="M308 497q8 0 20.5 -1t40.5 -10.5t50 -25t39.5 -50t17.5 -80.5q0 -47 -17.5 -81t-39.5 -50t-50.5 -25.5t-40.5 -10.5t-20 -1t-20.5 1t-40.5 10.5t-49.5 25.5t-39 50t-17.5 81q0 34 9 61t23 44t32.5 29.5t34.5 18.5t33 9.5t24 4t11 0.5z" />
<glyph unicode="&#x2026;" d="M89 165q27 0 51 -24t24 -51t-24 -51t-51 -24t-50.5 24t-23.5 51t23.5 51t50.5 24zM527 165q27 0 51 -24t24 -51t-24 -51t-51 -24t-50.5 24t-23.5 51t23.5 51t50.5 24zM308 165q27 0 51 -24t24 -51t-24 -51t-51 -24t-50.5 24t-23.5 51t23.5 51t50.5 24z" />
<glyph unicode="&#x20ac;" d="M524 145q-2 -27 -10.5 -48t-20 -34.5t-31 -23t-34 -14t-40 -7t-40 -3t-40.5 -0.5q-51 0 -88.5 17t-67 57t-44.5 111.5t-15 174.5t15 174.5t44.5 111.5t67 57t88.5 17q36 0 57 -1t54 -8t52 -19.5t34.5 -38.5t18.5 -63h-61q-14 70 -140 70h-13h-2q-121 0 -147 -173l-2 -17 h228v-60h-234v-100h234v-60h-228l2 -17q26 -173 147 -173h2h10q129 0 143 70h61z" />
<glyph unicode="&#x2219;" d="M308 497q8 0 20.5 -1t40.5 -10.5t50 -25t39.5 -50t17.5 -80.5q0 -47 -17.5 -81t-39.5 -50t-50.5 -25.5t-40.5 -10.5t-20 -1t-20.5 1t-40.5 10.5t-49.5 25.5t-39 50t-17.5 81q0 34 9 61t23 44t32.5 29.5t34.5 18.5t33 9.5t24 4t11 0.5z" />
<glyph unicode="&#x2580;" d="M15 860h587v-470h-587v470z" />
<glyph unicode="&#x2581;" d="M15 -234h587v-126h-587v126z" />
<glyph unicode="&#x2582;" d="M15 -77h587v-283h-587v283z" />
<glyph unicode="&#x2583;" d="M15 79h587v-439h-587v439z" />
<glyph unicode="&#x2584;" d="M15 235h587v-595h-587v595z" />
<glyph unicode="&#x2585;" d="M15 391h587v-751h-587v751z" />
<glyph unicode="&#x2586;" d="M15 548h587v-908h-587v908z" />
<glyph unicode="&#x2587;" d="M15 703h587v-1063h-587v1063z" />
<glyph unicode="&#x2588;" d="M15 860h587v-1220h-587v1220z" />
<glyph unicode="&#x2589;" d="M15 860h510v-1220h-510v1220z" />
<glyph unicode="&#x258a;" d="M15 860h433v-1220h-433v1220z" />
<glyph unicode="&#x258b;" d="M15 860h356v-1220h-356v1220z" />
<glyph unicode="&#x258c;" d="M15 860h279v-1220h-279v1220z" />
<glyph unicode="&#x258d;" d="M15 860h201v-1220h-201v1220z" />
<glyph unicode="&#x258e;" d="M15 860h124v-1220h-124v1220z" />
<glyph unicode="&#x258f;" d="M15 860h47v-1220h-47v1220z" />
<glyph unicode="&#x2590;" d="M323 860h279v-1220h-279v1220z" />
<glyph unicode="&#x25a0;" d="M15 602h587v-587h-587v587z" />
<glyph unicode="&#x25a1;" d="M45 572v-527h527v527h-527zM15 602h587v-587h-587v587z" />
<glyph unicode="&#x25a3;" d="M45 572v-527h527v527h-527zM15 602h587v-587h-587v587zM174 444h270v-270h-270v270z" />
<glyph unicode="&#x25aa;" d="M149 535h320v-320h-320v320z" />
<glyph unicode="&#x25ab;" d="M184 500v-250h250v250h-250zM174 510h270v-270h-270v270z" />
<glyph unicode="&#x25b2;" d="M308 583l285 -568h-569z" />
<glyph unicode="&#x25b3;" d="M308 514l-235 -469h471zM308 583l285 -568h-569z" />
<glyph unicode="&#x25b4;" d="M308 516l152 -301h-302z" />
<glyph unicode="&#x25b5;" d="M308 469l-109 -219h220zM308 491l127 -251h-252z" />
<glyph unicode="&#x25b6;" d="M583 375l-568 -285v569z" />
<glyph unicode="&#x25b7;" d="M514 375l-469 235v-471zM583 375l-568 -285v569z" />
<glyph unicode="&#x25b8;" d="M450 375l-301 -152v302z" />
<glyph unicode="&#x25b9;" d="M403 375l-219 109v-220zM425 375l-251 -127v252z" />
<glyph unicode="&#x25ba;" d="M562 375l-547 -156v310z" />
<glyph unicode="&#x25bb;" d="M455 375l-410 114v-230zM562 375l-547 -156v310z" />
<glyph unicode="&#x25bc;" d="M309 34l-285 568h569z" />
<glyph unicode="&#x25bd;" d="M309 103l235 469h-471zM309 34l-285 568h569z" />
<glyph unicode="&#x25be;" d="M310 234l-152 301h302z" />
<glyph unicode="&#x25bf;" d="M310 281l109 219h-220zM310 259l-127 251h252z" />
<glyph unicode="&#x25c0;" d="M34 374l568 285v-569z" />
<glyph unicode="&#x25c1;" d="M103 374l469 -235v471zM34 374l568 285v-569z" />
<glyph unicode="&#x25c2;" d="M168 373l301 152v-302z" />
<glyph unicode="&#x25c3;" d="M215 373l219 -109v220zM193 373l251 127v-252z" />
<glyph unicode="&#x25c4;" d="M55 373l547 156v-310z" />
<glyph unicode="&#x25c5;" d="M162 373l410 -114v230zM55 373l547 156v-310z" />
<glyph unicode="&#x25cf;" d="M308 610q6 0 15.5 -0.5t33.5 -5.5t46.5 -13t49 -26t46 -41.5t32.5 -62t13 -86.5t-13 -86.5t-32.5 -62t-46 -41.5t-49 -26t-47 -13t-33.5 -5.5t-15 -0.5t-15.5 0.5t-33.5 5.5t-46 13t-48.5 26t-45.5 41.5t-32 62t-13 86.5t13 86.5t32 62t45.5 41.5t49 26t46.5 13t33 5.5 t15 0.5z" />
<glyph unicode="&#x25fb;" d="M104 580v-410h410v410h-410zM74 610h470v-470h-470v470z" />
<glyph unicode="&#x25fc;" horiz-adv-x="485" d="M0 485h485v-485h-485v485z" />
<glyph unicode="&#x25fd;" d="M159 525v-300h300v300h-300zM149 535h320v-320h-320v320z" />
<glyph unicode="&#x25fe;" d="M174 510h270v-270h-270v270z" />
<glyph unicode="&#x26a1;" d="M323 285h184l-343 -453l129 383h-183l343 452z" />
<glyph unicode="&#xe0a0;" d="M233 -393h-131v270q0 103 43 165q31 45 95 87l88 59q58 37 81 87q23 49 23 130v210h-104l138 164l138 -164h-105v-243q0 -111 -29 -167q-30 -57 -88 -96l-44 -30q-57 -38 -80 -79q-25 -43 -25 -123v-270zM233 301l-131 -85v730h131v-645z" />
<glyph unicode="&#xe0a1;" d="M393 363v-48h-265v502h60v-454h205zM426 237h63v-503h-73l-171 417l15 -316v-101h-62v503h71l173 -417l-16 338v79z" />
<glyph unicode="&#xe0a2;" d="M154 -177q-36 0 -51.5 15.5t-15.5 52.5v408q0 40 13.5 57t42.5 17h15v196q0 75 45 125q42 47 106 47t106 -47q45 -49 45 -125v-196h15q29 0 42 -16.5t13 -57.5v-408q0 -37 -15.5 -52.5t-51.5 -15.5h-309zM309 694q-45 0 -75 -36q-27 -33 -27 -89v-196h203v196 q0 56 -27 89q-30 36 -74 36zM356 -67v197q40 27 40 74q0 38 -25 63q-26 26 -62 26t-62 -26t-26 -63q0 -47 40 -74v-197h95z" />
<glyph unicode="&#xe0b0;" d="M15 922l582 -648l-582 -649v1297z" />
<glyph unicode="&#xe0b1;" d="M-12 879l34 35l575 -640l-574 -640l-35 35l541 605z" />
<glyph unicode="&#xe0b2;" d="M601 -375l-581 649l581 648v-1297z" />
<glyph unicode="&#xe0b3;" d="M88 274l541 -605l-35 -35l-574 640l575 640l34 -35z" />
</font>
</defs>
</svg>
